<svg width="328" height="242" viewBox="0 0 328 242" fill="none" xmlns="http://www.w3.org/2000/svg">
<path fill-rule="evenodd" clip-rule="evenodd" d="M182.159 2.2249C143.786 -3.66101 103.709 1.59776 72.3538 24.4239C35.7492 51.0716 -5.53979 89.2263 1.28522 133.899C7.99686 177.829 62.6097 192.515 101.383 214.432C126.601 228.687 153.291 233.49 182.159 236.138C215.733 239.218 251.779 250.163 279.306 230.753C309.943 209.15 330.651 171.149 327.155 133.899C323.825 98.4163 289.108 77.6158 262.682 53.6179C238.189 31.3751 214.905 7.24766 182.159 2.2249Z" fill="#ECEEF1"/>
<path d="M227.987 72.6294V207.179H227.62L217.438 197.273L207.256 207.179H206.19L196.008 197.273L185.808 207.179H184.761L174.597 197.291L164.434 207.179H163.386L153.205 197.273L143.023 207.179H141.957L131.775 197.273L121.593 207.179H120.527L110.364 197.291L100.201 207.179H99.5391V35.229H190.587L227.987 72.6294Z" fill="white"/>
<path d="M141.531 134V129.148H127.557L127.539 125.229L140.986 106.895H146.963L146.945 124.49H150.777V129.148H146.945V134H141.531ZM134.518 124.525H141.531V113.908L134.518 124.525Z" fill="#30CA4C"/>
<path d="M164.102 134.686C160.586 134.686 157.844 133.443 155.875 130.959C153.906 128.475 152.922 125.023 152.922 120.605C152.922 116.152 153.906 112.678 155.875 110.182C157.844 107.686 160.586 106.438 164.102 106.438C167.629 106.438 170.377 107.68 172.346 110.164C174.326 112.648 175.316 116.111 175.316 120.553C175.316 124.994 174.326 128.463 172.346 130.959C170.377 133.443 167.629 134.686 164.102 134.686ZM164.102 129.711C165.93 129.711 167.354 128.902 168.373 127.285C169.393 125.668 169.902 123.418 169.902 120.535C169.902 117.664 169.387 115.426 168.355 113.82C167.336 112.215 165.912 111.412 164.084 111.412C162.279 111.412 160.867 112.221 159.848 113.838C158.84 115.443 158.336 117.682 158.336 120.553C158.336 123.436 158.84 125.686 159.848 127.303C160.867 128.908 162.285 129.711 164.102 129.711Z" fill="#30CA4C"/>
<path d="M191.172 134V129.148H177.197L177.18 125.229L190.627 106.895H196.604L196.586 124.49H200.418V129.148H196.586V134H191.172ZM184.158 124.525H191.172V113.908L184.158 124.525Z" fill="#30CA4C"/>
<path d="M227.986 72.6294H190.586V35.229L227.986 72.6294Z" fill="#CCD3DD"/>
<path d="M164.663 224.123C163.493 225.293 161.592 225.293 160.41 224.123L142.167 205.88L139.852 203.565C141.533 202.456 142.983 201.005 144.105 199.312L164.663 219.87C165.833 221.052 165.833 222.953 164.663 224.123Z" fill="#30CA4C"/>
<path opacity="0.2" d="M145.03 200.237L149.783 204.99C148.674 206.672 147.224 208.122 145.53 209.243L143.093 206.806L140.777 204.49C142.471 203.381 143.909 201.931 145.03 200.237Z" fill="#212531"/>
<path d="M149.757 190.341C149.721 189.574 149.648 188.818 149.514 188.075C148.795 183.858 146.626 180.141 143.542 177.448C140.362 174.682 136.206 173 131.66 173C121.655 173 113.539 181.116 113.539 191.121C113.539 191.816 113.576 192.498 113.649 193.169C113.88 195.277 114.49 197.276 115.379 199.104C116.671 201.724 118.572 203.99 120.912 205.709C121.29 205.989 121.68 206.257 122.082 206.501C124.86 208.231 128.139 209.231 131.66 209.231C135.585 209.231 139.204 207.988 142.177 205.867C143.823 204.697 145.261 203.259 146.431 201.614C147.6 199.969 148.514 198.116 149.087 196.118C149.55 194.521 149.794 192.84 149.794 191.109C149.782 190.865 149.77 190.597 149.757 190.341ZM131.66 206.026C128.407 206.026 125.384 204.978 122.935 203.198C120.559 201.48 118.706 199.067 117.67 196.252C117.085 194.656 116.768 192.925 116.768 191.121C116.768 190.439 116.817 189.781 116.903 189.123C117.646 183.602 121.412 179.032 126.481 177.156C128.09 176.558 129.845 176.229 131.66 176.229C132.319 176.229 132.964 176.266 133.598 176.351C136.62 176.741 139.35 178.045 141.519 179.959C144.603 182.688 146.54 186.673 146.54 191.121C146.54 191.353 146.54 191.572 146.528 191.804C146.479 192.901 146.309 193.961 146.041 194.985C145.626 196.544 144.956 198.007 144.091 199.323C142.982 201.005 141.532 202.455 139.838 203.576C139.423 203.844 138.997 204.1 138.558 204.332C137.62 204.831 136.608 205.221 135.56 205.502C134.329 205.843 133.013 206.026 131.66 206.026Z" fill="#30CA4C"/>
<path d="M120.378 192.767C119.61 192.767 118.988 192.145 118.988 191.378C118.988 187.929 120.329 184.687 122.766 182.238C125.203 179.8 128.445 178.46 131.906 178.46C132.674 178.46 133.295 179.081 133.295 179.849C133.295 180.617 132.674 181.239 131.906 181.239C129.201 181.239 126.654 182.299 124.74 184.212C122.827 186.125 121.767 188.672 121.767 191.378C121.767 192.145 121.145 192.767 120.378 192.767Z" fill="white"/>
</svg>
