<svg width="26" height="26" viewBox="0 0 26 26" fill="none" xmlns="http://www.w3.org/2000/svg">
<g opacity="0.3">
<path d="M12.9993 2.16675C7.02588 2.16675 2.16602 7.02662 2.16602 13.0001C2.16602 18.9735 7.02588 23.8334 12.9993 23.8334C18.9728 23.8334 23.8327 18.9735 23.8327 13.0001C23.8327 7.02662 18.9728 2.16675 12.9993 2.16675ZM12.9993 3.79175C18.0946 3.79175 22.2077 7.90483 22.2077 13.0001C22.2077 18.0953 18.0946 22.2084 12.9993 22.2084C7.9041 22.2084 3.79102 18.0953 3.79102 13.0001C3.79102 7.90483 7.9041 3.79175 12.9993 3.79175ZM12.9867 7.57178C12.7713 7.57514 12.5662 7.66383 12.4162 7.81835C12.2663 7.97288 12.1838 8.18061 12.1868 8.39591V12.1876H8.39518C8.28752 12.1861 8.18062 12.2059 8.08071 12.2461C7.9808 12.2862 7.88986 12.3459 7.81319 12.4215C7.73651 12.497 7.67563 12.5871 7.63407 12.6865C7.59251 12.7858 7.57111 12.8924 7.57111 13.0001C7.57111 13.1078 7.59251 13.2144 7.63407 13.3137C7.67563 13.413 7.73651 13.5031 7.81319 13.5787C7.88986 13.6543 7.9808 13.7139 8.08071 13.7541C8.18062 13.7942 8.28752 13.8141 8.39518 13.8126H12.1868V17.6042C12.1853 17.7119 12.2052 17.8188 12.2454 17.9187C12.2855 18.0186 12.3451 18.1096 12.4207 18.1862C12.4963 18.2629 12.5864 18.3238 12.6857 18.3654C12.7851 18.4069 12.8917 18.4283 12.9993 18.4283C13.107 18.4283 13.2136 18.4069 13.313 18.3654C13.4123 18.3238 13.5024 18.2629 13.578 18.1862C13.6536 18.1096 13.7132 18.0186 13.7533 17.9187C13.7935 17.8188 13.8134 17.7119 13.8118 17.6042V13.8126H17.6035C17.7112 13.8141 17.8181 13.7942 17.918 13.7541C18.0179 13.7139 18.1088 13.6543 18.1855 13.5787C18.2622 13.5031 18.3231 13.413 18.3646 13.3137C18.4062 13.2144 18.4276 13.1078 18.4276 13.0001C18.4276 12.8924 18.4062 12.7858 18.3646 12.6865C18.3231 12.5871 18.2622 12.497 18.1855 12.4215C18.1088 12.3459 18.0179 12.2862 17.918 12.2461C17.8181 12.2059 17.7112 12.1861 17.6035 12.1876H13.8118V8.39591C13.8134 8.28717 13.7931 8.17921 13.7522 8.07845C13.7113 7.97768 13.6505 7.88616 13.5736 7.80931C13.4966 7.73245 13.405 7.67183 13.3042 7.63103C13.2034 7.59023 13.0954 7.57008 12.9867 7.57178Z" fill="#212531"/>
</g>
</svg>
