<svg width="26" height="26" viewBox="0 0 26 26" fill="none" xmlns="http://www.w3.org/2000/svg">
<path fill-rule="evenodd" clip-rule="evenodd" d="M12.5356 4.5732C14.9448 4.5732 16.8719 6.48823 16.8719 8.81884C16.8719 11.1495 14.9448 13.0645 12.5356 13.0645C10.1264 13.0645 8.19934 11.1495 8.19934 8.81884C8.19934 6.48823 10.1264 4.5732 12.5356 4.5732ZM18.5897 8.81884C18.5897 5.51111 15.8649 2.85535 12.5356 2.85535C9.20633 2.85535 6.48149 5.51111 6.48149 8.81884C6.48149 12.1266 9.20633 14.7823 12.5356 14.7823C15.8649 14.7823 18.5897 12.1266 18.5897 8.81884ZM12.5356 18.4015C16.8741 18.4015 20.5993 20.5574 22.4797 23.6595C22.7256 24.0652 23.2537 24.1947 23.6594 23.9488C24.0651 23.7029 24.1946 23.1747 23.9487 22.769C21.7354 19.1176 17.4318 16.6836 12.5356 16.6836C7.63939 16.6836 3.33582 19.1176 1.12252 22.769C0.876625 23.1747 1.00615 23.7029 1.41181 23.9488C1.81748 24.1947 2.34568 24.0652 2.59157 23.6595C4.47191 20.5574 8.19714 18.4015 12.5356 18.4015Z" fill="#212531"/>
</svg>
