<svg width="22" height="22" viewBox="0 0 22 22" fill="none" xmlns="http://www.w3.org/2000/svg">
<path d="M6.4165 8.02087C6.4165 6.88192 5.49296 5.95837 4.354 5.95837C3.21505 5.95837 2.2915 6.88192 2.2915 8.02087C2.2915 8.88575 2.2915 17.2389 2.2915 18.1042C2.2915 19.2432 3.21505 20.1667 4.354 20.1667C5.49296 20.1667 6.4165 19.2432 6.4165 18.1042C6.4165 17.2389 6.4165 8.88575 6.4165 8.02087ZM19.7082 3.89587C19.7082 2.75692 18.7846 1.83337 17.6457 1.83337C16.5067 1.83337 15.5832 2.75692 15.5832 3.89587C15.5832 4.76075 15.5832 17.2389 15.5832 18.1042C15.5832 19.2432 16.5067 20.1667 17.6457 20.1667C18.7846 20.1667 19.7082 19.2432 19.7082 18.1042C19.7082 17.2389 19.7082 4.76075 19.7082 3.89587ZM13.0623 12.1459C13.0623 11.0069 12.1388 10.0834 10.9998 10.0834C9.86088 10.0834 8.93734 11.0069 8.93734 12.1459C8.93734 13.0107 8.93734 17.2389 8.93734 18.1042C8.93734 19.2432 9.86088 20.1667 10.9998 20.1667C12.1388 20.1667 13.0623 19.2432 13.0623 18.1042C13.0623 17.2389 13.0623 13.0107 13.0623 12.1459Z" fill="#212531"/>
</svg>
