<svg width="27" height="27" viewBox="0 0 27 27" fill="none" xmlns="http://www.w3.org/2000/svg">
<g clip-path="url(#clip0_193_319)">
<path d="M7.17517 4.37324L3.72802 7.82039C3.41089 8.13752 3.4105 8.65191 3.72802 8.96943L11.5799 16.8213L8.70723 19.6939C8.48049 19.9206 8.40848 20.26 8.52339 20.5595C8.63829 20.859 8.91828 21.0632 9.23886 21.0796L20.1598 21.6591C20.6198 21.684 21.0388 21.265 21.0139 20.805L20.4344 9.88408C20.4176 9.56387 20.2138 9.28351 19.9143 9.1686C19.6148 9.0537 19.2754 9.1257 19.0487 9.35245L16.176 12.2251L8.32422 4.37324C8.0067 4.05572 7.49231 4.0561 7.17517 4.37324Z" fill="#F8444F"/>
</g>
<defs>
<clipPath id="clip0_193_319">
<rect width="26" height="26" fill="white" transform="translate(0.109375 0.75)"/>
</clipPath>
</defs>
</svg>
