<svg width="59" height="59" viewBox="0 0 59 59" fill="none" xmlns="http://www.w3.org/2000/svg">
<path opacity="0.2" d="M19.5976 58.2625C15.7517 58.2649 12.0283 56.9102 9.08315 54.4368C6.13805 51.9634 4.1602 48.5301 3.49799 44.7416L0.245616 26.3312C-0.502732 22.0577 0.474658 17.6618 2.96335 14.1081C5.45205 10.5543 9.2488 8.13287 13.5206 7.37498L36.5429 3.31627C37.4854 3.15234 38.4404 3.07009 39.397 3.07044C43.243 3.06799 46.9664 4.42276 49.9115 6.89613C52.8566 9.36949 54.8345 12.8028 55.4967 16.5913L58.754 35.0066C59.5064 39.2806 58.5306 43.6785 56.0412 47.2332C53.5518 50.788 49.7526 53.2086 45.479 53.9629L22.4517 58.0166C21.51 58.1805 20.5535 58.2627 19.5976 58.2625Z" fill="#1A1A1A"/>
<path d="M19.5976 55.9345C15.7517 55.9369 12.0283 54.5821 9.08315 52.1088C6.13805 49.6354 4.1602 46.2021 3.49799 42.4136L0.245616 23.9933C-0.502732 19.7198 0.474658 15.324 2.96335 11.7702C5.45205 8.21645 9.2488 5.795 13.5206 5.03712L36.5454 0.983324C37.4879 0.819392 38.4428 0.737142 39.3995 0.737491C43.2454 0.735042 46.9689 2.08981 49.914 4.56318C52.8591 7.03654 54.8369 10.4698 55.4991 14.2583L58.754 32.6688C59.5064 36.9428 58.5306 41.3406 56.0412 44.8954C53.5518 48.4501 49.7526 50.8707 45.479 51.625L22.4517 55.6837C21.51 55.8475 20.5559 55.9298 19.6001 55.9295L19.5976 55.9345Z" fill="#F2F2F2"/>
<path d="M37.3661 5.58288L14.334 9.64158C12.8224 9.90815 11.3782 10.4699 10.0837 11.2946C8.78927 12.1194 7.66996 13.191 6.78971 14.4484C5.90945 15.7058 5.2855 17.1243 4.95347 18.6228C4.62145 20.1213 4.58786 21.6706 4.85462 23.1821L5.26025 25.4831L8.11191 41.5999C8.65108 44.6483 10.3774 47.3583 12.9122 49.1354C15.447 50.9125 18.5832 51.6116 21.6327 51.0793L42.3516 47.4262L44.655 47.0205C46.1666 46.754 47.6108 46.1923 48.9053 45.3675C50.1997 44.5427 51.319 43.4711 52.1993 42.2137C53.0795 40.9563 53.7035 39.5379 54.0355 38.0393C54.3675 36.5408 54.4011 34.9916 54.1344 33.48L50.8869 15.0647C50.3489 12.0155 48.623 9.30451 46.0879 7.52678C43.5529 5.74905 40.4161 5.04992 37.3661 5.58288ZM27.9679 40.0143C27.8959 40.0361 27.8229 40.0541 27.7491 40.0684C27.3308 40.1383 26.9014 40.0546 26.5399 39.8328C26.1785 39.6109 25.9095 39.2659 25.7824 38.8613C25.4649 37.7676 24.7824 36.8157 23.8485 36.164C22.9145 35.5123 21.7855 35.2001 20.6494 35.2795C20.1914 35.2899 19.7476 35.1207 19.4126 34.8082C19.0776 34.4958 18.8781 34.0647 18.8566 33.6071C18.8351 33.1495 18.9934 32.7017 19.2975 32.3592C19.6017 32.0167 20.0278 31.8066 20.4847 31.774C22.3928 31.6669 24.2813 32.2049 25.8465 33.3014C27.4117 34.3979 28.5624 35.9891 29.1135 37.819C29.2521 38.262 29.2094 38.742 28.9946 39.1536C28.7799 39.5651 28.4106 39.8747 27.9679 40.0143ZM34.7848 37.5978C34.7131 37.6199 34.64 37.6371 34.566 37.6494C34.148 37.7199 33.7186 37.6368 33.3571 37.4154C32.9956 37.194 32.7265 36.8492 32.5994 36.4448C31.8567 33.8881 30.2629 31.6617 28.0821 30.1345C25.9013 28.6073 23.2642 27.8709 20.6076 28.0471C20.1431 28.069 19.6889 27.9054 19.345 27.5923C19.001 27.2793 18.7955 26.8425 18.7737 26.3779C18.7519 25.9134 18.9155 25.4592 19.2285 25.1153C19.5415 24.7713 19.9784 24.5658 20.4429 24.544C23.8758 24.3187 27.2827 25.2719 30.1003 27.2459C32.9178 29.22 34.9772 32.0966 35.9378 35.4C36.0762 35.8443 36.0326 36.3255 35.8164 36.7376C35.6001 37.1497 35.2291 37.4591 34.7848 37.5978ZM40.6553 34.5175C40.5835 34.539 40.5104 34.5563 40.4365 34.5691C40.0185 34.6396 39.5891 34.5565 39.2276 34.3351C38.8661 34.1137 38.597 33.7689 38.4699 33.3645C37.4187 29.7476 35.1645 26.5978 32.0801 24.4361C28.9957 22.2743 25.2659 21.2301 21.5074 21.476C21.0428 21.4982 20.5885 21.3349 20.2444 21.0221C19.9002 20.7093 19.6944 20.2726 19.6722 19.808C19.6501 19.3435 19.8133 18.8892 20.1261 18.545C20.439 18.2008 20.8757 17.995 21.3402 17.9729C25.879 17.6726 30.3842 18.9311 34.1103 21.54C37.8365 24.149 40.5601 27.952 41.8304 32.3197C41.8982 32.5412 41.9215 32.7738 41.8991 33.0043C41.8767 33.2348 41.8089 33.4586 41.6997 33.6628C41.5905 33.8671 41.442 34.0477 41.2628 34.1944C41.0836 34.341 40.8771 34.4508 40.6553 34.5175Z" fill="#30CA4C"/>
</svg>
