<svg width="69" height="67" viewBox="0 0 69 67" fill="none" xmlns="http://www.w3.org/2000/svg">
<path d="M5.9258 36.7893L9.97453 64.49C10.1189 65.4776 11.2633 65.9529 12.0632 65.3595L20.5708 59.1181C21.5022 58.4389 22.5785 57.9935 23.7178 57.827L49.5144 54.0567C51.8798 53.711 53.5304 51.5082 53.1847 49.1429L50.4284 30.2851C50.0827 27.9197 47.8707 26.2814 45.5053 26.6271L9.5961 31.8754C8.82576 31.988 8.13815 32.288 7.5612 32.738C6.36698 33.6662 5.69266 35.1942 5.9258 36.7893Z" fill="#7344F8"/>
<path d="M50.4341 30.2855L53.1393 48.7946C52.5618 49.2421 51.8706 49.5504 51.0989 49.6632L25.2995 53.4338C24.1624 53.6 23.0855 54.0374 22.159 54.7224L13.6552 60.9635C12.8502 61.5583 11.7008 61.0728 11.5554 60.0778L7.55912 32.7355C8.13667 32.288 8.82938 31.9898 9.60104 31.8771L45.5029 26.63C47.8686 26.2843 50.0883 27.9198 50.4341 30.2855Z" fill="#8B62FF"/>
<path d="M48.7145 42.581L16.6323 47.2698C16.3588 47.3105 16.1049 47.1206 16.0648 46.8474C16.0247 46.5743 16.2108 46.3196 16.4874 46.2809L48.5696 41.5922C48.8431 41.5515 49.097 41.7413 49.1371 42.0145C49.1776 42.2949 48.977 42.5465 48.7145 42.581Z" fill="white"/>
<path d="M28.747 37.4343L15.4785 39.3739C15.2051 39.4146 14.9511 39.2247 14.911 38.9515C14.8714 38.6783 15.0549 38.4171 15.3337 38.385L28.6021 36.4454C28.8756 36.4047 29.1295 36.5946 29.1696 36.8677C29.2101 37.1481 29.0095 37.3998 28.747 37.4343Z" fill="white"/>
<path d="M53.324 38.409L52.1238 45.7404C50.4399 46.1822 48.6576 46.4622 46.777 46.5807C39.1331 43.4786 34.2267 37.9444 32.252 30.5715L49.73 33.4329C52.0894 33.8191 53.7102 36.0496 53.324 38.409Z" fill="#6A42DE"/>
<path d="M68.6057 6.95958V17.3709C68.6057 30.1017 62.0145 40.4473 49.1212 43.3741C39.5758 41.206 33.2789 35.045 30.7172 25.8001C30.71 25.793 30.71 25.7858 30.71 25.7786C30.6814 25.6999 30.66 25.6141 30.6385 25.5354C29.9301 22.8735 29.6367 20.1258 29.6367 17.3709V6.95958L49.1212 0.154663C49.3052 0.218921 67.6036 6.60959 68.6057 6.95958Z" fill="#CBDBF4"/>
<path d="M66.1872 6.11527V13.8146C66.1872 26.16 59.8085 36.2343 47.2536 39.0808C39.3539 37.2848 33.744 32.6766 30.7172 25.8001C30.71 25.793 30.71 25.7858 30.71 25.7786C30.6814 25.6999 30.66 25.6141 30.6385 25.5354C29.9301 22.8735 29.6367 20.1258 29.6367 17.3709V6.95958L49.1212 0.154663L66.1872 6.11527Z" fill="#E6F0F8"/>
<path d="M67.7392 12.6353C67.7478 11.911 67.7297 11.1158 67.6073 10.5699C67.5179 10.1353 67.3795 10.3335 67.312 10.8452C67.184 11.8687 67.1651 13.0757 67.1974 14.1931C67.2606 16.2245 67.7147 14.7685 67.7392 12.6353Z" fill="white"/>
<path d="M67.39 21.3005C67.5227 20.0558 67.6174 18.609 67.5042 17.3087C67.4133 16.2906 67.1528 16.2547 66.9608 16.975C66.5768 18.4155 66.3492 20.4632 66.22 22.533C65.9977 26.1995 66.9748 25.0952 67.39 21.3005Z" fill="white"/>
<path d="M59.395 22.457C59.0145 28.1396 54.1051 32.4354 48.4225 32.0304C42.7521 31.6498 38.4564 26.7404 38.8491 21.0702C39.2173 15.3997 44.139 11.104 49.8094 11.4969C55.4797 11.8773 59.7754 16.7867 59.395 22.457Z" fill="#30CA4C"/>
<path d="M57.7621 22.3508C57.4264 27.1309 53.3176 30.7304 48.5376 30.3947C43.7691 30.059 40.158 25.9503 40.4821 21.1818C40.8062 16.4134 44.9265 12.8023 49.7066 13.138C54.4634 13.4621 58.0745 17.5823 57.7621 22.3508Z" fill="white"/>
<path d="M51.1238 25.1895C51.205 25.5459 50.9188 25.8861 50.5518 25.8611L47.146 25.6291C46.8054 25.6059 46.5816 25.2837 46.6558 24.9642C46.6489 24.9373 46.6594 24.9118 46.6698 24.8862L47.7528 22.109C47.153 21.6383 46.7835 20.8762 46.839 20.0554C46.9459 18.477 48.5284 17.4469 49.9906 17.9542C51.9409 18.6154 52.1848 21.2609 50.4252 22.291L51.1238 25.1895Z" fill="#212531"/>
<path d="M50.0832 24.4871C50.1643 24.8434 49.8782 25.1837 49.5112 25.1587L46.6556 24.9642C46.6486 24.9373 46.6591 24.9118 46.6695 24.8862L47.7525 22.109C47.1527 21.6383 46.7832 20.8762 46.8388 20.0554C46.9456 18.477 48.5282 17.4469 49.9903 17.9542C50.9808 19.1124 50.6593 20.8423 49.3846 21.5885L50.0832 24.4871Z" fill="#212531"/>
</svg>
