<svg width="68" height="69" viewBox="0 0 68 69" fill="none" xmlns="http://www.w3.org/2000/svg">
<g clip-path="url(#clip0_2902_18881)">
<path d="M14.1126 22.5572C13.1315 22.4492 12.4237 21.5664 12.5316 20.5853L13.3691 12.9745C14.054 6.74929 19.6759 2.24184 25.9012 2.92683C32.1265 3.61181 36.634 9.23382 35.949 15.459C35.841 16.44 34.9582 17.1479 33.9771 17.0399C32.9961 16.932 32.2883 16.0491 32.3962 15.0681C32.8656 10.8019 29.7766 6.94903 25.5103 6.4796C21.2441 6.01018 17.3913 9.09921 16.9218 13.3654L16.0844 20.9763C15.9765 21.9573 15.0936 22.6651 14.1126 22.5572Z" fill="#33414E"/>
<path d="M25.9004 2.92682C32.1257 3.6118 36.6331 9.23381 35.9481 15.459C35.8402 16.44 34.9573 17.1479 33.9763 17.0399C32.9953 16.932 32.2874 16.0491 32.3954 15.0681C32.8648 10.8019 29.7758 6.94903 25.5095 6.4796L25.9004 2.92682Z" fill="#1E272F"/>
<path d="M42.3036 27.7127C42.6422 24.6349 40.4136 21.8554 37.3359 21.5167L10.6981 18.5857C7.62033 18.247 4.84069 20.4755 4.50203 23.5533L1.36164 52.0939C1.25369 53.0749 1.96152 53.9578 2.94256 54.0658L37.1913 57.8342C38.1724 57.9422 39.0552 57.2343 39.1632 56.2533L42.3036 27.7127Z" fill="#2EBEEF"/>
<path d="M20.0666 55.95L37.1909 57.8342C38.172 57.9422 39.0549 57.2344 39.1628 56.2533L42.3032 27.7127C42.6419 24.6349 40.4133 21.8554 37.3355 21.5167L24.0166 20.0512L20.0666 55.95Z" fill="#4793FF"/>
<path d="M27.9372 35.7607C28.2758 32.6829 26.0472 29.9033 22.9695 29.5647C19.8917 29.226 17.1122 31.4545 16.7735 34.5324C16.5032 36.9891 17.8694 39.2545 19.9968 40.2414L19.5321 44.4646C19.4241 45.4456 20.132 46.3285 21.113 46.4365C22.0941 46.5444 22.9769 45.8366 23.0849 44.8555L23.5496 40.6323C25.8408 40.1315 27.6668 38.2175 27.9372 35.7607Z" fill="#33414E"/>
<path d="M62.7959 43.3187L51.2141 34.817C50.6993 34.4391 50.0222 34.3646 49.4376 34.6215L36.2843 40.4015C35.6997 40.6584 35.2967 41.2075 35.2268 41.8422L33.6555 56.1229C33.5856 56.7575 33.8597 57.3812 34.3744 57.759L45.9562 66.2607C46.4711 66.6385 47.1481 66.713 47.7328 66.4561L60.886 60.6762C61.4706 60.4193 61.8737 59.8703 61.9435 59.2356L63.5149 44.9548C63.5847 44.3201 63.3106 43.6965 62.7959 43.3187Z" fill="#FFD321"/>
<path d="M47.7332 66.4563L60.8865 60.6763C61.471 60.4194 61.8741 59.8703 61.944 59.2356L63.5153 44.9548C63.5851 44.3201 63.3111 43.6964 62.7964 43.3187L51.2145 34.817C50.9571 34.6281 50.6591 34.515 50.3525 34.4813L46.8188 66.5966C47.1255 66.6303 47.441 66.5847 47.7332 66.4563Z" fill="#FFB454"/>
<path d="M54.6114 50.2042L50.9041 43.0562C50.629 42.5258 50.1071 42.168 49.5132 42.1026C48.9193 42.0373 48.332 42.273 47.9482 42.731L42.7754 48.9019C42.312 49.4549 42.2264 50.2322 42.5586 50.8727L46.2657 58.0218C46.5408 58.5522 47.0627 58.91 47.6566 58.9754C48.2506 59.0407 48.8378 58.805 49.2216 58.347L54.3945 52.1751C54.858 51.6221 54.9435 50.8446 54.6114 50.2042Z" fill="#FFF16B"/>
<path d="M47.6571 58.9753C48.251 59.0406 48.8383 58.8049 49.2221 58.3469L54.395 52.175C54.8585 51.622 54.944 50.8446 54.6119 50.2041L50.9046 43.0561C50.6295 42.5257 50.1076 42.1679 49.5137 42.1025L47.6571 58.9753Z" fill="#FFD321"/>
<path d="M21.1133 46.4365C22.0943 46.5444 22.9772 45.8366 23.0851 44.8555L23.5498 40.6324C25.8409 40.1316 27.6671 38.2176 27.9374 35.7608C28.2761 32.6829 26.0475 29.9034 22.9697 29.5647L21.1133 46.4365Z" fill="#1E272F"/>
</g>
<defs>
<clipPath id="clip0_2902_18881">
<rect width="61" height="61" fill="white" transform="translate(7 0.847107) rotate(6.27914)"/>
</clipPath>
</defs>
</svg>
