<svg width="18" height="23" viewBox="0 0 18 23" fill="none" xmlns="http://www.w3.org/2000/svg">
<path d="M9.0382 20.9616C9.48159 19.5428 9.87722 18.1921 10.3411 16.8688C10.6003 16.1253 10.9618 15.4091 11.3165 14.6996C11.6371 14.0516 12.1419 13.5741 12.7967 13.2467C13.3015 12.9943 13.779 12.701 14.3179 12.4009C13.588 11.978 12.9195 11.5823 12.2374 11.2071C12.0328 11.0912 11.9441 10.9684 11.9441 10.7297C11.9509 10.4841 11.9031 10.2385 11.8895 10.0134C12.2783 9.93157 12.6535 9.88382 13.0014 9.76786C14.3997 9.28355 15 7.92611 14.3861 6.58914C14.236 6.26172 14.277 6.07754 14.5157 5.8388C14.8363 5.51138 15.1092 5.12938 15.4229 4.75421C16.0437 5.86608 16.3847 7.03252 16.4052 8.28082C16.4257 9.64507 16.4052 11.0093 16.4734 12.3736C16.5689 14.3586 17.0873 16.2481 17.9332 18.0421C17.9741 18.1308 18.015 18.2194 17.9946 18.3627C17.2238 17.7419 16.4529 17.128 15.6685 16.4936C15.075 17.4486 14.5021 18.3831 13.895 19.3654C13.2742 18.7856 12.674 18.2194 12.0328 17.6192C11.0368 19.229 10.0614 20.8115 9.05185 22.4418C8.05594 20.8252 7.0805 19.2426 6.07777 17.6192C5.45021 18.2058 4.84311 18.772 4.20873 19.3654C3.61528 18.4036 3.03547 17.4623 2.4352 16.4936C1.63029 17.1417 0.845839 17.776 0 18.4514C0.0341064 18.3354 0.0409277 18.2808 0.0682129 18.2331C1.2483 15.9002 1.6985 13.4104 1.70532 10.8183C1.70532 9.79514 1.69168 8.77195 1.74625 7.74876C1.80082 6.69146 2.15553 5.71601 2.68077 4.76785C3.06958 5.22488 3.45157 5.65462 3.80628 6.10483C3.85403 6.16622 3.79946 6.32993 3.77899 6.43907C3.6835 6.87563 3.4925 7.31902 3.50614 7.75558C3.53343 8.94248 4.54298 9.84289 5.87313 9.95203C5.98227 9.95885 6.09823 9.96567 6.21419 9.9725C6.19373 10.2795 6.19373 10.5796 6.1528 10.8661C6.13234 10.9752 6.03002 11.1048 5.93452 11.1662C5.24557 11.5823 4.5498 11.978 3.79946 12.4077C4.29741 12.6874 4.72715 12.9739 5.19782 13.1921C6.08459 13.6014 6.63711 14.3108 7.06003 15.1567C7.83766 16.7119 8.28104 18.3763 8.77218 20.0271C8.84039 20.3067 8.92906 20.6001 9.0382 20.9616Z" fill="#30CA4C"/>
<path d="M2.09483 2.0257C2.46318 2.28491 2.84517 2.58504 3.25445 2.84425C3.53412 3.02161 3.77969 2.9875 4.06618 2.72829C6.93112 0.0679893 11.2763 0.0952735 14.0935 2.78286C14.3049 2.9875 14.5027 3.02843 14.7279 2.892C15.1576 2.63279 15.5737 2.33948 15.983 2.07345C15.9489 2.16212 15.9011 2.29855 15.8397 2.42815C15.2326 3.62188 14.3322 4.58368 13.3363 5.45681C12.4768 6.22079 11.5491 6.8961 10.5123 7.40769C10.3963 7.46226 10.2053 7.45544 10.0894 7.39405C9.37996 6.99842 8.69101 6.99842 7.98842 7.40769C7.89974 7.46226 7.73603 7.48955 7.65418 7.4418C5.41679 6.22761 3.50001 4.67236 2.2449 2.40769C2.18351 2.29855 2.14258 2.18259 2.09483 2.06663C2.08801 2.03252 2.09483 1.99841 2.09483 2.0257Z" fill="#30CA4C"/>
<path d="M11.9096 12.3804C10.1156 13.4241 9.64493 15.2317 9.05148 17.0598C8.4512 15.2385 7.98736 13.4241 6.19336 12.3872C6.47985 12.2235 6.71177 12.0598 6.95734 11.9439C7.24383 11.8074 7.31887 11.6096 7.33933 11.2958C7.38026 10.7024 7.42801 10.0885 7.59854 9.52912C7.80318 8.86064 8.26021 8.30129 9.01737 8.28083C9.78135 8.26037 10.1906 8.84018 10.4839 9.47456C10.75 10.0475 10.7704 10.6615 10.7432 11.2754C10.7295 11.5892 10.825 11.7938 11.1115 11.9302C11.3707 12.053 11.6095 12.2099 11.9096 12.3804Z" fill="#30CA4C"/>
<path d="M13.288 7.04617C13.5268 7.62598 13.4585 8.04208 13.0766 8.38315C12.565 8.84017 11.6577 8.88792 10.9824 8.49911C11.7396 8.02162 12.5036 7.53731 13.288 7.04617Z" fill="#30CA4C"/>
<path d="M4.82275 7.05298C5.58673 7.53729 6.34389 8.01478 7.10788 8.49909C6.46668 8.89473 5.51852 8.84016 5.01374 8.37631C4.62493 8.01478 4.56354 7.5714 4.82275 7.05298Z" fill="#30CA4C"/>
</svg>
