<svg width="27" height="27" viewBox="0 0 27 27" fill="none" xmlns="http://www.w3.org/2000/svg">
<g clip-path="url(#clip0_193_311)">
<path d="M7.17517 23.1376L3.72802 19.6904C3.41089 19.3733 3.4105 18.8589 3.72802 18.5414L11.5799 10.6895L8.70723 7.81692C8.48049 7.59017 8.40848 7.25082 8.52339 6.9513C8.63829 6.65178 8.91828 6.44763 9.23886 6.43116L20.1598 5.85166C20.6198 5.82676 21.0388 6.24578 21.0139 6.70579L20.4344 17.6267C20.4176 17.9469 20.2138 18.2273 19.9143 18.3422C19.6148 18.4571 19.2754 18.3851 19.0487 18.1584L16.176 15.2857L8.32422 23.1376C8.0067 23.4551 7.49231 23.4547 7.17517 23.1376Z" fill="#30CA4C"/>
</g>
<defs>
<clipPath id="clip0_193_311">
<rect width="26" height="26" fill="white" transform="translate(0.109375 0.75)"/>
</clipPath>
</defs>
</svg>
