<svg width="22" height="23" viewBox="0 0 22 23" fill="none" xmlns="http://www.w3.org/2000/svg">
<g opacity="0.3">
<path d="M3.20837 5.79163C2.8437 5.79163 2.49396 5.93649 2.2361 6.19435C1.97824 6.45222 1.83337 6.80195 1.83337 7.16663C1.83337 7.5313 1.97824 7.88104 2.2361 8.1389C2.49396 8.39676 2.8437 8.54163 3.20837 8.54163C3.57305 8.54163 3.92278 8.39676 4.18065 8.1389C4.43851 7.88104 4.58337 7.5313 4.58337 7.16663C4.58337 6.80195 4.43851 6.45222 4.18065 6.19435C3.92278 5.93649 3.57305 5.79163 3.20837 5.79163ZM7.33337 6.24996C7.2119 6.24824 7.09131 6.27068 6.97858 6.31598C6.86586 6.36127 6.76327 6.42852 6.67676 6.51381C6.59026 6.5991 6.52157 6.70074 6.47468 6.81281C6.4278 6.92487 6.40365 7.04514 6.40365 7.16663C6.40365 7.28811 6.4278 7.40838 6.47468 7.52045C6.52157 7.63252 6.59026 7.73415 6.67676 7.81944C6.76327 7.90473 6.86586 7.97198 6.97858 8.01727C7.09131 8.06257 7.2119 8.08501 7.33337 8.08329H19.25C19.3715 8.08501 19.4921 8.06257 19.6048 8.01727C19.7176 7.97198 19.8201 7.90473 19.9067 7.81944C19.9932 7.73415 20.0618 7.63252 20.1087 7.52045C20.1556 7.40838 20.1798 7.28811 20.1798 7.16663C20.1798 7.04514 20.1556 6.92487 20.1087 6.81281C20.0618 6.70074 19.9932 6.5991 19.9067 6.51381C19.8201 6.42852 19.7176 6.36127 19.6048 6.31598C19.4921 6.27068 19.3715 6.24824 19.25 6.24996H7.33337ZM3.20837 10.375C2.8437 10.375 2.49396 10.5198 2.2361 10.7777C1.97824 11.0356 1.83337 11.3853 1.83337 11.75C1.83337 12.1146 1.97824 12.4644 2.2361 12.7222C2.49396 12.9801 2.8437 13.125 3.20837 13.125C3.57305 13.125 3.92278 12.9801 4.18065 12.7222C4.43851 12.4644 4.58337 12.1146 4.58337 11.75C4.58337 11.3853 4.43851 11.0356 4.18065 10.7777C3.92278 10.5198 3.57305 10.375 3.20837 10.375ZM7.33337 10.8333C7.2119 10.8316 7.09131 10.854 6.97858 10.8993C6.86586 10.9446 6.76327 11.0119 6.67676 11.0971C6.59026 11.1824 6.52157 11.2841 6.47468 11.3961C6.4278 11.5082 6.40365 11.6285 6.40365 11.75C6.40365 11.8714 6.4278 11.9917 6.47468 12.1038C6.52157 12.2158 6.59026 12.3175 6.67676 12.4028C6.76327 12.4881 6.86586 12.5553 6.97858 12.6006C7.09131 12.6459 7.2119 12.6683 7.33337 12.6666H19.25C19.3715 12.6683 19.4921 12.6459 19.6048 12.6006C19.7176 12.5553 19.8201 12.4881 19.9067 12.4028C19.9932 12.3175 20.0618 12.2158 20.1087 12.1038C20.1556 11.9917 20.1798 11.8714 20.1798 11.75C20.1798 11.6285 20.1556 11.5082 20.1087 11.3961C20.0618 11.2841 19.9932 11.1824 19.9067 11.0971C19.8201 11.0119 19.7176 10.9446 19.6048 10.8993C19.4921 10.854 19.3715 10.8316 19.25 10.8333H7.33337ZM3.20837 14.9583C2.8437 14.9583 2.49396 15.1032 2.2361 15.361C1.97824 15.6189 1.83337 15.9686 1.83337 16.3333C1.83337 16.698 1.97824 17.0477 2.2361 17.3056C2.49396 17.5634 2.8437 17.7083 3.20837 17.7083C3.57305 17.7083 3.92278 17.5634 4.18065 17.3056C4.43851 17.0477 4.58337 16.698 4.58337 16.3333C4.58337 15.9686 4.43851 15.6189 4.18065 15.361C3.92278 15.1032 3.57305 14.9583 3.20837 14.9583ZM7.33337 15.4166C7.2119 15.4149 7.09131 15.4374 6.97858 15.4826C6.86586 15.5279 6.76327 15.5952 6.67676 15.6805C6.59026 15.7658 6.52157 15.8674 6.47468 15.9795C6.4278 16.0915 6.40365 16.2118 6.40365 16.3333C6.40365 16.4548 6.4278 16.575 6.47468 16.6871C6.52157 16.7992 6.59026 16.9008 6.67676 16.9861C6.76327 17.0714 6.86586 17.1386 6.97858 17.1839C7.09131 17.2292 7.2119 17.2517 7.33337 17.25H19.25C19.3715 17.2517 19.4921 17.2292 19.6048 17.1839C19.7176 17.1386 19.8201 17.0714 19.9067 16.9861C19.9932 16.9008 20.0618 16.7992 20.1087 16.6871C20.1556 16.575 20.1798 16.4548 20.1798 16.3333C20.1798 16.2118 20.1556 16.0915 20.1087 15.9795C20.0618 15.8674 19.9932 15.7658 19.9067 15.6805C19.8201 15.5952 19.7176 15.5279 19.6048 15.4826C19.4921 15.4374 19.3715 15.4149 19.25 15.4166H7.33337Z" fill="black"/>
</g>
</svg>
