<svg width="73" height="72" viewBox="0 0 73 72" fill="none" xmlns="http://www.w3.org/2000/svg">
<path d="M64.6227 15.1766H49.9536C49.0472 15.1766 48.1914 14.7652 47.6248 14.057L44.6445 10.3327C44.0795 9.6245 43.2222 9.21301 42.3172 9.21301H30.2751C29.3687 9.21301 28.5129 9.6245 27.9463 10.3327L24.9645 14.057C24.3995 14.7652 23.5422 15.1766 22.6372 15.1766H7.96815C6.32069 15.1766 4.98633 16.511 4.98633 18.1585V58.413C4.98633 60.0605 6.32069 61.3948 7.96815 61.3948H64.6227C66.2701 61.3948 67.6045 60.0605 67.6045 58.413V18.1585C67.6045 16.511 66.2701 15.1766 64.6227 15.1766Z" fill="white"/>
<path d="M36.2952 58.413C47.4112 58.413 56.4225 49.4017 56.4225 38.2857C56.4225 27.1697 47.4112 18.1584 36.2952 18.1584C25.1793 18.1584 16.168 27.1697 16.168 38.2857C16.168 49.4017 25.1793 58.413 36.2952 58.413Z" fill="#DEE2E8"/>
<path d="M36.2945 53.9403C45.352 53.9403 52.6945 46.5977 52.6945 37.5403C52.6945 28.4828 45.352 21.1403 36.2945 21.1403C27.2371 21.1403 19.8945 28.4828 19.8945 37.5403C19.8945 46.5977 27.2371 53.9403 36.2945 53.9403Z" fill="white"/>
<path d="M36.2964 49.4676C42.8837 49.4676 48.2237 44.1276 48.2237 37.5403C48.2237 30.9531 42.8837 25.613 36.2964 25.613C29.7092 25.613 24.3691 30.9531 24.3691 37.5403C24.3691 44.1276 29.7092 49.4676 36.2964 49.4676Z" fill="#37E556"/>
<path d="M58.6596 27.1039C60.3064 27.1039 61.6414 25.7689 61.6414 24.1221C61.6414 22.4753 60.3064 21.1403 58.6596 21.1403C57.0127 21.1403 55.6777 22.4753 55.6777 24.1221C55.6777 25.7689 57.0127 27.1039 58.6596 27.1039Z" fill="#CCD3DD"/>
<path d="M21.3856 15.1766H10.9492V13.6857C10.9492 12.8628 11.6171 12.1948 12.4401 12.1948H19.8947C20.7177 12.1948 21.3856 12.8628 21.3856 13.6857V15.1766Z" fill="#37E556"/>
<rect x="4.80664" y="66.6228" width="85.4475" height="5.00945" transform="rotate(-45 4.80664 66.6228)" fill="#CCD3DD"/>
</svg>
