<svg width="19" height="19" viewBox="0 0 19 19" fill="none" xmlns="http://www.w3.org/2000/svg">
<path d="M8.25147 2.625C7.65334 2.625 7.09507 2.94578 6.79395 3.46216L5.96997 4.875H4.51172C3.16772 4.875 2.07422 5.9685 2.07422 7.3125V14.4375C2.07422 15.7815 3.16772 16.875 4.51172 16.875H14.6367C15.9807 16.875 17.0742 15.7815 17.0742 14.4375V7.3125C17.0742 5.9685 15.9807 4.875 14.6367 4.875H13.1785L12.3545 3.46216C12.0534 2.94578 11.4951 2.625 10.897 2.625H8.25147ZM9.57422 7.125C11.435 7.125 12.9492 8.63888 12.9492 10.5C12.9492 12.3611 11.435 13.875 9.57422 13.875C7.71347 13.875 6.19922 12.3611 6.19922 10.5C6.19922 8.63888 7.71347 7.125 9.57422 7.125ZM9.57422 8.25C8.97748 8.25 8.40519 8.48705 7.98323 8.90901C7.56127 9.33097 7.32422 9.90326 7.32422 10.5C7.32422 11.0967 7.56127 11.669 7.98323 12.091C8.40519 12.5129 8.97748 12.75 9.57422 12.75C10.171 12.75 10.7433 12.5129 11.1652 12.091C11.5872 11.669 11.8242 11.0967 11.8242 10.5C11.8242 9.90326 11.5872 9.33097 11.1652 8.90901C10.7433 8.48705 10.171 8.25 9.57422 8.25Z" fill="white"/>
</svg>
