<svg width="30" height="31" viewBox="0 0 30 31" fill="none" xmlns="http://www.w3.org/2000/svg">
<path d="M17.3806 16.8844L12.1962 11.9294C11.9049 11.6511 11.5145 11.4985 11.112 11.4985C10.7095 11.4985 10.3191 11.6511 10.0279 11.9294L2.97905 18.6664C2.8318 18.8025 2.71283 18.9663 2.63017 19.1491C2.5467 19.3337 2.50224 19.5333 2.50008 19.7359C2.49793 19.9385 2.53813 20.1389 2.61771 20.3252C2.69726 20.5115 2.81423 20.6791 2.96057 20.819C3.10686 20.9588 3.27962 21.0681 3.46817 21.1417C3.6567 21.2153 3.85796 21.2519 4.06036 21.2499C4.26276 21.248 4.46326 21.2074 4.6503 21.1302C4.83564 21.0536 5.00475 20.9422 5.14734 20.8013L11.112 15.1005L16.2965 20.0556C16.5878 20.3339 16.9781 20.4864 17.3806 20.4864C17.7831 20.4864 18.1735 20.3338 18.4648 20.0555L23.4104 15.3287V16.2388C23.408 16.4392 23.447 16.6376 23.5247 16.8224C23.6029 17.0083 23.7183 17.176 23.8631 17.3164C24.0078 17.4567 24.179 17.5669 24.3662 17.6417C24.5534 17.7166 24.7535 17.7549 24.9551 17.7549C25.1568 17.7549 25.3569 17.7166 25.544 17.6417C25.7312 17.5669 25.9025 17.4567 26.0472 17.3164C26.192 17.176 26.3074 17.0083 26.3856 16.8224C26.4633 16.6376 26.5023 16.4391 26.4999 16.2387V11.7486C26.4999 11.3437 26.3313 10.9602 26.0393 10.6811C25.7481 10.4028 25.3577 10.2501 24.9551 10.2501H20.2568C20.0564 10.2479 19.8571 10.2834 19.6701 10.3553C19.4819 10.4275 19.3091 10.5354 19.1624 10.6736C19.0157 10.8119 18.8979 10.9779 18.817 11.1627C18.7361 11.3476 18.6941 11.5468 18.6941 11.7486C18.6941 11.9505 18.7361 12.1497 18.817 12.3346C18.8979 12.5193 19.0157 12.6854 19.1624 12.8237C19.3091 12.9619 19.4819 13.0697 19.6701 13.142C19.8571 13.2139 20.0564 13.2494 20.2568 13.2472H21.1862L17.3806 16.8844Z" fill="#30CA4C"/>
</svg>
