<svg width="22" height="22" viewBox="0 0 22 22" fill="none" xmlns="http://www.w3.org/2000/svg">
<g opacity="0.4">
<path d="M11.0007 1.83325C5.94618 1.83325 1.83398 5.94545 1.83398 10.9999C1.83398 16.0544 5.94618 20.1666 11.0007 20.1666C16.0551 20.1666 20.1673 16.0544 20.1673 10.9999C20.1673 5.94545 16.0551 1.83325 11.0007 1.83325ZM11.0007 3.20825C15.312 3.20825 18.7923 6.68856 18.7923 10.9999C18.7923 15.3113 15.312 18.7916 11.0007 18.7916C6.68929 18.7916 3.20898 15.3113 3.20898 10.9999C3.20898 6.68856 6.68929 3.20825 11.0007 3.20825ZM10.7607 5.49007C10.5786 5.49292 10.405 5.56796 10.2781 5.69871C10.1512 5.82946 10.0814 6.00524 10.084 6.18742V11.6874C10.084 11.8698 10.1564 12.0446 10.2854 12.1735C10.4143 12.3025 10.5892 12.3749 10.7715 12.3749H14.4382C14.5293 12.3762 14.6197 12.3594 14.7042 12.3254C14.7888 12.2914 14.8657 12.241 14.9306 12.177C14.9955 12.1131 15.047 12.0368 15.0822 11.9528C15.1173 11.8687 15.1354 11.7785 15.1354 11.6874C15.1354 11.5963 15.1173 11.5061 15.0822 11.4221C15.047 11.338 14.9955 11.2618 14.9306 11.1978C14.8657 11.1338 14.7888 11.0834 14.7042 11.0494C14.6197 11.0155 14.5293 10.9986 14.4382 10.9999H11.459V6.18742C11.4603 6.0954 11.4431 6.00406 11.4085 5.91879C11.3739 5.83353 11.3225 5.75609 11.2574 5.69106C11.1922 5.62603 11.1147 5.57473 11.0294 5.54021C10.9441 5.50568 10.8528 5.48863 10.7607 5.49007Z" fill="#212531"/>
</g>
</svg>
