<svg width="12" height="13" viewBox="0 0 12 13" fill="none" xmlns="http://www.w3.org/2000/svg">
<path d="M9.42284 1.85119C9.28966 1.71611 9.07398 1.71611 8.94079 1.85119L5.99989 4.83413L3.0592 1.85119C2.92602 1.71611 2.71034 1.71611 2.57716 1.85119L1.09989 3.34958C0.966705 3.48466 0.966705 3.70343 1.09989 3.83851L3.97023 6.74988L1.09989 9.66124C0.966705 9.79633 0.966705 10.0151 1.09989 10.1502L2.57716 11.6486C2.71034 11.7836 2.92602 11.7836 3.0592 11.6486L5.99989 8.66562L8.94079 11.6486C9.07398 11.7836 9.28966 11.7836 9.42284 11.6486L10.9001 10.1499C11.0333 10.0149 11.0333 9.7961 10.9001 9.66101L8.03 6.74988L10.9001 3.83874C11.0333 3.70366 11.0333 3.48489 10.9001 3.34981L9.42284 1.85119Z" fill="#212531"/>
</svg>
