<svg width="30" height="30" viewBox="0 0 30 30" fill="none" xmlns="http://www.w3.org/2000/svg">
<g clip-path="url(#clip0_2687_14140)">
<path d="M15 30C6.72897 30 0 23.271 0 15C0 6.72903 6.72897 0 15 0C23.2711 0 30 6.72897 30 15C30 23.2711 23.271 30 15 30Z" fill="#36E956"/>
<path d="M15 0V30C23.271 30 30 23.271 30 15C30 6.72891 23.271 0 15 0Z" fill="#30C14A"/>
<path d="M15.0001 26.4844C8.66753 26.4844 3.51562 21.3325 3.51562 15C3.51562 8.66747 8.66753 3.51562 15.0001 3.51562C21.3326 3.51562 26.4845 8.66753 26.4845 15.0001C26.4845 21.3326 21.3325 26.4844 15.0001 26.4844Z" fill="#30CA4C"/>
<path d="M15 3.51562V26.4844C21.3325 26.4844 26.4844 21.3325 26.4844 15C26.4844 8.66747 21.3325 3.51562 15 3.51562Z" fill="#2DA342"/>
<path d="M19.2918 19.4807H10.6906C10.2975 19.4807 9.95214 19.2196 9.84497 18.8413L8.22103 13.1089C8.1346 12.8037 8.21927 12.4757 8.44258 12.2505C8.66588 12.0253 8.99319 11.9378 9.29905 12.0216L11.9575 12.7504L14.3049 9.71614C14.4713 9.50098 14.728 9.375 15 9.375C15.272 9.375 15.5287 9.50098 15.6952 9.71614L18.0426 12.7504L20.7009 12.0216C21.0072 11.9377 21.335 12.0255 21.5583 12.2513C21.7816 12.4772 21.8657 12.8059 21.7782 13.1113L20.1368 18.8437C20.0288 19.2208 19.684 19.4807 19.2918 19.4807Z" fill="white"/>
<path d="M21.5582 12.2515C21.3349 12.0256 21.0071 11.9378 20.7009 12.0218L18.0426 12.7506L15.6952 9.71626C15.5287 9.5011 15.272 9.37512 15 9.37512V19.4808H19.2919C19.6841 19.4808 20.0289 19.2208 20.1368 18.8438L21.7782 13.1113C21.8656 12.8061 21.7815 12.4773 21.5582 12.2515Z" fill="#E2E2E2"/>
</g>
<defs>
<clipPath id="clip0_2687_14140">
<rect width="30" height="30" fill="white"/>
</clipPath>
</defs>
</svg>
