<svg width="26" height="26" viewBox="0 0 26 26" fill="none" xmlns="http://www.w3.org/2000/svg">
<path d="M20.6842 2.87654C20.5351 2.8898 20.3864 2.92048 20.2419 2.96964L10.8337 6.17732V17.656L20.243 20.8637C20.8204 21.0603 21.4612 20.9656 21.9579 20.6108C22.4536 20.256 22.7503 19.6799 22.7503 19.0694V14.1934C23.5436 13.8716 24.1045 13.0962 24.1045 12.1875C24.1045 11.2788 23.5436 10.5034 22.7503 10.1816V4.76391C22.7503 4.15345 22.4541 3.57728 21.9579 3.22249C21.5854 2.95599 21.1315 2.83675 20.6842 2.87654ZM9.20866 6.5603L4.91764 6.89037C3.37443 7.009 2.16699 8.31302 2.16699 9.86002V13.9733C2.16699 15.4791 3.31235 16.7553 4.79598 16.9313L5.30908 21.5513C5.41904 22.5431 6.25529 23.2917 7.25358 23.2917C8.33204 23.2917 9.20866 22.414 9.20866 21.3355V6.5603Z" fill="#30CA4C"/>
</svg>
