<svg width="22" height="22" viewBox="0 0 22 22" fill="none" xmlns="http://www.w3.org/2000/svg">
<path d="M8.479 2.29169C7.09494 2.29169 5.95817 3.42846 5.95817 4.81252V14.8959C5.95817 16.2799 7.09494 17.4167 8.479 17.4167H15.8123C17.1964 17.4167 18.3332 16.2799 18.3332 14.8959V4.81252C18.3332 3.42846 17.1964 2.29169 15.8123 2.29169H8.479ZM8.479 3.66669H15.8123C16.4532 3.66669 16.9582 4.17167 16.9582 4.81252V14.8959C16.9582 15.5367 16.4532 16.0417 15.8123 16.0417H8.479C7.83815 16.0417 7.33317 15.5367 7.33317 14.8959V4.81252C7.33317 4.17167 7.83815 3.66669 8.479 3.66669ZM5.0415 4.58335L4.48291 4.95575C3.97279 5.29583 3.6665 5.86835 3.6665 6.48114V15.3542C3.6665 17.7591 5.6158 19.7084 8.02067 19.7084H14.1437C14.757 19.7084 15.3295 19.4021 15.6691 18.8919L16.0415 18.3334H8.02067C6.37525 18.3334 5.0415 16.9996 5.0415 15.3542V4.58335Z" fill="white"/>
</svg>
