<svg width="26" height="26" viewBox="0 0 26 26" fill="none" xmlns="http://www.w3.org/2000/svg">
<path d="M13.0002 3.79166C12.581 3.79253 12.1739 3.93233 11.8425 4.18918C11.5112 4.44603 11.2744 4.80546 11.1691 5.21123C11.0638 5.617 11.0959 6.04624 11.2605 6.43179C11.4251 6.81735 11.7128 7.13748 12.0787 7.34211L9.79884 11.9008L5.67075 7.77269C5.84937 7.48574 5.94803 7.15626 5.9565 6.81836C5.96498 6.48046 5.88296 6.14644 5.71895 5.8509C5.55494 5.55535 5.31489 5.30903 5.02368 5.13744C4.73247 4.96585 4.40068 4.87524 4.06268 4.87499C3.61175 4.87688 3.17626 5.03945 2.83439 5.33349C2.49252 5.62754 2.26665 6.03382 2.19734 6.47939C2.12803 6.92496 2.2198 7.38065 2.45619 7.76466C2.69259 8.14866 3.05811 8.43583 3.48716 8.57462L5.23805 17.3333H20.7623L22.5132 8.57673C22.9438 8.43915 23.3111 8.15221 23.5488 7.76766C23.7866 7.38312 23.879 6.92629 23.8096 6.47957C23.7401 6.03285 23.5133 5.62566 23.1701 5.33144C22.8268 5.03721 22.3898 4.87533 21.9377 4.87499C21.5998 4.87536 21.2682 4.966 20.9772 5.13753C20.6861 5.30907 20.4462 5.55526 20.2822 5.85064C20.1182 6.14602 20.0362 6.47985 20.0445 6.81759C20.0528 7.15533 20.1513 7.48471 20.3296 7.77164L16.2015 11.9008L13.9227 7.34317C14.2892 7.13874 14.5775 6.81849 14.7424 6.43261C14.9074 6.04673 14.9396 5.61703 14.8341 5.21085C14.7286 4.80468 14.4913 4.44499 14.1594 4.18816C13.8275 3.93133 13.4198 3.79188 13.0002 3.79166ZM5.41684 18.9583V20.8542C5.41684 21.8996 6.26726 22.75 7.31268 22.75H18.6877C19.7331 22.75 20.5835 21.8996 20.5835 20.8542V18.9583H5.41684Z" fill="#30CA4C"/>
</svg>
