<svg width="22" height="23" viewBox="0 0 22 23" fill="none" xmlns="http://www.w3.org/2000/svg">
<path d="M10.9998 3.95834C10.6451 3.95908 10.3006 4.07737 10.0202 4.29471C9.7399 4.51205 9.5395 4.81617 9.45039 5.15952C9.36128 5.50287 9.38848 5.86606 9.52775 6.1923C9.66701 6.51854 9.91048 6.78943 10.2201 6.96258L8.29095 10.8199L4.79795 7.32691C4.94909 7.08411 5.03257 6.80531 5.03974 6.5194C5.04691 6.23348 4.97752 5.95085 4.83874 5.70078C4.69996 5.4507 4.49684 5.24227 4.25043 5.09708C4.00402 4.95189 3.72328 4.87522 3.43727 4.87501C3.05572 4.87661 2.68723 5.01417 2.39795 5.26298C2.10868 5.51179 1.91756 5.85556 1.85891 6.23258C1.80026 6.6096 1.87792 6.99519 2.07794 7.32011C2.27797 7.64504 2.58726 7.88803 2.95029 8.00546L4.43182 15.4167H17.5677L19.0493 8.00725C19.4136 7.89084 19.7244 7.64804 19.9256 7.32266C20.1267 6.99727 20.205 6.61072 20.1462 6.23273C20.0874 5.85474 19.8955 5.51019 19.6051 5.26123C19.3146 5.01228 18.9448 4.8753 18.5623 4.87501C18.2764 4.87532 17.9958 4.95202 17.7495 5.09716C17.5033 5.2423 17.3002 5.45062 17.1615 5.70056C17.0227 5.95049 16.9533 6.23297 16.9603 6.51875C16.9674 6.80453 17.0507 7.08323 17.2016 7.32602L13.7086 10.8199L11.7804 6.96347C12.0905 6.79049 12.3344 6.51951 12.474 6.193C12.6136 5.86648 12.6408 5.50289 12.5516 5.1592C12.4623 4.81552 12.2615 4.51117 11.9807 4.29385C11.6999 4.07653 11.3549 3.95853 10.9998 3.95834ZM4.58311 16.7917V18.3958C4.58311 19.2804 5.30269 20 6.18727 20H15.8123C16.6969 20 17.4164 19.2804 17.4164 18.3958V16.7917H4.58311Z" fill="#30CA4C"/>
</svg>
