<svg width="26" height="26" viewBox="0 0 26 26" fill="none" xmlns="http://www.w3.org/2000/svg">
<g opacity="0.3">
<path d="M4.60352 4.33325C3.25964 4.33325 2.16602 5.42688 2.16602 6.77075V19.2291C2.16602 20.573 3.25964 21.6666 4.60352 21.6666H12.4598C12.2453 21.1536 12.0963 20.6076 12.0081 20.0416H4.60352C4.15556 20.0416 3.79102 19.677 3.79102 19.2291V6.77075C3.79102 6.32279 4.15556 5.95825 4.60352 5.95825H8.69458C9.01091 5.95825 9.31783 6.06936 9.56104 6.2714L12.208 8.47827C12.3537 8.60015 12.5384 8.66659 12.7285 8.66659H21.3952C21.8431 8.66659 22.2077 9.03113 22.2077 9.47909V12.7174C22.8051 13.03 23.3511 13.4255 23.8327 13.8886V9.47909C23.8327 8.13521 22.7391 7.04159 21.3952 7.04159H13.0226L10.601 5.02303C10.0664 4.57832 9.39008 4.33325 8.69458 4.33325H4.60352ZM18.9577 12.9999C15.6671 12.9999 12.9993 15.6676 12.9993 18.9583C12.9993 22.2489 15.6671 24.9166 18.9577 24.9166C22.2483 24.9166 24.916 22.2489 24.916 18.9583C24.916 15.6676 22.2483 12.9999 18.9577 12.9999ZM16.2493 15.7083C16.3879 15.7083 16.5264 15.761 16.6323 15.8669L18.9577 18.1923L21.283 15.8669C21.4948 15.6552 21.8372 15.6552 22.049 15.8669C22.2608 16.0787 22.2608 16.4211 22.049 16.6329L19.7236 18.9583L22.049 21.2836C22.2608 21.4954 22.2608 21.8378 22.049 22.0496C21.9434 22.1552 21.8047 22.2083 21.666 22.2083C21.5273 22.2083 21.3887 22.1552 21.283 22.0496L18.9577 19.7242L16.6323 22.0496C16.5267 22.1552 16.388 22.2083 16.2493 22.2083C16.1107 22.2083 15.972 22.1552 15.8664 22.0496C15.6546 21.8378 15.6546 21.4954 15.8664 21.2836L18.1917 18.9583L15.8664 16.6329C15.6546 16.4211 15.6546 16.0787 15.8664 15.8669C15.9723 15.761 16.1108 15.7083 16.2493 15.7083Z" fill="#212531"/>
</g>
</svg>
