<svg width="20" height="23" viewBox="0 0 20 23" fill="none" xmlns="http://www.w3.org/2000/svg">
<g clip-path="url(#clip0_444_709)">
<path fill-rule="evenodd" clip-rule="evenodd" d="M7.55836 2.00553C6.25821 2.68748 5.1945 3.26455 5.19473 3.28802C5.19531 3.3486 8.31514 4.93952 8.42587 4.93564C8.47624 4.93394 8.84166 4.76458 9.23785 4.55932L9.95833 4.18619L10.7452 4.59343L11.532 5.00076L12.8205 4.41776C14.7621 3.53926 14.9638 3.443 14.9322 3.41065C14.8902 3.36774 14.1938 2.99104 12.3044 1.98946C11.3913 1.50539 10.505 1.03077 10.3349 0.934731C10.1648 0.838692 10.0024 0.761435 9.97398 0.76293C9.94561 0.764426 8.85855 1.3236 7.55836 2.00553ZM1.85589 4.97886L0.502442 5.68279V8.7722C0.502442 10.4714 0.520214 11.8616 0.542014 11.8616C0.563738 11.8616 1.22964 11.5709 2.02175 11.2157L3.46197 10.5698V7.31337L4.16576 7.69945C4.70808 7.99669 5.25074 8.29332 5.79372 8.58935L6.71786 9.09317L7.12909 8.90593C7.38699 8.78832 7.64438 8.66956 7.90124 8.54966C8.09973 8.45658 8.58698 8.23561 8.98398 8.05851C9.38099 7.88134 9.74848 7.70318 9.80059 7.66257C9.86982 7.60863 9.02572 7.13896 6.67852 5.9253C4.90924 5.01046 3.40488 4.26486 3.3355 4.26844C3.26613 4.27201 2.6003 4.59166 1.85589 4.97886ZM15.1761 5.17654C14.2543 5.59554 13.4995 5.95511 13.4986 5.97562C13.4978 5.9961 14.0002 6.29689 14.6151 6.64394C15.23 6.99106 15.7331 7.29362 15.7331 7.31641C15.7331 7.33915 15.189 7.6046 14.5241 7.90643C13.859 8.20819 12.1781 8.97254 10.7886 9.60502L6.13275 11.7241C4.96157 12.2572 3.9059 12.7377 3.7868 12.792C1.39462 13.8824 0.737104 14.1849 0.646809 14.2369C0.55601 14.2892 0.535443 14.5929 0.519282 16.1176L0.5 17.9361L1.71031 18.557L2.9206 19.178L4.59886 18.4153C5.52192 17.9959 6.27711 17.6308 6.27711 17.6039C6.27711 17.5771 6.10654 17.4651 5.89816 17.3551C5.68968 17.245 5.25932 17.0014 4.94171 16.8136C4.62413 16.6257 4.30746 16.4534 4.23793 16.4305C4.16843 16.4078 4.11257 16.3679 4.1137 16.3419C4.11486 16.316 4.85389 15.9625 5.75588 15.5564C7.50784 14.7676 8.84858 14.1598 11.727 12.8491C13.0141 12.2632 14.3013 11.6776 15.5888 11.0923C16.7202 10.5781 18.0358 9.97749 18.5122 9.75768L19.3784 9.35804L19.3976 7.51886L19.417 5.67975L18.1894 5.04532C17.5143 4.69642 16.9371 4.4118 16.9069 4.41284C16.8767 4.4138 16.0978 4.75743 15.1761 5.17654ZM19.0495 11.8116C18.8686 11.9006 18.5113 12.0672 18.2555 12.1817C17.9997 12.2963 17.5143 12.5169 17.1768 12.6719L16.5632 12.9537L16.5492 14.5683C16.5415 15.4564 16.509 16.179 16.4771 16.1743C16.4044 16.1634 15.2545 15.5696 14.0985 14.9459C13.2642 14.4959 13.2118 14.478 13.0158 14.5757C12.9025 14.6323 12.225 14.9382 11.5104 15.2556C10.7958 15.5731 10.1878 15.8535 10.1592 15.8789C10.1307 15.9042 11.5689 16.6892 13.3554 17.6232L16.6035 19.3215L17.991 18.5988C18.754 18.2014 19.4029 17.8389 19.4327 17.7933C19.5 17.6907 19.4942 11.6358 19.4269 11.644C19.4003 11.6472 19.2304 11.7226 19.0495 11.8116ZM11.366 18.9186C11.1254 19.0228 10.8848 19.1271 10.6442 19.2316C9.91782 19.548 10.0602 19.5585 9.19599 19.1254C8.62041 18.8369 8.37231 18.7478 8.26462 18.7911C8.18384 18.8235 7.48864 19.1384 6.7196 19.4909C5.95062 19.8434 5.29476 20.1318 5.26214 20.1318C4.9395 20.1318 5.47588 20.4545 7.54568 21.5058L9.97305 22.7385L10.9944 22.2308C11.5561 21.9516 12.6891 21.3924 13.5122 20.9882C14.3352 20.584 14.9985 20.2427 14.986 20.2298C14.9735 20.217 14.2839 19.8604 13.4534 19.4375L11.9435 18.6685L11.366 18.9186Z" fill="#30CA4C"/>
</g>
<defs>
<clipPath id="clip0_444_709">
<rect width="19" height="22" fill="white" transform="translate(0.5 0.75)"/>
</clipPath>
</defs>
</svg>
