<svg width="22" height="22" viewBox="0 0 22 22" fill="none" xmlns="http://www.w3.org/2000/svg">
<path d="M18.6094 4.84447C18.6003 4.83531 18.5865 4.82614 18.5728 4.81239C17.4773 3.93239 16.0107 3.48322 14.9748 3.26781C13.9528 3.05239 12.9307 3.63447 12.6007 4.61989C12.5961 4.63822 12.5869 4.65197 12.5823 4.67031C14.3011 4.84447 15.8365 5.31656 17.0832 6.05447C17.4086 6.24697 17.514 6.66864 17.3215 6.99864C17.1932 7.21406 16.964 7.33323 16.7303 7.33323C16.6111 7.33323 16.4873 7.30114 16.3773 7.23698C14.9748 6.40281 13.114 5.96281 11.0011 5.96281C8.88818 5.96281 7.02734 6.40281 5.62484 7.23698C5.29484 7.42947 4.87318 7.32406 4.68068 6.99864C4.48818 6.66864 4.59359 6.24697 4.91901 6.05447C6.16568 5.31656 7.70109 4.84447 9.41984 4.67031C9.41526 4.65197 9.40609 4.63822 9.40151 4.61989C9.07151 3.63447 8.04943 3.05239 7.02734 3.26781C5.99151 3.48322 4.52484 3.93239 3.42943 4.81239C3.41568 4.82614 3.40193 4.83531 3.39276 4.84447C2.37526 5.78864 0.496094 10.592 0.496094 14.9553C0.496094 15.0745 0.523594 15.1891 0.583177 15.2945C1.70151 17.2607 4.33693 17.9803 5.42318 18.1957C5.55609 18.2232 5.68901 18.237 5.82193 18.237C6.47276 18.237 7.10068 17.9253 7.49026 17.3845L7.72859 17.0591C5.36818 16.4999 4.15818 15.4916 4.08943 15.432C3.80068 15.1845 3.76401 14.7536 4.01151 14.4649C4.25901 14.1761 4.68984 14.1395 4.97859 14.3824C5.01526 14.4145 7.03651 16.0507 11.0011 16.0507C14.984 16.0507 17.0053 14.4007 17.0236 14.3824C17.3123 14.1395 17.7478 14.1761 17.9907 14.4695C18.2336 14.7582 18.2015 15.1891 17.9128 15.432C17.844 15.4916 16.634 16.4999 14.2736 17.0591L14.5119 17.3845C14.9015 17.9253 15.5294 18.237 16.1803 18.237C16.3132 18.237 16.4461 18.2232 16.579 18.1957C17.6653 17.9803 20.3007 17.2607 21.419 15.2945C21.4786 15.1891 21.5061 15.0745 21.5061 14.9553C21.5061 10.592 19.6269 5.78864 18.6094 4.84447ZM8.03568 13.7132C7.16026 13.7132 6.44984 12.902 6.44984 11.8982C6.44984 10.8945 7.16026 10.0832 8.03568 10.0832C8.91568 10.0832 9.62609 10.8945 9.62609 11.8982C9.62609 12.902 8.91568 13.7132 8.03568 13.7132ZM13.9528 13.7499C13.0682 13.7499 12.3486 12.9295 12.3486 11.9166C12.3486 10.9036 13.0682 10.0832 13.9528 10.0832C14.8419 10.0832 15.5569 10.9036 15.5569 11.9166C15.5569 12.9295 14.8419 13.7499 13.9528 13.7499Z" fill="white"/>
</svg>
