<svg width="22" height="23" viewBox="0 0 22 23" fill="none" xmlns="http://www.w3.org/2000/svg">
<path d="M18.6084 5.5946C18.5993 5.58543 18.5855 5.57626 18.5718 5.56251C17.4764 4.68251 16.0097 4.23335 14.9739 4.01793C13.9518 3.80251 12.9297 4.3846 12.5997 5.37001C12.5951 5.38835 12.586 5.4021 12.5814 5.42043C14.3001 5.5946 15.8355 6.06668 17.0822 6.8046C17.4076 6.9971 17.513 7.41876 17.3205 7.74876C17.1922 7.96418 16.963 8.08335 16.7293 8.08335C16.6101 8.08335 16.4864 8.05126 16.3764 7.9871C14.9739 7.15293 13.113 6.71293 11.0001 6.71293C8.8872 6.71293 7.02637 7.15293 5.62387 7.9871C5.29387 8.1796 4.8722 8.07418 4.6797 7.74876C4.4872 7.41876 4.59262 6.9971 4.91803 6.8046C6.1647 6.06668 7.70012 5.5946 9.41887 5.42043C9.41428 5.4021 9.40512 5.38835 9.40053 5.37001C9.07053 4.3846 8.04845 3.80251 7.02637 4.01793C5.99053 4.23335 4.52387 4.68251 3.42845 5.56251C3.4147 5.57626 3.40095 5.58543 3.39178 5.5946C2.37428 6.53876 0.495117 11.3421 0.495117 15.7054C0.495117 15.8246 0.522617 15.9392 0.5822 16.0446C1.70053 18.0108 4.33595 18.7304 5.4222 18.9458C5.55512 18.9733 5.68803 18.9871 5.82095 18.9871C6.47178 18.9871 7.0997 18.6754 7.48928 18.1346L7.72762 17.8092C5.3672 17.25 4.1572 16.2417 4.08845 16.1821C3.7997 15.9346 3.76303 15.5038 4.01053 15.215C4.25803 14.9263 4.68887 14.8896 4.97762 15.1325C5.01428 15.1646 7.03553 16.8008 11.0001 16.8008C14.983 16.8008 17.0043 15.1508 17.0226 15.1325C17.3114 14.8896 17.7468 14.9263 17.9897 15.2196C18.2326 15.5083 18.2005 15.9392 17.9118 16.1821C17.843 16.2417 16.633 17.25 14.2726 17.8092L14.511 18.1346C14.9005 18.6754 15.5285 18.9871 16.1793 18.9871C16.3122 18.9871 16.4451 18.9733 16.578 18.9458C17.6643 18.7304 20.2997 18.0108 21.418 16.0446C21.4776 15.9392 21.5051 15.8246 21.5051 15.7054C21.5051 11.3421 19.6259 6.53876 18.6084 5.5946ZM8.0347 14.4633C7.15928 14.4633 6.44887 13.6521 6.44887 12.6483C6.44887 11.6446 7.15928 10.8333 8.0347 10.8333C8.9147 10.8333 9.62512 11.6446 9.62512 12.6483C9.62512 13.6521 8.9147 14.4633 8.0347 14.4633ZM13.9518 14.5C13.0672 14.5 12.3476 13.6796 12.3476 12.6667C12.3476 11.6538 13.0672 10.8333 13.9518 10.8333C14.841 10.8333 15.5559 11.6538 15.5559 12.6667C15.5559 13.6796 14.841 14.5 13.9518 14.5Z" fill="#30CA4C"/>
</svg>
