<svg width="22" height="23" viewBox="0 0 22 23" fill="none" xmlns="http://www.w3.org/2000/svg">
<path d="M21.9999 11.703C22.0138 16.1535 19.3641 20.1743 15.2578 21.8935C11.1514 23.6127 6.42081 22.6976 3.25782 19.5642C0.0948266 16.4308 -0.862396 11.703 0.816211 7.58525C2.49482 3.46748 6.50405 0.777758 10.9433 0.750029C17.0335 0.736165 21.9722 5.63035 21.9999 11.703Z" fill="white"/>
<path d="M21.1815 11.703C21.1954 15.8208 18.7399 19.5365 14.9388 21.1309C11.1376 22.7253 6.7677 21.8657 3.84054 18.9819C0.913386 16.0842 0.025528 11.7169 1.57928 7.918C3.13303 4.10525 6.83706 1.6235 10.9434 1.59577C16.5758 1.56804 21.1538 6.08788 21.1815 11.703Z" fill="#30CA4B"/>
<path d="M16.1601 8.11208C15.4248 7.90411 14.6618 7.59909 13.885 7.29407C13.8433 7.09997 13.663 6.86427 13.3162 6.55925C12.8168 6.11559 11.8595 6.12945 11.041 6.32356C10.1393 6.11559 9.23758 6.0324 8.37747 6.24037C1.34397 8.1814 5.32545 12.8953 2.74512 17.6509C3.10581 18.4273 7.07342 22.9749 12.8029 21.7548C12.8029 21.7548 10.8468 17.0547 15.2722 14.7948C18.8653 12.9647 21.4456 9.55399 16.1601 8.11208Z" fill="white"/>
<path d="M17.0338 11.2039C17.0338 11.5782 16.576 11.7723 16.3124 11.5089C16.0488 11.2455 16.2292 10.7879 16.6037 10.7741C16.8396 10.7879 17.0338 10.9682 17.0338 11.2039Z" fill="#30CA4B"/>
<path d="M11.04 6.32357C11.5533 6.36517 13.4123 6.96134 13.884 7.29409C13.4816 6.14333 12.1499 5.99082 11.04 6.32357Z" fill="white"/>
<path d="M10.9433 9.26286C10.9433 9.81745 10.6104 10.3304 10.0832 10.5384C9.56989 10.7464 8.97336 10.6355 8.57105 10.2334C8.16874 9.83131 8.05776 9.249 8.26585 8.72215C8.47394 8.20916 8.98724 7.86255 9.54215 7.86255C10.319 7.87641 10.9433 8.50031 10.9433 9.26286Z" fill="#30CA4C"/>
<path d="M18.6291 12.0774C17.0337 13.2004 15.2164 14.0461 12.6499 14.0461C11.443 14.0461 11.2072 12.7706 10.4025 13.3945C9.98636 13.7134 8.54359 14.4343 7.39215 14.3928C6.24071 14.3373 4.38176 13.6579 3.86847 11.2178C3.66037 13.6718 3.56327 15.4742 2.63379 17.54C4.465 20.4793 8.83492 22.7392 12.8025 21.7687C12.3725 18.7878 14.9806 15.8763 16.4372 14.3928C17.006 13.8104 18.0742 12.8954 18.6291 12.0774Z" fill="white"/>
<path d="M18.5587 12.1467C18.0592 12.6042 17.4766 12.9369 16.88 13.2281C16.2696 13.5193 15.6454 13.7411 14.9934 13.9213C14.3413 14.0877 13.6616 14.2125 12.9818 14.157C12.2882 14.1016 11.5945 13.8659 11.1367 13.3529L11.1645 13.3252C11.7194 13.6856 12.3714 13.8104 13.0095 13.8381C13.6616 13.852 14.3136 13.8104 14.9517 13.6856C15.5899 13.547 16.228 13.3529 16.8384 13.1033C17.4488 12.8538 18.0454 12.5626 18.5725 12.1467H18.5587Z" fill="#30CA4B"/>
</svg>
