<svg width="18" height="19" viewBox="0 0 18 19" fill="none" xmlns="http://www.w3.org/2000/svg">
<path d="M13.4995 2.62866C12.8265 2.62866 12.1536 2.8838 11.6436 3.39404L3.34302 11.6938C3.18553 11.8513 3.07019 12.0472 3.00904 12.2622L1.89649 16.158C1.86905 16.2544 1.86787 16.3563 1.89306 16.4533C1.91825 16.5504 1.9689 16.6389 2.03977 16.7097C2.11064 16.7806 2.19916 16.8313 2.29617 16.8565C2.39318 16.8817 2.49516 16.8805 2.59156 16.853L6.48804 15.7405C6.48829 15.7402 6.48853 15.74 6.48877 15.7397C6.70235 15.6784 6.89772 15.5644 7.05567 15.4065L15.3555 7.10596C16.3759 6.08554 16.3759 4.41446 15.3555 3.39404C14.8455 2.8838 14.1725 2.62866 13.4995 2.62866ZM13.4995 3.74707C13.8823 3.74707 14.2646 3.89457 14.5593 4.18945C14.5596 4.18945 14.5598 4.18945 14.5601 4.18945C15.1506 4.78003 15.1506 5.71997 14.5601 6.31055L13.8328 7.03784L11.7117 4.91675L12.439 4.18945C12.7337 3.89457 13.1167 3.74707 13.4995 3.74707ZM10.9163 5.71216L13.0374 7.83325L6.25953 14.6111C6.23754 14.6329 6.20969 14.6496 6.17823 14.6587L3.25586 15.4937L4.09083 12.5706C4.09083 12.5703 4.09083 12.5701 4.09083 12.5698C4.09942 12.5396 4.11517 12.5125 4.13843 12.4893L10.9163 5.71216Z" fill="#30CA4C"/>
</svg>
