<svg width="15" height="15" viewBox="0 0 15 15" fill="none" xmlns="http://www.w3.org/2000/svg">
<g opacity="0.3">
<path d="M11.3851 6.15635L12.0968 5.44469C12.8359 4.7056 12.8359 3.50277 12.0968 2.7634C11.7389 2.40581 11.2632 2.20923 10.756 2.20923C10.2488 2.20923 9.77279 2.4061 9.4152 2.76369L8.70383 3.47506L11.3851 6.15635ZM8.0852 4.09369L2.81508 9.36381C2.70279 9.4761 2.61733 9.61465 2.56774 9.76485L1.59066 12.7168C1.53845 12.8737 1.57958 13.0467 1.69654 13.1636C1.78024 13.2471 1.89166 13.2917 2.00599 13.2917C2.05208 13.2917 2.09845 13.2844 2.14366 13.2695L5.09474 12.2921C5.24554 12.2426 5.38437 12.1571 5.49666 12.0445L10.7665 6.77469L8.0852 4.09369Z" fill="#212531"/>
</g>
</svg>
