<svg width="95" height="62" viewBox="0 0 95 62" fill="none" xmlns="http://www.w3.org/2000/svg">
<path d="M31.3554 11.4587L22.7855 55.4703L21.6719 61.232L78.8047 60.9657C81.3708 60.9415 83.6465 58.6659 84.4696 55.3009L94.6131 13.7585C95.2425 11.1924 93.8626 8.52942 91.9259 8.52942L34.091 8.60205C32.8079 8.55363 31.6701 9.73986 31.3554 11.4587Z" fill="#CCD3DD"/>
<path d="M73.336 52.4926L67.2838 3.73607C67.0417 1.72674 65.4439 0.25 63.5556 0.25L50.2892 0.298417C49.2966 0.298417 48.3767 0.709968 47.6746 1.46044L41.3803 8.16628L4.4861 8.35995C2.23468 8.35995 0.491641 10.5145 0.806355 12.9112L6.4228 57.988C6.66489 59.9732 8.26267 61.4741 10.1268 61.4741L74.4254 61.3531C81.5912 61.4983 82.269 59.3922 82.269 59.3922C74.0622 61.1594 73.336 52.4926 73.336 52.4926Z" fill="white"/>
<g opacity="0.5">
<path d="M45.593 42.7366L43.4385 45.0606L26.7344 30.0511L28.889 27.7029L45.593 42.7366Z" fill="#AAB3C0"/>
<path d="M42.5204 27.1945L44.917 29.349L29.8107 45.5932L27.4141 43.4386L42.5204 27.1945Z" fill="#AAB3C0"/>
</g>
</svg>
