<svg width="86" height="87" viewBox="0 0 86 87" fill="none" xmlns="http://www.w3.org/2000/svg">
<circle cx="43" cy="43.75" r="42.5" stroke="#D8D9DA"/>
<path d="M49.2759 34.7688C49.0317 34.5211 48.6363 34.5211 48.3921 34.7688L43.0004 40.2375L37.6092 34.7688C37.365 34.5211 36.9696 34.5211 36.7254 34.7688L34.0171 37.5158C33.7729 37.7634 33.7729 38.1645 34.0171 38.4122L39.2794 43.7497L34.0171 49.0872C33.7729 49.3348 33.7729 49.7359 34.0171 49.9836L36.7254 52.7306C36.9696 52.9783 37.365 52.9783 37.6092 52.7306L43.0004 47.2619L48.3921 52.7306C48.6363 52.9783 49.0317 52.9783 49.2759 52.7306L51.9842 49.9831C52.2284 49.7355 52.2284 49.3344 51.9842 49.0868L46.7223 43.7497L51.9842 38.4126C52.2284 38.1649 52.2284 37.7639 51.9842 37.5162L49.2759 34.7688Z" fill="#F8444F"/>
</svg>
