<svg width="23" height="23" viewBox="0 0 23 23" fill="none" xmlns="http://www.w3.org/2000/svg">
<path d="M11.1094 4.41675C4.56929 4.41675 0.344766 11.1716 0.268359 11.2946C0.165514 11.4242 0.109486 11.5847 0.109375 11.7501C0.109505 11.892 0.150801 12.0308 0.228255 12.1497C0.229205 12.1511 0.23016 12.1526 0.23112 12.154C0.243728 12.18 3.78985 19.0834 11.1094 19.0834C18.3978 19.0834 21.9387 12.2478 21.9819 12.164C21.9848 12.1593 21.9877 12.1545 21.9905 12.1497C22.0679 12.0308 22.1092 11.892 22.1094 11.7501C22.1094 11.5853 22.0539 11.4254 21.9518 11.296C21.9513 11.2956 21.9509 11.2951 21.9504 11.2946C21.874 11.1716 17.6495 4.41675 11.1094 4.41675ZM11.1094 6.61675C13.9444 6.61675 16.2427 8.91501 16.2427 11.7501C16.2427 14.5851 13.9444 16.8834 11.1094 16.8834C8.27431 16.8834 5.97604 14.5851 5.97604 11.7501C5.97604 8.91501 8.27431 6.61675 11.1094 6.61675ZM11.1094 9.55008C10.5259 9.55008 9.96632 9.78187 9.55374 10.1944C9.14116 10.607 8.90938 11.1666 8.90938 11.7501C8.90938 12.3336 9.14116 12.8931 9.55374 13.3057C9.96632 13.7183 10.5259 13.9501 11.1094 13.9501C11.6929 13.9501 12.2524 13.7183 12.665 13.3057C13.0776 12.8931 13.3094 12.3336 13.3094 11.7501C13.3094 11.1666 13.0776 10.607 12.665 10.1944C12.2524 9.78187 11.6929 9.55008 11.1094 9.55008Z" fill="#30CA4C"/>
</svg>
