<svg width="22" height="23" viewBox="0 0 22 23" fill="none" xmlns="http://www.w3.org/2000/svg">
<path d="M10.9938 4.875C5.80569 4.875 1.23435 8.47105 0.0215988 13.1832C-0.0237479 13.3598 0.00293203 13.5472 0.0957692 13.7042C0.188606 13.8612 0.339996 13.9748 0.516634 14.0202C0.693273 14.0655 0.88069 14.0388 1.03766 13.946C1.19462 13.8532 1.30828 13.7018 1.35363 13.5251C2.39863 9.46479 6.44701 6.25 10.9938 6.25C15.5407 6.25 19.6019 9.46592 20.6466 13.5251C20.6919 13.7018 20.8056 13.8532 20.9626 13.946C21.1195 14.0388 21.307 14.0655 21.4836 14.0202C21.6602 13.9748 21.8116 13.8612 21.9045 13.7042C21.9973 13.5472 22.024 13.3598 21.9786 13.1832C20.7656 8.46992 16.182 4.875 10.9938 4.875ZM11.001 8.54167C8.56264 8.54167 6.57165 10.5327 6.57165 12.971C6.57165 15.4094 8.56264 17.4013 11.001 17.4013C13.4394 17.4013 15.4313 15.4094 15.4313 12.971C15.4313 10.5327 13.4394 8.54167 11.001 8.54167Z" fill="#30CA4C"/>
</svg>
