<svg width="22" height="23" viewBox="0 0 22 23" fill="none" xmlns="http://www.w3.org/2000/svg">
<g opacity="0.2">
<path d="M3.89606 3.5C3.71373 3.50002 3.53888 3.57246 3.40995 3.70138C3.28102 3.83031 3.20858 4.00517 3.20856 4.1875V20.2292C3.20728 20.3203 3.22411 20.4107 3.25808 20.4953C3.29205 20.5798 3.34249 20.6567 3.40645 20.7216C3.47042 20.7865 3.54665 20.838 3.6307 20.8732C3.71475 20.9083 3.80495 20.9265 3.89606 20.9265C3.98718 20.9265 4.07738 20.9083 4.16143 20.8732C4.24548 20.838 4.32171 20.7865 4.38567 20.7216C4.44964 20.6567 4.50008 20.5798 4.53405 20.4953C4.56802 20.4107 4.58485 20.3203 4.58356 20.2292V15.875H19.0211C19.1487 15.8749 19.2739 15.8393 19.3824 15.7722C19.491 15.705 19.5787 15.6089 19.6358 15.4947C19.6928 15.3805 19.717 15.2527 19.7055 15.1255C19.694 14.9984 19.6473 14.8769 19.5707 14.7748L15.7554 9.6875L19.5707 4.60018C19.6473 4.49806 19.694 4.37662 19.7055 4.24947C19.717 4.12232 19.6928 3.99449 19.6358 3.88028C19.5787 3.76607 19.491 3.67001 19.3824 3.60284C19.2739 3.53568 19.1487 3.50007 19.0211 3.5H3.89606Z" fill="#212531"/>
</g>
</svg>
