<svg width="22" height="23" viewBox="0 0 22 23" fill="none" xmlns="http://www.w3.org/2000/svg">
<path d="M10.9997 2.58334C5.94792 2.58334 1.83301 6.69826 1.83301 11.75C1.83301 16.8018 5.94792 20.9167 10.9997 20.9167C16.0514 20.9167 20.1663 16.8018 20.1663 11.75C20.1663 6.69826 16.0514 2.58334 10.9997 2.58334ZM10.9997 4.41668C11.2273 4.41668 11.4767 4.50984 11.7946 4.81235C12.1125 5.11485 12.4576 5.62199 12.7542 6.2894C12.98 6.79746 13.1648 7.41755 13.3236 8.08334H8.67578C8.83458 7.41755 9.01931 6.79746 9.24512 6.2894C9.54174 5.62199 9.88689 5.11485 10.2048 4.81235C10.5226 4.50984 10.7721 4.41668 10.9997 4.41668ZM7.74658 5.18116C7.68688 5.30116 7.62528 5.41873 7.56934 5.54461C7.23776 6.29065 6.9804 7.15403 6.78695 8.08334H4.64925C5.37015 6.83409 6.44831 5.82318 7.74658 5.18116ZM14.2528 5.18116C15.551 5.82318 16.6292 6.83409 17.3501 8.08334H15.2124C15.019 7.15403 14.7616 6.29065 14.43 5.54461C14.3741 5.41873 14.3125 5.30116 14.2528 5.18116ZM3.90625 9.91668H6.50586C6.44959 10.5097 6.41634 11.1208 6.41634 11.75C6.41634 12.3792 6.44959 12.9904 6.50586 13.5833H3.90625C3.75577 12.9965 3.66634 12.3849 3.66634 11.75C3.66634 11.1151 3.75577 10.5035 3.90625 9.91668ZM8.3571 9.91668H13.6423C13.7061 10.5057 13.7497 11.1144 13.7497 11.75C13.7497 12.3856 13.7061 12.9943 13.6423 13.5833H8.3571C8.29329 12.9943 8.24967 12.3856 8.24967 11.75C8.24967 11.1144 8.29329 10.5057 8.3571 9.91668ZM15.4935 9.91668H18.0931C18.2436 10.5035 18.333 11.1151 18.333 11.75C18.333 12.3849 18.2436 12.9965 18.0931 13.5833H15.4935C15.5498 12.9904 15.583 12.3792 15.583 11.75C15.583 11.1208 15.5498 10.5097 15.4935 9.91668ZM4.64925 15.4167H6.78695C6.9804 16.346 7.23776 17.2094 7.56934 17.9554C7.62528 18.0813 7.68688 18.1989 7.74658 18.3189C6.44831 17.6768 5.37015 16.6659 4.64925 15.4167ZM8.67578 15.4167H13.3236C13.1648 16.0825 12.98 16.7026 12.7542 17.2106C12.4576 17.878 12.1125 18.3852 11.7946 18.6877C11.4767 18.9902 11.2273 19.0833 10.9997 19.0833C10.7721 19.0833 10.5226 18.9902 10.2048 18.6877C9.88689 18.3852 9.54174 17.878 9.24512 17.2106C9.01931 16.7026 8.83458 16.0825 8.67578 15.4167ZM15.2124 15.4167H17.3501C16.6292 16.6659 15.551 17.6768 14.2528 18.3189C14.3125 18.1989 14.3741 18.0813 14.43 17.9554C14.7616 17.2094 15.019 16.346 15.2124 15.4167Z" fill="#30CA4C"/>
</svg>
