<svg width="16" height="17" viewBox="0 0 16 17" fill="none" xmlns="http://www.w3.org/2000/svg">
<path d="M7.99996 1.08624C7.93036 1.08624 7.86103 1.10832 7.80183 1.15312L0.441832 6.89749C0.304232 7.00629 0.278657 7.20732 0.387457 7.34812C0.496257 7.48572 0.697282 7.51129 0.838082 7.40249L1.27996 7.05749V15.47C1.27996 15.646 1.42396 15.79 1.59996 15.79H6.07996V10.03H9.91996V15.79H14.4C14.576 15.79 14.72 15.646 14.72 15.47V7.05749L15.1618 7.40249C15.2226 7.44729 15.2896 7.46999 15.36 7.46999C15.456 7.46999 15.5485 7.42812 15.6125 7.34812C15.7213 7.20732 15.6957 7.00629 15.5581 6.89749L8.19808 1.15312C8.13888 1.10832 8.06956 1.08624 7.99996 1.08624ZM11.2 2.34999V2.68624L13.12 4.18374V2.34999H11.2Z" fill="#30CA4C"/>
</svg>
