<svg width="19" height="19" viewBox="0 0 19 19" fill="none" xmlns="http://www.w3.org/2000/svg">
<path d="M9.87891 7.33008C9.67578 7.51367 9.41211 7.60547 9.08789 7.60547C8.76367 7.60547 8.49805 7.51367 8.29102 7.33008C8.08789 7.14258 7.98633 6.90039 7.98633 6.60352C7.98633 6.30664 8.08789 6.06445 8.29102 5.87695C8.49805 5.68945 8.76367 5.5957 9.08789 5.5957C9.41211 5.5957 9.67578 5.68945 9.87891 5.87695C10.0859 6.06445 10.1895 6.30664 10.1895 6.60352C10.1895 6.90039 10.0859 7.14258 9.87891 7.33008ZM8.18555 14.25V8.39062H9.99023V14.25H8.18555Z" fill="#30CA4C"/>
<rect x="1.27344" y="1.5" width="16.5" height="16.5" rx="8.25" stroke="#30CA4C" stroke-width="1.5"/>
</svg>
