<svg width="22" height="23" viewBox="0 0 22 23" fill="none" xmlns="http://www.w3.org/2000/svg">
<g opacity="0.4">
<path d="M19.4651 2.57707C19.2865 2.58227 19.117 2.65675 18.9924 2.78475L2.03406 19.7431C1.96808 19.8064 1.9154 19.8823 1.87912 19.9663C1.84283 20.0502 1.82366 20.1406 1.82273 20.2321C1.8218 20.3235 1.83913 20.4143 1.8737 20.4989C1.90827 20.5836 1.9594 20.6606 2.02408 20.7252C2.08875 20.7899 2.16569 20.841 2.25037 20.8756C2.33506 20.9102 2.42579 20.9275 2.51725 20.9266C2.60872 20.9257 2.69907 20.9065 2.78304 20.8702C2.867 20.8339 2.94288 20.7812 3.00623 20.7153L7.75249 15.969C8.56313 16.8463 9.71613 17.4013 10.9993 17.4013C13.4422 17.4013 15.4314 15.412 15.4314 12.9737C15.4314 11.6905 14.8765 10.5341 13.9991 9.72241L16.0652 7.65633C18.2889 8.95835 20.0142 11.0611 20.6476 13.5234C20.7255 13.835 21.0047 14.0417 21.3118 14.0417C21.3668 14.0417 21.426 14.0367 21.481 14.0184C21.8523 13.9267 22.0723 13.5516 21.976 13.185C21.2703 10.4338 19.4607 8.11683 17.0848 6.63672L19.9646 3.75692C20.0637 3.66032 20.1315 3.53603 20.1588 3.40032C20.1862 3.2646 20.172 3.12378 20.118 2.99629C20.064 2.8688 19.9728 2.76057 19.8563 2.68577C19.7398 2.61097 19.6034 2.57308 19.4651 2.57707ZM10.9948 4.875C5.87525 4.875 1.26009 8.36789 0.0225868 13.185C-0.0736632 13.5516 0.146373 13.9267 0.517623 14.0184C0.884289 14.1146 1.25937 13.8946 1.35104 13.5234C2.41895 9.37544 6.56734 6.25 10.9948 6.25C11.7786 6.25 12.5528 6.34586 13.2999 6.53377L14.4279 5.40674C13.3324 5.05841 12.1773 4.875 10.9948 4.875ZM10.9993 8.54167C8.5564 8.54167 6.57174 10.5308 6.57174 12.9737C6.57174 13.0654 6.57611 13.1613 6.58069 13.253L11.2831 8.55062C11.1868 8.54604 11.0956 8.54167 10.9993 8.54167Z" fill="#212531"/>
</g>
</svg>
