<?xml version="1.0" encoding="UTF-8"?><svg id="_лой_2" xmlns="http://www.w3.org/2000/svg" viewBox="0 0 754.33 478.71"><defs><style>.cls-1{fill:#fff;}.cls-2{fill:#212531;}</style></defs><g id="SM"><g><path class="cls-2" d="M239.35,0h275.62C647.08,0,754.33,107.25,754.33,239.35h0c0,132.1-107.25,239.36-239.35,239.36H0V239.35C0,107.25,107.25,0,239.35,0Z"/><g><g><g><path class="cls-1" d="M328.73,239.35c0,19.03-5.83,36.84-15.76,51.47-16.47,24.56-44.51,40.62-76.34,40.62-50.86,0-92.1-41.24-92.1-92.1s41.24-92.1,92.1-92.1c43.59,0,80.23,30.39,89.64,71.12,1.64,6.75,2.46,13.81,2.46,20.98Z"/><path class="cls-2" d="M236.63,147.26c43.59,0,80.23,30.39,89.64,71.12,1.64,6.75,2.46,13.81,2.46,20.98,0,19.03-5.83,36.84-15.76,51.47-16.47,24.56-44.51,40.62-76.34,40.62-50.86,0-92.1-41.24-92.1-92.1s41.24-92.1,92.1-92.1m0-20.47c-62.07,0-112.56,50.49-112.56,112.56s50.49,112.56,112.56,112.56c37.57,0,72.46-18.58,93.33-49.69,12.56-18.51,19.23-40.29,19.23-62.87,0-8.82-1.02-17.5-3.03-25.8-11.79-51-56.85-86.76-109.53-86.76h0Z"/></g><circle class="cls-2" cx="291.67" cy="249.59" r="46.05"/><circle class="cls-1" cx="257.44" cy="224.32" r="20.78"/></g><g><g><path class="cls-1" d="M609.8,239.35c0,19.03-5.83,36.84-15.76,51.47-16.47,24.56-44.51,40.62-76.34,40.62-50.86,0-92.1-41.24-92.1-92.1s41.24-92.1,92.1-92.1c43.59,0,80.23,30.39,89.64,71.12,1.64,6.75,2.46,13.81,2.46,20.98Z"/><path class="cls-2" d="M517.7,147.26c43.59,0,80.23,30.39,89.64,71.12,1.64,6.75,2.46,13.81,2.46,20.98,0,19.03-5.83,36.84-15.76,51.47-16.47,24.56-44.51,40.62-76.34,40.62-50.86,0-92.1-41.24-92.1-92.1s41.24-92.1,92.1-92.1m0-20.47c-62.07,0-112.56,50.49-112.56,112.56s50.49,112.56,112.56,112.56c37.57,0,72.46-18.58,93.33-49.69,12.56-18.51,19.23-40.29,19.23-62.87,0-8.82-1.02-17.5-3.03-25.8-11.79-51-56.85-86.76-109.53-86.76h0Z"/></g><circle class="cls-2" cx="572.74" cy="249.59" r="46.05"/><circle class="cls-1" cx="538.51" cy="224.32" r="20.78"/></g></g></g></g></svg>