<?xml version="1.0" encoding="UTF-8"?><svg id="_лой_2" xmlns="http://www.w3.org/2000/svg" viewBox="0 0 791.95 112.14"><defs><style>.cls-1{fill:#fff;}.cls-2{fill:#30ca4b;}.cls-3{fill:#212531;}</style></defs><g id="SM"><g><g><path class="cls-3" d="M240.85,104.9h-18.98V10h18.98V104.9Z"/><path class="cls-3" d="M273.25,75.75c2.03,9.76,10.71,16.27,22.1,16.27,8.14,0,14.64-2.98,18.17-7.86h19.25c-5.15,13.83-19.66,22.78-38.23,22.78-23.32,0-40.81-15.32-40.81-35.79s17.35-36.06,40.81-36.06,40.54,14.51,40.54,36.06c0,1.49,0,3.12-.27,4.61h-61.55Zm42.3-9.49c-1.9-9.63-9.9-15.86-21.01-15.86s-19.25,6.37-21.29,15.86h42.3Z"/><path class="cls-3" d="M413.57,104.9l-1.9-8.95c-6.92,6.92-16.81,10.98-28.34,10.98-22.51,0-39.45-15.32-39.45-35.79s16.81-36.06,39.45-36.06c11.39,0,21.42,3.93,28.34,10.98l1.9-8.95h16.81V104.9h-16.81Zm-26.17-14.78c14.37,0,24-7.73,24-18.98s-9.76-19.39-24-19.39-24.54,8.14-24.54,19.39,10.3,18.98,24.54,18.98Z"/><path class="cls-3" d="M466.71,104.9h-18.98V10h18.98V62.46h8.41l23.32-25.35h24.95l-31.05,33.9,33.76,33.9h-25.76l-25.35-25.22h-8.27v25.22Z"/><path class="cls-3" d="M540.73,87.28c5.69,0,9.76,4.07,9.76,9.76,0,6.1-4.07,9.9-9.76,9.9-6.1,0-10.17-3.8-10.17-9.9,0-5.69,4.07-9.76,10.17-9.76Z"/><path class="cls-3" d="M582.76,104.9h-18.98V37.11h16.95l1.76,10.71c5.69-7.86,14.24-12.74,24.27-12.74,13.42,0,24.13,7.32,29.56,19.25,5.29-11.8,15.46-19.25,27.93-19.25,19.52,0,33.49,15.59,33.49,38.23v31.59h-18.98v-31.59c0-12.2-8-20.74-19.39-20.74s-19.12,8.54-19.12,20.74v31.59h-18.98v-31.59c0-12.2-8-20.74-19.39-20.74s-19.12,8.54-19.12,20.74v31.59Z"/><path class="cls-3" d="M730.12,75.75c2.03,9.76,10.71,16.27,22.1,16.27,8.13,0,14.64-2.98,18.17-7.86h19.25c-5.15,13.83-19.66,22.78-38.23,22.78-23.32,0-40.81-15.32-40.81-35.79s17.35-36.06,40.81-36.06,40.54,14.51,40.54,36.06c0,1.49,0,3.12-.27,4.61h-61.55Zm42.3-9.49c-1.9-9.63-9.9-15.86-21.01-15.86s-19.25,6.37-21.29,15.86h42.3Z"/></g><g><path class="cls-2" d="M56.07,0H120.63C151.58,0,176.7,25.12,176.7,56.07h0c0,30.94-25.12,56.07-56.07,56.07H0V56.07C0,25.12,25.12,0,56.07,0Z"/><g><g><g><path class="cls-1" d="M77,56.07c0,4.46-1.37,8.63-3.69,12.06-3.86,5.75-10.43,9.52-17.88,9.52-11.91,0-21.57-9.66-21.57-21.57s9.66-21.57,21.57-21.57c10.21,0,18.79,7.12,21,16.66,.38,1.58,.58,3.24,.58,4.91Z"/><path class="cls-3" d="M55.43,34.49c10.21,0,18.79,7.12,21,16.66,.38,1.58,.58,3.24,.58,4.91,0,4.46-1.37,8.63-3.69,12.06-3.86,5.75-10.43,9.52-17.88,9.52-11.91,0-21.57-9.66-21.57-21.57s9.66-21.57,21.57-21.57m0-4.79c-14.54,0-26.37,11.83-26.37,26.37s11.83,26.37,26.37,26.37c8.8,0,16.97-4.35,21.86-11.64,2.94-4.34,4.5-9.44,4.5-14.73,0-2.07-.24-4.1-.71-6.04-2.76-11.95-13.32-20.32-25.66-20.32h0Z"/></g><circle class="cls-3" cx="68.32" cy="58.47" r="10.79"/><circle class="cls-1" cx="60.3" cy="52.55" r="4.87"/></g><g><g><path class="cls-1" d="M142.84,56.07c0,4.46-1.37,8.63-3.69,12.06-3.86,5.75-10.43,9.52-17.88,9.52-11.91,0-21.57-9.66-21.57-21.57s9.66-21.57,21.57-21.57c10.21,0,18.79,7.12,21,16.66,.38,1.58,.58,3.24,.58,4.91Z"/><path class="cls-3" d="M121.27,34.49c10.21,0,18.79,7.12,21,16.66,.38,1.58,.58,3.24,.58,4.91,0,4.46-1.37,8.63-3.69,12.06-3.86,5.75-10.43,9.52-17.88,9.52-11.91,0-21.57-9.66-21.57-21.57s9.66-21.57,21.57-21.57m0-4.79c-14.54,0-26.37,11.83-26.37,26.37s11.83,26.37,26.37,26.37c8.8,0,16.97-4.35,21.86-11.64,2.94-4.34,4.5-9.44,4.5-14.73,0-2.07-.24-4.1-.71-6.04-2.76-11.95-13.32-20.32-25.66-20.32h0Z"/></g><circle class="cls-3" cx="134.16" cy="58.47" r="10.79"/><circle class="cls-1" cx="126.14" cy="52.55" r="4.87"/></g></g></g></g></g></svg>