<svg width="20" height="23" viewBox="0 0 20 23" fill="none" xmlns="http://www.w3.org/2000/svg">
<path d="M10.7823 0.75H5.48375L1.48877 9.70605C0.406161 12.1331 -0.135141 13.3466 0.0288659 14.2736C0.173132 15.089 0.687992 15.7519 1.49965 16.1674C2.42239 16.6398 3.90614 16.6398 6.87362 16.6398H10.7592L12.4345 12.884C12.5248 12.6817 12.5699 12.5806 12.5562 12.5034C12.5442 12.4354 12.5013 12.3802 12.4336 12.3455C12.3567 12.3062 12.2331 12.3062 11.9858 12.3062H8.45343C7.46427 12.3062 6.96969 12.3062 6.66211 12.1487C6.39155 12.0103 6.21992 11.7893 6.17185 11.5174C6.11719 11.2085 6.29762 10.8039 6.65849 9.99495L10.7823 0.75Z" fill="white"/>
<path d="M9.21769 22.75H14.5163L18.5112 13.794C19.5938 11.367 20.1352 10.1535 19.9711 9.22646C19.8269 8.41106 19.312 7.7481 18.5003 7.33261C17.5776 6.86029 16.0939 6.86029 13.1264 6.86029H9.24076L7.56546 10.6161C7.47524 10.8183 7.43015 10.9194 7.44381 10.9967C7.45581 11.0646 7.49873 11.1199 7.56638 11.1545C7.64326 11.1939 7.76692 11.1939 8.01421 11.1939H11.5466C12.5358 11.1939 13.0303 11.1939 13.3379 11.3513C13.6084 11.4898 13.7801 11.7108 13.8282 11.9826C13.8828 12.2916 13.7024 12.6961 13.3415 13.5051L9.21769 22.75Z" fill="white"/>
</svg>
