<svg width="22" height="23" viewBox="0 0 22 23" fill="none" xmlns="http://www.w3.org/2000/svg">
<g opacity="0.4">
<path d="M16.5 3.5C18.0079 3.5 19.25 4.74207 19.25 6.25V17.25C19.25 18.7579 18.0079 20 16.5 20H8.70833C7.43599 20 6.30343 19.1661 5.98698 17.9366C5.957 17.82 5.95029 17.6986 5.96722 17.5794C5.98415 17.4602 6.0244 17.3455 6.08566 17.2418C6.14693 17.1382 6.22801 17.0476 6.32428 16.9753C6.42054 16.9029 6.53011 16.8503 6.64673 16.8203C6.76335 16.7903 6.88473 16.7836 7.00394 16.8006C7.12315 16.8175 7.23786 16.8577 7.34151 16.919C7.44517 16.9803 7.53575 17.0613 7.60807 17.1576C7.68039 17.2539 7.73304 17.3634 7.76302 17.4801C7.85357 17.8319 8.27201 18.1667 8.70833 18.1667H16.5C17.017 18.1667 17.4167 17.767 17.4167 17.25V6.25C17.4167 5.73301 17.017 5.33333 16.5 5.33333H8.70833C8.27201 5.33333 7.85357 5.66815 7.76302 6.01994C7.73304 6.13655 7.68039 6.24613 7.60807 6.34239C7.53575 6.43866 7.44517 6.51974 7.34151 6.581C7.23786 6.64227 7.12315 6.68251 7.00394 6.69945C6.88473 6.71638 6.76335 6.70966 6.64673 6.67969C6.53011 6.64971 6.42054 6.59706 6.32428 6.52474C6.22801 6.45241 6.14693 6.36184 6.08566 6.25818C6.0244 6.15452 5.98415 6.03981 5.96722 5.9206C5.95029 5.80139 5.957 5.68001 5.98698 5.5634C6.30343 4.33394 7.43599 3.5 8.70833 3.5H16.5ZM6.42651 8.07438C6.60879 8.07461 6.78687 8.12917 6.93799 8.23109C7.08911 8.33301 7.20642 8.47767 7.27493 8.64658C7.34343 8.8155 7.36003 9.001 7.3226 9.1794C7.28517 9.35779 7.19541 9.52098 7.06478 9.64811L5.87956 10.8333H14.2083C14.3298 10.8316 14.4504 10.8541 14.5631 10.8994C14.6758 10.9446 14.7784 11.0119 14.8649 11.0972C14.9514 11.1825 15.0201 11.2841 15.067 11.3962C15.1139 11.5082 15.1381 11.6285 15.1381 11.75C15.1381 11.8715 15.1139 11.9918 15.067 12.1038C15.0201 12.2159 14.9514 12.3175 14.8649 12.4028C14.7784 12.4881 14.6758 12.5554 14.5631 12.6006C14.4504 12.6459 14.3298 12.6684 14.2083 12.6667H5.87956L7.06478 13.8519C7.15276 13.9364 7.22299 14.0375 7.27138 14.1495C7.31977 14.2614 7.34533 14.3819 7.34657 14.5039C7.34781 14.6258 7.32471 14.7468 7.27861 14.8597C7.23251 14.9726 7.16435 15.0752 7.07811 15.1614C6.99187 15.2477 6.88929 15.3158 6.77637 15.3619C6.66346 15.408 6.54249 15.4311 6.42053 15.4299C6.29858 15.4287 6.17809 15.4031 6.06614 15.3547C5.95419 15.3063 5.85302 15.2361 5.76856 15.1481L3.01855 12.3981C2.84671 12.2262 2.75018 11.9931 2.75018 11.75C2.75018 11.5069 2.84671 11.2738 3.01855 11.1019L5.76856 8.35189C5.85408 8.26397 5.95639 8.19411 6.0694 8.14644C6.18242 8.09877 6.30386 8.07427 6.42651 8.07438Z" fill="#212531"/>
</g>
</svg>
