<svg width="22" height="22" viewBox="0 0 22 22" fill="none" xmlns="http://www.w3.org/2000/svg">
<path d="M4.8112 3.6665C3.17406 3.6665 1.83203 5.00853 1.83203 6.64567V15.354C1.83203 16.9911 3.17406 18.3332 4.8112 18.3332H17.1862C18.8233 18.3332 20.1654 16.9911 20.1654 15.354V6.64567C20.1654 5.00853 18.8233 3.6665 17.1862 3.6665H4.8112ZM4.8112 5.0415H17.1862C18.08 5.0415 18.7904 5.75189 18.7904 6.64567V7.15234L10.9987 11.3642L3.20703 7.15234V6.64567C3.20703 5.75189 3.91742 5.0415 4.8112 5.0415ZM3.20703 8.71533L10.672 12.7508C10.7723 12.805 10.8846 12.8334 10.9987 12.8334C11.1128 12.8334 11.2251 12.805 11.3254 12.7508L18.7904 8.71533V15.354C18.7904 16.2478 18.08 16.9582 17.1862 16.9582H4.8112C3.91742 16.9582 3.20703 16.2478 3.20703 15.354V8.71533Z" fill="white"/>
</svg>
