<svg width="1060" height="668" viewBox="0 0 1060 668" fill="none" xmlns="http://www.w3.org/2000/svg">
<path opacity="0.5" d="M1048.99 476.017C1060.26 439.155 1063 400.162 1054.77 362.387C1041.98 303.591 1001.16 232.306 882.654 201.538C658.745 143.352 580.758 -26.9413 371.167 27.2844C371.167 27.2844 258.755 47.6951 205.443 233.829C152.132 419.963 -56.241 423.01 15.349 585.077C27.2299 611.581 58.6077 640.521 103.999 667.634L953.635 664.893C1013.04 594.216 1031.32 533.289 1048.99 476.017Z" fill="#ECEEF1"/>
<path d="M848.535 342.889H816.548V308.161C816.548 290.796 804.362 276.174 787.912 272.213V228.955H776.031V271.299C757.143 273.127 742.521 288.664 742.521 308.161V344.108H710.838V384.016H708.706V458.347L651.129 458.043V369.088H585.327V434.281H539.022V497.646H482.969V665.197H669.103H709.01H942.363V454.082H848.535V342.889Z" fill="#DBDFE6"/>
<path d="M190.517 434.89V351.724H221.895V307.247H233.471V351.724H262.412V434.89H294.703V484.851H345.883V314.863H453.42V664.892H383.353H353.194H277.339H242.306H150.914V434.89H190.517Z" fill="#DBDFE6"/>
<path d="M776.955 663.979L287.706 664.284C269.123 664.284 254.195 649.356 254.195 630.773L810.465 630.469C810.465 649.052 795.538 663.979 776.955 663.979Z" fill="#EBEFF4"/>
<path d="M776.955 652.403L287.706 652.707C273.388 652.707 260.897 643.568 256.328 630.773H254.195C254.195 649.356 269.123 664.284 287.706 664.284L776.955 663.979C795.538 663.979 810.465 649.052 810.465 630.469H808.333C803.763 643.264 791.578 652.403 776.955 652.403Z" fill="white"/>
<path d="M564.011 641.74H500.951C494.858 641.74 489.68 636.866 489.68 630.469H575.283C575.283 636.866 570.104 641.74 564.011 641.74Z" fill="#DBDFE5"/>
<path d="M781.581 630.955L283.933 631.261L283.629 328.823C283.629 311.392 297.604 297.325 314.922 297.325L750.288 297.02C767.605 297.02 781.581 311.086 781.581 328.517V630.955Z" fill="white"/>
<path d="M755.94 324.004H308.73V604.576H755.94V324.004Z" fill="#DBDFE5"/>
<path d="M755.94 577.767H308.73V604.575H755.94V577.767Z" fill="#D1D5DB"/>
<path d="M755.94 324.004H308.73V337.408H755.94V324.004Z" fill="#D1D5DB"/>
<path opacity="0.16" d="M457.695 324.308L308.727 473.276V604.88H309.336L589.298 324.003L457.695 324.308Z" fill="white"/>
<path opacity="0.16" d="M366.609 604.88L432.716 604.575L712.983 324.003H646.877L366.609 604.88Z" fill="white"/>
<path opacity="0.16" d="M703.237 604.576L755.939 551.873V452.256L598.137 604.576H703.237Z" fill="white"/>
<mask id="mask0_366_4316" style="mask-type:alpha" maskUnits="userSpaceOnUse" x="282" y="444" width="500" height="56">
<path d="M781.826 444.031H282.523V499.171H781.826V444.031Z" fill="#212531"/>
</mask>
<g mask="url(#mask0_366_4316)">
<path d="M781.826 444.031H282.523V499.171H781.826V444.031Z" fill="#30CA4C"/>
<path d="M344.974 518.364H302.02L338.881 433.674H381.835L344.974 518.364Z" fill="white"/>
<path d="M436.665 518.364H393.711L430.572 433.674H473.526L436.665 518.364Z" fill="white"/>
<path d="M528.067 518.364H485.113L522.279 433.674H565.233L528.067 518.364Z" fill="white"/>
<path d="M619.759 518.364H576.805L613.666 433.674H656.62L619.759 518.364Z" fill="white"/>
<path d="M711.462 518.364H668.508L705.369 433.674H748.323L711.462 518.364Z" fill="white"/>
</g>
<path d="M242.598 348.679L232.849 348.983L227.061 347.156C224.32 346.242 221.578 347.46 220.055 349.593L219.445 350.811L248.081 366.652L253.565 354.772L242.598 348.679Z" fill="#212531"/>
<path d="M247.777 366.958L219.141 351.117L220.055 349.289C220.359 348.984 220.664 348.679 220.968 348.984L248.995 364.521L247.777 366.958Z" fill="black"/>
<path d="M253.256 354.771L260.872 341.672L253.256 328.268L242.594 348.678L253.256 354.771Z" fill="#EB8175"/>
<path d="M312.359 279.831C312.359 279.831 271.842 268.255 267.882 279.222C263.922 290.189 240.16 338.626 240.16 338.626L257.829 347.765L284.333 301.765L319.975 298.718L312.359 279.831Z" fill="#212531"/>
<path d="M279.466 363.606L271.545 368.785L265.757 370.003C263.015 370.613 261.187 372.745 260.883 375.487V376.705H293.479L292.565 363.606H279.466Z" fill="#353B4E"/>
<path d="M293.174 376.705H260.273V374.572C260.273 374.267 260.578 373.963 260.883 373.963H292.87L293.174 376.705Z" fill="black"/>
<path d="M292.26 363.606L293.174 341.672L280.379 340.149L279.465 363.606H292.26Z" fill="#EB8175"/>
<path d="M317.857 278.002L279.472 279.83C279.472 279.83 273.989 280.135 274.293 292.93C274.598 305.725 274.598 357.818 274.598 357.818L292.876 358.427L296.532 303.897L334.917 303.287C343.142 303.287 350.453 298.413 353.804 291.102C355.023 288.36 355.632 285.009 354.718 281.658L317.857 278.002Z" fill="#353B4E"/>
<path d="M281.599 270.08C281.599 273.736 279.162 274.345 275.507 274.345C271.851 274.345 268.5 273.736 268.5 270.08C268.5 266.425 271.546 263.378 275.202 263.378C278.553 263.683 281.599 266.425 281.599 270.08Z" fill="#E1AD9D"/>
<path d="M286.174 273.735H278.558C276.425 273.735 274.902 272.212 274.902 270.08C274.902 267.947 276.425 266.424 278.558 266.424H286.174C288.306 266.424 289.83 267.947 289.83 270.08C289.83 272.212 288.306 273.735 286.174 273.735Z" fill="#E1AD9D"/>
<path d="M285.855 274.651L283.418 262.16L314.796 258.809L321.193 222.253C321.802 218.902 326.677 214.941 330.028 215.551L329.114 215.246C332.465 215.855 335.511 219.816 334.902 223.167L328.809 267.035C328.504 269.472 326.677 271.3 324.239 271.909L285.855 274.651Z" fill="#C8C6F2"/>
<path d="M348.311 216.161C348.921 216.161 349.53 216.466 350.139 216.466H350.444C355.927 218.598 359.583 224.386 359.583 229.87L354.709 281.658C322.417 281.354 317.543 277.698 317.543 277.698L319.98 224.691C320.285 219.817 322.722 214.942 328.51 214.638L348.311 216.161Z" fill="#D8D7FD"/>
<path d="M312.681 274.346C312.986 278.002 310.549 278.611 306.893 278.916C303.237 279.221 299.886 278.916 299.582 275.26C299.277 271.605 302.019 268.558 305.674 268.254C309.33 267.949 312.376 270.691 312.681 274.346Z" fill="white"/>
<path d="M317.549 277.697L309.933 278.306C307.801 278.306 306.277 276.783 305.973 274.955C305.973 272.823 307.496 271.3 309.324 270.995L316.94 270.386C319.072 270.386 320.595 271.909 320.9 273.737C321.205 275.869 319.681 277.392 317.549 277.697Z" fill="white"/>
<path d="M317.246 278.307L313.895 266.122L348.014 260.638L346.186 228.956C346.491 225.605 350.146 221.949 353.498 222.254C356.849 222.558 360.2 226.214 359.895 229.565L362.332 267.645C362.027 270.082 360.504 271.91 358.067 272.824L317.246 278.307Z" fill="#D8D7FD"/>
<path d="M258.441 236.266L295.607 239.921C296.825 239.921 297.739 241.14 298.044 242.358L302.004 275.869C302.309 277.392 300.786 278.915 299.262 278.61L261.487 274.955C260.269 274.955 259.355 273.736 259.05 272.518L255.699 239.007C255.394 237.484 256.613 236.266 258.441 236.266Z" fill="#091218"/>
<path d="M256.312 235.961L293.478 239.617C294.696 239.617 295.61 240.836 295.915 242.054L299.875 275.564C300.18 277.088 298.657 278.611 297.133 278.306L259.358 274.651C258.14 274.651 257.226 273.432 256.921 272.213L253.57 238.703C253.265 237.18 254.484 235.961 256.312 235.961Z" fill="#1B2934"/>
<path d="M300.785 275.87L326.07 278.307C326.984 278.307 327.288 278.916 327.288 279.83C327.288 280.744 326.679 281.048 325.765 281.048L298.957 278.611L300.785 275.87Z" fill="#091218"/>
<path d="M277.641 256.372C277.337 258.505 275.509 260.333 273.072 260.028C270.939 259.723 269.112 257.896 269.416 255.459C269.721 253.326 271.549 251.498 273.986 251.803C276.118 252.108 277.641 254.24 277.641 256.372Z" fill="white"/>
<path d="M344.964 236.268L345.878 260.029L313.891 266.122L341.917 257.288L344.964 236.268Z" fill="#C8C6F2"/>
<path d="M328.203 213.115L330.336 218.903C331.249 221.035 333.077 222.254 335.21 222.558C339.475 222.863 342.217 218.598 340.693 214.942L337.038 206.108L328.203 213.115Z" fill="#DEE2E8"/>
<path d="M330.031 217.989C330.031 217.989 340.389 215.857 338.865 206.717C337.342 197.578 327.594 204.585 327.594 204.585L328.508 213.724L330.031 217.989Z" fill="#B5BCC7"/>
<path d="M313.88 190.572C309.92 198.797 313.575 208.546 321.801 212.506C330.026 216.466 339.774 212.811 343.735 204.585C347.695 196.36 344.039 186.612 335.814 182.651C327.284 178.996 317.536 182.347 313.88 190.572Z" fill="#DEE2E8"/>
<path fill-rule="evenodd" clip-rule="evenodd" d="M341.909 214.333C332.465 214.029 334.902 200.929 334.902 200.929L333.684 193.923C324.454 195.321 318.691 195.692 315.156 195.685L319.213 177.015L330.942 174.121L346.174 189.658C346.174 189.658 351.657 214.638 341.909 214.333Z" fill="#212531"/>
<path d="M325.156 190.571L332.772 201.842L339.474 194.531L325.156 190.571Z" fill="#212531"/>
<path d="M332.16 197.882C330.941 200.319 332.16 203.061 334.292 203.975C336.729 205.194 339.471 203.975 340.385 201.843C341.604 199.405 340.385 196.664 338.253 195.75C336.12 194.531 333.378 195.445 332.16 197.882Z" fill="#DEE2E8"/>
<path d="M310.54 194.837C310.54 194.837 306.885 181.738 315.415 173.817C322.421 167.115 333.693 167.724 339.786 175.036C342.527 178.387 344.965 183.565 345.269 191.486L310.54 194.837Z" fill="#30CA4C"/>
<path d="M345.267 191.485L307.492 195.141" stroke="white" stroke-width="1.1206" stroke-miterlimit="10" stroke-linecap="round" stroke-linejoin="round"/>
<path d="M688.6 628.642L697.13 636.867L687.382 642.046L679.156 633.82L688.6 628.642Z" fill="white"/>
<path d="M629.195 567.409L634.983 592.39C636.202 597.264 638.335 602.138 641.381 606.708L678.547 640.218L693.169 628.337L661.487 594.827L649.911 550.35L629.195 567.409Z" fill="#212531"/>
<path d="M687.075 641.741L684.029 651.489L680.678 656.364C679.154 658.496 679.154 661.542 680.678 663.675L681.591 664.589L705.353 642.35L695.909 633.516L687.075 641.741Z" fill="#212531"/>
<path d="M705.656 642.655L681.589 664.894L679.762 662.762L703.523 640.523L705.656 642.655Z" fill="black"/>
<path d="M607.259 643.873L604.213 654.231L593.246 651.489L596.597 641.131L607.259 643.873Z" fill="white"/>
<path d="M621.882 539.382L591.418 642.35L610.61 647.224L627.67 595.436L648.69 561.621C649.908 560.098 650.822 558.575 651.736 556.747C653.564 553.7 654.173 550.349 654.173 546.998V540.296L621.882 539.382Z" fill="#353B4E"/>
<path d="M593.856 650.575L584.107 654.231L578.015 654.535C575.273 654.535 572.836 656.668 572.227 659.105L571.922 660.324L604.214 665.502L605.432 652.403L593.856 650.575Z" fill="#353B4E"/>
<path d="M604.518 665.503L571.922 660.324L572.531 657.583L604.823 662.761L604.518 665.503Z" fill="black"/>
<path d="M579.232 434.891L567.047 454.083L572.835 458.348L585.63 437.937L579.232 434.891Z" fill="#414963"/>
<path d="M563.395 402.904C563.395 402.904 569.183 426.666 597.819 436.109C598.733 436.414 599.343 437.023 599.343 437.937C599.647 440.679 599.647 446.772 593.25 448.295C592.641 448.6 592.031 448.295 591.422 447.99C587.157 445.249 565.223 432.454 544.203 436.109L563.395 402.904Z" fill="#212531"/>
<path d="M563.395 402.904C563.395 402.904 558.217 426.666 544.508 436.414C544.508 436.414 546.336 415.394 563.395 402.904Z" fill="#414963"/>
<path d="M563.094 452.865C562.181 457.13 565.836 462.613 570.101 463.527C574.366 464.441 578.631 461.7 579.545 457.13C580.459 452.865 576.803 447.382 572.538 446.468C568.273 445.554 564.008 448.295 563.094 452.865Z" fill="white"/>
<path d="M586.244 465.66L577.714 456.521L571.926 463.528L586.244 473.885" fill="white"/>
<path d="M584.717 457.434L575.578 470.838L600.254 493.381C601.777 493.686 603.3 493.99 604.823 493.686L637.42 489.421C642.599 489.116 646.559 484.851 646.254 479.672C645.95 474.493 646.863 467.182 641.989 467.487L604.214 475.407L584.717 457.434Z" fill="#C8C6F2"/>
<path d="M658.138 488.202C659.052 481.195 655.701 473.884 649.608 470.228C646.867 468.401 644.125 467.182 642.297 467.791C635.9 469.01 629.198 471.752 626.151 480.586C621.277 495.513 619.754 539.686 619.754 539.686L654.787 540.905L658.138 488.202Z" fill="#D8D7FD"/>
<path d="M645.043 489.115L655.705 527.804L657.838 495.208L645.043 489.115Z" fill="#C8C6F2"/>
<path d="M687.98 565.58C691.331 562.534 691.635 556.136 688.589 552.785C685.543 549.434 680.364 549.13 677.013 552.176C673.662 555.222 673.357 561.62 676.404 564.971C679.45 568.322 684.629 568.626 687.98 565.58Z" fill="white"/>
<path d="M672.145 537.857L678.542 553.699L687.072 551.566L681.588 534.811" fill="white"/>
<path d="M672.456 550.044L689.82 546.084L677.939 505.567C677.635 504.044 676.721 502.521 675.807 501.302L653.873 474.189C650.826 469.924 645.952 470.838 641.687 473.58C637.422 476.626 636.508 482.415 639.25 486.679L660.27 511.964L672.456 550.044Z" fill="#D8D7FD"/>
<path d="M634.078 462.307L634.687 468.4C634.992 470.533 636.515 472.36 638.648 473.274C642.608 474.493 646.568 471.142 645.959 467.182L644.436 457.738L634.078 462.307Z" fill="#DEE2E8"/>
<path d="M634.688 467.791C634.688 467.791 645.35 467.487 646.264 458.043C647.178 448.599 635.601 454.387 635.601 454.387L634.383 463.527L634.688 467.791Z" fill="#B5BCC7"/>
<path d="M625.544 436.719C619.755 443.725 620.669 454.388 627.981 460.176C634.987 465.964 645.65 465.05 651.438 457.739C657.226 450.732 656.312 440.07 649.001 434.281C641.994 428.493 631.332 429.712 625.544 436.719Z" fill="#DEE2E8"/>
<path fill-rule="evenodd" clip-rule="evenodd" d="M647.168 466.878C637.725 464.136 643.513 451.951 643.513 451.951L644.122 444.639C633.978 443.744 628.071 442.63 624.684 441.726L639.179 424.75L646.255 424.838L657.526 443.726C657.526 443.726 656.612 469.62 647.168 466.878Z" fill="#212531"/>
<path d="M636.816 439.459L641.691 452.559L649.916 447.075L636.816 439.459Z" fill="#212531"/>
<path d="M641.987 448.295C640.464 450.427 640.768 453.169 642.596 454.997C644.729 456.52 647.471 456.216 649.298 454.388C650.822 452.255 650.517 449.514 648.689 447.686C646.557 446.163 643.51 446.467 641.987 448.295Z" fill="#DEE2E8"/>
<path d="M621.283 441.592C621.283 441.592 620.369 427.884 630.423 421.791C638.648 416.612 649.919 419.354 654.184 427.884C656.317 431.844 657.535 437.632 656.012 445.248L621.283 441.592Z" fill="white"/>
<path d="M656.31 445.553L618.23 441.288" stroke="white" stroke-width="1.1334" stroke-miterlimit="10" stroke-linecap="round" stroke-linejoin="round"/>
<path d="M888.74 543.952L849.441 582.945" stroke="#353B4E" stroke-width="2.6489" stroke-miterlimit="10"/>
<path d="M888.74 502.522L849.441 541.211" stroke="#353B4E" stroke-width="2.6489" stroke-miterlimit="10"/>
<path d="M888.74 461.091L849.441 499.78" stroke="#353B4E" stroke-width="2.6489" stroke-miterlimit="10"/>
<path d="M888.74 419.356L849.441 458.35" stroke="#353B4E" stroke-width="2.6489" stroke-miterlimit="10"/>
<path d="M888.74 377.925L849.441 416.918" stroke="#353B4E" stroke-width="2.6489" stroke-miterlimit="10"/>
<path d="M888.74 336.494L849.441 375.183" stroke="#353B4E" stroke-width="2.6489" stroke-miterlimit="10"/>
<path d="M888.74 295.063L849.441 333.752" stroke="#353B4E" stroke-width="2.6489" stroke-miterlimit="10"/>
<path d="M888.74 253.328L849.441 292.321" stroke="#353B4E" stroke-width="2.6489" stroke-miterlimit="10"/>
<path d="M888.74 211.896L849.441 250.89" stroke="#353B4E" stroke-width="2.6489" stroke-miterlimit="10"/>
<path d="M888.74 170.466L849.441 209.155" stroke="#353B4E" stroke-width="2.6489" stroke-miterlimit="10"/>
<path d="M888.74 129.035L849.441 167.724" stroke="#353B4E" stroke-width="2.6489" stroke-miterlimit="10"/>
<path d="M849.441 541.21H888.74" stroke="#353B4E" stroke-width="2.6489" stroke-miterlimit="10"/>
<path d="M849.441 499.779H888.74" stroke="#353B4E" stroke-width="2.6489" stroke-miterlimit="10"/>
<path d="M849.441 458.35H888.74" stroke="#353B4E" stroke-width="2.6489" stroke-miterlimit="10"/>
<path d="M849.441 416.917H888.74" stroke="#353B4E" stroke-width="2.6489" stroke-miterlimit="10"/>
<path d="M849.441 375.182H888.74" stroke="#353B4E" stroke-width="2.6489" stroke-miterlimit="10"/>
<path d="M849.441 333.751H888.74" stroke="#353B4E" stroke-width="2.6489" stroke-miterlimit="10"/>
<path d="M849.441 292.321H888.74" stroke="#353B4E" stroke-width="2.6489" stroke-miterlimit="10"/>
<path d="M849.441 250.891H888.74" stroke="#353B4E" stroke-width="2.6489" stroke-miterlimit="10"/>
<path d="M849.441 209.155H888.74" stroke="#353B4E" stroke-width="2.6489" stroke-miterlimit="10"/>
<path d="M849.441 167.724H888.74" stroke="#353B4E" stroke-width="2.6489" stroke-miterlimit="10"/>
<path d="M849.441 594.217V135.432" stroke="#212531" stroke-width="2.6489" stroke-miterlimit="10"/>
<path d="M888.738 594.217V135.432" stroke="#212531" stroke-width="2.6489" stroke-miterlimit="10"/>
<path d="M907.628 582.945H829.031V664.588H907.628V582.945Z" fill="#212531"/>
<path d="M888.745 135.432H847.619C840.308 135.432 834.52 129.644 834.52 122.333V70.849C834.52 63.5376 840.308 57.7495 847.619 57.7495H888.745C896.056 57.7495 901.845 63.5376 901.845 70.849V122.333C901.845 129.644 896.056 135.432 888.745 135.432Z" fill="#353B4E"/>
<path d="M867.425 112.888H840.922V76.6362H867.425C872.909 76.6362 877.478 81.2058 877.478 86.6893V103.14C877.174 108.623 872.909 112.888 867.425 112.888Z" fill="#212531"/>
<path d="M589.285 139.697L620.968 231.393" stroke="#212531" stroke-width="2.1624" stroke-miterlimit="10"/>
<path d="M567.346 129.035L506.113 211.896" stroke="#212531" stroke-width="2.1624" stroke-miterlimit="10"/>
<path d="M585.933 169.552L649.298 252.718C656.304 261.857 654.476 274.957 645.337 281.963L562.171 345.328C553.032 352.335 539.932 350.507 532.926 341.368L469.561 258.506C462.554 249.367 464.382 236.268 473.521 229.261L556.688 165.896C565.827 158.585 578.926 160.413 585.933 169.552Z" fill="#30CA4C"/>
<path d="M581.054 185.393L633.147 253.328C638.935 260.944 637.412 271.606 630.1 277.089L562.166 329.183C554.55 334.971 543.888 333.448 538.404 326.136L486.311 258.202C480.523 250.586 482.046 239.924 489.357 234.44L557.292 182.347C564.603 176.254 575.265 177.777 581.054 185.393Z" fill="white" stroke="white" stroke-width="2" stroke-miterlimit="10"/>
<path d="M564.918 286.533C563.395 298.719 544.508 296.282 546.335 284.096C547.859 271.606 566.441 274.043 564.918 286.533ZM572.839 217.685L565.528 269.474L549.686 267.341C552.123 249.977 553.951 232.917 556.388 215.553L572.839 217.685Z" fill="#212531"/>
<path d="M580.445 147.313C594.914 147.313 606.644 135.583 606.644 121.114C606.644 106.645 594.914 94.915 580.445 94.915C565.976 94.915 554.246 106.645 554.246 121.114C554.246 135.583 565.976 147.313 580.445 147.313Z" fill="#212531"/>
<path d="M599.029 121.114C599.029 131.471 590.804 139.697 580.446 139.697C570.089 139.697 561.863 131.471 561.863 121.114C561.863 110.756 570.089 102.531 580.446 102.531C590.804 102.531 599.029 110.756 599.029 121.114Z" fill="#353B4E"/>
<path d="M683.727 2V57.7488" stroke="#353B4E" stroke-width="2.6489" stroke-miterlimit="10"/>
<path d="M633.754 2V57.7488" stroke="#353B4E" stroke-width="2.6489" stroke-miterlimit="10"/>
<path d="M733.688 2V57.7488" stroke="#353B4E" stroke-width="2.6489" stroke-miterlimit="10"/>
<path d="M789.121 2V57.7488" stroke="#353B4E" stroke-width="2.6489" stroke-miterlimit="10"/>
<path d="M840.918 2V57.7488" stroke="#353B4E" stroke-width="2.6489" stroke-miterlimit="10"/>
<path d="M894.531 2V57.7488" stroke="#353B4E" stroke-width="2.6489" stroke-miterlimit="10"/>
<path d="M947.227 2V57.7488" stroke="#353B4E" stroke-width="2.6489" stroke-miterlimit="10"/>
<path d="M631.016 57.7488L683.718 2" stroke="#353B4E" stroke-width="2.6489" stroke-miterlimit="10"/>
<path d="M683.727 57.7488L736.429 2" stroke="#353B4E" stroke-width="2.6489" stroke-miterlimit="10"/>
<path d="M736.426 57.7488L789.128 2" stroke="#353B4E" stroke-width="2.6489" stroke-miterlimit="10"/>
<path d="M789.121 57.7488L841.823 2" stroke="#353B4E" stroke-width="2.6489" stroke-miterlimit="10"/>
<path d="M841.832 57.7488L894.534 2" stroke="#353B4E" stroke-width="2.6489" stroke-miterlimit="10"/>
<path d="M894.531 57.7488L947.234 2" stroke="#353B4E" stroke-width="2.6489" stroke-miterlimit="10"/>
<path d="M580.449 57.7488H1009.99L952.108 2H624.926L580.449 57.7488Z" stroke="#212531" stroke-width="2.6489" stroke-miterlimit="10" stroke-linecap="round" stroke-linejoin="round"/>
<path d="M580.449 57.7495V121.114" stroke="#212531" stroke-width="2.6489" stroke-miterlimit="10" stroke-linecap="round" stroke-linejoin="round"/>
<mask id="mask1_366_4316" style="mask-type:alpha" maskUnits="userSpaceOnUse" x="353" y="576" width="69" height="81">
<path d="M353.18 656.667L383.339 578.984C384.862 575.329 390.041 575.329 391.564 578.984L421.723 656.667H353.18Z" fill="#30CA4C"/>
</mask>
<g mask="url(#mask1_366_4316)">
<path d="M353.18 656.667L383.339 578.984C384.862 575.329 390.041 575.329 391.564 578.984L421.723 656.667H353.18Z" fill="#30CA4C"/>
<path d="M413.503 595.74H360.191V612.19H413.503V595.74Z" fill="white"/>
<path d="M417.756 627.116H357.438V643.567H417.756V627.116Z" fill="white"/>
</g>
<path d="M427.214 656.667H347.703V663.369H427.214V656.667Z" fill="#24A33A"/>
<mask id="mask2_366_4316" style="mask-type:alpha" maskUnits="userSpaceOnUse" x="790" y="576" width="69" height="81">
<path d="M790.047 656.972L820.206 579.29C821.729 575.634 826.908 575.634 828.431 579.29L858.59 656.972H790.047Z" fill="#30CA4C"/>
</mask>
<g mask="url(#mask2_366_4316)">
<path d="M790.047 656.972L820.206 579.29C821.729 575.634 826.908 575.634 828.431 579.29L858.59 656.972H790.047Z" fill="#30CA4C"/>
<path d="M850.37 596.045H797.059V612.495H850.37V596.045Z" fill="#FAFAFA"/>
<path d="M854.322 627.119H794.004V643.57H854.322V627.119Z" fill="#FAFAFA"/>
</g>
<path d="M864.069 656.973H784.559V663.675H864.069V656.973Z" fill="#24A33A"/>
<path d="M251.692 536.081C256.773 501.966 233.236 470.192 199.121 465.112C165.007 460.031 133.233 483.568 128.152 517.683C123.072 551.798 146.609 583.572 180.723 588.652C214.838 593.733 246.612 570.196 251.692 536.081Z" fill="#30CA4C"/>
<path d="M189.891 504.653V663.37" stroke="#212531" stroke-width="1.1366" stroke-miterlimit="10" stroke-linecap="round" stroke-linejoin="round"/>
<path d="M165.527 508.005L189.898 535.118" stroke="#212531" stroke-width="1.1366" stroke-miterlimit="10" stroke-linecap="round" stroke-linejoin="round"/>
<path d="M211.52 533.595C209.692 535.423 189.891 555.833 189.891 555.833" stroke="#212531" stroke-width="1.1366" stroke-miterlimit="10" stroke-linecap="round" stroke-linejoin="round"/>
<path d="M1.94531 664.893H1049.6" stroke="#212531" stroke-width="1.1366" stroke-miterlimit="10" stroke-linecap="round" stroke-linejoin="round"/>
</svg>
