<svg width="22" height="22" viewBox="0 0 22 22" fill="none" xmlns="http://www.w3.org/2000/svg">
<path d="M21.9999 10.953C22.0138 15.4035 19.3641 19.4243 15.2578 21.1435C11.1514 22.8627 6.42081 21.9476 3.25782 18.8142C0.0948266 15.6808 -0.862396 10.953 0.816211 6.83525C2.49482 2.71748 6.50405 0.0277585 10.9433 2.93845e-05C17.0335 -0.0138352 21.9722 4.88035 21.9999 10.953Z" fill="#212531"/>
<path d="M21.1815 10.953C21.1954 15.0708 18.7399 18.7865 14.9388 20.3809C11.1376 21.9753 6.7677 21.1157 3.84054 18.2319C0.913386 15.3342 0.025528 10.9669 1.57928 7.168C3.13303 3.35525 6.83706 0.873498 10.9434 0.845769C16.5758 0.81804 21.1538 5.33788 21.1815 10.953Z" fill="white"/>
<path d="M16.1601 7.36211C15.4248 7.15414 14.6618 6.84912 13.885 6.5441C13.8433 6.35 13.663 6.1143 13.3162 5.80928C12.8168 5.36562 11.8595 5.37948 11.041 5.57359C10.1393 5.36562 9.23758 5.28243 8.37747 5.4904C1.34397 7.43143 5.32545 12.1454 2.74512 16.9009C3.10581 17.6773 7.07342 22.2249 12.8029 21.0048C12.8029 21.0048 10.8468 16.3047 15.2722 14.0448C18.8653 12.2147 21.4456 8.80402 16.1601 7.36211Z" fill="#212531"/>
<path d="M11.04 5.57357C11.5533 5.61517 13.4123 6.21134 13.884 6.54409C13.4816 5.39333 12.1499 5.24082 11.04 5.57357Z" fill="#212531"/>
<path d="M17.0334 10.4539C17.0334 10.8282 16.5756 11.0223 16.312 10.7589C16.0484 10.4955 16.2288 10.038 16.6033 10.0241C16.8392 10.038 17.0334 10.2182 17.0334 10.4539ZM11.5259 8.49899C11.5259 9.28927 11.0404 10.0102 10.3051 10.3152C9.56985 10.6203 8.72361 10.4539 8.15482 9.88544C7.58604 9.317 7.41957 8.47126 7.72477 7.73644C8.02997 7.00162 8.75135 6.51636 9.5421 6.51636C10.0693 6.51636 10.5687 6.72433 10.9294 7.0848C11.3178 7.47301 11.5259 7.97214 11.5259 8.49899Z" fill="white"/>
<path d="M10.9433 8.51286C10.9433 9.06745 10.6104 9.58044 10.0832 9.7884C9.56989 9.99637 8.97336 9.88545 8.57105 9.48338C8.16874 9.08131 8.05776 8.499 8.26585 7.97215C8.47394 7.45916 8.98724 7.11255 9.54215 7.11255C10.319 7.12641 10.9433 7.75031 10.9433 8.51286Z" fill="#212531"/>
<path d="M18.6291 11.3274C17.0337 12.4504 15.2164 13.2961 12.6499 13.2961C11.443 13.2961 11.2072 12.0206 10.4025 12.6445C9.98636 12.9634 8.54359 13.6843 7.39215 13.6428C6.24071 13.5873 4.38176 12.9079 3.86847 10.4678C3.66037 12.9218 3.56327 14.7242 2.63379 16.79C4.465 19.7293 8.83492 21.9892 12.8025 21.0187C12.3725 18.0378 14.9806 15.1263 16.4372 13.6428C17.006 13.0604 18.0742 12.1454 18.6291 11.3274Z" fill="#212531"/>
<path d="M18.5587 11.3967C18.0592 11.8542 17.4766 12.1869 16.88 12.4781C16.2696 12.7693 15.6454 12.9911 14.9934 13.1713C14.3413 13.3377 13.6616 13.4625 12.9818 13.407C12.2882 13.3516 11.5945 13.1159 11.1367 12.6029L11.1645 12.5752C11.7194 12.9356 12.3714 13.0604 13.0095 13.0881C13.6616 13.102 14.3136 13.0604 14.9517 12.9356C15.5899 12.797 16.228 12.6029 16.8384 12.3533C17.4488 12.1038 18.0454 11.8126 18.5725 11.3967H18.5587Z" fill="white"/>
</svg>
