<svg width="39" height="26" viewBox="0 0 39 26" fill="none" xmlns="http://www.w3.org/2000/svg">
<path d="M12.6905 4.65041L9.13489 22.9108L8.67285 25.3014L32.3772 25.1909C33.4419 25.1808 34.3861 24.2367 34.7276 22.8405L38.9361 5.60461C39.1973 4.53992 38.6248 3.43506 37.8212 3.43506L13.8255 3.46519C13.2932 3.4451 12.8211 3.93727 12.6905 4.65041Z" fill="#CCD3DD"/>
<path d="M30.1078 21.6755L27.5967 1.44637C27.4963 0.612699 26.8334 0 26.0499 0L20.5457 0.0200882C20.1339 0.0200882 19.7522 0.19084 19.4609 0.502212L16.8494 3.28446L1.542 3.36482C0.607888 3.36482 -0.115297 4.25876 0.0152784 5.25314L2.34554 23.9555C2.44598 24.7791 3.1089 25.4019 3.88231 25.4019L30.5598 25.3517C33.5329 25.4119 33.8141 24.5381 33.8141 24.5381C30.4091 25.2713 30.1078 21.6755 30.1078 21.6755Z" fill="white"/>
<g opacity="0.5">
<path d="M18.5979 17.6276L17.704 18.5919L10.7734 12.3644L11.6674 11.3901L18.5979 17.6276Z" fill="#AAB3C0"/>
<path d="M17.3228 11.1792L18.3172 12.0731L12.0496 18.8128L11.0552 17.9189L17.3228 11.1792Z" fill="#AAB3C0"/>
</g>
</svg>
