<svg width="20" height="22" viewBox="0 0 20 22" fill="none" xmlns="http://www.w3.org/2000/svg">
<g clip-path="url(#clip0_2902_15961)">
<path fill-rule="evenodd" clip-rule="evenodd" d="M7.55836 1.25556C6.25821 1.93751 5.1945 2.51458 5.19473 2.53806C5.19531 2.59863 8.31514 4.18955 8.42587 4.18567C8.47624 4.18397 8.84166 4.01461 9.23785 3.80935L9.95833 3.43622L10.7452 3.84346L11.532 4.25079L12.8205 3.66779C14.7621 2.78929 14.9638 2.69303 14.9322 2.66068C14.8902 2.61777 14.1938 2.24107 12.3044 1.23949C11.3913 0.755418 10.505 0.2808 10.3349 0.184761C10.1648 0.0887223 10.0024 0.0114653 9.97398 0.0129608C9.94561 0.0144563 8.85855 0.573631 7.55836 1.25556ZM1.85589 4.22889L0.502442 4.93282V8.02223C0.502442 9.72143 0.520214 11.1116 0.542014 11.1116C0.563738 11.1116 1.22964 10.821 2.02175 10.4657L3.46197 9.81985V6.5634L4.16576 6.94948C4.70808 7.24672 5.25074 7.54335 5.79372 7.83938L6.71786 8.3432L7.12909 8.15596C7.38699 8.03835 7.64438 7.91959 7.90124 7.79969C8.09973 7.70661 8.58698 7.48564 8.98398 7.30854C9.38099 7.13137 9.74848 6.95321 9.80059 6.9126C9.86982 6.85866 9.02572 6.38899 6.67852 5.17534C4.90924 4.26049 3.40488 3.51489 3.3355 3.51847C3.26613 3.52204 2.6003 3.84169 1.85589 4.22889ZM15.1761 4.42657C14.2543 4.84557 13.4995 5.20514 13.4986 5.22565C13.4978 5.24613 14.0002 5.54692 14.6151 5.89397C15.23 6.24109 15.7331 6.54365 15.7331 6.56644C15.7331 6.58918 15.189 6.85463 14.5241 7.15646C13.859 7.45822 12.1781 8.22257 10.7886 8.85505L6.13275 10.9741C4.96157 11.5072 3.9059 11.9877 3.7868 12.042C1.39462 13.1324 0.737104 13.435 0.646809 13.4869C0.55601 13.5392 0.535443 13.843 0.519282 15.3676L0.5 17.1861L1.71031 17.8071L2.9206 18.428L4.59886 17.6654C5.52192 17.2459 6.27711 16.8808 6.27711 16.8539C6.27711 16.8271 6.10654 16.7152 5.89816 16.6051C5.68968 16.4951 5.25932 16.2514 4.94171 16.0636C4.62413 15.8758 4.30746 15.7034 4.23793 15.6806C4.16843 15.6578 4.11257 15.6179 4.1137 15.5919C4.11486 15.566 4.85389 15.2125 5.75588 14.8064C7.50784 14.0177 8.84858 13.4098 11.727 12.0991C13.0141 11.5132 14.3013 10.9276 15.5888 10.3423C16.7202 9.82811 18.0358 9.22752 18.5122 9.00771L19.3784 8.60807L19.3976 6.76889L19.417 4.92978L18.1894 4.29535C17.5143 3.94645 16.9371 3.66183 16.9069 3.66287C16.8767 3.66383 16.0978 4.00746 15.1761 4.42657ZM19.0495 11.0616C18.8686 11.1506 18.5113 11.3172 18.2555 11.4318C17.9997 11.5464 17.5143 11.7669 17.1768 11.922L16.5632 12.2037L16.5492 13.8184C16.5415 14.7064 16.509 15.429 16.4771 15.4243C16.4044 15.4135 15.2545 14.8196 14.0985 14.196C13.2642 13.7459 13.2118 13.728 13.0158 13.8258C12.9025 13.8823 12.225 14.1882 11.5104 14.5057C10.7958 14.8231 10.1878 15.1035 10.1592 15.1289C10.1307 15.1543 11.5689 15.9392 13.3554 16.8733L16.6035 18.5716L17.991 17.8489C18.754 17.4514 19.4029 17.0889 19.4327 17.0433C19.5 16.9408 19.4942 10.8858 19.4269 10.894C19.4003 10.8972 19.2304 10.9727 19.0495 11.0616ZM11.366 18.1686C11.1254 18.2728 10.8848 18.3772 10.6442 18.4816C9.91782 18.7981 10.0602 18.8086 9.19599 18.3754C8.62041 18.0869 8.37231 17.9979 8.26462 18.0411C8.18384 18.0735 7.48864 18.3884 6.7196 18.7409C5.95062 19.0934 5.29476 19.3818 5.26214 19.3818C4.9395 19.3818 5.47588 19.7045 7.54568 20.7558L9.97305 21.9886L10.9944 21.4809C11.5561 21.2016 12.6891 20.6425 13.5122 20.2383C14.3352 19.834 14.9985 19.4928 14.986 19.4799C14.9735 19.4671 14.2839 19.1105 13.4534 18.6875L11.9435 17.9185L11.366 18.1686Z" fill="#212531"/>
</g>
<defs>
<clipPath id="clip0_2902_15961">
<rect width="19" height="22" fill="white" transform="translate(0.5)"/>
</clipPath>
</defs>
</svg>
