<svg width="19" height="19" viewBox="0 0 19 19" fill="none" xmlns="http://www.w3.org/2000/svg">
<g opacity="0.2">
<path d="M14.8438 9.375H11.8438C10.9134 9.375 10.1562 8.61788 10.1562 7.6875V4.6875C10.1562 3.75713 10.9134 3 11.8438 3H14.8438C15.7741 3 16.5312 3.75713 16.5312 4.6875V7.6875C16.5312 8.61788 15.7741 9.375 14.8438 9.375ZM7.71875 9.375H4.71875C3.78838 9.375 3.03125 8.61788 3.03125 7.6875V4.6875C3.03125 3.75713 3.78838 3 4.71875 3H7.71875C8.64913 3 9.40625 3.75713 9.40625 4.6875V7.6875C9.40625 8.61788 8.64913 9.375 7.71875 9.375ZM14.8438 16.5H11.8438C10.9134 16.5 10.1562 15.7429 10.1562 14.8125V11.8125C10.1562 10.8821 10.9134 10.125 11.8438 10.125H14.8438C15.7741 10.125 16.5312 10.8821 16.5312 11.8125V14.8125C16.5312 15.7429 15.7741 16.5 14.8438 16.5ZM7.71875 16.5H4.71875C3.78838 16.5 3.03125 15.7429 3.03125 14.8125V11.8125C3.03125 10.8821 3.78838 10.125 4.71875 10.125H7.71875C8.64913 10.125 9.40625 10.8821 9.40625 11.8125V14.8125C9.40625 15.7429 8.64913 16.5 7.71875 16.5Z" fill="#212531"/>
</g>
</svg>
