<svg width="30" height="30" viewBox="0 0 30 30" fill="none" xmlns="http://www.w3.org/2000/svg">
<path d="M15 30C6.72897 30 0 23.271 0 15C0 6.72903 6.72897 0 15 0C23.2711 0 30 6.72897 30 15C30 23.2711 23.271 30 15 30Z" fill="#36E956"/>
<path d="M15 0V30C23.271 30 30 23.271 30 15C30 6.72891 23.271 0 15 0Z" fill="#30C14A"/>
<path d="M15.0001 26.4844C8.66753 26.4844 3.51562 21.3325 3.51562 15C3.51562 8.66747 8.66753 3.51562 15.0001 3.51562C21.3326 3.51562 26.4845 8.66753 26.4845 15.0001C26.4845 21.3326 21.3325 26.4844 15.0001 26.4844Z" fill="#30CA4C"/>
<path d="M15 3.51562V26.4844C21.3325 26.4844 26.4844 21.3325 26.4844 15C26.4844 8.66747 21.3325 3.51562 15 3.51562Z" fill="#2DA342"/>
<path d="M19.2915 19.4807H10.6904C10.2973 19.4807 9.9519 19.2196 9.84473 18.8413L8.22079 13.1089C8.13436 12.8037 8.21903 12.4757 8.44233 12.2505C8.66563 12.0253 8.99294 11.9378 9.2988 12.0216L11.9572 12.7504L14.3046 9.71614C14.4711 9.50098 14.7278 9.375 14.9998 9.375C15.2718 9.375 15.5285 9.50098 15.695 9.71614L18.0424 12.7504L20.7007 12.0216C21.007 11.9377 21.3347 12.0255 21.558 12.2513C21.7813 12.4772 21.8654 12.8059 21.778 13.1113L20.1365 18.8437C20.0285 19.2208 19.6838 19.4807 19.2915 19.4807Z" fill="white"/>
<path d="M21.5582 12.2515C21.3349 12.0256 21.0071 11.9378 20.7009 12.0218L18.0426 12.7506L15.6952 9.71626C15.5287 9.5011 15.272 9.37512 15 9.37512V19.4808H19.2919C19.6841 19.4808 20.0289 19.2208 20.1368 18.8438L21.7782 13.1113C21.8656 12.8061 21.7815 12.4773 21.5582 12.2515Z" fill="#E2E2E2"/>
</svg>
