<svg width="27" height="27" viewBox="0 0 27 27" fill="none" xmlns="http://www.w3.org/2000/svg">
<g opacity="0.3">
<path d="M4.44251 5.08336C4.29896 5.08133 4.15643 5.10785 4.02322 5.16138C3.89 5.21491 3.76875 5.29439 3.66652 5.39519C3.56428 5.49599 3.4831 5.6161 3.42769 5.74854C3.37228 5.88099 3.34375 6.02312 3.34375 6.16669C3.34375 6.31026 3.37228 6.4524 3.42769 6.58484C3.4831 6.71729 3.56428 6.8374 3.66652 6.9382C3.76875 7.039 3.89 7.11847 4.02322 7.172C4.15643 7.22554 4.29896 7.25206 4.44251 7.25003H21.7758C21.9194 7.25206 22.0619 7.22554 22.1951 7.172C22.3284 7.11847 22.4496 7.039 22.5518 6.9382C22.6541 6.8374 22.7353 6.71729 22.7907 6.58484C22.8461 6.4524 22.8746 6.31026 22.8746 6.16669C22.8746 6.02312 22.8461 5.88099 22.7907 5.74854C22.7353 5.6161 22.6541 5.49599 22.5518 5.39519C22.4496 5.29439 22.3284 5.21491 22.1951 5.16138C22.0619 5.10785 21.9194 5.08133 21.7758 5.08336H4.44251ZM4.44251 8.87503C4.29896 8.873 4.15643 8.89952 4.02322 8.95305C3.89 9.00658 3.76875 9.08605 3.66652 9.18685C3.56428 9.28765 3.4831 9.40776 3.42769 9.54021C3.37228 9.67265 3.34375 9.81479 3.34375 9.95836C3.34375 10.1019 3.37228 10.2441 3.42769 10.3765C3.4831 10.509 3.56428 10.6291 3.66652 10.7299C3.76875 10.8307 3.89 10.9101 4.02322 10.9637C4.15643 11.0172 4.29896 11.0437 4.44251 11.0417H21.7758C21.9194 11.0437 22.0619 11.0172 22.1951 10.9637C22.3284 10.9101 22.4496 10.8307 22.5518 10.7299C22.6541 10.6291 22.7353 10.509 22.7907 10.3765C22.8461 10.2441 22.8746 10.1019 22.8746 9.95836C22.8746 9.81479 22.8461 9.67265 22.7907 9.54021C22.7353 9.40776 22.6541 9.28765 22.5518 9.18685C22.4496 9.08605 22.3284 9.00658 22.1951 8.95305C22.0619 8.89952 21.9194 8.873 21.7758 8.87503H4.44251ZM4.44251 12.6667C4.29896 12.6647 4.15643 12.6912 4.02322 12.7447C3.89 12.7982 3.76875 12.8777 3.66652 12.9785C3.56428 13.0793 3.4831 13.1994 3.42769 13.3319C3.37228 13.4643 3.34375 13.6065 3.34375 13.75C3.34375 13.8936 3.37228 14.0357 3.42769 14.1682C3.4831 14.3006 3.56428 14.4207 3.66652 14.5215C3.76875 14.6223 3.89 14.7018 4.02322 14.7553C4.15643 14.8089 4.29896 14.8354 4.44251 14.8334H21.7758C21.9194 14.8354 22.0619 14.8089 22.1951 14.7553C22.3284 14.7018 22.4496 14.6223 22.5518 14.5215C22.6541 14.4207 22.7353 14.3006 22.7907 14.1682C22.8461 14.0357 22.8746 13.8936 22.8746 13.75C22.8746 13.6065 22.8461 13.4643 22.7907 13.3319C22.7353 13.1994 22.6541 13.0793 22.5518 12.9785C22.4496 12.8777 22.3284 12.7982 22.1951 12.7447C22.0619 12.6912 21.9194 12.6647 21.7758 12.6667H4.44251ZM4.44251 16.4584C4.29896 16.4563 4.15643 16.4829 4.02322 16.5364C3.89 16.5899 3.76875 16.6694 3.66652 16.7702C3.56428 16.871 3.4831 16.9911 3.42769 17.1235C3.37228 17.256 3.34375 17.3981 3.34375 17.5417C3.34375 17.6853 3.37228 17.8274 3.42769 17.9598C3.4831 18.0923 3.56428 18.2124 3.66652 18.3132C3.76875 18.414 3.89 18.4935 4.02322 18.547C4.15643 18.6005 4.29896 18.6271 4.44251 18.625H21.7758C21.9194 18.6271 22.0619 18.6005 22.1951 18.547C22.3284 18.4935 22.4496 18.414 22.5518 18.3132C22.6541 18.2124 22.7353 18.0923 22.7907 17.9598C22.8461 17.8274 22.8746 17.6853 22.8746 17.5417C22.8746 17.3981 22.8461 17.256 22.7907 17.1235C22.7353 16.9911 22.6541 16.871 22.5518 16.7702C22.4496 16.6694 22.3284 16.5899 22.1951 16.5364C22.0619 16.4829 21.9194 16.4563 21.7758 16.4584H4.44251ZM4.44251 20.25C4.29896 20.248 4.15643 20.2745 4.02322 20.328C3.89 20.3816 3.76875 20.4611 3.66652 20.5619C3.56428 20.6627 3.4831 20.7828 3.42769 20.9152C3.37228 21.0477 3.34375 21.1898 3.34375 21.3334C3.34375 21.4769 3.37228 21.6191 3.42769 21.7515C3.4831 21.884 3.56428 22.0041 3.66652 22.1049C3.76875 22.2057 3.89 22.2851 4.02322 22.3387C4.15643 22.3922 4.29896 22.4187 4.44251 22.4167H15.8175C15.9611 22.4187 16.1036 22.3922 16.2368 22.3387C16.37 22.2851 16.4913 22.2057 16.5935 22.1049C16.6957 22.0041 16.7769 21.884 16.8323 21.7515C16.8877 21.6191 16.9163 21.4769 16.9163 21.3334C16.9163 21.1898 16.8877 21.0477 16.8323 20.9152C16.7769 20.7828 16.6957 20.6627 16.5935 20.5619C16.4913 20.4611 16.37 20.3816 16.2368 20.328C16.1036 20.2745 15.9611 20.248 15.8175 20.25H4.44251Z" fill="#212531"/>
</g>
</svg>
