<svg width="328" height="242" viewBox="0 0 328 242" fill="none" xmlns="http://www.w3.org/2000/svg">
<path fill-rule="evenodd" clip-rule="evenodd" d="M145.919 2.2249C184.292 -3.66101 224.369 1.59776 255.724 24.4239C292.329 51.0716 333.618 89.2263 326.793 133.899C320.081 177.829 265.468 192.515 226.695 214.432C201.477 228.687 174.787 233.49 145.919 236.138C112.346 239.218 76.2993 250.163 48.7726 230.753C18.1353 209.15 -2.57243 171.149 0.923282 133.899C4.25315 98.4163 38.97 77.6158 65.3959 53.6179C89.8891 31.3751 113.174 7.24766 145.919 2.2249Z" fill="#ECEEF1"/>
<path d="M227.987 72.6297V207.179H227.62L217.438 197.273L207.256 207.179H206.19L196.008 197.273L185.808 207.179H184.761L174.597 197.292L164.434 207.179H163.386L153.205 197.273L143.023 207.179H141.957L131.775 197.273L121.593 207.179H120.527L110.364 197.292L100.201 207.179H99.5391V35.2292H190.587L227.987 72.6297Z" fill="white"/>
<path d="M227.986 72.6294H190.586V35.229L227.986 72.6294Z" fill="#CCD3DD"/>
<path d="M160.571 129.295L160.689 128.102C160.903 125.936 161.485 124.249 162.435 123.041C163.386 121.82 164.795 120.733 166.661 119.782C167.659 119.202 168.419 118.661 168.939 118.159C169.46 117.656 169.756 117.035 169.829 116.295C169.935 115.225 169.669 114.347 169.03 113.661C168.392 112.975 167.408 112.567 166.078 112.435C165.282 112.357 164.484 112.382 163.682 112.51C162.895 112.626 162.112 112.847 161.332 113.171C160.566 113.497 159.898 113.812 159.328 114.116C158.774 114.407 158.128 114.779 157.391 115.233L157.809 109.106C160.824 107.452 163.826 106.772 166.815 107.067C169.832 107.365 172.206 108.416 173.939 110.221C175.685 112.027 176.422 114.308 176.15 117.064C176.085 117.722 175.962 118.333 175.782 118.897C175.617 119.448 175.373 119.957 175.05 120.423C174.741 120.891 174.452 121.285 174.186 121.605C173.919 121.925 173.532 122.267 173.025 122.633C172.532 122.999 172.152 123.273 171.885 123.455C171.619 123.622 171.199 123.878 170.625 124.223C170.507 124.295 170.419 124.348 170.36 124.384C169.049 125.182 168.107 125.892 167.533 126.514C166.974 127.123 166.652 127.86 166.567 128.724L166.453 129.876L160.571 129.295ZM162.662 139.885C161.592 139.779 160.748 139.357 160.129 138.617C159.511 137.864 159.25 137.001 159.346 136.027C159.443 135.04 159.861 134.244 160.599 133.638C161.353 133.02 162.278 132.765 163.375 132.874C164.458 132.981 165.302 133.41 165.906 134.162C166.525 134.901 166.786 135.765 166.688 136.752C166.592 137.726 166.168 138.521 165.414 139.139C164.663 139.743 163.745 139.992 162.662 139.885Z" fill="#30CA4C"/>
<path opacity="0.5" d="M183.844 142.212L184.071 141.73C184.485 140.856 184.981 140.237 185.559 139.873C186.14 139.504 186.892 139.26 187.815 139.141C188.32 139.048 188.718 138.935 189.011 138.803C189.304 138.67 189.521 138.454 189.663 138.156C189.867 137.724 189.887 137.316 189.722 136.934C189.558 136.551 189.207 136.233 188.67 135.979C188.349 135.827 188.011 135.718 187.656 135.652C187.309 135.583 186.948 135.558 186.574 135.578C186.204 135.599 185.878 135.631 185.594 135.673C185.318 135.712 184.992 135.771 184.616 135.851L185.707 133.349C187.216 133.108 188.574 133.272 189.781 133.843C190.999 134.419 191.836 135.214 192.291 136.228C192.752 137.245 192.719 138.31 192.193 139.423C192.067 139.688 191.925 139.926 191.765 140.135C191.613 140.341 191.435 140.517 191.23 140.664C191.031 140.814 190.851 140.936 190.692 141.03C190.532 141.123 190.319 141.209 190.052 141.286C189.791 141.366 189.591 141.424 189.452 141.46C189.316 141.49 189.102 141.534 188.81 141.593C188.75 141.605 188.705 141.614 188.675 141.62C188.007 141.759 187.506 141.915 187.173 142.089C186.848 142.261 186.603 142.521 186.439 142.87L186.219 143.335L183.844 142.212ZM183.135 146.957C182.703 146.753 182.413 146.45 182.264 146.047C182.118 145.64 182.138 145.239 182.324 144.846C182.513 144.448 182.806 144.177 183.206 144.034C183.614 143.888 184.039 143.92 184.482 144.129C184.919 144.336 185.208 144.642 185.348 145.047C185.497 145.449 185.477 145.849 185.289 146.248C185.103 146.641 184.806 146.91 184.398 147.056C183.993 147.197 183.572 147.164 183.135 146.957Z" fill="#30CA4C"/>
<path opacity="0.5" d="M142.095 136.908L141.872 136.425C141.466 135.546 141.308 134.769 141.4 134.092C141.49 133.41 141.784 132.677 142.285 131.892C142.537 131.445 142.706 131.066 142.792 130.757C142.878 130.447 142.852 130.142 142.713 129.842C142.513 129.408 142.213 129.132 141.814 129.013C141.415 128.894 140.945 128.959 140.406 129.209C140.084 129.358 139.784 129.547 139.505 129.777C139.23 129.999 138.98 130.26 138.754 130.56C138.534 130.857 138.349 131.128 138.199 131.373C138.052 131.61 137.889 131.898 137.709 132.238L136.488 129.796C137.271 128.483 138.268 127.546 139.479 126.986C140.702 126.42 141.849 126.288 142.919 126.589C143.995 126.887 144.791 127.595 145.308 128.712C145.431 128.979 145.522 129.241 145.58 129.497C145.641 129.746 145.662 129.996 145.643 130.247C145.63 130.496 145.609 130.712 145.578 130.895C145.548 131.077 145.477 131.296 145.365 131.55C145.259 131.801 145.175 131.992 145.114 132.122C145.05 132.246 144.947 132.439 144.804 132.7C144.775 132.754 144.754 132.794 144.739 132.821C144.417 133.422 144.216 133.907 144.136 134.274C144.059 134.634 144.102 134.988 144.264 135.338L144.48 135.805L142.095 136.908ZM145.282 140.494C144.849 140.695 144.43 140.723 144.026 140.579C143.62 140.43 143.325 140.158 143.143 139.763C142.958 139.363 142.938 138.964 143.085 138.566C143.234 138.159 143.531 137.853 143.976 137.648C144.415 137.444 144.835 137.419 145.236 137.571C145.64 137.715 145.934 137.987 146.119 138.387C146.302 138.781 146.318 139.182 146.169 139.588C146.017 139.989 145.721 140.291 145.282 140.494Z" fill="#30CA4C"/>
<path d="M217.186 240.445C215.111 242.519 211.74 242.519 209.644 240.445L177.297 208.097L173.191 203.991C176.173 202.025 178.745 199.454 180.733 196.45L217.186 232.903C219.26 234.999 219.26 238.37 217.186 240.445Z" fill="#30CA4C"/>
<path opacity="0.2" d="M182.373 198.092L190.801 206.519C188.834 209.501 186.263 212.073 183.259 214.061L178.938 209.739L174.832 205.634C177.836 203.667 180.385 201.096 182.373 198.092Z" fill="#212531"/>
<path d="M190.759 180.546C190.694 179.185 190.564 177.845 190.327 176.527C189.052 169.051 185.205 162.46 179.738 157.685C174.099 152.78 166.73 149.798 158.67 149.798C140.93 149.798 126.539 164.189 126.539 181.929C126.539 183.161 126.604 184.371 126.734 185.559C127.144 189.297 128.225 192.841 129.802 196.082C132.092 200.728 135.463 204.747 139.612 207.794C140.282 208.291 140.973 208.766 141.686 209.199C146.613 212.267 152.426 214.039 158.67 214.039C165.628 214.039 172.046 211.835 177.318 208.075C180.235 206.001 182.785 203.451 184.86 200.534C186.934 197.617 188.555 194.332 189.57 190.788C190.391 187.958 190.824 184.976 190.824 181.907C190.802 181.475 190.78 181 190.759 180.546ZM158.67 208.356C152.901 208.356 147.542 206.498 143.199 203.343C138.985 200.296 135.701 196.018 133.864 191.026C132.827 188.195 132.265 185.127 132.265 181.929C132.265 180.719 132.352 179.552 132.503 178.385C133.821 168.597 140.498 160.494 149.487 157.166C152.339 156.107 155.451 155.524 158.67 155.524C159.837 155.524 160.983 155.589 162.106 155.74C167.465 156.431 172.305 158.743 176.152 162.136C181.618 166.976 185.054 174.042 185.054 181.929C185.054 182.34 185.054 182.729 185.033 183.139C184.946 185.084 184.644 186.964 184.168 188.779C183.434 191.545 182.245 194.138 180.711 196.471C178.745 199.453 176.173 202.025 173.17 204.013C172.435 204.488 171.679 204.942 170.901 205.352C169.237 206.238 167.443 206.93 165.585 207.427C163.403 208.032 161.069 208.356 158.67 208.356Z" fill="#30CA4C"/>
<path d="M138.663 184.847C137.301 184.847 136.199 183.745 136.199 182.383C136.199 176.268 138.576 170.52 142.898 166.177C147.219 161.855 152.967 159.479 159.104 159.479C160.465 159.479 161.567 160.581 161.567 161.942C161.567 163.303 160.465 164.405 159.104 164.405C154.307 164.405 149.791 166.285 146.398 169.678C143.006 173.07 141.126 177.586 141.126 182.383C141.126 183.745 140.024 184.847 138.663 184.847Z" fill="white"/>
</svg>
