<svg width="26" height="26" viewBox="0 0 26 26" fill="none" xmlns="http://www.w3.org/2000/svg">
<path d="M20.8532 19.5H5.147C4.49429 19.5 3.89575 19.1712 3.54637 18.6198C3.197 18.0684 3.15366 17.3875 3.43154 16.7971L4.87508 13.8927V10.4981C4.87508 6.03526 8.27187 2.3801 12.6085 2.17589C14.8569 2.07405 16.9851 2.86435 18.6074 4.41189C20.2313 5.96051 21.1251 8.04864 21.1251 10.2917V13.8927L22.5605 16.7814C22.846 17.3875 22.8032 18.0689 22.4538 18.6203C22.1044 19.1718 21.5059 19.5 20.8532 19.5ZM12.6469 2.98785H12.6523H12.6469ZM9.79883 20.5833C10.0577 22.1179 11.3924 23.2917 13.0001 23.2917C14.6077 23.2917 15.9419 22.1179 16.2013 20.5833H9.79883Z" fill="#30CA4C"/>
</svg>
