<svg width="26" height="27" viewBox="0 0 26 27" fill="none" xmlns="http://www.w3.org/2000/svg">
<g opacity="0.3">
<path fill-rule="evenodd" clip-rule="evenodd" d="M6.32887 15.4108L3.29732 17.9886C3.32582 17.8539 3.37026 17.7198 3.43197 17.5886L3.43937 17.5727L4.875 14.6846V10.7479C4.875 6.39432 8.23001 2.6324 12.6086 2.42617C15.0151 2.31287 17.2115 3.25613 18.7708 4.83123L17.5383 5.87919C16.3 4.67335 14.5794 3.95986 12.6847 4.04905C9.1972 4.21332 6.5 7.22683 6.5 10.7479V14.875C6.50011 15.0005 6.47114 15.1243 6.41536 15.2368L6.32887 15.4108ZM8.30742 20.2916H9.75C9.75 22.0769 11.2147 23.5416 13 23.5416C14.7853 23.5416 16.25 22.0769 16.25 20.2916H20.852C22.2096 20.2916 23.1457 18.8171 22.568 17.5886L22.5606 17.5727L21.125 14.6846V10.5416C21.125 10.1731 21.1003 9.81013 21.0524 9.45439L19.5 10.7744V14.875C19.4999 15.0005 19.5289 15.1243 19.5846 15.2368L21.0975 18.2816C21.1948 18.4901 21.0822 18.6666 20.852 18.6666H10.2185L8.30742 20.2916ZM14.625 20.2916C14.625 21.1985 13.9068 21.9166 13 21.9166C12.0932 21.9166 11.375 21.1985 11.375 20.2916H14.625Z" fill="#212531"/>
<path d="M22.9459 3.24997L24.2415 4.77361L20.656 7.82242L19.3096 8.96726L7.90284 18.6666L5.99179 20.2916L3.29558 22.5843L2 21.0607L3.71208 19.6048L4.92038 18.5774L18.4853 7.04291L19.7243 5.98936L22.9459 3.24997Z" fill="#212531"/>
</g>
</svg>
