<svg width="26" height="27" viewBox="0 0 26 27" fill="none" xmlns="http://www.w3.org/2000/svg">
<path d="M20.8532 19.7501H5.147C4.49429 19.7501 3.89575 19.4213 3.54637 18.8699C3.197 18.3185 3.15366 17.6376 3.43154 17.0472L4.87508 14.1428V10.7481C4.87508 6.28535 8.27187 2.63019 12.6085 2.42598C14.8569 2.32415 16.9851 3.11444 18.6074 4.66198C20.2313 6.2106 21.1251 8.29873 21.1251 10.5418V14.1428L22.5605 17.0315C22.846 17.6376 22.8032 18.319 22.4538 18.8704C22.1044 19.4219 21.5059 19.7501 20.8532 19.7501ZM12.6469 3.23794H12.6523H12.6469ZM9.79883 20.8334C10.0577 22.368 11.3924 23.5418 13.0001 23.5418C14.6077 23.5418 15.9419 22.368 16.2013 20.8334H9.79883Z" fill="#30CA4C"/>
</svg>
