<svg width="27" height="27" viewBox="0 0 27 27" fill="none" xmlns="http://www.w3.org/2000/svg">
<g opacity="0.3">
<path d="M6.33854 4C4.70283 4 3.35938 5.34346 3.35938 6.97917V20.5208C3.35938 22.1565 4.70283 23.5 6.33854 23.5H19.8802C21.5159 23.5 22.8594 22.1565 22.8594 20.5208V6.97917C22.8594 5.34346 21.5159 4 19.8802 4H6.33854ZM6.33854 5.625H19.8802C20.6376 5.625 21.2344 6.22179 21.2344 6.97917V20.5208C21.2344 20.5927 21.2236 20.6617 21.2132 20.7303L14.6339 14.3647C14.2121 13.9566 13.6605 13.7532 13.1094 13.7532C12.5582 13.7532 12.0077 13.9566 11.5859 14.3647L5.00553 20.7303C4.99517 20.6617 4.98438 20.5927 4.98438 20.5208V6.97917C4.98438 6.22179 5.58117 5.625 6.33854 5.625ZM16.6302 7.79167C15.8854 7.79167 15.2239 8.10022 14.8042 8.57243C14.3845 9.04464 14.1927 9.64236 14.1927 10.2292C14.1927 10.816 14.3845 11.4137 14.8042 11.8859C15.2239 12.3581 15.8854 12.6667 16.6302 12.6667C17.375 12.6667 18.0365 12.3581 18.4562 11.8859C18.876 11.4137 19.0677 10.816 19.0677 10.2292C19.0677 9.64236 18.876 9.04464 18.4562 8.57243C18.0365 8.10022 17.375 7.79167 16.6302 7.79167ZM16.6302 9.41667C16.9688 9.41667 17.1198 9.51437 17.2417 9.65153C17.3636 9.78869 17.4427 10.0035 17.4427 10.2292C17.4427 10.4549 17.3636 10.6696 17.2417 10.8068C17.1198 10.944 16.9688 11.0417 16.6302 11.0417C16.2917 11.0417 16.1406 10.944 16.0187 10.8068C15.8968 10.6696 15.8177 10.4549 15.8177 10.2292C15.8177 10.0035 15.8968 9.78869 16.0187 9.65153C16.1406 9.51437 16.2917 9.41667 16.6302 9.41667ZM13.1104 15.3687C13.251 15.3687 13.3911 15.4234 13.504 15.5326L20.0431 21.8591C19.9892 21.8654 19.9361 21.875 19.8802 21.875H6.33854C6.28269 21.875 6.22954 21.8654 6.17562 21.8591L12.7158 15.5326C12.8287 15.4234 12.9698 15.3687 13.1104 15.3687Z" fill="#212531"/>
</g>
</svg>
