<svg width="22" height="22" viewBox="0 0 22 22" fill="none" xmlns="http://www.w3.org/2000/svg">
<path d="M11 22C4.93458 22 0 17.0654 0 11C0 4.93462 4.93458 0 11 0C17.0655 0 22 4.93458 22 11C22 17.0655 17.0654 22 11 22Z" fill="#36E956"/>
<path d="M11 0V22C17.0654 22 22 17.0654 22 11C22 4.93454 17.0654 0 11 0Z" fill="#30C14A"/>
<path d="M11 19.4219C6.35619 19.4219 2.57812 15.6438 2.57812 11C2.57812 6.35615 6.35619 2.57812 11 2.57812C15.6439 2.57812 19.422 6.35619 19.422 11C19.422 15.6439 15.6438 19.4219 11 19.4219Z" fill="#30CA4C"/>
<path d="M11 2.57812V19.4219C15.6438 19.4219 19.4219 15.6438 19.4219 11C19.4219 6.35615 15.6438 2.57812 11 2.57812Z" fill="#2DA342"/>
<path d="M14.1474 14.2858H7.83983C7.55155 14.2858 7.29829 14.0944 7.21969 13.817L6.0288 9.61317C5.96542 9.38938 6.02752 9.14884 6.19127 8.98367C6.35503 8.81854 6.59505 8.75439 6.81935 8.81587L8.76886 9.35033L10.4903 7.12517C10.6124 6.96738 10.8006 6.875 11.0001 6.875C11.1995 6.875 11.3878 6.96738 11.5099 7.12517L13.2313 9.35033L15.1807 8.81587C15.4054 8.7543 15.6457 8.81867 15.8094 8.98431C15.9732 9.14992 16.0349 9.39102 15.9708 9.61493L14.767 13.8187C14.6878 14.0952 14.435 14.2858 14.1474 14.2858Z" fill="white"/>
<path d="M15.8094 8.98437C15.6456 8.81877 15.4052 8.75436 15.1806 8.81594L13.2312 9.35039L11.5098 7.12523C11.3877 6.96745 11.1995 6.87506 11 6.87506V14.2859H14.1474C14.435 14.2859 14.6878 14.0953 14.767 13.8187L15.9707 9.61495C16.0348 9.39108 15.9731 9.14998 15.8094 8.98437Z" fill="#E2E2E2"/>
</svg>
