<svg width="15" height="15" viewBox="0 0 15 15" fill="none" xmlns="http://www.w3.org/2000/svg">
<g opacity="0.3">
<path d="M11.104 2.0347C10.9486 1.8771 10.697 1.8771 10.5416 2.0347L7.11054 5.5148L3.67975 2.0347C3.52437 1.8771 3.27274 1.8771 3.11736 2.0347L1.39388 3.78282C1.2385 3.94042 1.2385 4.19565 1.39388 4.35324L4.74261 7.74984L1.39388 11.1464C1.2385 11.304 1.2385 11.5593 1.39388 11.7169L3.11736 13.465C3.27274 13.6226 3.52437 13.6226 3.67975 13.465L7.11054 9.98487L10.5416 13.465C10.697 13.6226 10.9486 13.6226 11.104 13.465L12.8275 11.7166C12.9829 11.559 12.9829 11.3038 12.8275 11.1462L9.47901 7.74984L12.8275 4.35351C12.9829 4.19591 12.9829 3.94069 12.8275 3.78309L11.104 2.0347Z" fill="#212531"/>
</g>
</svg>
