<svg width="22" height="22" viewBox="0 0 22 22" fill="none" xmlns="http://www.w3.org/2000/svg">
<path d="M8.90912 17.2154C9.1062 17.4125 9.40229 17.4712 9.65849 17.3644C9.91562 17.2576 10.0829 17.0069 10.0829 16.7291V13.1922C12.3764 13.0872 17.3846 13.4287 18.3462 18.2389C18.4113 18.5629 18.6955 18.7916 19.02 18.7916C19.0424 18.7916 19.0653 18.7907 19.0878 18.7884C19.4398 18.7536 19.7079 18.4575 19.7079 18.1041C19.7079 9.47234 12.6647 7.76001 10.0829 7.42267V3.8958C10.0829 3.61759 9.91562 3.36688 9.65849 3.26055C9.40229 3.15376 9.1062 3.21288 8.90912 3.40951L2.49245 9.82617C2.22387 10.0943 2.22387 10.5302 2.49245 10.7983L8.90912 17.2154Z" fill="#0085FF"/>
</svg>
