<svg width="868" height="862" viewBox="0 0 868 862" fill="none" xmlns="http://www.w3.org/2000/svg">
<g opacity="0.5">
<path d="M472.918 231.052L582.943 231.263C582.943 231.263 577.441 224.069 571.517 223.223C571.517 223.223 559.88 188.311 540.202 187.888C522.006 187.677 514.6 209.258 514.6 209.258C514.6 209.258 506.137 199.525 498.097 203.969C490.056 208.412 485.402 221.107 485.402 221.107C485.402 221.107 476.092 226.185 472.918 231.052Z" fill="#ECEEF1"/>
</g>
<g opacity="0.6">
<path opacity="0.6" d="M394.84 755.148C394.84 760.014 390.819 764.034 385.953 764.034C381.087 764.034 377.066 760.014 377.066 755.148C377.066 750.281 381.087 746.261 385.953 746.261C390.819 746.261 394.84 750.281 394.84 755.148Z" fill="#30CA4C"/>
<path opacity="0.6" d="M338.35 794.714C338.35 797.041 336.446 798.945 334.118 798.945C331.791 798.945 329.887 797.041 329.887 794.714C329.887 792.386 331.791 790.482 334.118 790.482C336.446 790.27 338.35 792.175 338.35 794.714Z" fill="#30CA4C"/>
<path opacity="0.6" d="M604.307 812.064C604.307 814.391 602.403 816.295 600.075 816.295C597.748 816.295 595.844 814.391 595.844 812.064C595.844 809.736 597.748 807.832 600.075 807.832C602.403 807.832 604.307 809.736 604.307 812.064Z" fill="#30CA4C"/>
</g>
<path opacity="0.6" d="M244.617 856.075C244.617 859.249 247.156 861.999 250.542 861.999H617.643C620.816 861.999 623.567 859.249 623.567 856.075C623.567 852.901 621.028 850.15 617.643 850.15C617.219 850.15 616.585 850.15 616.162 850.362C616.162 844.014 610.872 838.725 604.524 838.725C601.351 838.725 598.388 839.994 596.273 842.322H596.061C596.061 841.687 596.273 840.841 596.273 840.206C596.273 828.145 586.54 818.201 574.268 818.201C570.882 818.201 567.497 819.047 564.535 820.528C564.112 812.276 557.341 805.717 548.877 805.717C542.318 805.717 536.605 809.737 534.278 815.662C530.469 809.526 523.487 805.506 515.658 805.506C514.177 805.506 512.908 805.717 511.427 805.929C511.638 804.236 511.85 802.544 511.85 800.851C511.85 784.559 498.52 771.229 482.228 771.229C474.822 771.229 468.052 773.979 462.762 778.423C462.55 778.211 462.55 778 462.339 777.788C461.704 762.342 449.009 750.07 433.563 750.07C418.117 750.07 405.422 762.342 404.788 777.788C404.576 778 404.576 778.211 404.364 778.423C399.075 773.979 392.304 771.229 384.898 771.229C368.606 771.229 355.276 784.559 355.276 800.851C355.276 802.544 355.488 804.236 355.7 805.929C354.43 805.717 352.949 805.506 351.468 805.506C343.639 805.506 336.869 809.526 332.848 815.662C330.521 809.737 324.808 805.717 318.249 805.717C309.997 805.717 303.015 812.276 302.592 820.528C299.629 819.047 296.456 818.201 292.859 818.201C280.798 818.201 270.854 827.934 270.854 840.206C270.854 840.841 270.854 841.687 271.065 842.322H270.854C268.738 840.206 265.776 838.725 262.602 838.725C256.254 838.725 250.965 844.014 250.965 850.362C250.542 850.15 250.118 850.15 249.484 850.15C247.156 850.15 244.617 852.901 244.617 856.075Z" fill="#30CA4C"/>
<g opacity="0.6">
<path opacity="0.6" d="M829.227 806.354C829.227 813.336 834.939 818.837 841.71 818.837C848.692 818.837 854.194 813.124 854.194 806.354C854.194 799.583 848.481 793.87 841.71 793.87C834.939 793.87 829.227 799.371 829.227 806.354Z" fill="#30CA4C"/>
<path opacity="0.6" d="M809.344 785.617C809.344 789.003 812.094 791.753 815.48 791.753C818.865 791.753 821.616 789.003 821.616 785.617C821.616 782.232 818.865 779.481 815.48 779.481C812.094 779.481 809.344 782.232 809.344 785.617Z" fill="#30CA4C"/>
<path opacity="0.6" d="M440.969 758.323C440.969 761.709 443.719 764.459 447.105 764.459C450.49 764.459 453.241 761.709 453.241 758.323C453.241 754.938 450.49 752.188 447.105 752.188C443.719 752.188 440.969 754.938 440.969 758.323Z" fill="#30CA4C"/>
</g>
<path opacity="0.5" d="M867.102 853.748C867.102 858.403 863.293 862 858.85 862H340.889C336.234 862 332.637 858.191 332.637 853.748C332.637 849.305 336.445 845.496 340.889 845.496C341.523 845.496 342.158 845.496 342.793 845.708C342.793 836.61 350.198 829.416 359.085 829.416C363.74 829.416 367.76 831.32 370.722 834.282H370.934C370.934 833.224 370.722 832.166 370.722 831.32C370.722 814.182 384.687 800.429 401.614 800.429C406.48 800.429 411.135 801.486 415.155 803.602C415.79 791.965 425.523 782.867 437.16 782.867C446.47 782.867 454.51 788.58 457.684 797.043C463.185 788.368 472.918 782.655 483.92 782.655C486.036 782.655 487.941 782.867 489.845 783.29C489.422 780.963 489.21 778.635 489.21 776.096C489.21 753.033 508.041 734.202 531.104 734.202C541.472 734.202 550.993 738.011 558.399 744.358C558.61 744.147 558.61 743.724 558.822 743.512C559.668 721.719 577.441 704.369 599.446 704.369C621.451 704.369 639.224 721.719 640.071 743.512C640.282 743.724 640.494 744.147 640.494 744.358C647.899 738.011 657.421 734.202 667.788 734.202C690.851 734.202 709.682 753.033 709.682 776.096C709.682 778.635 709.471 780.963 709.048 783.29C710.952 782.867 712.856 782.655 714.972 782.655C725.974 782.655 735.707 788.368 741.209 797.043C744.382 788.791 752.423 782.867 761.732 782.867C773.581 782.867 783.103 791.965 783.737 803.602C787.757 801.486 792.412 800.429 797.279 800.429C814.417 800.429 828.17 814.182 828.17 831.32C828.17 832.378 828.17 833.436 827.959 834.282H828.17C831.132 831.32 835.364 829.416 839.807 829.416C848.906 829.416 856.1 836.821 856.1 845.708C856.734 845.496 857.369 845.496 858.004 845.496C863.505 845.285 867.102 849.093 867.102 853.748Z" fill="#ECEEF1"/>
<g opacity="0.6">
<path opacity="0.6" d="M212.67 711.139C212.67 718.122 206.957 723.623 200.187 723.623C193.204 723.623 187.703 717.91 187.703 711.139C187.703 704.157 193.416 698.656 200.187 698.656C207.169 698.656 212.67 704.369 212.67 711.139Z" fill="#30CA4C"/>
<path opacity="0.6" d="M133.116 766.997C133.116 770.383 130.365 773.133 126.98 773.133C123.594 773.133 120.844 770.383 120.844 766.997C120.844 763.612 123.594 760.861 126.98 760.861C130.365 760.861 133.116 763.612 133.116 766.997Z" fill="#30CA4C"/>
<path opacity="0.6" d="M508.471 791.753C508.471 795.139 505.721 797.889 502.335 797.889C498.95 797.889 496.199 795.139 496.199 791.753C496.199 788.368 498.95 785.617 502.335 785.617C505.721 785.617 508.471 788.368 508.471 791.753Z" fill="#30CA4C"/>
</g>
<path opacity="0.5" d="M0.875 853.749C0.875 858.404 4.68354 862.001 9.12684 862.001H527.089C531.743 862.001 535.34 858.192 535.34 853.749C535.34 849.306 531.532 845.497 527.089 845.497C526.454 845.497 525.819 845.497 525.184 845.709C525.184 836.611 517.779 829.417 508.892 829.417C504.237 829.417 500.217 831.321 497.255 834.283H497.043C497.043 833.225 497.255 832.167 497.255 831.321C497.255 814.183 483.29 800.429 466.363 800.429C461.497 800.429 456.842 801.487 452.822 803.603C452.187 791.966 442.454 782.868 430.817 782.868C421.507 782.868 413.467 788.581 410.293 797.044C404.792 788.369 395.059 782.656 384.057 782.656C381.941 782.656 380.036 782.868 378.132 783.291C378.555 780.964 378.767 778.636 378.767 776.097C378.767 753.034 359.936 734.203 336.873 734.203C326.505 734.203 316.984 738.012 309.578 744.359C309.367 744.148 309.367 743.725 309.155 743.513C308.309 721.72 290.536 704.37 268.531 704.37C246.526 704.37 228.753 721.72 227.906 743.513C227.695 743.725 227.483 744.148 227.483 744.359C220.078 738.012 210.556 734.203 200.189 734.203C177.126 734.203 158.295 753.034 158.295 776.097C158.295 778.636 158.506 780.964 158.929 783.291C157.025 782.868 155.121 782.656 153.005 782.656C142.003 782.656 132.27 788.369 126.768 797.044C123.595 788.792 115.554 782.868 106.245 782.868C94.3959 782.868 84.8745 791.966 84.2397 803.603C80.2196 801.487 75.5647 800.429 70.6983 800.429C53.5598 800.429 39.8068 814.183 39.8068 831.321C39.8068 832.379 39.8068 833.437 40.0183 834.283H39.8068C36.8446 831.321 32.6128 829.417 28.1696 829.417C19.0714 829.417 11.8775 836.822 11.8775 845.709C11.2427 845.497 10.6079 845.497 9.97318 845.497C4.47195 845.286 0.875 849.094 0.875 853.749Z" fill="#ECEEF1"/>
<path opacity="0.5" d="M735.928 862H132.062C330.741 862 405.431 720.661 411.99 627.14C417.915 543.776 416.434 440.099 416.434 440.099H451.768C451.768 440.099 450.287 543.776 456.212 627.14C462.771 720.661 537.249 862 735.928 862Z" fill="#30CA4C"/>
<path d="M708.419 862H159.566C358.245 862 418.124 720.661 424.683 627.14C430.608 543.776 429.126 440.099 429.126 440.099H439.071C439.071 440.099 437.59 543.776 443.514 627.14C450.073 720.661 509.741 862 708.419 862Z" fill="#30CA4C"/>
<path d="M451.77 695.482L458.329 696.752L459.81 703.522L461.291 696.752L467.85 695.482L461.291 694.001L459.81 687.442L458.329 694.001L451.77 695.482Z" fill="#30CA4C"/>
<path d="M55.043 835.975L61.6021 837.033L63.0832 844.015L64.5643 837.033L71.1235 835.975L64.5643 834.282L63.0832 827.935L61.6021 834.282L55.043 835.975Z" fill="#30CA4C"/>
<path d="M690.219 779.059L696.778 780.116L698.259 787.099L699.74 780.116L706.299 779.059L699.74 777.366L698.259 770.807L696.778 777.366L690.219 779.059Z" fill="#30CA4C"/>
<path d="M628.227 813.971L631.824 814.817L632.67 818.625L633.516 814.817L637.113 813.971L633.516 813.124L632.67 809.527L631.824 813.124L628.227 813.971Z" fill="#30CA4C"/>
<path d="M464.887 773.557L468.695 774.192L469.542 778L470.176 774.192L473.985 773.557L470.176 772.711L469.542 769.114L468.695 772.711L464.887 773.557Z" fill="#30CA4C"/>
<path d="M611.934 844.862L615.531 845.497L616.377 849.305L617.223 845.497L620.82 844.862L617.223 843.804L616.377 840.207L615.531 843.804L611.934 844.862Z" fill="#30CA4C"/>
<path d="M519.895 835.764L523.491 836.398L524.338 840.207L525.184 836.398L528.781 835.764L525.184 834.917L524.338 831.32L523.491 834.917L519.895 835.764Z" fill="#30CA4C"/>
<path d="M113.438 840.206L117.034 840.841L117.881 844.861L118.727 840.841L122.324 840.206L118.727 839.36L117.881 835.763L117.034 839.36L113.438 840.206Z" fill="#30CA4C"/>
<path d="M532.379 750.707L535.976 751.342L536.822 755.362L537.669 751.342L541.266 750.707L537.669 749.861L536.822 746.264L535.976 749.861L532.379 750.707Z" fill="#30CA4C"/>
<path d="M654.043 750.707L657.64 751.342L658.486 755.362L659.333 751.342L662.93 750.707L659.333 749.861L658.486 746.264L657.64 749.861L654.043 750.707Z" fill="#30CA4C"/>
<path d="M423.626 833.859C424.896 833.859 424.896 835.975 423.626 835.975C422.145 835.975 422.145 833.859 423.626 833.859Z" fill="#30CA4C"/>
<path d="M560.732 722.143C562.001 722.143 562.001 724.258 560.732 724.258C559.251 724.258 559.251 722.143 560.732 722.143Z" fill="#30CA4C"/>
<path d="M650.655 838.937C651.925 838.937 651.925 841.053 650.655 841.053C649.386 841.053 649.386 838.937 650.655 838.937Z" fill="#30CA4C"/>
<path d="M583.796 824.338C585.065 824.338 585.065 826.454 583.796 826.454C582.526 826.454 582.526 824.338 583.796 824.338Z" fill="#30CA4C"/>
<path d="M450.075 814.817C451.133 814.817 451.133 816.298 450.075 816.298C449.017 816.298 449.017 814.817 450.075 814.817Z" fill="#30CA4C"/>
<path d="M456.842 634.757C457.9 634.757 457.9 636.238 456.842 636.238C455.995 636.238 455.995 634.757 456.842 634.757Z" fill="#30CA4C"/>
<path d="M542.322 803.603C543.38 803.603 543.38 805.084 542.322 805.084C541.476 805.084 541.476 803.603 542.322 803.603Z" fill="#30CA4C"/>
<path d="M609.822 789.003C610.88 789.003 610.88 790.484 609.822 790.484C608.976 790.484 608.976 789.003 609.822 789.003Z" fill="#30CA4C"/>
<path d="M494.295 791.965C496.834 791.965 496.834 795.985 494.295 795.985C491.756 796.197 491.756 791.965 494.295 791.965Z" fill="#30CA4C"/>
<path d="M600.303 782.232C602.842 782.232 602.842 786.253 600.303 786.253C597.764 786.253 597.764 782.232 600.303 782.232Z" fill="#30CA4C"/>
<path d="M413.684 502.939L420.243 504.209L421.724 510.979L423.205 504.209L429.764 502.939L423.205 501.246L421.724 494.899L420.243 501.246L413.684 502.939Z" fill="#30CA4C"/>
<path d="M362.898 816.721L366.495 817.356L367.342 821.164L367.977 817.356L371.785 816.721L368.188 815.663L367.342 812.066L366.495 815.663L362.898 816.721Z" fill="#30CA4C"/>
<path d="M433.57 484.32L437.167 485.166L438.014 488.975L438.86 485.166L442.457 484.32L438.86 483.473L438.014 479.876L437.167 483.473L433.57 484.32Z" fill="#30CA4C"/>
<path d="M230.444 757.476C231.714 757.476 231.714 759.592 230.444 759.592C229.175 759.592 229.175 757.476 230.444 757.476Z" fill="#30CA4C"/>
<path d="M385.327 841.477C386.597 841.477 386.597 843.593 385.327 843.593C384.058 843.593 384.058 841.477 385.327 841.477Z" fill="#30CA4C"/>
<path d="M318.466 827.087C319.736 827.087 319.736 829.203 318.466 829.203C316.985 829.203 316.985 827.087 318.466 827.087Z" fill="#30CA4C"/>
<path d="M277.004 806.141C278.062 806.141 278.062 807.622 277.004 807.622C275.946 807.622 275.946 806.141 277.004 806.141Z" fill="#30CA4C"/>
<path d="M344.49 791.542C345.548 791.542 345.548 793.023 344.49 793.023C343.644 793.023 343.644 791.542 344.49 791.542Z" fill="#30CA4C"/>
<path d="M394.213 660.783C395.271 660.783 395.271 662.264 394.213 662.264C393.367 662.264 393.367 660.783 394.213 660.783Z" fill="#30CA4C"/>
<path d="M334.975 784.771C337.514 784.771 337.514 788.791 334.975 788.791C332.436 788.791 332.436 784.771 334.975 784.771Z" fill="#30CA4C"/>
<path d="M449.232 530.233C451.771 530.233 451.771 534.254 449.232 534.254C446.693 534.254 446.693 530.233 449.232 530.233Z" fill="#30CA4C"/>
<path d="M200.407 831.743C202.946 831.743 202.946 835.763 200.407 835.763C197.656 835.763 197.656 831.743 200.407 831.743Z" fill="#30CA4C"/>
<path d="M350.414 757.9L354.011 758.535L354.857 762.343L355.704 758.535L359.301 757.688L355.704 756.842L354.857 753.245L354.011 756.842L350.414 757.9Z" fill="#30CA4C"/>
<path d="M767.031 835.975L770.628 836.61L771.475 840.419L772.321 836.61L775.918 835.975L772.321 834.917L771.475 831.32L770.628 834.917L767.031 835.975Z" fill="#30CA4C"/>
<path d="M372.843 782.655C374.112 782.655 374.112 784.771 372.843 784.771C371.573 784.771 371.573 782.655 372.843 782.655Z" fill="#30CA4C"/>
<path d="M405.001 725.739C406.271 725.739 406.271 727.855 405.001 727.855C403.52 727.855 403.52 725.739 405.001 725.739Z" fill="#30CA4C"/>
<path d="M420.879 584.611L424.476 585.246L425.322 589.055L426.169 585.246L429.765 584.611L426.169 583.765L425.322 579.957L424.476 583.765L420.879 584.611Z" fill="#30CA4C"/>
<path d="M523.495 745.205C524.765 745.205 524.765 747.32 523.495 747.32C522.226 747.32 522.226 745.205 523.495 745.205Z" fill="#30CA4C"/>
<path d="M477.793 727.22C478.851 727.22 478.851 728.701 477.793 728.701C476.736 728.701 476.736 727.22 477.793 727.22Z" fill="#30CA4C"/>
<path d="M229.812 782.656L233.409 783.291L234.256 787.311L235.102 783.291L238.699 782.656L235.102 781.809L234.256 778.212L233.409 781.809L229.812 782.656Z" fill="#30CA4C"/>
<path d="M804.055 849.305L807.652 849.94L808.498 853.748L809.344 849.94L812.941 849.305L809.344 848.459L808.498 844.862L807.652 848.459L804.055 849.305Z" fill="#30CA4C"/>
<path d="M177.339 782.655C178.608 782.655 178.608 784.771 177.339 784.771C176.069 784.771 176.069 782.655 177.339 782.655Z" fill="#30CA4C"/>
<path d="M247.372 788.368C248.429 788.368 248.429 789.849 247.372 789.849C246.314 789.849 246.314 788.368 247.372 788.368Z" fill="#30CA4C"/>
<path d="M350.201 735.26C352.74 735.26 352.74 739.28 350.201 739.28C347.662 739.28 347.662 735.26 350.201 735.26Z" fill="#30CA4C"/>
<path d="M643.037 760.228C645.576 760.228 645.576 764.248 643.037 764.248C640.498 764.248 640.498 760.228 643.037 760.228Z" fill="#30CA4C"/>
<path d="M491.313 138.589C491.313 181.117 491.313 446.022 491.313 446.022H376.422C376.422 446.022 376.422 181.329 376.422 138.589C376.422 96.0599 373.46 71.3043 398.85 35.3348C421.067 4.02012 429.742 0 433.762 0C437.782 0 446.669 4.02012 468.674 35.3348C494.276 71.3043 491.313 96.0599 491.313 138.589Z" fill="#ECEEF1"/>
<path d="M457.036 19.6775H410.699C424.452 2.75061 430.588 0 433.762 0C437.147 0 443.495 2.53903 457.036 19.6775Z" fill="#30CA4C"/>
<g opacity="0.2">
<path d="M393.344 44.0103C400.114 43.7987 406.885 43.5871 413.656 43.5871L433.968 43.3755L454.28 43.5871C461.051 43.5871 467.822 43.7987 474.593 44.0103C467.822 44.2218 461.051 44.4334 454.28 44.4334L433.968 44.645L413.656 44.4334C406.885 44.2218 400.114 44.2218 393.344 44.0103Z" fill="#383E4F"/>
<path d="M376.629 109.178C386.15 108.967 395.672 108.755 405.405 108.755L434.18 108.543L462.956 108.755C472.477 108.755 481.999 108.967 491.731 109.178C482.21 109.39 472.689 109.601 462.956 109.601L434.18 109.813L405.405 109.601C395.672 109.39 386.15 109.39 376.629 109.178Z" fill="#383E4F"/>
<path d="M377.262 91.4053C386.783 91.1937 396.093 90.9821 405.614 90.9821L433.967 90.7705L462.319 90.9821C471.84 90.9821 481.15 91.1937 490.672 91.4053C481.15 91.6168 471.84 91.8284 462.319 91.8284L433.967 92.04L405.614 91.8284C396.304 91.8284 386.783 91.6168 377.262 91.4053Z" fill="#383E4F"/>
<path d="M376.629 177.52C386.15 177.309 395.672 177.097 405.405 177.097L434.18 176.886L462.956 177.097C472.477 177.097 481.999 177.309 491.731 177.52C482.21 177.732 472.689 177.944 462.956 177.944L434.18 178.155L405.405 177.944C395.672 177.944 386.15 177.732 376.629 177.52Z" fill="#383E4F"/>
<path d="M376.629 246.074C386.15 245.863 395.672 245.651 405.405 245.651L434.18 245.439L462.956 245.651C472.477 245.651 481.999 245.863 491.731 246.074C482.21 246.286 472.689 246.497 462.956 246.497H433.969L405.193 246.286C395.672 246.286 386.15 246.286 376.629 246.074Z" fill="#383E4F"/>
<path d="M376.629 314.417C386.15 314.205 395.672 313.993 405.405 313.993L434.18 313.782L462.956 313.993C472.477 313.993 481.999 314.205 491.731 314.417C482.21 314.628 472.689 314.84 462.956 314.84L434.18 315.051L405.405 314.84C395.672 314.84 386.15 314.628 376.629 314.417Z" fill="#383E4F"/>
<path d="M376.629 382.97C386.15 382.759 395.672 382.547 405.405 382.547L434.18 382.335L462.956 382.547C472.477 382.547 481.999 382.759 491.731 382.97C482.21 383.182 472.689 383.393 462.956 383.393L434.18 383.605L405.405 383.393C395.672 383.182 386.15 383.182 376.629 382.97Z" fill="#383E4F"/>
<path d="M397.575 48.453C397.575 49.0877 396.941 49.9341 396.306 49.9341C395.46 50.1456 394.613 49.2993 394.613 48.453C394.613 47.6066 395.46 46.7603 396.306 46.9718C397.152 46.9718 397.787 47.6066 397.575 48.453ZM397.575 48.453C397.575 47.8182 396.941 47.1834 396.306 47.1834C395.671 47.1834 395.248 47.8182 395.248 48.453C395.248 49.0877 395.671 49.5109 396.306 49.7225C396.941 49.7225 397.575 49.0877 397.575 48.453Z" fill="#383E4F"/>
<path d="M412.81 48.453C412.81 49.0877 412.175 49.9341 411.54 49.9341C410.694 50.1456 409.848 49.2993 409.848 48.453C409.848 47.6066 410.694 46.7603 411.54 46.9718C412.175 46.9718 412.81 47.6066 412.81 48.453ZM412.81 48.453C412.81 47.8182 412.175 47.1834 411.54 47.1834C410.906 47.1834 410.482 47.8182 410.482 48.453C410.482 49.0877 410.906 49.5109 411.54 49.7225C411.963 49.7225 412.81 49.0877 412.81 48.453Z" fill="#383E4F"/>
<path d="M427.833 48.453C427.833 49.0877 427.199 49.9341 426.564 49.9341C425.717 50.1456 424.871 49.2993 424.871 48.453C424.871 47.6066 425.717 46.7603 426.564 46.9718C427.199 46.9718 427.833 47.6066 427.833 48.453ZM427.833 48.453C427.833 47.8182 427.199 47.1834 426.564 47.1834C425.929 47.1834 425.506 47.8182 425.506 48.453C425.506 49.0877 425.929 49.5109 426.564 49.7225C426.987 49.7225 427.833 49.0877 427.833 48.453Z" fill="#383E4F"/>
<path d="M442.857 48.453C442.857 49.0877 442.222 49.9341 441.587 49.9341C440.741 50.1456 439.895 49.2993 439.895 48.453C439.895 47.6066 440.741 46.7603 441.587 46.9718C442.222 46.9718 442.857 47.6066 442.857 48.453ZM442.857 48.453C442.857 47.8182 442.222 47.1834 441.587 47.1834C440.952 47.1834 440.529 47.8182 440.529 48.453C440.529 49.0877 440.952 49.5109 441.587 49.7225C442.01 49.7225 442.857 49.0877 442.857 48.453Z" fill="#383E4F"/>
<path d="M457.876 48.453C457.876 49.0877 457.242 49.9341 456.607 49.9341C455.76 50.1456 454.914 49.2993 454.914 48.453C454.914 47.6066 455.76 46.7603 456.607 46.9718C457.242 46.9718 457.876 47.6066 457.876 48.453ZM457.876 48.453C457.876 47.8182 457.242 47.1834 456.607 47.1834C455.972 47.1834 455.549 47.8182 455.549 48.453C455.549 49.0877 455.972 49.5109 456.607 49.7225C457.242 49.7225 457.876 49.0877 457.876 48.453Z" fill="#383E4F"/>
<path d="M472.9 48.453C472.9 49.0877 472.265 49.9341 471.63 49.9341C470.784 50.1456 469.938 49.2993 469.938 48.453C469.938 47.6066 470.784 46.7603 471.63 46.9718C472.265 46.9718 472.9 47.6066 472.9 48.453ZM472.9 48.453C472.9 47.8182 472.265 47.1834 471.63 47.1834C470.995 47.1834 470.572 47.8182 470.572 48.453C470.572 49.0877 470.995 49.5109 471.63 49.7225C472.265 49.7225 472.9 49.0877 472.9 48.453Z" fill="#383E4F"/>
<path d="M397.572 112.987C397.572 113.621 396.937 114.468 396.302 114.468C395.456 114.679 394.609 113.833 394.609 112.987C394.609 112.14 395.456 111.294 396.302 111.506C397.148 111.506 397.783 112.352 397.572 112.987ZM397.572 112.987C397.572 112.352 396.937 111.717 396.302 111.717C395.667 111.717 395.244 112.352 395.244 112.987C395.244 113.621 395.667 114.045 396.302 114.256C396.937 114.256 397.572 113.833 397.572 112.987Z" fill="#383E4F"/>
<path d="M412.81 112.987C412.81 113.621 412.175 114.468 411.54 114.468C410.694 114.679 409.848 113.833 409.848 112.987C409.848 112.14 410.694 111.294 411.54 111.506C412.175 111.506 412.81 112.352 412.81 112.987ZM412.81 112.987C412.81 112.352 412.175 111.717 411.54 111.717C410.906 111.717 410.482 112.352 410.482 112.987C410.482 113.621 410.906 114.045 411.54 114.256C411.963 114.256 412.81 113.833 412.81 112.987Z" fill="#383E4F"/>
<path d="M382.552 112.987C382.552 113.621 381.917 114.468 381.283 114.468C380.436 114.679 379.59 113.833 379.59 112.987C379.59 112.14 380.436 111.294 381.283 111.506C382.129 111.506 382.552 112.352 382.552 112.987ZM382.552 112.987C382.552 112.352 381.917 111.717 381.283 111.717C380.648 111.717 380.225 112.352 380.225 112.987C380.225 113.621 380.648 114.045 381.283 114.256C381.917 114.256 382.552 113.833 382.552 112.987Z" fill="#383E4F"/>
<path d="M427.833 112.987C427.833 113.621 427.199 114.468 426.564 114.468C425.717 114.679 424.871 113.833 424.871 112.987C424.871 112.14 425.717 111.294 426.564 111.506C427.199 111.506 427.833 112.352 427.833 112.987ZM427.833 112.987C427.833 112.352 427.199 111.717 426.564 111.717C425.929 111.717 425.506 112.352 425.506 112.987C425.506 113.621 425.929 114.045 426.564 114.256C426.987 114.256 427.833 113.833 427.833 112.987Z" fill="#383E4F"/>
<path d="M442.853 112.987C442.853 113.621 442.218 114.468 441.583 114.468C440.737 114.679 439.891 113.833 439.891 112.987C439.891 112.14 440.737 111.294 441.583 111.506C442.218 111.506 442.853 112.352 442.853 112.987ZM442.853 112.987C442.853 112.352 442.218 111.717 441.583 111.717C440.949 111.717 440.525 112.352 440.525 112.987C440.525 113.621 440.949 114.045 441.583 114.256C442.006 114.256 442.853 113.833 442.853 112.987Z" fill="#383E4F"/>
<path d="M457.876 112.987C457.876 113.621 457.242 114.468 456.607 114.468C455.76 114.679 454.914 113.833 454.914 112.987C454.914 112.14 455.76 111.294 456.607 111.506C457.242 111.506 457.876 112.352 457.876 112.987ZM457.876 112.987C457.876 112.352 457.242 111.717 456.607 111.717C455.972 111.717 455.549 112.352 455.549 112.987C455.549 113.621 455.972 114.045 456.607 114.256C457.242 114.256 457.876 113.833 457.876 112.987Z" fill="#383E4F"/>
<path d="M472.896 112.987C472.896 113.621 472.261 114.468 471.626 114.468C470.78 114.679 469.934 113.833 469.934 112.987C469.934 112.14 470.78 111.294 471.626 111.506C472.261 111.506 472.896 112.352 472.896 112.987ZM472.896 112.987C472.896 112.352 472.261 111.717 471.626 111.717C470.991 111.717 470.568 112.352 470.568 112.987C470.568 113.621 470.991 114.045 471.626 114.256C472.261 114.256 472.896 113.833 472.896 112.987Z" fill="#383E4F"/>
<path d="M487.919 112.987C487.919 113.621 487.284 114.468 486.65 114.468C485.803 114.679 484.957 113.833 484.957 112.987C484.957 112.14 485.803 111.294 486.65 111.506C487.284 111.506 487.919 112.352 487.919 112.987ZM487.919 112.987C487.919 112.352 487.284 111.717 486.65 111.717C486.015 111.717 485.592 112.352 485.592 112.987C485.592 113.621 486.015 114.045 486.65 114.256C487.284 114.256 487.919 113.833 487.919 112.987Z" fill="#383E4F"/>
<path d="M397.572 95.8485C397.572 96.4832 396.937 97.3296 396.302 97.3296C395.456 97.5411 394.609 96.6948 394.609 95.8485C394.609 95.0021 395.456 94.1558 396.302 94.3674C397.148 94.5789 397.783 95.2137 397.572 95.8485ZM397.572 95.8485C397.572 95.2137 396.937 94.5789 396.302 94.5789C395.667 94.5789 395.244 95.2137 395.244 95.8485C395.244 96.4832 395.667 96.9064 396.302 97.118C396.937 97.3296 397.572 96.6948 397.572 95.8485Z" fill="#383E4F"/>
<path d="M412.81 95.8485C412.81 96.4832 412.175 97.3296 411.54 97.3296C410.694 97.5411 409.848 96.6948 409.848 95.8485C409.848 95.0021 410.694 94.1558 411.54 94.3674C412.175 94.5789 412.81 95.2137 412.81 95.8485ZM412.81 95.8485C412.81 95.2137 412.175 94.5789 411.54 94.5789C410.906 94.5789 410.482 95.2137 410.482 95.8485C410.482 96.4832 410.906 96.9064 411.54 97.118C411.963 97.3296 412.81 96.6948 412.81 95.8485Z" fill="#383E4F"/>
<path d="M382.552 95.8485C382.552 96.4832 381.917 97.3296 381.283 97.3296C380.436 97.5411 379.59 96.6948 379.59 95.8485C379.59 95.0021 380.436 94.1558 381.283 94.3674C382.129 94.5789 382.552 95.2137 382.552 95.8485ZM382.552 95.8485C382.552 95.2137 381.917 94.5789 381.283 94.5789C380.648 94.5789 380.225 95.2137 380.225 95.8485C380.225 96.4832 380.648 96.9064 381.283 97.118C381.917 97.3296 382.552 96.6948 382.552 95.8485Z" fill="#383E4F"/>
<path d="M427.833 95.8485C427.833 96.4832 427.199 97.3296 426.564 97.3296C425.717 97.5411 424.871 96.6948 424.871 95.8485C424.871 95.0021 425.717 94.1558 426.564 94.3674C427.199 94.5789 427.833 95.2137 427.833 95.8485ZM427.833 95.8485C427.833 95.2137 427.199 94.5789 426.564 94.5789C425.929 94.5789 425.506 95.2137 425.506 95.8485C425.506 96.4832 425.929 96.9064 426.564 97.118C426.987 97.3296 427.833 96.6948 427.833 95.8485Z" fill="#383E4F"/>
<path d="M442.853 95.8485C442.853 96.4832 442.218 97.3296 441.583 97.3296C440.737 97.5411 439.891 96.6948 439.891 95.8485C439.891 95.0021 440.737 94.1558 441.583 94.3674C442.218 94.5789 442.853 95.2137 442.853 95.8485ZM442.853 95.8485C442.853 95.2137 442.218 94.5789 441.583 94.5789C440.949 94.5789 440.525 95.2137 440.525 95.8485C440.525 96.4832 440.949 96.9064 441.583 97.118C442.006 97.3296 442.853 96.6948 442.853 95.8485Z" fill="#383E4F"/>
<path d="M457.876 95.8485C457.876 96.4832 457.242 97.3296 456.607 97.3296C455.76 97.5411 454.914 96.6948 454.914 95.8485C454.914 95.0021 455.76 94.1558 456.607 94.3674C457.242 94.5789 457.876 95.2137 457.876 95.8485ZM457.876 95.8485C457.876 95.2137 457.242 94.5789 456.607 94.5789C455.972 94.5789 455.549 95.2137 455.549 95.8485C455.549 96.4832 455.972 96.9064 456.607 97.118C457.242 97.3296 457.876 96.6948 457.876 95.8485Z" fill="#383E4F"/>
<path d="M472.896 95.8485C472.896 96.4832 472.261 97.3296 471.626 97.3296C470.78 97.5411 469.934 96.6948 469.934 95.8485C469.934 95.0021 470.78 94.1558 471.626 94.3674C472.261 94.5789 472.896 95.2137 472.896 95.8485ZM472.896 95.8485C472.896 95.2137 472.261 94.5789 471.626 94.5789C470.991 94.5789 470.568 95.2137 470.568 95.8485C470.568 96.4832 470.991 96.9064 471.626 97.118C472.261 97.3296 472.896 96.6948 472.896 95.8485Z" fill="#383E4F"/>
<path d="M487.919 95.8485C487.919 96.4832 487.284 97.3296 486.65 97.3296C485.803 97.5411 484.957 96.6948 484.957 95.8485C484.957 95.0021 485.803 94.1558 486.65 94.3674C487.284 94.5789 487.919 95.2137 487.919 95.8485ZM487.919 95.8485C487.919 95.2137 487.284 94.5789 486.65 94.5789C486.015 94.5789 485.592 95.2137 485.592 95.8485C485.592 96.4832 486.015 96.9064 486.65 97.118C487.284 97.3296 487.919 96.6948 487.919 95.8485Z" fill="#383E4F"/>
<path d="M397.572 182.387C397.572 183.022 396.937 183.868 396.302 183.868C395.456 184.08 394.609 183.233 394.609 182.387C394.609 181.541 395.456 180.694 396.302 180.906C397.148 180.906 397.783 181.541 397.572 182.387ZM397.572 182.387C397.572 181.752 396.937 181.118 396.302 181.118C395.667 181.118 395.244 181.752 395.244 182.387C395.244 183.022 395.667 183.445 396.302 183.657C396.937 183.657 397.572 183.022 397.572 182.387Z" fill="#383E4F"/>
<path d="M412.81 182.387C412.81 183.022 412.175 183.868 411.54 183.868C410.694 184.08 409.848 183.233 409.848 182.387C409.848 181.541 410.694 180.694 411.54 180.906C412.175 180.906 412.81 181.541 412.81 182.387ZM412.81 182.387C412.81 181.752 412.175 181.118 411.54 181.118C410.906 181.118 410.482 181.752 410.482 182.387C410.482 183.022 410.906 183.445 411.54 183.657C411.963 183.657 412.81 183.022 412.81 182.387Z" fill="#383E4F"/>
<path d="M382.552 182.387C382.552 183.022 381.917 183.868 381.283 183.868C380.436 184.08 379.59 183.233 379.59 182.387C379.59 181.541 380.436 180.694 381.283 180.906C382.129 180.906 382.552 181.541 382.552 182.387ZM382.552 182.387C382.552 181.752 381.917 181.118 381.283 181.118C380.648 181.118 380.225 181.752 380.225 182.387C380.225 183.022 380.648 183.445 381.283 183.657C381.917 183.657 382.552 183.022 382.552 182.387Z" fill="#383E4F"/>
<path d="M427.833 182.387C427.833 183.022 427.199 183.868 426.564 183.868C425.717 184.08 424.871 183.233 424.871 182.387C424.871 181.541 425.717 180.694 426.564 180.906C427.199 180.906 427.833 181.541 427.833 182.387ZM427.833 182.387C427.833 181.752 427.199 181.118 426.564 181.118C425.929 181.118 425.506 181.752 425.506 182.387C425.506 183.022 425.929 183.445 426.564 183.657C426.987 183.657 427.833 183.022 427.833 182.387Z" fill="#383E4F"/>
<path d="M442.853 182.387C442.853 183.022 442.218 183.868 441.583 183.868C440.737 184.08 439.891 183.233 439.891 182.387C439.891 181.541 440.737 180.694 441.583 180.906C442.218 180.906 442.853 181.541 442.853 182.387ZM442.853 182.387C442.853 181.752 442.218 181.118 441.583 181.118C440.949 181.118 440.525 181.752 440.525 182.387C440.525 183.022 440.949 183.445 441.583 183.657C442.006 183.657 442.853 183.022 442.853 182.387Z" fill="#383E4F"/>
<path d="M457.876 182.387C457.876 183.022 457.242 183.868 456.607 183.868C455.76 184.08 454.914 183.233 454.914 182.387C454.914 181.541 455.76 180.694 456.607 180.906C457.242 180.906 457.876 181.541 457.876 182.387ZM457.876 182.387C457.876 181.752 457.242 181.118 456.607 181.118C455.972 181.118 455.549 181.752 455.549 182.387C455.549 183.022 455.972 183.445 456.607 183.657C457.242 183.657 457.876 183.022 457.876 182.387Z" fill="#383E4F"/>
<path d="M472.896 182.387C472.896 183.022 472.261 183.868 471.626 183.868C470.78 184.08 469.934 183.233 469.934 182.387C469.934 181.541 470.78 180.694 471.626 180.906C472.261 180.906 472.896 181.541 472.896 182.387ZM472.896 182.387C472.896 181.752 472.261 181.118 471.626 181.118C470.991 181.118 470.568 181.752 470.568 182.387C470.568 183.022 470.991 183.445 471.626 183.657C472.261 183.657 472.896 183.022 472.896 182.387Z" fill="#383E4F"/>
<path d="M487.919 182.387C487.919 183.022 487.284 183.868 486.65 183.868C485.803 184.08 484.957 183.233 484.957 182.387C484.957 181.541 485.803 180.694 486.65 180.906C487.284 180.906 487.919 181.541 487.919 182.387ZM487.919 182.387C487.919 181.752 487.284 181.118 486.65 181.118C486.015 181.118 485.592 181.752 485.592 182.387C485.592 183.022 486.015 183.445 486.65 183.657C487.284 183.657 487.919 183.022 487.919 182.387Z" fill="#383E4F"/>
<path d="M397.572 251.786C397.572 252.421 396.937 253.268 396.302 253.268C395.456 253.479 394.609 252.633 394.609 251.786C394.609 250.94 395.456 250.094 396.302 250.305C397.148 250.305 397.783 250.94 397.572 251.786ZM397.572 251.786C397.572 251.152 396.937 250.517 396.302 250.517C395.667 250.517 395.244 251.152 395.244 251.786C395.244 252.421 395.667 252.844 396.302 253.056C396.937 253.056 397.572 252.421 397.572 251.786Z" fill="#383E4F"/>
<path d="M412.81 251.786C412.81 252.421 412.175 253.268 411.54 253.268C410.694 253.479 409.848 252.633 409.848 251.786C409.848 250.94 410.694 250.094 411.54 250.305C412.175 250.305 412.81 250.94 412.81 251.786ZM412.81 251.786C412.81 251.152 412.175 250.517 411.54 250.517C410.906 250.517 410.482 251.152 410.482 251.786C410.482 252.421 410.906 252.844 411.54 253.056C411.963 253.056 412.81 252.421 412.81 251.786Z" fill="#383E4F"/>
<path d="M382.552 251.786C382.552 252.421 381.917 253.268 381.283 253.268C380.436 253.479 379.59 252.633 379.59 251.786C379.59 250.94 380.436 250.094 381.283 250.305C382.129 250.305 382.552 250.94 382.552 251.786ZM382.552 251.786C382.552 251.152 381.917 250.517 381.283 250.517C380.648 250.517 380.225 251.152 380.225 251.786C380.225 252.421 380.648 252.844 381.283 253.056C381.917 253.056 382.552 252.421 382.552 251.786Z" fill="#383E4F"/>
<path d="M427.833 251.786C427.833 252.421 427.199 253.268 426.564 253.268C425.717 253.479 424.871 252.633 424.871 251.786C424.871 250.94 425.717 250.094 426.564 250.305C427.199 250.305 427.833 250.94 427.833 251.786ZM427.833 251.786C427.833 251.152 427.199 250.517 426.564 250.517C425.929 250.517 425.506 251.152 425.506 251.786C425.506 252.421 425.929 252.844 426.564 253.056C426.987 253.056 427.833 252.421 427.833 251.786Z" fill="#383E4F"/>
<path d="M442.853 251.786C442.853 252.421 442.218 253.268 441.583 253.268C440.737 253.479 439.891 252.633 439.891 251.786C439.891 250.94 440.737 250.094 441.583 250.305C442.218 250.305 442.853 250.94 442.853 251.786ZM442.853 251.786C442.853 251.152 442.218 250.517 441.583 250.517C440.949 250.517 440.525 251.152 440.525 251.786C440.525 252.421 440.949 252.844 441.583 253.056C442.006 253.056 442.853 252.421 442.853 251.786Z" fill="#383E4F"/>
<path d="M457.876 251.786C457.876 252.421 457.242 253.268 456.607 253.268C455.76 253.479 454.914 252.633 454.914 251.786C454.914 250.94 455.76 250.094 456.607 250.305C457.242 250.305 457.876 250.94 457.876 251.786ZM457.876 251.786C457.876 251.152 457.242 250.517 456.607 250.517C455.972 250.517 455.549 251.152 455.549 251.786C455.549 252.421 455.972 252.844 456.607 253.056C457.242 253.056 457.876 252.421 457.876 251.786Z" fill="#383E4F"/>
<path d="M472.896 251.786C472.896 252.421 472.261 253.268 471.626 253.268C470.78 253.479 469.934 252.633 469.934 251.786C469.934 250.94 470.78 250.094 471.626 250.305C472.261 250.305 472.896 250.94 472.896 251.786ZM472.896 251.786C472.896 251.152 472.261 250.517 471.626 250.517C470.991 250.517 470.568 251.152 470.568 251.786C470.568 252.421 470.991 252.844 471.626 253.056C472.261 253.056 472.896 252.421 472.896 251.786Z" fill="#383E4F"/>
<path d="M487.919 251.786C487.919 252.421 487.284 253.268 486.65 253.268C485.803 253.479 484.957 252.633 484.957 251.786C484.957 250.94 485.803 250.094 486.65 250.305C487.284 250.305 487.919 250.94 487.919 251.786ZM487.919 251.786C487.919 251.152 487.284 250.517 486.65 250.517C486.015 250.517 485.592 251.152 485.592 251.786C485.592 252.421 486.015 252.844 486.65 253.056C487.284 253.056 487.919 252.421 487.919 251.786Z" fill="#383E4F"/>
<path d="M397.572 320.975C397.572 321.61 396.937 322.456 396.302 322.456C395.456 322.668 394.609 321.822 394.609 320.975C394.609 320.129 395.456 319.283 396.302 319.494C397.148 319.494 397.783 320.341 397.572 320.975ZM397.572 320.975C397.572 320.341 396.937 319.706 396.302 319.706C395.667 319.706 395.244 320.341 395.244 320.975C395.244 321.61 395.667 322.033 396.302 322.245C396.937 322.245 397.572 321.822 397.572 320.975Z" fill="#383E4F"/>
<path d="M412.81 320.975C412.81 321.61 412.175 322.456 411.54 322.456C410.694 322.668 409.848 321.822 409.848 320.975C409.848 320.129 410.694 319.283 411.54 319.494C412.175 319.494 412.81 320.341 412.81 320.975ZM412.81 320.975C412.81 320.341 412.175 319.706 411.54 319.706C410.906 319.706 410.482 320.341 410.482 320.975C410.482 321.61 410.906 322.033 411.54 322.245C411.963 322.245 412.81 321.822 412.81 320.975Z" fill="#383E4F"/>
<path d="M382.552 320.975C382.552 321.61 381.917 322.456 381.283 322.456C380.436 322.668 379.59 321.822 379.59 320.975C379.59 320.129 380.436 319.283 381.283 319.494C382.129 319.494 382.552 320.341 382.552 320.975ZM382.552 320.975C382.552 320.341 381.917 319.706 381.283 319.706C380.648 319.706 380.225 320.341 380.225 320.975C380.225 321.61 380.648 322.033 381.283 322.245C381.917 322.245 382.552 321.822 382.552 320.975Z" fill="#383E4F"/>
<path d="M427.833 320.975C427.833 321.61 427.199 322.456 426.564 322.456C425.717 322.668 424.871 321.822 424.871 320.975C424.871 320.129 425.717 319.283 426.564 319.494C427.199 319.494 427.833 320.341 427.833 320.975ZM427.833 320.975C427.833 320.341 427.199 319.706 426.564 319.706C425.929 319.706 425.506 320.341 425.506 320.975C425.506 321.61 425.929 322.033 426.564 322.245C426.987 322.245 427.833 321.822 427.833 320.975Z" fill="#383E4F"/>
<path d="M442.853 320.975C442.853 321.61 442.218 322.456 441.583 322.456C440.737 322.668 439.891 321.822 439.891 320.975C439.891 320.129 440.737 319.283 441.583 319.494C442.218 319.494 442.853 320.341 442.853 320.975ZM442.853 320.975C442.853 320.341 442.218 319.706 441.583 319.706C440.949 319.706 440.525 320.341 440.525 320.975C440.525 321.61 440.949 322.033 441.583 322.245C442.006 322.245 442.853 321.822 442.853 320.975Z" fill="#383E4F"/>
<path d="M457.876 320.975C457.876 321.61 457.242 322.456 456.607 322.456C455.76 322.668 454.914 321.822 454.914 320.975C454.914 320.129 455.76 319.283 456.607 319.494C457.242 319.494 457.876 320.341 457.876 320.975ZM457.876 320.975C457.876 320.341 457.242 319.706 456.607 319.706C455.972 319.706 455.549 320.341 455.549 320.975C455.549 321.61 455.972 322.033 456.607 322.245C457.242 322.245 457.876 321.822 457.876 320.975Z" fill="#383E4F"/>
<path d="M472.896 320.975C472.896 321.61 472.261 322.456 471.626 322.456C470.78 322.668 469.934 321.822 469.934 320.975C469.934 320.129 470.78 319.283 471.626 319.494C472.261 319.494 472.896 320.341 472.896 320.975ZM472.896 320.975C472.896 320.341 472.261 319.706 471.626 319.706C470.991 319.706 470.568 320.341 470.568 320.975C470.568 321.61 470.991 322.033 471.626 322.245C472.261 322.245 472.896 321.822 472.896 320.975Z" fill="#383E4F"/>
<path d="M487.919 320.975C487.919 321.61 487.284 322.456 486.65 322.456C485.803 322.668 484.957 321.822 484.957 320.975C484.957 320.129 485.803 319.283 486.65 319.494C487.284 319.494 487.919 320.341 487.919 320.975ZM487.919 320.975C487.919 320.341 487.284 319.706 486.65 319.706C486.015 319.706 485.592 320.341 485.592 320.975C485.592 321.61 486.015 322.033 486.65 322.245C487.284 322.245 487.919 321.822 487.919 320.975Z" fill="#383E4F"/>
<path d="M397.572 390.375C397.572 391.01 396.937 391.856 396.302 391.856C395.456 392.067 394.609 391.221 394.609 390.375C394.609 389.528 395.456 388.682 396.302 388.894C397.148 388.894 397.783 389.74 397.572 390.375ZM397.572 390.375C397.572 389.74 396.937 389.105 396.302 389.105C395.667 389.105 395.244 389.74 395.244 390.375C395.244 391.01 395.667 391.433 396.302 391.644C396.937 391.644 397.572 391.01 397.572 390.375Z" fill="#383E4F"/>
<path d="M412.81 390.375C412.81 391.01 412.175 391.856 411.54 391.856C410.694 392.067 409.848 391.221 409.848 390.375C409.848 389.528 410.694 388.682 411.54 388.894C412.175 388.894 412.81 389.74 412.81 390.375ZM412.81 390.375C412.81 389.74 412.175 389.105 411.54 389.105C410.906 389.105 410.482 389.74 410.482 390.375C410.482 391.01 410.906 391.433 411.54 391.644C411.963 391.644 412.81 391.01 412.81 390.375Z" fill="#383E4F"/>
<path d="M382.552 390.375C382.552 391.01 381.917 391.856 381.283 391.856C380.436 392.067 379.59 391.221 379.59 390.375C379.59 389.528 380.436 388.682 381.283 388.894C382.129 388.894 382.552 389.74 382.552 390.375ZM382.552 390.375C382.552 389.74 381.917 389.105 381.283 389.105C380.648 389.105 380.225 389.74 380.225 390.375C380.225 391.01 380.648 391.433 381.283 391.644C381.917 391.644 382.552 391.01 382.552 390.375Z" fill="#383E4F"/>
<path d="M427.833 390.375C427.833 391.01 427.199 391.856 426.564 391.856C425.717 392.067 424.871 391.221 424.871 390.375C424.871 389.528 425.717 388.682 426.564 388.894C427.199 388.894 427.833 389.74 427.833 390.375ZM427.833 390.375C427.833 389.74 427.199 389.105 426.564 389.105C425.929 389.105 425.506 389.74 425.506 390.375C425.506 391.01 425.929 391.433 426.564 391.644C426.987 391.644 427.833 391.01 427.833 390.375Z" fill="#383E4F"/>
<path d="M442.853 390.375C442.853 391.01 442.218 391.856 441.583 391.856C440.737 392.067 439.891 391.221 439.891 390.375C439.891 389.528 440.737 388.682 441.583 388.894C442.218 388.894 442.853 389.74 442.853 390.375ZM442.853 390.375C442.853 389.74 442.218 389.105 441.583 389.105C440.949 389.105 440.525 389.74 440.525 390.375C440.525 391.01 440.949 391.433 441.583 391.644C442.006 391.644 442.853 391.01 442.853 390.375Z" fill="#383E4F"/>
<path d="M457.876 390.375C457.876 391.01 457.242 391.856 456.607 391.856C455.76 392.067 454.914 391.221 454.914 390.375C454.914 389.528 455.76 388.682 456.607 388.894C457.242 388.894 457.876 389.74 457.876 390.375ZM457.876 390.375C457.876 389.74 457.242 389.105 456.607 389.105C455.972 389.105 455.549 389.74 455.549 390.375C455.549 391.01 455.972 391.433 456.607 391.644C457.242 391.644 457.876 391.01 457.876 390.375Z" fill="#383E4F"/>
<path d="M472.896 390.375C472.896 391.01 472.261 391.856 471.626 391.856C470.78 392.067 469.934 391.221 469.934 390.375C469.934 389.528 470.78 388.682 471.626 388.894C472.261 388.894 472.896 389.74 472.896 390.375ZM472.896 390.375C472.896 389.74 472.261 389.105 471.626 389.105C470.991 389.105 470.568 389.74 470.568 390.375C470.568 391.01 470.991 391.433 471.626 391.644C472.261 391.644 472.896 391.01 472.896 390.375Z" fill="#383E4F"/>
<path d="M487.919 390.375C487.919 391.01 487.284 391.856 486.65 391.856C485.803 392.067 484.957 391.221 484.957 390.375C484.957 389.528 485.803 388.682 486.65 388.894C487.284 388.894 487.919 389.74 487.919 390.375ZM487.919 390.375C487.919 389.74 487.284 389.105 486.65 389.105C486.015 389.105 485.592 389.74 485.592 390.375C485.592 391.01 486.015 391.433 486.65 391.644C487.284 391.644 487.919 391.01 487.919 390.375Z" fill="#383E4F"/>
<path d="M433.964 0C432.906 0.423171 432.059 1.4811 431.425 2.32744C430.578 3.17378 429.944 4.23172 429.309 5.07806C427.828 6.98233 426.558 8.8866 425.289 11.0025C422.75 15.0226 420.422 19.0427 418.306 23.2744C413.863 31.7379 410.055 40.2013 406.881 49.2995C403.707 58.1861 401.38 67.4958 400.745 76.8056C400.533 81.4605 400.745 86.327 400.533 90.9818V105.158L400.745 218.78L400.533 332.401V389.106L400.322 445.811L400.11 389.106V332.401L399.898 218.78L400.11 105.158V90.9818C400.11 86.327 399.898 81.4605 400.322 76.8056C400.956 67.2842 403.495 57.9745 406.669 49.0879C409.843 40.2013 413.863 31.5263 418.306 23.2744C420.634 19.0427 422.961 15.0226 425.5 11.0025C426.77 9.09819 428.039 6.98233 429.52 5.07806C430.155 4.02013 431.002 3.17378 431.636 2.32744C432.059 1.4811 432.906 0.423171 433.964 0Z" fill="#383E4F"/>
<path d="M433.754 0C434.812 0.423171 435.658 1.4811 436.293 2.32744C437.139 3.17378 437.774 4.23172 438.409 5.07806C439.89 6.98233 441.159 8.8866 442.429 11.0025C444.968 15.0226 447.295 19.0427 449.623 23.2744C454.066 31.5263 458.086 40.2013 461.26 49.0879C464.434 57.9745 466.973 67.2842 467.608 76.8056C467.819 81.4605 467.819 86.327 467.819 90.9818V105.158L468.031 218.78L467.819 332.401V389.106L467.608 445.811L467.396 389.106V332.401L467.184 218.78L467.396 105.158V90.9818C467.396 86.327 467.608 81.4605 467.184 76.8056C466.55 67.4958 464.011 58.1861 461.048 49.2995C457.875 40.4129 454.066 31.7379 449.623 23.2744C447.507 19.0427 445.18 15.0226 442.641 11.0025C441.371 9.09819 440.101 6.98233 438.62 5.07806C437.986 4.02013 437.139 3.17378 436.505 2.32744C435.447 1.4811 434.812 0.423171 433.754 0Z" fill="#383E4F"/>
</g>
<path d="M376.43 152.976C376.43 169.903 376.43 445.811 376.43 445.811H330.728C330.728 445.811 330.728 169.903 330.728 152.976C330.728 136.049 329.67 126.105 339.614 111.929C348.501 99.445 351.886 97.9639 353.579 97.9639C355.272 97.9639 358.657 99.6565 367.544 111.929C377.7 126.316 376.43 136.049 376.43 152.976Z" fill="#383E4F"/>
<path d="M385.947 145.571H376.426V149.379H385.947V145.571Z" fill="#383E4F"/>
<path d="M385.947 181.751H376.426V185.56H385.947V181.751Z" fill="#383E4F"/>
<path d="M385.947 217.934H376.426V221.742H385.947V217.934Z" fill="#383E4F"/>
<path d="M385.947 254.114H376.426V257.923H385.947V254.114Z" fill="#383E4F"/>
<path d="M331.559 130.759C338.964 130.335 346.158 130.335 353.563 130.335C360.969 130.335 368.163 130.335 375.568 130.759C368.163 131.182 360.969 131.182 353.563 131.182C346.37 131.182 338.964 131.182 331.559 130.759Z" fill="#212531"/>
<path d="M330.711 166.306C338.328 165.883 345.945 165.883 353.562 165.883C361.179 165.883 368.796 165.883 376.413 166.306C368.796 166.729 361.179 166.729 353.562 166.729C345.945 166.729 338.328 166.729 330.711 166.306Z" fill="#212531"/>
<path d="M330.711 206.084C338.328 205.661 345.945 205.661 353.562 205.661C361.179 205.661 368.796 205.661 376.413 206.084C368.796 206.507 361.179 206.507 353.562 206.507C345.945 206.507 338.328 206.507 330.711 206.084Z" fill="#212531"/>
<path d="M330.711 245.651C338.328 245.228 345.945 245.228 353.562 245.228C361.179 245.228 368.796 245.228 376.413 245.651C368.796 246.074 361.179 246.074 353.562 246.074C345.945 246.285 338.328 246.285 330.711 245.651Z" fill="#212531"/>
<path d="M330.711 285.429C338.328 285.006 345.945 285.006 353.562 285.006C361.179 285.006 368.796 285.006 376.413 285.429C368.796 285.852 361.179 285.852 353.562 285.852C345.945 285.852 338.328 285.852 330.711 285.429Z" fill="#212531"/>
<path d="M330.711 325.206C338.328 324.783 345.945 324.783 353.562 324.783C361.179 324.783 368.796 324.783 376.413 325.206C368.796 325.63 361.179 325.63 353.562 325.63C345.945 325.63 338.328 325.63 330.711 325.206Z" fill="#212531"/>
<path d="M330.711 364.774C338.328 364.351 345.945 364.351 353.562 364.351C361.179 364.351 368.796 364.351 376.413 364.774C368.796 365.197 361.179 365.197 353.562 365.197C345.945 365.197 338.328 365.197 330.711 364.774Z" fill="#212531"/>
<path d="M330.711 404.552C338.328 404.129 345.945 404.129 353.562 404.129C361.179 404.129 368.796 404.129 376.413 404.552C368.796 404.975 361.179 404.975 353.562 404.975C345.945 404.975 338.328 404.975 330.711 404.552Z" fill="#212531"/>
<path d="M363.511 153.399L353.778 153.611C350.393 153.611 347.219 153.823 343.833 153.823H343.41V153.399V143.667V143.032H344.045C350.604 143.032 357.163 143.032 363.722 143.243H363.934V143.455C363.722 147.052 363.511 150.437 363.511 153.399ZM363.511 153.399C363.511 150.014 363.299 146.84 363.299 143.667L363.511 143.878C356.952 144.09 350.392 144.09 343.833 144.09L344.257 143.667V153.399L343.833 152.976C347.007 152.976 350.181 153.188 353.566 153.188L363.511 153.399Z" fill="#212531"/>
<path d="M355.041 133.722C355.041 134.357 354.618 135.203 353.771 135.415C352.925 135.626 351.867 134.78 351.867 133.722C351.867 132.664 352.925 131.818 353.771 132.029C354.618 132.241 355.041 133.087 355.041 133.722ZM355.041 133.722C355.041 132.876 354.195 132.452 353.771 132.664C353.137 132.876 352.925 133.299 352.925 133.722C352.925 134.145 353.137 134.568 353.771 134.78C354.195 134.991 355.041 134.357 355.041 133.722Z" fill="#212531"/>
<path d="M370.064 133.722C370.064 134.357 369.641 135.203 368.795 135.415C367.949 135.626 366.891 134.78 366.891 133.722C366.891 132.664 367.949 131.818 368.795 132.029C369.641 132.241 370.064 133.087 370.064 133.722ZM370.064 133.722C370.064 132.876 369.218 132.452 368.795 132.664C368.16 132.876 367.949 133.299 367.949 133.722C367.949 134.145 368.16 134.568 368.795 134.78C369.218 134.991 370.064 134.357 370.064 133.722Z" fill="#212531"/>
<path d="M340.021 133.722C340.021 134.357 339.598 135.203 338.752 135.415C337.906 135.626 336.848 134.78 336.848 133.722C336.848 132.664 337.906 131.818 338.752 132.029C339.387 132.241 340.021 133.087 340.021 133.722ZM340.021 133.722C340.021 132.876 339.175 132.452 338.752 132.664C338.117 132.876 337.906 133.299 337.906 133.722C337.906 134.145 338.117 134.568 338.752 134.78C339.175 134.991 340.021 134.357 340.021 133.722Z" fill="#212531"/>
<path d="M355.041 169.903C355.041 170.538 354.618 171.384 353.771 171.596C352.925 171.807 351.867 170.961 351.867 169.903C351.867 168.845 352.925 167.999 353.771 168.21C354.618 168.422 355.041 169.057 355.041 169.903ZM355.041 169.903C355.041 169.057 354.195 168.634 353.771 168.845C353.137 169.057 352.925 169.48 352.925 169.903C352.925 170.326 353.137 170.749 353.771 170.961C354.195 171.173 355.041 170.538 355.041 169.903Z" fill="#212531"/>
<path d="M370.064 169.903C370.064 170.538 369.641 171.384 368.795 171.596C367.949 171.807 366.891 170.961 366.891 169.903C366.891 168.845 367.949 167.999 368.795 168.21C369.641 168.422 370.064 169.057 370.064 169.903ZM370.064 169.903C370.064 169.057 369.218 168.634 368.795 168.845C368.16 169.057 367.949 169.48 367.949 169.903C367.949 170.326 368.16 170.749 368.795 170.961C369.218 171.173 370.064 170.538 370.064 169.903Z" fill="#212531"/>
<path d="M340.021 169.903C340.021 170.538 339.598 171.384 338.752 171.596C337.906 171.807 336.848 170.961 336.848 169.903C336.848 168.845 337.906 167.999 338.752 168.21C339.387 168.422 340.021 169.057 340.021 169.903ZM340.021 169.903C340.021 169.057 339.175 168.634 338.752 168.845C338.117 169.057 337.906 169.48 337.906 169.903C337.906 170.326 338.117 170.749 338.752 170.961C339.175 171.173 340.021 170.538 340.021 169.903Z" fill="#212531"/>
<path d="M355.041 209.681C355.041 210.316 354.618 211.162 353.771 211.374C352.925 211.586 351.867 210.739 351.867 209.681C351.867 208.623 352.925 207.777 353.771 207.989C354.618 208.2 355.041 209.047 355.041 209.681ZM355.041 209.681C355.041 208.835 354.195 208.412 353.771 208.623C353.137 208.835 352.925 209.258 352.925 209.681C352.925 210.105 353.137 210.528 353.771 210.739C354.195 210.951 355.041 210.316 355.041 209.681Z" fill="#212531"/>
<path d="M370.064 209.681C370.064 210.316 369.641 211.162 368.795 211.374C367.949 211.586 366.891 210.739 366.891 209.681C366.891 208.623 367.949 207.777 368.795 207.989C369.641 208.2 370.064 209.047 370.064 209.681ZM370.064 209.681C370.064 208.835 369.218 208.412 368.795 208.623C368.16 208.835 367.949 209.258 367.949 209.681C367.949 210.105 368.16 210.528 368.795 210.739C369.218 210.951 370.064 210.316 370.064 209.681Z" fill="#212531"/>
<path d="M340.021 209.681C340.021 210.316 339.598 211.162 338.752 211.374C337.906 211.586 336.848 210.739 336.848 209.681C336.848 208.623 337.906 207.777 338.752 207.989C339.387 208.2 340.021 209.047 340.021 209.681ZM340.021 209.681C340.021 208.835 339.175 208.412 338.752 208.623C338.117 208.835 337.906 209.258 337.906 209.681C337.906 210.105 338.117 210.528 338.752 210.739C339.175 210.951 340.021 210.316 340.021 209.681Z" fill="#212531"/>
<path d="M355.041 249.46C355.041 250.095 354.618 250.941 353.771 251.153C352.925 251.364 351.867 250.518 351.867 249.46C351.867 248.402 352.925 247.556 353.771 247.768C354.618 247.979 355.041 248.825 355.041 249.46ZM355.041 249.46C355.041 248.614 354.195 248.191 353.771 248.402C353.137 248.614 352.925 249.037 352.925 249.46C352.925 249.883 353.137 250.307 353.771 250.518C354.195 250.73 355.041 250.307 355.041 249.46Z" fill="#212531"/>
<path d="M370.064 249.46C370.064 250.095 369.641 250.941 368.795 251.153C367.949 251.364 366.891 250.518 366.891 249.46C366.891 248.402 367.949 247.556 368.795 247.768C369.641 247.979 370.064 248.825 370.064 249.46ZM370.064 249.46C370.064 248.614 369.218 248.191 368.795 248.402C368.16 248.614 367.949 249.037 367.949 249.46C367.949 249.883 368.16 250.307 368.795 250.518C369.218 250.73 370.064 250.307 370.064 249.46Z" fill="#212531"/>
<path d="M340.021 249.46C340.021 250.095 339.598 250.941 338.752 251.153C337.906 251.364 336.848 250.518 336.848 249.46C336.848 248.402 337.906 247.556 338.752 247.768C339.387 247.979 340.021 248.825 340.021 249.46ZM340.021 249.46C340.021 248.614 339.175 248.191 338.752 248.402C338.117 248.614 337.906 249.037 337.906 249.46C337.906 249.883 338.117 250.307 338.752 250.518C339.175 250.73 340.021 250.307 340.021 249.46Z" fill="#212531"/>
<path d="M355.041 289.449C355.041 290.084 354.618 290.93 353.771 291.142C352.925 291.353 351.867 290.507 351.867 289.449C351.867 288.391 352.925 287.545 353.771 287.756C354.618 287.968 355.041 288.603 355.041 289.449ZM355.041 289.449C355.041 288.603 354.195 288.179 353.771 288.391C353.137 288.603 352.925 289.026 352.925 289.449C352.925 289.872 353.137 290.295 353.771 290.507C354.195 290.718 355.041 290.084 355.041 289.449Z" fill="#212531"/>
<path d="M370.064 289.449C370.064 290.084 369.641 290.93 368.795 291.142C367.949 291.353 366.891 290.507 366.891 289.449C366.891 288.391 367.949 287.545 368.795 287.756C369.641 287.968 370.064 288.603 370.064 289.449ZM370.064 289.449C370.064 288.603 369.218 288.179 368.795 288.391C368.16 288.603 367.949 289.026 367.949 289.449C367.949 289.872 368.16 290.295 368.795 290.507C369.218 290.718 370.064 290.084 370.064 289.449Z" fill="#212531"/>
<path d="M340.021 289.449C340.021 290.084 339.598 290.93 338.752 291.142C337.906 291.353 336.848 290.507 336.848 289.449C336.848 288.391 337.906 287.545 338.752 287.756C339.387 287.968 340.021 288.603 340.021 289.449ZM340.021 289.449C340.021 288.603 339.175 288.179 338.752 288.391C338.117 288.603 337.906 289.026 337.906 289.449C337.906 289.872 338.117 290.295 338.752 290.507C339.175 290.718 340.021 290.084 340.021 289.449Z" fill="#212531"/>
<path d="M355.041 329.226C355.041 329.861 354.618 330.707 353.771 330.919C352.925 331.131 351.867 330.284 351.867 329.226C351.867 328.168 352.925 327.322 353.771 327.534C354.618 327.745 355.041 328.592 355.041 329.226ZM355.041 329.226C355.041 328.38 354.195 327.957 353.771 328.168C353.137 328.38 352.925 328.803 352.925 329.226C352.925 329.649 353.137 330.073 353.771 330.284C354.195 330.496 355.041 330.073 355.041 329.226Z" fill="#212531"/>
<path d="M370.064 329.226C370.064 329.861 369.641 330.707 368.795 330.919C367.949 331.131 366.891 330.284 366.891 329.226C366.891 328.168 367.949 327.322 368.795 327.534C369.641 327.745 370.064 328.592 370.064 329.226ZM370.064 329.226C370.064 328.38 369.218 327.957 368.795 328.168C368.16 328.38 367.949 328.803 367.949 329.226C367.949 329.649 368.16 330.073 368.795 330.284C369.218 330.496 370.064 330.073 370.064 329.226Z" fill="#212531"/>
<path d="M340.021 329.226C340.021 329.861 339.598 330.707 338.752 330.919C337.906 331.131 336.848 330.284 336.848 329.226C336.848 328.168 337.906 327.322 338.752 327.534C339.387 327.745 340.021 328.592 340.021 329.226ZM340.021 329.226C340.021 328.38 339.175 327.957 338.752 328.168C338.117 328.38 337.906 328.803 337.906 329.226C337.906 329.649 338.117 330.073 338.752 330.284C339.175 330.496 340.021 330.073 340.021 329.226Z" fill="#212531"/>
<path d="M355.041 369.005C355.041 369.639 354.618 370.486 353.771 370.697C352.925 370.909 351.867 370.063 351.867 369.005C351.867 367.947 352.925 367.1 353.771 367.312C354.618 367.524 355.041 368.37 355.041 369.005ZM355.041 369.005C355.041 368.158 354.195 367.735 353.771 367.947C353.137 368.158 352.925 368.581 352.925 369.005C352.925 369.428 353.137 369.851 353.771 370.063C354.195 370.274 355.041 369.851 355.041 369.005Z" fill="#212531"/>
<path d="M370.064 369.005C370.064 369.639 369.641 370.486 368.795 370.697C367.949 370.909 366.891 370.063 366.891 369.005C366.891 367.947 367.949 367.1 368.795 367.312C369.641 367.524 370.064 368.37 370.064 369.005ZM370.064 369.005C370.064 368.158 369.218 367.735 368.795 367.947C368.16 368.158 367.949 368.581 367.949 369.005C367.949 369.428 368.16 369.851 368.795 370.063C369.218 370.274 370.064 369.851 370.064 369.005Z" fill="#212531"/>
<path d="M340.021 369.005C340.021 369.639 339.598 370.486 338.752 370.697C337.906 370.909 336.848 370.063 336.848 369.005C336.848 367.947 337.906 367.1 338.752 367.312C339.387 367.524 340.021 368.37 340.021 369.005ZM340.021 369.005C340.021 368.158 339.175 367.735 338.752 367.947C338.117 368.158 337.906 368.581 337.906 369.005C337.906 369.428 338.117 369.851 338.752 370.063C339.175 370.274 340.021 369.851 340.021 369.005Z" fill="#212531"/>
<path d="M355.041 408.995C355.041 409.63 354.618 410.476 353.771 410.688C352.925 410.899 351.867 410.053 351.867 408.995C351.867 407.937 352.925 407.091 353.771 407.302C354.618 407.514 355.041 408.149 355.041 408.995ZM355.041 408.995C355.041 408.149 354.195 407.725 353.771 407.937C353.137 408.149 352.925 408.572 352.925 408.995C352.925 409.418 353.137 409.841 353.771 410.053C354.195 410.264 355.041 409.63 355.041 408.995Z" fill="#212531"/>
<path d="M370.064 408.995C370.064 409.63 369.641 410.476 368.795 410.688C367.949 410.899 366.891 410.053 366.891 408.995C366.891 407.937 367.949 407.091 368.795 407.302C369.641 407.514 370.064 408.149 370.064 408.995ZM370.064 408.995C370.064 408.149 369.218 407.725 368.795 407.937C368.16 408.149 367.949 408.572 367.949 408.995C367.949 409.418 368.16 409.841 368.795 410.053C369.218 410.264 370.064 409.63 370.064 408.995Z" fill="#212531"/>
<path d="M340.021 408.995C340.021 409.63 339.598 410.476 338.752 410.688C337.906 410.899 336.848 410.053 336.848 408.995C336.848 407.937 337.906 407.091 338.752 407.302C339.387 407.514 340.021 408.149 340.021 408.995ZM340.021 408.995C340.021 408.149 339.175 407.725 338.752 407.937C338.117 408.149 337.906 408.572 337.906 408.995C337.906 409.418 338.117 409.841 338.752 410.053C339.175 410.264 340.021 409.63 340.021 408.995Z" fill="#212531"/>
<path d="M344.677 119.334C344.677 119.757 344.254 120.18 343.831 120.18C343.408 120.18 342.984 119.757 342.984 119.334C342.984 118.91 343.408 118.487 343.831 118.487C344.254 118.487 344.677 118.91 344.677 119.334Z" fill="#212531"/>
<path d="M348.06 123.777C348.06 124.2 347.637 124.623 347.214 124.623C346.79 124.623 346.367 124.2 346.367 123.777C346.367 123.353 346.79 122.93 347.214 122.93C347.637 122.93 348.06 123.353 348.06 123.777Z" fill="#212531"/>
<path d="M354.411 123.777C354.411 124.2 353.988 124.623 353.565 124.623C353.142 124.623 352.719 124.2 352.719 123.777C352.719 123.353 353.142 122.93 353.565 122.93C353.988 122.93 354.411 123.353 354.411 123.777Z" fill="#212531"/>
<path d="M360.97 123.777C360.97 124.2 360.547 124.623 360.124 124.623C359.701 124.623 359.277 124.2 359.277 123.777C359.277 123.353 359.701 122.93 360.124 122.93C360.547 122.93 360.97 123.353 360.97 123.777Z" fill="#212531"/>
<path d="M351.232 119.334C351.232 119.757 350.809 120.18 350.385 120.18C349.962 120.18 349.539 119.757 349.539 119.334C349.539 118.91 349.962 118.487 350.385 118.487C350.809 118.487 351.232 118.91 351.232 119.334Z" fill="#212531"/>
<path d="M357.579 119.334C357.579 119.757 357.156 120.18 356.733 120.18C356.31 120.18 355.887 119.757 355.887 119.334C355.887 118.91 356.31 118.487 356.733 118.487C357.368 118.487 357.579 118.91 357.579 119.334Z" fill="#212531"/>
<path d="M364.138 119.334C364.138 119.757 363.715 120.18 363.292 120.18C362.869 120.18 362.445 119.757 362.445 119.334C362.445 118.91 362.869 118.487 363.292 118.487C363.715 118.487 364.138 118.91 364.138 119.334Z" fill="#212531"/>
<path d="M348.064 148.744C348.064 149.167 347.641 149.591 347.217 149.591C346.794 149.591 346.371 149.167 346.371 148.744C346.371 148.321 346.794 147.898 347.217 147.898C347.641 147.898 348.064 148.11 348.064 148.744Z" fill="#212531"/>
<path d="M354.411 148.744C354.411 149.167 353.988 149.591 353.565 149.591C353.142 149.591 352.719 149.167 352.719 148.744C352.719 148.321 353.142 147.898 353.565 147.898C353.988 147.898 354.411 148.11 354.411 148.744Z" fill="#212531"/>
<path d="M360.966 148.744C360.966 149.167 360.543 149.591 360.12 149.591C359.697 149.591 359.273 149.167 359.273 148.744C359.273 148.321 359.697 147.898 360.12 147.898C360.543 147.898 360.966 148.11 360.966 148.744Z" fill="#212531"/>
<path d="M330.716 145.571H322.676V163.767H330.716V145.571Z" fill="#383E4F"/>
<path d="M491.318 152.976C491.318 169.903 491.318 445.811 491.318 445.811H537.02C537.02 445.811 537.02 169.903 537.02 152.976C537.02 136.049 538.078 126.105 528.134 111.929C519.247 99.445 515.862 97.9639 514.169 97.9639C512.476 97.9639 509.091 99.6565 500.204 111.929C490.26 126.316 491.318 136.049 491.318 152.976Z" fill="#383E4F"/>
<path d="M481.904 149.486H491.426V145.678H481.904V149.486Z" fill="#383E4F"/>
<path d="M481.904 185.662H491.426V181.854H481.904V185.662Z" fill="#383E4F"/>
<path d="M481.904 221.837H491.426V218.028H481.904V221.837Z" fill="#383E4F"/>
<path d="M481.904 258.012H491.426V254.203H481.904V258.012Z" fill="#383E4F"/>
<path d="M536.17 130.759C528.764 130.335 521.571 130.335 514.165 130.335C506.76 130.335 499.566 130.335 492.16 130.759C499.566 131.182 506.76 131.182 514.165 131.182C521.571 131.182 528.976 131.182 536.17 130.759Z" fill="#212531"/>
<path d="M537.015 166.306C529.398 165.883 521.781 165.883 514.164 165.883C506.547 165.883 498.93 165.883 491.312 166.306C498.93 166.729 506.547 166.729 514.164 166.729C521.781 166.729 529.398 166.729 537.015 166.306Z" fill="#212531"/>
<path d="M537.015 206.084C529.398 205.661 521.781 205.661 514.164 205.661C506.547 205.661 498.93 205.661 491.312 206.084C498.93 206.507 506.547 206.507 514.164 206.507C521.781 206.507 529.398 206.507 537.015 206.084Z" fill="#212531"/>
<path d="M537.015 245.651C529.398 245.228 521.781 245.228 514.164 245.228C506.547 245.228 498.93 245.228 491.312 245.651C498.93 246.074 506.547 246.074 514.164 246.074C521.781 246.285 529.398 246.285 537.015 245.651Z" fill="#212531"/>
<path d="M537.015 285.429C529.398 285.006 521.781 285.006 514.164 285.006C506.547 285.006 498.93 285.006 491.312 285.429C498.93 285.852 506.547 285.852 514.164 285.852C521.781 285.852 529.398 285.852 537.015 285.429Z" fill="#212531"/>
<path d="M537.015 325.206C529.398 324.783 521.781 324.783 514.164 324.783C506.547 324.783 498.93 324.783 491.312 325.206C498.93 325.63 506.547 325.63 514.164 325.63C521.781 325.63 529.398 325.63 537.015 325.206Z" fill="#212531"/>
<path d="M537.015 364.774C529.398 364.351 521.781 364.351 514.164 364.351C506.547 364.351 498.93 364.351 491.312 364.774C498.93 365.197 506.547 365.197 514.164 365.197C521.781 365.197 529.398 365.197 537.015 364.774Z" fill="#212531"/>
<path d="M537.015 404.551C529.398 404.128 521.781 404.128 514.164 404.128C506.547 404.128 498.93 404.128 491.312 404.551C498.93 404.974 506.547 404.974 514.164 404.974C521.781 404.974 529.398 404.974 537.015 404.551Z" fill="#212531"/>
<path d="M504.012 143.878V143.666H504.223C510.782 143.455 517.342 143.455 523.901 143.455H524.535V144.089V153.822V154.245H524.112C520.727 154.245 517.553 154.034 514.168 154.034L504.435 153.822C504.223 150.437 504.223 147.052 504.012 143.878ZM514.379 153.188C517.553 153.188 520.939 152.976 524.112 152.976L523.689 153.399V143.666L524.112 144.089C517.553 144.089 510.994 144.089 504.435 143.878L504.646 143.666C504.646 146.84 504.435 150.014 504.435 153.399L514.379 153.188Z" fill="#212531"/>
<path d="M514.162 132.029C515.008 131.818 516.066 132.664 516.066 133.722C516.066 134.78 515.008 135.626 514.162 135.415C513.316 135.203 512.893 134.568 512.893 133.722C512.893 133.087 513.316 132.241 514.162 132.029ZM514.162 134.78C514.797 134.568 515.008 134.145 515.008 133.722C515.008 133.299 514.797 132.876 514.162 132.664C513.527 132.452 512.681 133.087 512.893 133.722C512.893 134.357 513.527 134.991 514.162 134.78Z" fill="#212531"/>
<path d="M499.142 132.029C499.989 131.818 501.047 132.664 501.047 133.722C501.047 134.78 499.989 135.626 499.142 135.415C498.296 135.203 497.873 134.568 497.873 133.722C497.873 133.087 498.296 132.241 499.142 132.029ZM499.142 134.78C499.777 134.568 499.989 134.145 499.989 133.722C499.989 133.299 499.777 132.876 499.142 132.664C498.508 132.452 497.661 133.087 497.873 133.722C497.661 134.357 498.508 134.991 499.142 134.78Z" fill="#212531"/>
<path d="M529.185 132.029C530.032 131.818 531.09 132.664 531.09 133.722C531.09 134.78 530.032 135.626 529.185 135.415C528.339 135.203 527.916 134.568 527.916 133.722C527.916 133.087 528.339 132.241 529.185 132.029ZM529.185 134.78C529.82 134.568 530.032 134.145 530.032 133.722C530.032 133.299 529.82 132.876 529.185 132.664C528.551 132.452 527.704 133.087 527.916 133.722C527.916 134.357 528.762 134.991 529.185 134.78Z" fill="#212531"/>
<path d="M514.162 168.21C515.008 167.999 516.066 168.845 516.066 169.903C516.066 170.961 515.008 171.807 514.162 171.596C513.316 171.384 512.893 170.749 512.893 169.903C512.893 169.057 513.316 168.422 514.162 168.21ZM514.162 170.961C514.797 170.749 515.008 170.326 515.008 169.903C515.008 169.48 514.797 169.057 514.162 168.845C513.527 168.634 512.681 169.268 512.893 169.903C512.893 170.538 513.527 171.173 514.162 170.961Z" fill="#212531"/>
<path d="M499.142 168.21C499.989 167.999 501.047 168.845 501.047 169.903C501.047 170.961 499.989 171.807 499.142 171.596C498.296 171.384 497.873 170.749 497.873 169.903C497.873 169.057 498.296 168.422 499.142 168.21ZM499.142 170.961C499.777 170.749 499.989 170.326 499.989 169.903C499.989 169.48 499.777 169.057 499.142 168.845C498.508 168.634 497.661 169.268 497.873 169.903C497.661 170.538 498.508 171.173 499.142 170.961Z" fill="#212531"/>
<path d="M529.185 168.21C530.032 167.999 531.09 168.845 531.09 169.903C531.09 170.961 530.032 171.807 529.185 171.596C528.339 171.384 527.916 170.749 527.916 169.903C527.916 169.057 528.339 168.422 529.185 168.21ZM529.185 170.961C529.82 170.749 530.032 170.326 530.032 169.903C530.032 169.48 529.82 169.057 529.185 168.845C528.551 168.634 527.704 169.268 527.916 169.903C527.916 170.538 528.762 171.173 529.185 170.961Z" fill="#212531"/>
<path d="M514.162 207.988C515.008 207.776 516.066 208.622 516.066 209.68C516.066 210.738 515.008 211.585 514.162 211.373C513.316 211.161 512.893 210.527 512.893 209.68C512.893 209.046 513.316 208.199 514.162 207.988ZM514.162 210.738C514.797 210.527 515.008 210.104 515.008 209.68C515.008 209.257 514.797 208.834 514.162 208.622C513.527 208.411 512.681 209.046 512.893 209.68C512.893 210.315 513.527 210.95 514.162 210.738Z" fill="#212531"/>
<path d="M499.142 207.988C499.989 207.776 501.047 208.622 501.047 209.68C501.047 210.738 499.989 211.585 499.142 211.373C498.296 211.161 497.873 210.527 497.873 209.68C497.873 209.046 498.296 208.199 499.142 207.988ZM499.142 210.738C499.777 210.527 499.989 210.104 499.989 209.68C499.989 209.257 499.777 208.834 499.142 208.622C498.508 208.411 497.661 209.046 497.873 209.68C497.661 210.315 498.508 210.95 499.142 210.738Z" fill="#212531"/>
<path d="M529.185 207.988C530.032 207.776 531.09 208.622 531.09 209.68C531.09 210.738 530.032 211.585 529.185 211.373C528.339 211.161 527.916 210.527 527.916 209.68C527.916 209.046 528.339 208.199 529.185 207.988ZM529.185 210.738C529.82 210.527 530.032 210.104 530.032 209.68C530.032 209.257 529.82 208.834 529.185 208.622C528.551 208.411 527.704 209.046 527.916 209.68C527.916 210.315 528.762 210.95 529.185 210.738Z" fill="#212531"/>
<path d="M514.162 247.978C515.008 247.766 516.066 248.613 516.066 249.671C516.066 250.729 515.008 251.575 514.162 251.363C513.316 251.152 512.893 250.517 512.893 249.671C512.893 248.824 513.316 247.978 514.162 247.978ZM514.162 250.517C514.797 250.305 515.008 249.882 515.008 249.459C515.008 249.036 514.797 248.613 514.162 248.401C513.527 248.19 512.681 248.824 512.893 249.459C512.893 250.305 513.527 250.729 514.162 250.517Z" fill="#212531"/>
<path d="M499.142 247.978C499.989 247.766 501.047 248.613 501.047 249.671C501.047 250.729 499.989 251.575 499.142 251.363C498.296 251.152 497.873 250.517 497.873 249.671C497.873 248.824 498.296 247.978 499.142 247.978ZM499.142 250.517C499.777 250.305 499.989 249.882 499.989 249.459C499.989 249.036 499.777 248.613 499.142 248.401C498.508 248.19 497.661 248.824 497.873 249.459C497.661 250.305 498.508 250.729 499.142 250.517Z" fill="#212531"/>
<path d="M529.185 247.978C530.032 247.766 531.09 248.613 531.09 249.671C531.09 250.729 530.032 251.575 529.185 251.363C528.339 251.152 527.916 250.517 527.916 249.671C527.916 248.824 528.339 247.978 529.185 247.978ZM529.185 250.517C529.82 250.305 530.032 249.882 530.032 249.459C530.032 249.036 529.82 248.613 529.185 248.401C528.551 248.19 527.704 248.824 527.916 249.459C527.916 250.305 528.762 250.729 529.185 250.517Z" fill="#212531"/>
<path d="M514.162 287.756C515.008 287.545 516.066 288.391 516.066 289.449C516.066 290.507 515.008 291.353 514.162 291.142C513.316 290.93 512.893 290.295 512.893 289.449C512.893 288.603 513.316 287.968 514.162 287.756ZM514.162 290.507C514.797 290.295 515.008 289.872 515.008 289.449C515.008 289.026 514.797 288.603 514.162 288.391C513.527 288.179 512.681 288.814 512.893 289.449C512.893 290.084 513.527 290.718 514.162 290.507Z" fill="#212531"/>
<path d="M499.142 287.756C499.989 287.545 501.047 288.391 501.047 289.449C501.047 290.507 499.989 291.353 499.142 291.142C498.296 290.93 497.873 290.295 497.873 289.449C497.873 288.603 498.296 287.968 499.142 287.756ZM499.142 290.507C499.777 290.295 499.989 289.872 499.989 289.449C499.989 289.026 499.777 288.603 499.142 288.391C498.508 288.179 497.661 288.814 497.873 289.449C497.661 290.084 498.508 290.718 499.142 290.507Z" fill="#212531"/>
<path d="M529.185 287.756C530.032 287.545 531.09 288.391 531.09 289.449C531.09 290.507 530.032 291.353 529.185 291.142C528.339 290.93 527.916 290.295 527.916 289.449C527.916 288.603 528.339 287.968 529.185 287.756ZM529.185 290.507C529.82 290.295 530.032 289.872 530.032 289.449C530.032 289.026 529.82 288.603 529.185 288.391C528.551 288.179 527.704 288.814 527.916 289.449C527.916 290.084 528.762 290.718 529.185 290.507Z" fill="#212531"/>
<path d="M514.162 327.534C515.008 327.323 516.066 328.169 516.066 329.227C516.066 330.285 515.008 331.131 514.162 330.919C513.316 330.708 512.893 330.073 512.893 329.227C512.893 328.592 513.316 327.746 514.162 327.534ZM514.162 330.285C514.797 330.073 515.008 329.65 515.008 329.227C515.008 328.804 514.797 328.38 514.162 328.169C513.527 327.957 512.681 328.592 512.893 329.227C512.893 330.073 513.527 330.496 514.162 330.285Z" fill="#212531"/>
<path d="M499.142 327.534C499.989 327.323 501.047 328.169 501.047 329.227C501.047 330.285 499.989 331.131 499.142 330.919C498.296 330.708 497.873 330.073 497.873 329.227C497.873 328.592 498.296 327.746 499.142 327.534ZM499.142 330.285C499.777 330.073 499.989 329.65 499.989 329.227C499.989 328.804 499.777 328.38 499.142 328.169C498.508 327.957 497.661 328.592 497.873 329.227C497.661 330.073 498.508 330.496 499.142 330.285Z" fill="#212531"/>
<path d="M529.185 327.534C530.032 327.323 531.09 328.169 531.09 329.227C531.09 330.285 530.032 331.131 529.185 330.919C528.339 330.708 527.916 330.073 527.916 329.227C527.916 328.592 528.339 327.746 529.185 327.534ZM529.185 330.285C529.82 330.073 530.032 329.65 530.032 329.227C530.032 328.804 529.82 328.38 529.185 328.169C528.551 327.957 527.704 328.592 527.916 329.227C527.916 330.073 528.762 330.496 529.185 330.285Z" fill="#212531"/>
<path d="M514.162 367.524C515.008 367.312 516.066 368.159 516.066 369.217C516.066 370.274 515.008 371.121 514.162 370.909C513.316 370.698 512.893 370.063 512.893 369.217C512.893 368.37 513.316 367.524 514.162 367.524ZM514.162 370.274C514.797 370.063 515.008 369.64 515.008 369.217C515.008 368.793 514.797 368.37 514.162 368.159C513.527 367.947 512.681 368.582 512.893 369.217C512.893 369.851 513.527 370.274 514.162 370.274Z" fill="#212531"/>
<path d="M499.142 367.524C499.989 367.312 501.047 368.159 501.047 369.217C501.047 370.274 499.989 371.121 499.142 370.909C498.296 370.698 497.873 370.063 497.873 369.217C497.873 368.37 498.296 367.524 499.142 367.524ZM499.142 370.274C499.777 370.063 499.989 369.64 499.989 369.217C499.989 368.793 499.777 368.37 499.142 368.159C498.508 367.947 497.661 368.582 497.873 369.217C497.661 369.851 498.508 370.274 499.142 370.274Z" fill="#212531"/>
<path d="M529.185 367.524C530.032 367.312 531.09 368.159 531.09 369.217C531.09 370.274 530.032 371.121 529.185 370.909C528.339 370.698 527.916 370.063 527.916 369.217C527.916 368.37 528.339 367.524 529.185 367.524ZM529.185 370.274C529.82 370.063 530.032 369.64 530.032 369.217C530.032 368.793 529.82 368.37 529.185 368.159C528.551 367.947 527.704 368.582 527.916 369.217C527.916 369.851 528.762 370.274 529.185 370.274Z" fill="#212531"/>
<path d="M514.162 407.302C515.008 407.091 516.066 407.937 516.066 408.995C516.066 410.053 515.008 410.899 514.162 410.688C513.316 410.476 512.893 409.841 512.893 408.995C512.893 408.149 513.316 407.514 514.162 407.302ZM514.162 410.053C514.797 409.841 515.008 409.418 515.008 408.995C515.008 408.572 514.797 408.149 514.162 407.937C513.527 407.725 512.681 408.36 512.893 408.995C512.893 409.63 513.527 410.264 514.162 410.053Z" fill="#212531"/>
<path d="M499.142 407.302C499.989 407.091 501.047 407.937 501.047 408.995C501.047 410.053 499.989 410.899 499.142 410.688C498.296 410.476 497.873 409.841 497.873 408.995C497.873 408.149 498.296 407.514 499.142 407.302ZM499.142 410.053C499.777 409.841 499.989 409.418 499.989 408.995C499.989 408.572 499.777 408.149 499.142 407.937C498.508 407.725 497.661 408.36 497.873 408.995C497.661 409.63 498.508 410.264 499.142 410.053Z" fill="#212531"/>
<path d="M529.185 407.302C530.032 407.091 531.09 407.937 531.09 408.995C531.09 410.053 530.032 410.899 529.185 410.688C528.339 410.476 527.916 409.841 527.916 408.995C527.916 408.149 528.339 407.514 529.185 407.302ZM529.185 410.053C529.82 409.841 530.032 409.418 530.032 408.995C530.032 408.572 529.82 408.149 529.185 407.937C528.551 407.725 527.704 408.36 527.916 408.995C527.916 409.63 528.762 410.264 529.185 410.053Z" fill="#212531"/>
<path d="M523.047 119.334C523.047 119.757 523.47 120.18 523.893 120.18C524.316 120.18 524.74 119.757 524.74 119.334C524.74 118.91 524.316 118.487 523.893 118.487C523.47 118.487 523.047 118.91 523.047 119.334Z" fill="#212531"/>
<path d="M519.879 123.777C519.879 124.2 520.302 124.623 520.725 124.623C521.148 124.623 521.572 124.2 521.572 123.777C521.572 123.353 521.148 122.93 520.725 122.93C520.302 122.93 519.879 123.353 519.879 123.777Z" fill="#212531"/>
<path d="M513.32 123.777C513.32 124.2 513.743 124.623 514.167 124.623C514.59 124.623 515.013 124.2 515.013 123.777C515.013 123.353 514.59 122.93 514.167 122.93C513.743 122.93 513.32 123.353 513.32 123.777Z" fill="#212531"/>
<path d="M506.969 123.777C506.969 124.2 507.392 124.623 507.815 124.623C508.238 124.623 508.661 124.2 508.661 123.777C508.661 123.353 508.238 122.93 507.815 122.93C507.18 122.93 506.969 123.353 506.969 123.777Z" fill="#212531"/>
<path d="M516.707 119.334C516.707 119.757 517.13 120.18 517.553 120.18C517.977 120.18 518.4 119.757 518.4 119.334C518.4 118.91 517.977 118.487 517.553 118.487C516.919 118.487 516.707 118.91 516.707 119.334Z" fill="#212531"/>
<path d="M510.141 119.334C510.141 119.757 510.564 120.18 510.987 120.18C511.41 120.18 511.833 119.757 511.833 119.334C511.833 118.91 511.41 118.487 510.987 118.487C510.564 118.487 510.141 118.91 510.141 119.334Z" fill="#212531"/>
<path d="M503.586 119.334C503.586 119.757 504.009 120.18 504.432 120.18C504.855 120.18 505.279 119.757 505.279 119.334C505.279 118.91 504.855 118.487 504.432 118.487C504.009 118.487 503.586 118.91 503.586 119.334Z" fill="#212531"/>
<path d="M519.875 148.744C519.875 149.167 520.298 149.591 520.721 149.591C521.145 149.591 521.568 149.167 521.568 148.744C521.568 148.321 521.145 147.898 520.721 147.898C520.298 147.898 519.875 148.11 519.875 148.744Z" fill="#212531"/>
<path d="M513.32 148.744C513.32 149.167 513.743 149.591 514.167 149.591C514.59 149.591 515.013 149.167 515.013 148.744C515.013 148.321 514.59 147.898 514.167 147.898C513.743 147.898 513.32 148.11 513.32 148.744Z" fill="#212531"/>
<path d="M506.973 148.744C506.973 149.167 507.396 149.591 507.819 149.591C508.242 149.591 508.665 149.167 508.665 148.744C508.665 148.321 508.242 147.898 507.819 147.898C507.184 147.898 506.973 148.11 506.973 148.744Z" fill="#212531"/>
<path d="M537.206 163.776H545.246V145.58H537.206V163.776Z" fill="#383E4F"/>
<path d="M378.746 419.997H330.293V474.797H378.746V419.997Z" fill="#212531"/>
<path d="M375.57 474.797H333.465V481.356H375.57V474.797Z" fill="#383E4F"/>
<path d="M372.186 481.357H336.852V486.435H372.186V481.357Z" fill="#212531"/>
<path d="M383.824 502.726H325.215V508.439H383.824V502.726Z" fill="#212531"/>
<path d="M380.864 502.727H328.18C333.046 493.206 342.991 486.646 354.416 486.646C366.054 486.435 375.998 493.206 380.864 502.727Z" fill="#383E4F"/>
<path d="M400.328 452.369V214.546C400.328 214.546 391.653 229.357 389.749 236.551C386.786 248.823 382.131 292.41 375.995 306.586C374.091 310.818 364.993 337.901 353.356 349.115C337.91 363.926 318.867 379.583 310.192 388.47C298.344 400.53 283.109 411.744 283.109 447.714L400.328 452.369Z" fill="#30CA4C"/>
<path opacity="0.2" d="M400.333 214.546V452.369L364.363 450.888L395.043 223.856C397.794 218.99 400.333 214.546 400.333 214.546Z" fill="black"/>
<path d="M489.23 474.842H537.684V420.042H489.23V474.842Z" fill="#212531"/>
<path d="M492.406 481.449H534.512V474.89H492.406V481.449Z" fill="#383E4F"/>
<path d="M495.79 486.57H531.125V481.492H495.79V486.57Z" fill="#212531"/>
<path d="M484.153 508.405H542.762V502.692H484.153V508.405Z" fill="#212531"/>
<path d="M487.074 502.727H539.759C534.893 493.206 524.948 486.647 513.522 486.647C501.885 486.435 491.941 493.206 487.074 502.727Z" fill="#383E4F"/>
<path d="M467.613 452.37V214.547C467.613 214.547 476.288 229.358 478.193 236.552C481.155 248.824 485.81 292.411 491.946 306.587C493.85 310.819 502.948 337.902 514.585 349.116C530.031 363.927 549.074 379.584 557.749 388.471C569.598 400.531 584.832 411.745 584.832 447.715L467.613 452.37Z" fill="#30CA4C"/>
<path opacity="0.2" d="M467.613 214.547V452.37L503.583 450.889L472.903 223.857C470.152 218.991 467.613 214.547 467.613 214.547Z" fill="black"/>
<path opacity="0.6" d="M376.632 525.577C376.632 566.625 355.05 608.307 355.05 608.307C355.05 608.307 333.469 566.625 333.469 525.577C333.469 519.653 334.527 513.94 336.219 508.438H373.67C375.363 513.94 376.632 519.864 376.632 525.577Z" fill="#30CA4C"/>
<path opacity="0.6" d="M369.224 515.632C369.224 548.64 355.047 582.282 355.047 582.282C355.047 582.282 340.871 548.64 340.871 515.632C340.871 513.305 341.083 510.766 341.294 508.438H368.589C369.012 510.766 369.224 513.305 369.224 515.632Z" fill="#30CA4C"/>
<path opacity="0.6" d="M534.898 525.577C534.898 566.625 513.316 608.307 513.316 608.307C513.316 608.307 491.734 566.625 491.734 525.577C491.734 519.653 492.792 513.94 494.485 508.438H531.936C533.84 513.94 534.898 519.864 534.898 525.577Z" fill="#30CA4C"/>
<path opacity="0.6" d="M527.489 515.632C527.489 548.64 513.313 582.282 513.313 582.282C513.313 582.282 499.137 548.64 499.137 515.632C499.137 513.305 499.348 510.766 499.56 508.438H527.066C527.489 510.766 527.489 513.305 527.489 515.632Z" fill="#30CA4C"/>
<path d="M475.449 202.91C475.449 219.625 475.449 388.682 475.449 388.682H392.508C392.508 388.682 392.508 219.837 392.508 202.91C392.508 185.983 395.258 170.749 406.261 145.57C417.263 120.18 422.341 109.601 433.979 109.601C445.616 109.601 450.905 120.391 461.696 145.57C472.699 170.749 475.449 185.983 475.449 202.91Z" fill="#30CA4C"/>
<g opacity="0.5">
<path d="M392.508 206.294C399.49 206.083 406.261 205.871 413.243 205.871L433.979 205.66L454.714 205.871C461.696 205.871 468.467 206.083 475.449 206.294C468.467 206.506 461.696 206.718 454.714 206.718L433.979 206.929L413.243 206.718C406.261 206.506 399.279 206.506 392.508 206.294Z" fill="white"/>
<path d="M392.508 206.294C399.49 206.083 406.261 205.871 413.243 205.871L433.979 205.66L454.714 205.871C461.696 205.871 468.467 206.083 475.449 206.294C468.467 206.506 461.696 206.718 454.714 206.718L433.979 206.929L413.243 206.718C406.261 206.506 399.279 206.506 392.508 206.294Z" fill="white"/>
<path d="M392.508 267.866C399.49 267.655 406.261 267.443 413.243 267.443L433.979 267.231L454.714 267.443C461.696 267.443 468.467 267.655 475.449 267.866C468.467 268.078 461.696 268.289 454.714 268.289L433.979 268.501L413.243 268.289C406.261 268.289 399.279 268.078 392.508 267.866Z" fill="white"/>
<path d="M392.508 267.866C399.49 267.655 406.261 267.443 413.243 267.443L433.979 267.231L454.714 267.443C461.696 267.443 468.467 267.655 475.449 267.866C468.467 268.078 461.696 268.289 454.714 268.289L433.979 268.501L413.243 268.289C406.261 268.289 399.279 268.078 392.508 267.866Z" fill="white"/>
<path d="M392.508 329.649C399.49 329.438 406.261 329.226 413.243 329.226L433.979 329.015L454.714 329.226C461.696 329.226 468.467 329.438 475.449 329.649C468.467 329.861 461.696 330.073 454.714 330.073L433.979 330.284L413.243 330.073C406.261 330.073 399.279 329.861 392.508 329.649Z" fill="white"/>
<path d="M392.508 329.649C399.49 329.438 406.261 329.226 413.243 329.226L433.979 329.015L454.714 329.226C461.696 329.226 468.467 329.438 475.449 329.649C468.467 329.861 461.696 330.073 454.714 330.073L433.979 330.284L413.243 330.073C406.261 330.073 399.279 329.861 392.508 329.649Z" fill="white"/>
<path d="M397.794 210.95C397.794 211.584 397.159 212.431 396.525 212.431C395.678 212.642 394.832 211.796 394.832 210.95C394.832 210.103 395.678 209.257 396.525 209.468C397.159 209.68 397.794 210.315 397.794 210.95ZM397.794 210.95C397.794 210.315 397.159 209.68 396.525 209.68C395.89 209.68 395.467 210.315 395.467 210.95C395.467 211.584 395.89 212.007 396.525 212.219C396.948 212.431 397.794 211.796 397.794 210.95Z" fill="black"/>
<path d="M412.818 210.949C412.818 211.584 412.183 212.43 411.548 212.43C410.702 212.642 409.855 211.795 409.855 210.949C409.855 210.103 410.702 209.256 411.548 209.468C412.183 209.68 412.818 210.314 412.818 210.949ZM412.818 210.949C412.818 210.314 412.183 209.68 411.548 209.68C410.913 209.68 410.49 210.314 410.49 210.949C410.49 211.584 410.913 212.007 411.548 212.219C411.971 212.43 412.818 211.795 412.818 210.949Z" fill="white"/>
<path d="M412.818 210.949C412.818 211.584 412.183 212.43 411.548 212.43C410.702 212.642 409.855 211.795 409.855 210.949C409.855 210.103 410.702 209.256 411.548 209.468C412.183 209.68 412.818 210.314 412.818 210.949ZM412.818 210.949C412.818 210.314 412.183 209.68 411.548 209.68C410.913 209.68 410.49 210.314 410.49 210.949C410.49 211.584 410.913 212.007 411.548 212.219C411.971 212.43 412.818 211.795 412.818 210.949Z" fill="white"/>
<path d="M457.88 210.949C457.88 211.584 457.245 212.43 456.611 212.43C455.764 212.642 454.918 211.795 454.918 210.949C454.918 210.103 455.764 209.256 456.611 209.468C457.245 209.68 457.88 210.314 457.88 210.949ZM457.88 210.949C457.88 210.314 457.245 209.68 456.611 209.68C455.976 209.68 455.553 210.314 455.553 210.949C455.553 211.584 455.976 212.007 456.611 212.219C457.245 212.43 457.88 211.795 457.88 210.949Z" fill="white"/>
<path d="M457.88 210.949C457.88 211.584 457.245 212.43 456.611 212.43C455.764 212.642 454.918 211.795 454.918 210.949C454.918 210.103 455.764 209.256 456.611 209.468C457.245 209.68 457.88 210.314 457.88 210.949ZM457.88 210.949C457.88 210.314 457.245 209.68 456.611 209.68C455.976 209.68 455.553 210.314 455.553 210.949C455.553 211.584 455.976 212.007 456.611 212.219C457.245 212.43 457.88 211.795 457.88 210.949Z" fill="white"/>
<path d="M472.911 210.949C472.911 211.584 472.277 212.43 471.642 212.43C470.796 212.642 469.949 211.795 469.949 210.949C469.949 210.103 470.796 209.256 471.642 209.468C472.488 209.68 472.911 210.314 472.911 210.949ZM472.911 210.949C472.911 210.314 472.277 209.68 471.642 209.68C471.007 209.68 470.584 210.314 470.584 210.949C470.584 211.584 471.007 212.007 471.642 212.219C472.277 212.43 472.911 211.795 472.911 210.949Z" fill="black"/>
<path d="M397.794 273.579C397.794 274.214 397.159 275.06 396.525 275.06C395.678 275.272 394.832 274.425 394.832 273.579C394.832 272.733 395.678 271.886 396.525 272.098C397.159 272.098 397.794 272.944 397.794 273.579ZM397.794 273.579C397.794 272.944 397.159 272.309 396.525 272.309C395.89 272.309 395.467 272.944 395.467 273.579C395.467 274.214 395.89 274.637 396.525 274.848C396.948 274.848 397.794 274.425 397.794 273.579Z" fill="black"/>
<path d="M412.818 273.579C412.818 274.214 412.183 275.06 411.548 275.06C410.702 275.272 409.855 274.425 409.855 273.579C409.855 272.733 410.702 271.886 411.548 272.098C412.183 272.098 412.818 272.944 412.818 273.579ZM412.818 273.579C412.818 272.944 412.183 272.309 411.548 272.309C410.913 272.309 410.49 272.944 410.49 273.579C410.49 274.214 410.913 274.637 411.548 274.848C411.971 274.848 412.818 274.425 412.818 273.579Z" fill="white"/>
<path d="M412.818 273.579C412.818 274.214 412.183 275.06 411.548 275.06C410.702 275.272 409.855 274.425 409.855 273.579C409.855 272.733 410.702 271.886 411.548 272.098C412.183 272.098 412.818 272.944 412.818 273.579ZM412.818 273.579C412.818 272.944 412.183 272.309 411.548 272.309C410.913 272.309 410.49 272.944 410.49 273.579C410.49 274.214 410.913 274.637 411.548 274.848C411.971 274.848 412.818 274.425 412.818 273.579Z" fill="white"/>
<path d="M457.88 273.579C457.88 274.214 457.245 275.06 456.611 275.06C455.764 275.272 454.918 274.425 454.918 273.579C454.918 272.733 455.764 271.886 456.611 272.098C457.245 272.098 457.88 272.944 457.88 273.579ZM457.88 273.579C457.88 272.944 457.245 272.309 456.611 272.309C455.976 272.309 455.553 272.944 455.553 273.579C455.553 274.214 455.976 274.637 456.611 274.848C457.245 274.848 457.88 274.425 457.88 273.579Z" fill="white"/>
<path d="M457.88 273.579C457.88 274.214 457.245 275.06 456.611 275.06C455.764 275.272 454.918 274.425 454.918 273.579C454.918 272.733 455.764 271.886 456.611 272.098C457.245 272.098 457.88 272.944 457.88 273.579ZM457.88 273.579C457.88 272.944 457.245 272.309 456.611 272.309C455.976 272.309 455.553 272.944 455.553 273.579C455.553 274.214 455.976 274.637 456.611 274.848C457.245 274.848 457.88 274.425 457.88 273.579Z" fill="white"/>
<path d="M472.911 273.579C472.911 274.214 472.277 275.06 471.642 275.06C470.796 275.272 469.949 274.425 469.949 273.579C469.949 272.733 470.796 271.886 471.642 272.098C472.488 272.098 472.911 272.944 472.911 273.579ZM472.911 273.579C472.911 272.944 472.277 272.309 471.642 272.309C471.007 272.309 470.584 272.944 470.584 273.579C470.584 274.214 471.007 274.637 471.642 274.848C472.277 274.848 472.911 274.425 472.911 273.579Z" fill="black"/>
<path d="M397.794 336.207C397.794 336.842 397.159 337.688 396.525 337.688C395.678 337.9 394.832 337.054 394.832 336.207C394.832 335.361 395.678 334.515 396.525 334.726C397.159 334.726 397.794 335.573 397.794 336.207ZM397.794 336.207C397.794 335.573 397.159 334.938 396.525 334.938C395.89 334.938 395.467 335.573 395.467 336.207C395.467 336.842 395.89 337.265 396.525 337.477C396.948 337.477 397.794 336.842 397.794 336.207Z" fill="black"/>
<path d="M412.818 336.207C412.818 336.842 412.183 337.688 411.548 337.688C410.702 337.9 409.855 337.053 409.855 336.207C409.855 335.361 410.702 334.514 411.548 334.726C412.183 334.726 412.818 335.572 412.818 336.207ZM412.818 336.207C412.818 335.572 412.183 334.937 411.548 334.937C410.913 334.937 410.49 335.572 410.49 336.207C410.49 336.842 410.913 337.265 411.548 337.476C411.971 337.476 412.818 336.842 412.818 336.207Z" fill="white"/>
<path d="M412.818 336.207C412.818 336.842 412.183 337.688 411.548 337.688C410.702 337.9 409.855 337.053 409.855 336.207C409.855 335.361 410.702 334.514 411.548 334.726C412.183 334.726 412.818 335.572 412.818 336.207ZM412.818 336.207C412.818 335.572 412.183 334.937 411.548 334.937C410.913 334.937 410.49 335.572 410.49 336.207C410.49 336.842 410.913 337.265 411.548 337.476C411.971 337.476 412.818 336.842 412.818 336.207Z" fill="white"/>
<path d="M457.88 336.207C457.88 336.842 457.245 337.688 456.611 337.688C455.764 337.9 454.918 337.053 454.918 336.207C454.918 335.361 455.764 334.514 456.611 334.726C457.245 334.726 457.88 335.572 457.88 336.207ZM457.88 336.207C457.88 335.572 457.245 334.937 456.611 334.937C455.976 334.937 455.553 335.572 455.553 336.207C455.553 336.842 455.976 337.265 456.611 337.476C457.245 337.476 457.88 336.842 457.88 336.207Z" fill="white"/>
<path d="M457.88 336.207C457.88 336.842 457.245 337.688 456.611 337.688C455.764 337.9 454.918 337.053 454.918 336.207C454.918 335.361 455.764 334.514 456.611 334.726C457.245 334.726 457.88 335.572 457.88 336.207ZM457.88 336.207C457.88 335.572 457.245 334.937 456.611 334.937C455.976 334.937 455.553 335.572 455.553 336.207C455.553 336.842 455.976 337.265 456.611 337.476C457.245 337.476 457.88 336.842 457.88 336.207Z" fill="white"/>
<path d="M472.911 336.207C472.911 336.842 472.277 337.688 471.642 337.688C470.796 337.9 469.949 337.053 469.949 336.207C469.949 335.361 470.796 334.514 471.642 334.726C472.488 334.726 472.911 335.572 472.911 336.207ZM472.911 336.207C472.911 335.572 472.277 334.937 471.642 334.937C471.007 334.937 470.584 335.572 470.584 336.207C470.584 336.842 471.007 337.265 471.642 337.476C472.277 337.476 472.911 336.842 472.911 336.207Z" fill="black"/>
<path d="M433.977 206.294C434.189 236.763 434.189 267.231 434.189 297.699C434.189 328.168 434.189 358.636 433.977 389.104C433.766 358.636 433.766 328.168 433.766 297.699C433.766 267.231 433.766 236.763 433.977 206.294Z" fill="white"/>
<path d="M433.977 206.294C434.189 236.763 434.189 267.231 434.189 297.699C434.189 328.168 434.189 358.636 433.977 389.104C433.766 358.636 433.766 328.168 433.766 297.699C433.766 267.231 433.766 236.763 433.977 206.294Z" fill="white"/>
</g>
<path d="M440.638 195.081H427.327C426.445 195.081 425.73 195.795 425.73 196.677C425.73 197.558 426.445 198.273 427.327 198.273H440.638C441.519 198.273 442.234 197.558 442.234 196.677C442.234 195.795 441.519 195.081 440.638 195.081Z" fill="white"/>
<path d="M420.012 171.17L423.186 178.999C418.743 180.903 415.781 183.442 415.781 183.442L412.184 176.46C412.184 176.248 415.146 173.498 420.012 171.17Z" fill="white"/>
<path d="M447.939 171.17L444.766 178.999C449.209 180.903 452.171 183.442 452.171 183.442L455.768 176.46C455.768 176.248 452.806 173.498 447.939 171.17Z" fill="white"/>
<path d="M444.554 169.69L441.169 177.518C438.842 176.672 436.303 176.249 433.764 176.249C431.224 176.249 428.685 176.672 426.358 177.518L422.973 169.69C426.146 168.42 429.743 167.785 433.552 167.785C437.784 167.574 441.381 168.42 444.554 169.69Z" fill="white"/>
<path d="M460.855 143.242H407.324C417.692 119.545 422.982 109.389 434.196 109.389C445.198 109.389 450.488 119.545 460.855 143.242Z" fill="#30CA4C"/>
<path opacity="0.5" d="M460.855 143.242H407.324C417.692 119.545 422.982 109.389 434.196 109.389C445.198 109.389 450.488 119.545 460.855 143.242Z" fill="#30CA4C"/>
<path d="M440.543 135.837H427.637V140.069H440.543V135.837Z" fill="#30CA4C"/>
<path d="M472.269 388.471H395.887V461.679H472.269V388.471Z" fill="#DBDBDB"/>
<path d="M472.058 394.395L395.887 397.992V388.471H472.058V394.395Z" fill="#C7C7C7"/>
<path d="M416.838 461.679H400.758V472.046H416.838V461.679Z" fill="#212531"/>
<path d="M418.74 481.991H399.062C399.062 476.49 403.506 472.258 408.795 472.258C414.085 472.258 418.74 476.49 418.74 481.991Z" fill="#DBDBDB"/>
<path d="M466.991 461.679H450.91V472.046H466.991V461.679Z" fill="#212531"/>
<path d="M468.892 481.991H449.215C449.215 476.49 453.658 472.258 458.948 472.258C464.237 472.258 468.892 476.49 468.892 481.991Z" fill="#DBDBDB"/>
<path d="M415.567 388.893C405.411 388.258 397.794 399.896 392.716 426.767C388.061 450.888 389.119 461.679 389.119 461.679H428.474C428.474 461.679 428.474 440.52 428.474 425.074C428.262 410.263 424.665 389.528 415.567 388.893Z" fill="#212531"/>
<path d="M452.383 388.893C462.539 388.258 470.156 399.896 475.235 426.767C479.889 450.888 478.832 461.679 478.832 461.679H439.477C439.477 461.679 439.477 440.52 439.477 425.074C439.688 410.263 443.285 389.528 452.383 388.893Z" fill="#212531"/>
<path d="M442.014 425.075C442.014 425.075 439.687 451.734 438.84 460.41C437.994 472.047 436.724 478.817 433.974 478.817C431.435 478.817 429.954 472.047 429.107 460.41C428.473 451.734 425.934 425.075 425.934 425.075L433.974 411.533L442.014 425.075Z" fill="#C7C7C7"/>
</svg>
