<svg width="23" height="23" viewBox="0 0 23 23" fill="none" xmlns="http://www.w3.org/2000/svg">
<path d="M5.84505 3.5C4.45493 3.5 3.32422 4.63071 3.32422 6.02083V17.4792C3.32422 18.8693 4.45493 20 5.84505 20H6.07422V13.3542C6.07422 12.4696 6.7938 11.75 7.67839 11.75H15.4701C16.3546 11.75 17.0742 12.4696 17.0742 13.3542V20H17.3034C18.6935 20 19.8242 18.8693 19.8242 17.4792V7.85417C19.8242 7.658 19.7399 7.47096 19.5933 7.34033L15.4683 3.67367C15.4013 3.61408 15.3238 3.57141 15.2409 3.54207V7.39583C15.2409 8.28042 14.5213 9 13.6367 9H8.13672C7.25214 9 6.53255 8.28042 6.53255 7.39583V3.5H5.84505ZM7.90755 3.5V7.39583C7.90755 7.52233 8.01022 7.625 8.13672 7.625H13.6367C13.7632 7.625 13.8659 7.52233 13.8659 7.39583V3.5H7.90755ZM7.67839 13.125C7.55189 13.125 7.44922 13.2277 7.44922 13.3542V20H15.6992V13.3542C15.6992 13.2277 15.5966 13.125 15.4701 13.125H7.67839Z" fill="white"/>
</svg>
