<svg width="28" height="28" viewBox="0 0 28 28" fill="none" xmlns="http://www.w3.org/2000/svg">
<path d="M11.9583 3.5C7.30074 3.5 3.5 7.30075 3.5 11.9583C3.5 16.6159 7.30074 20.4167 11.9583 20.4167C13.8677 20.4167 15.6269 19.7709 17.0454 18.6963L22.5085 24.1582C22.616 24.2702 22.7447 24.3596 22.8872 24.4212C23.0297 24.4827 23.183 24.5153 23.3383 24.5169C23.4935 24.5184 23.6474 24.489 23.7911 24.4304C23.9349 24.3717 24.0654 24.2849 24.1752 24.1752C24.2849 24.0654 24.3717 23.9349 24.4304 23.7911C24.489 23.6474 24.5184 23.4935 24.5169 23.3383C24.5153 23.183 24.4827 23.0297 24.4212 22.8872C24.3596 22.7447 24.2702 22.616 24.1582 22.5085L18.6963 17.0454C19.7709 15.6269 20.4167 13.8677 20.4167 11.9583C20.4167 7.30075 16.6159 3.5 11.9583 3.5ZM11.9583 5.83333C15.3549 5.83333 18.0833 8.56177 18.0833 11.9583C18.0833 13.5892 17.4499 15.062 16.4199 16.1567C16.3197 16.2293 16.2316 16.3174 16.159 16.4176C15.0641 17.4489 13.5903 18.0833 11.9583 18.0833C8.56177 18.0833 5.83333 15.3549 5.83333 11.9583C5.83333 8.56177 8.56177 5.83333 11.9583 5.83333Z" fill="#212531"/>
</svg>
