<svg width="86" height="87" viewBox="0 0 86 87" fill="none" xmlns="http://www.w3.org/2000/svg">
<circle cx="43" cy="43.75" r="42.5" stroke="#D8D9DA"/>
<g clip-path="url(#clip0_20_4672)">
<path d="M27.375 45.8334L64.875 30.9292V58.3334C64.875 59.4844 63.9427 60.4167 62.7917 60.4167H27.375V45.8334Z" fill="#2BAB42"/>
<path d="M21.125 30.9292V58.3334C21.125 59.4844 22.0573 60.4167 23.2083 60.4167H62.7917C63.3031 60.4167 63.7656 60.225 64.1281 59.9188L21.125 30.9292Z" fill="#30CA4C"/>
<path opacity="0.05" d="M21.125 30.2085H64.875V31.971L46.8333 45.9814C44.5781 47.7325 41.4219 47.7325 39.1667 45.9814L21.125 31.971V30.2085Z" fill="#35373D"/>
<path opacity="0.07" d="M21.125 29.6875H64.875V31.45L46.0896 45.1083C44.2542 46.4667 41.7458 46.4667 39.9104 45.1083L21.125 31.45V29.6875Z" fill="#35373D"/>
<path d="M23.2083 27.0835H62.7917C63.9427 27.0835 64.875 28.0158 64.875 29.1668V30.9293L45.3458 44.2356C43.9302 45.2002 42.0687 45.2002 40.6542 44.2356L21.125 30.9293V29.1668C21.125 28.0158 22.0573 27.0835 23.2083 27.0835Z" fill="#3AED5A"/>
<path opacity="0.2" d="M64.8749 48.5613C62.8384 47.0395 60.3207 46.127 57.5832 46.127C50.8415 46.127 45.377 51.5915 45.377 58.3332C45.377 59.0447 45.4509 59.7384 45.5676 60.4165H64.8749V48.5613Z" fill="url(#paint0_radial_20_4672)"/>
<path d="M50 55.75C50 50.7794 54.0294 46.75 59 46.75C63.9706 46.75 68 50.7794 68 55.75C68 60.7206 63.9706 64.75 59 64.75C54.0294 64.75 50 60.7206 50 55.75Z" fill="#FF2431"/>
<path fill-rule="evenodd" clip-rule="evenodd" d="M59 66.75C52.9249 66.75 48 61.8251 48 55.75C48 49.6749 52.9249 44.75 59 44.75C65.0751 44.75 70 49.6749 70 55.75C70 61.8251 65.0751 66.75 59 66.75ZM59 46.75C54.0294 46.75 50 50.7794 50 55.75C50 60.7206 54.0294 64.75 59 64.75C63.9706 64.75 68 60.7206 68 55.75C68 50.7794 63.9706 46.75 59 46.75Z" fill="white"/>
<path d="M58.0742 60.25L58.127 54.0332L56.8145 54.291L56.4336 52.0293L60.7988 51.0625V60.25H58.0742Z" fill="white"/>
</g>
<defs>
<radialGradient id="paint0_radial_20_4672" cx="0" cy="0" r="1" gradientUnits="userSpaceOnUse" gradientTransform="translate(57.5863 58.6572) scale(12.6052)">
<stop offset="0.348" stop-color="#404D63"/>
<stop offset="0.936" stop-color="#404D63" stop-opacity="0.098"/>
<stop offset="1" stop-opacity="0"/>
</radialGradient>
<clipPath id="clip0_20_4672">
<rect width="50" height="50" fill="white" transform="translate(18 18.75)"/>
</clipPath>
</defs>
</svg>
