<svg width="26" height="26" viewBox="0 0 26 26" fill="none" xmlns="http://www.w3.org/2000/svg">
<path d="M2.9503 2.1678C2.821 2.17262 2.69472 2.20824 2.58197 2.27171C2.46922 2.33517 2.37325 2.42465 2.30206 2.53269C2.23086 2.64072 2.18649 2.7642 2.17264 2.89284C2.15879 3.02149 2.17586 3.15158 2.22243 3.27229L5.2016 10.9646C5.25287 11.0966 5.33773 11.2128 5.44777 11.3019C5.55781 11.391 5.68921 11.4497 5.82896 11.4724L13.9222 12.7864C14.1238 12.8191 14.1042 12.8773 14.1042 13.0001C14.1042 13.1229 14.1238 13.1811 13.9222 13.2138L5.82896 14.5277C5.68921 14.5504 5.55781 14.6092 5.44777 14.6983C5.33773 14.7873 5.25287 14.9036 5.2016 15.0356L2.22243 22.7279C2.16347 22.8807 2.15207 23.0478 2.18975 23.2072C2.22742 23.3667 2.31241 23.511 2.43355 23.6212C2.5547 23.7315 2.70635 23.8026 2.8686 23.8252C3.03086 23.8477 3.19615 23.8207 3.3428 23.7477L23.3845 13.7269C23.5194 13.6594 23.633 13.5557 23.7123 13.4273C23.7916 13.2989 23.8337 13.151 23.8337 13.0001C23.8337 12.8492 23.7916 12.7012 23.7123 12.5729C23.633 12.4445 23.5194 12.3408 23.3845 12.2733L3.3428 2.25244C3.2211 2.19184 3.08615 2.16274 2.9503 2.1678Z" fill="white"/>
</svg>
