<svg width="16" height="17" viewBox="0 0 16 17" fill="none" xmlns="http://www.w3.org/2000/svg">
<path d="M12.167 2.41669C11.8342 2.41711 11.5059 2.4942 11.2077 2.64198C10.9095 2.78976 10.6493 3.00426 10.4474 3.26884C10.2454 3.53342 10.1072 3.84096 10.0433 4.1676C9.97945 4.49425 9.99169 4.83122 10.0791 5.15236L10.0407 5.17124L5.57975 7.40106L5.54134 7.41994C5.33906 7.15982 5.0801 6.94926 4.78418 6.80429C4.48827 6.65932 4.16318 6.58376 3.83366 6.58335C3.25902 6.58335 2.70792 6.81163 2.30159 7.21796C1.89527 7.62428 1.66699 8.17538 1.66699 8.75002C1.66699 9.32466 1.89527 9.87576 2.30159 10.2821C2.70792 10.6884 3.25902 10.9167 3.83366 10.9167C4.1634 10.9165 4.48874 10.841 4.7849 10.696C5.08106 10.5511 5.34022 10.3404 5.54264 10.0801L5.57975 10.099L10.0407 12.3288L10.0771 12.347C9.98958 12.6684 9.97727 13.0056 10.0412 13.3325C10.1051 13.6593 10.2435 13.9671 10.4457 14.2318C10.6478 14.4965 10.9083 14.711 11.2068 14.8587C11.5054 15.0064 11.8339 15.0833 12.167 15.0834C12.7416 15.0834 13.2927 14.8551 13.6991 14.4488C14.1054 14.0424 14.3337 13.4913 14.3337 12.9167C14.3337 12.3421 14.1054 11.791 13.6991 11.3846C13.2927 10.9783 12.7416 10.75 12.167 10.75C11.8633 10.7504 11.5631 10.8147 11.2858 10.9386C11.0086 11.0626 10.7605 11.2434 10.5576 11.4694L10.4873 11.4343L6.02702 9.20445L5.95736 9.16994C6.01183 8.89284 6.01161 8.60776 5.95671 8.33075L6.02702 8.29559L10.4873 6.06578L10.5557 6.03127C10.7588 6.2574 11.0072 6.43826 11.2849 6.56209C11.5625 6.68592 11.863 6.74995 12.167 6.75002C12.7416 6.75002 13.2927 6.52175 13.6991 6.11542C14.1054 5.70909 14.3337 5.15799 14.3337 4.58335C14.3337 4.00872 14.1054 3.45762 13.6991 3.05129C13.2927 2.64496 12.7416 2.41669 12.167 2.41669V2.41669Z" fill="#30CA4C"/>
</svg>
