<svg width="22" height="23" viewBox="0 0 22 23" fill="none" xmlns="http://www.w3.org/2000/svg">
<path d="M12.3333 1.75C11.8733 1.75 11.5 2.11655 11.5 2.56818V4.3228C10.0184 3.90724 8.16667 3.38636 8.16667 3.38636C8.16667 3.38636 12.4667 9.57673 8.16667 13.2045H11.5V14.8409H7.91276C6.91609 14.8409 6.5 14.1798 6.5 13.2045H3.16667V14.8409C3.16667 17.5524 5.405 19.75 8.16667 19.75H12.9876C15.086 19.75 16.9499 18.4311 17.6133 16.4773C17.9466 15.4725 20.0133 15.1649 21.5 14.8409V13.2045H18.1667L15.6667 14.8409H13.1667V13.2045H14.8333C14.8333 13.2045 21.0517 9.02106 13.1667 4.78942V2.56818C13.1667 2.11655 12.7933 1.75 12.3333 1.75ZM7.01758 4.69354L1.5 11.5682H6.5C6.5 11.5682 9.77758 8.17899 7.01758 4.69354Z" fill="white"/>
</svg>
