<svg width="26" height="27" viewBox="0 0 26 27" fill="none" xmlns="http://www.w3.org/2000/svg">
<path d="M12.7279 3.5C9.6485 3.5 6.89488 4.93949 5.11075 7.17529C5.01651 7.28581 4.94546 7.41415 4.90182 7.55267C4.85817 7.69119 4.84282 7.83708 4.85668 7.98165C4.87054 8.12623 4.91333 8.26654 4.9825 8.39425C5.05167 8.52196 5.14581 8.63446 5.25933 8.72506C5.37284 8.81565 5.50342 8.88251 5.64328 8.92164C5.78315 8.96076 5.92946 8.97137 6.0735 8.95283C6.21755 8.93429 6.3564 8.88697 6.4818 8.8137C6.6072 8.74042 6.71659 8.64268 6.80346 8.52629C8.19457 6.783 10.3214 5.66667 12.7279 5.66667C16.5636 5.66667 19.7079 8.48849 20.2277 12.1762L19.7231 11.6715C19.622 11.5676 19.5011 11.4851 19.3675 11.4287C19.2339 11.3724 19.0904 11.3435 18.9455 11.3436C18.73 11.3439 18.5196 11.4083 18.341 11.5288C18.1624 11.6492 18.0238 11.8202 17.9428 12.0198C17.8618 12.2195 17.8422 12.4387 17.8865 12.6495C17.9307 12.8603 18.0368 13.0532 18.1912 13.2035L20.6287 15.641C20.8318 15.844 21.1073 15.9581 21.3946 15.9581C21.6819 15.9581 21.9574 15.844 22.1606 15.641L24.5981 13.2035C24.702 13.1036 24.785 12.9841 24.8422 12.8518C24.8994 12.7194 24.9296 12.5771 24.9311 12.4329C24.9325 12.2888 24.9052 12.1458 24.8508 12.0124C24.7963 11.8789 24.7157 11.7577 24.6138 11.6558C24.5119 11.5539 24.3907 11.4733 24.2572 11.4188C24.1238 11.3644 23.9808 11.3371 23.8367 11.3385C23.6925 11.34 23.5502 11.3702 23.4178 11.4274C23.2855 11.4846 23.166 11.5676 23.0662 11.6715L22.4303 12.3074C21.9535 7.37549 17.7818 3.5 12.7279 3.5ZM4.58707 10.5417C4.30528 10.5459 4.03622 10.6597 3.83698 10.859L1.39948 13.2965C1.29551 13.3964 1.2125 13.5159 1.15532 13.6482C1.09814 13.7806 1.06793 13.9229 1.06646 14.0671C1.065 14.2112 1.0923 14.3542 1.14678 14.4876C1.20126 14.621 1.28182 14.7423 1.38374 14.8442C1.48566 14.9461 1.60689 15.0267 1.74033 15.0812C1.87377 15.1356 2.01674 15.1629 2.16087 15.1615C2.305 15.16 2.44738 15.1298 2.57969 15.0726C2.71199 15.0154 2.83156 14.9324 2.93138 14.8285L3.56932 14.1905C4.06027 19.1079 8.2261 22.9672 13.2696 22.9672C16.3401 22.9672 19.0877 21.5364 20.872 19.312C20.9629 19.2012 21.031 19.0735 21.0723 18.9362C21.1135 18.7989 21.1271 18.6548 21.1122 18.5122C21.0974 18.3696 21.0544 18.2314 20.9857 18.1056C20.9171 17.9798 20.8241 17.8688 20.7123 17.7791C20.6004 17.6895 20.4719 17.6229 20.3342 17.5833C20.1964 17.5436 20.0521 17.5317 19.9097 17.5483C19.7673 17.5648 19.6296 17.6094 19.5046 17.6795C19.3796 17.7497 19.2697 17.8439 19.1814 17.9568C17.7904 19.6909 15.6689 20.8005 13.2696 20.8005C9.44763 20.8005 6.31276 17.9985 5.77619 14.3302L6.27448 14.8285C6.37431 14.9324 6.49387 15.0154 6.62618 15.0726C6.75849 15.1298 6.90087 15.16 7.045 15.1615C7.18913 15.1629 7.3321 15.1356 7.46554 15.0812C7.59899 15.0267 7.72022 14.9461 7.82214 14.8442C7.92406 14.7423 8.00461 14.6211 8.05909 14.4876C8.11357 14.3542 8.14088 14.2112 8.13941 14.0671C8.13795 13.9229 8.10774 13.7806 8.05055 13.6482C7.99337 13.5159 7.91036 13.3964 7.80638 13.2965L5.36888 10.859C5.26642 10.7565 5.14443 10.6756 5.01014 10.6211C4.87585 10.5666 4.73199 10.5396 4.58707 10.5417Z" fill="white"/>
</svg>
