<svg width="284" height="39" viewBox="0 0 284 39" fill="none" xmlns="http://www.w3.org/2000/svg">
<mask id="mask0_2947_6349" style="mask-type:alpha" maskUnits="userSpaceOnUse" x="0" y="0" width="284" height="39">
<rect width="284" height="39" rx="19.5" fill="#7344F8"/>
</mask>
<g mask="url(#mask0_2947_6349)">
<rect width="190.5" height="39" rx="19.5" fill="#32394D"/>
<path d="M0 34.7697V39.6797L4.76895 34.6035L0 34.7697Z" fill="#212531"/>
<path d="M189.999 30.0862V16.5347L186.769 30.1315L189.999 30.0862Z" fill="#212531"/>
<path d="M189.997 16.5348V5.73291L177.077 11.8515L189.997 16.5348Z" fill="#212531"/>
<path d="M129.767 68.3543L117.987 71.5269L112.287 54.1532L97.5815 61.4048L71.6278 40.2542L77.7077 23.938L61.8809 29.4825L66.3078 43.2153L98.7975 73.4909L107.917 63.2177L115.897 79.5339L124.447 78.9296L125.587 89.2027L120.742 92.0732H132.104L133.358 91.3329L129.767 68.3543Z" fill="#212531"/>
<path d="M19.5698 86.0305L16.9098 67.2971L45.7895 63.3691L45.0295 37.233L57.7024 73.3854L67.9243 72.5394L55.6884 49.5608L87.5891 81.8004L47.3095 75.9084L51.4894 68.5963L37.9996 69.0194L44.5735 83.5075L100.889 87.8434L47.3095 28.9238L85.6891 18.3485L78.0892 34.9669L92.149 33.154L100.072 45.0436L114.189 40.6624L94.999 27.4131L88.729 28.6217L94.999 10.1904L35.1496 22.7297L38.1896 58.2325L8.54991 60.3476L13.2999 80.2896H7.59992L4.76895 62.7648L0 70.1978V73.5667L4.36995 86.1816L19.5698 86.0305Z" fill="#212531"/>
<path d="M51.4908 -15.2521V-8.00046L41.4779 -15.8413L77.3495 -28.3957L65.0947 -34.061L32.624 -16.4456L39.7299 -4.14802L48.8498 -2.56173L57.6848 13.5127L69.6546 11.4883L55.1198 -3.24157L63.3657 -5.5077L75.9246 10.1891L89.3194 7.40928L63.3657 -12.986L51.4908 -15.2521Z" fill="#212531"/>
<path d="M19.5703 -41.478L48.83 -34.5285L25.4032 -25.1014L27.8732 -18.7411L62.0349 -36.1299L38.9501 -45.406L55.4039 -55.8151L77.8807 -44.2276L73.1497 -39.2119L55.1189 -51.2828L47.31 -46.0103L77.3867 -32.3832L83.4286 -41.2816L92.8905 -37.2932L86.1836 -30.4344L95.3035 -26.4309L98.9515 -34.589L108.869 -29.6941L94.9995 -21.8382L81.8896 -26.6726L62.8899 -17.9102L94.2585 5.73318L120.649 13.5136L126.729 2.03183L97.8685 2.10736L76.9497 -16.3994L86.4496 -20.9317L94.9995 -17.0793L122.036 -29.9509L65.8348 -59.0028H51.433L43.8901 -53.8662L41.7241 -59.0028H31.6352L36.6701 -50.8447L19.5703 -41.478Z" fill="#212531"/>
<path d="M129.77 -45.1496L153.748 -29.2715L116.242 -13.0308L119.51 -10.2662H134.672L144.21 -16.702L158.46 3.24002L167.2 -1.44333L150.29 -18.9681L158.669 -23.6968L172.52 -4.61592L181.126 -9.22373L147.288 -42.687L161.709 -44.3338L167.105 -37.0972L160.151 -36.085L167.865 -28.0327L170.81 -30.4499L187.339 -6.27775L158.859 8.7694L148.314 -0.521763L144.609 10.1895L161.139 15.3412L189.999 -0.536869V-12.7287L170.05 -52.8242L129.77 -45.1496Z" fill="#212531"/>
<path d="M116.242 47.8083L119.13 64.2756L130.72 62.3116L151.05 47.6572L142.044 46.5997L152.57 26.5066L98.8003 10.1904L95.0003 24.5426L101.08 23.0319L116.242 38.4416L125.78 28.1685L117.04 23.0319L116.242 30.2835L103.55 15.3421L143.64 29.0749L132.05 46.9019L138.7 50.8298L123.785 56.7218L122.056 46.5091L137.94 30.7367L129.58 29.6792L118.18 43.2156L97.5843 47.6572L90.2504 37.3841L79.2305 40.5567L99.5603 55.6643L116.242 47.8083Z" fill="#212531"/>
<path d="M12.7299 41.9159L21.4698 43.8798L12.1599 23.5904L4.76895 23.9378L9.1199 13.5136L4.67395 10.1899L28.4997 1.57861L36.3086 8.22594L13.1099 13.5136L26.9797 45.5417L25.2697 50.3761L12.3499 46.3877L10.2599 56.7213L32.2997 55.0594L32.4897 45.0884L25.7447 18.1969L51.4895 15.0244L9.4999 -29.9962L10.6399 -34.1508L23.7497 -28.4855L36.2896 -32.4135L11.2099 -39.9673L29.8297 -53.1108L25.3647 -59.0028H19.9308L1.13999 -42.3845L0 -37.686V-26.7179L22.7998 -5.06873L15.5798 -0.838608L16.7198 -6.42841L10.4499 -12.3053L3.03997 -13.4232L9.8799 -3.24072L7.20092 2.31887L0 5.73319V30.0866L8.9299 29.9506L12.7299 41.9159Z" fill="#212531"/>
<path d="M182.797 16.4743L159.998 18.9671L136.913 13.5132L143.943 -5.6583L89.3184 -10.2661L99.5782 -0.899412L135.203 -1.65479L125.228 16.0211L158.003 24.859L148.313 44.801L158.003 46.3873L132.923 64.2898L142.043 90.8792L139.763 92.0726H151.334L140.333 66.1027L169.972 43.2147L157.433 41.1752L165.128 24.859L174.532 24.1792L165.698 38.0026L182.227 40.722L157.433 62.4769L182.227 70.635L189.998 58.1259V50.9649L182.512 51.7505L179.947 63.1567L171.397 59.5309L189.998 39.6796V34.7696L175.672 35.2832L182.797 16.4743Z" fill="#212531"/>
<path d="M190 34.7697V39.6797L194.769 34.6035L190 34.7697Z" fill="#212531"/>
<path d="M319.767 68.3543L307.987 71.5269L302.287 54.1532L287.581 61.4048L261.628 40.2542L267.708 23.938L251.881 29.4825L256.308 43.2153L288.797 73.4909L297.917 63.2177L305.897 79.5339L314.447 78.9296L315.587 89.2027L310.742 92.0732H322.104L323.358 91.3329L319.767 68.3543Z" fill="#212531"/>
<path d="M209.57 86.0305L206.91 67.2971L235.79 63.3691L235.03 37.233L247.702 73.3854L257.924 72.5394L245.688 49.5608L277.589 81.8004L237.309 75.9084L241.489 68.5963L228 69.0194L234.574 83.5075L290.889 87.8434L237.309 28.9238L275.689 18.3485L268.089 34.9669L282.149 33.154L290.072 45.0436L304.189 40.6624L284.999 27.4131L278.729 28.6217L284.999 10.1904L225.15 22.7297L228.19 58.2325L198.55 60.3476L203.3 80.2896H197.6L194.769 62.7648L190 70.1978V73.5667L194.37 86.1816L209.57 86.0305Z" fill="#212531"/>
<path d="M241.491 -15.2521V-8.00046L231.478 -15.8413L267.35 -28.3957L255.095 -34.061L222.624 -16.4456L229.73 -4.14802L238.85 -2.56173L247.685 13.5127L259.655 11.4883L245.12 -3.24157L253.366 -5.5077L265.925 10.1891L279.319 7.40928L253.366 -12.986L241.491 -15.2521Z" fill="#212531"/>
<path d="M209.57 -41.478L238.83 -34.5285L215.403 -25.1014L217.873 -18.7411L252.035 -36.1299L228.95 -45.406L245.404 -55.8151L267.881 -44.2276L263.15 -39.2119L245.119 -51.2828L237.31 -46.0103L267.387 -32.3832L273.429 -41.2816L282.891 -37.2932L276.184 -30.4344L285.304 -26.4309L288.951 -34.589L298.869 -29.6941L285 -21.8382L271.89 -26.6726L252.89 -17.9102L284.259 5.73318L310.649 13.5136L316.729 2.03183L287.868 2.10736L266.95 -16.3994L276.45 -20.9317L285 -17.0793L312.036 -29.9509L255.835 -59.0028H241.433L233.89 -53.8662L231.724 -59.0028H221.635L226.67 -50.8447L209.57 -41.478Z" fill="#212531"/>
<path d="M306.242 47.8083L309.13 64.2756L320.72 62.3116L341.05 47.6572L332.044 46.5997L342.57 26.5066L288.8 10.1904L285 24.5426L291.08 23.0319L306.242 38.4416L315.78 28.1685L307.04 23.0319L306.242 30.2835L293.55 15.3421L333.64 29.0749L322.05 46.9019L328.7 50.8298L313.785 56.7218L312.056 46.5091L327.94 30.7367L319.58 29.6792L308.18 43.2156L287.584 47.6572L280.25 37.3841L269.23 40.5567L289.56 55.6643L306.242 47.8083Z" fill="#212531"/>
<path d="M202.73 41.9159L211.47 43.8798L202.16 23.5904L194.769 23.9378L199.12 13.5136L194.674 10.1899L218.5 1.57861L226.309 8.22594L203.11 13.5136L216.98 45.5417L215.27 50.3761L202.35 46.3877L200.26 56.7213L222.3 55.0594L222.49 45.0884L215.745 18.1969L241.489 15.0244L199.5 -29.9962L200.64 -34.1508L213.75 -28.4855L226.29 -32.4135L201.21 -39.9673L219.83 -53.1108L215.365 -59.0028H209.931L191.14 -42.3845L190 -37.686V-26.7179L212.8 -5.06873L205.58 -0.838608L206.72 -6.42841L200.45 -12.3053L193.04 -13.4232L199.88 -3.24072L197.201 2.31887L190 5.73319V30.0866L198.93 29.9506L202.73 41.9159Z" fill="#212531"/>
<path d="M372.797 16.4743L349.998 18.9671L326.913 13.5132L333.943 -5.6583L279.318 -10.2661L289.578 -0.899412L325.203 -1.65479L315.228 16.0211L348.003 24.859L338.313 44.801L348.003 46.3873L322.923 64.2898L332.043 90.8792L329.763 92.0726H341.334L330.333 66.1027L359.972 43.2147L347.433 41.1752L355.128 24.859L364.532 24.1792L355.698 38.0026L372.227 40.722L347.433 62.4769L372.227 70.635L379.998 58.1259V50.9649L372.512 51.7505L369.947 63.1567L361.397 59.5309L379.998 39.6796V34.7696L365.672 35.2832L372.797 16.4743Z" fill="#212531"/>
</g>
</svg>
