<svg width="254" height="52" viewBox="0 0 254 52" fill="none" xmlns="http://www.w3.org/2000/svg">
<mask id="mask0_9_2" style="mask-type:alpha" maskUnits="userSpaceOnUse" x="0" y="0" width="254" height="52">
<rect width="254" height="52" rx="26" fill="#7344F8"/>
</mask>
<g mask="url(#mask0_9_2)">
<rect width="254" height="52" rx="26" fill="#32394D"/>
<path d="M0 46.3607V52.9074L6.3754 46.1392L0 46.3607Z" fill="#212531"/>
<path d="M254 40.116V22.0474L249.682 40.1765L254 40.116Z" fill="#212531"/>
<path d="M253.999 22.0478V7.64526L236.727 15.8034L253.999 22.0478Z" fill="#212531"/>
<path d="M173.48 91.139L157.732 95.3691L150.112 72.2041L130.452 81.873L95.7555 53.6722L103.884 31.9172L82.7253 39.3099L88.6435 57.6203L132.078 97.9877L144.27 84.2902L154.938 106.045L166.368 105.239L167.892 118.937L161.415 122.764H176.604L178.28 121.777L173.48 91.139Z" fill="#212531"/>
<path d="M26.162 114.707L22.606 89.7294L61.214 84.4921L60.198 49.6439L77.1398 97.8472L90.805 96.7192L74.4474 66.081L117.094 109.067L63.246 101.211L68.834 91.4617L50.8 92.0257L59.5884 111.343L134.874 117.124L63.246 38.565L114.554 24.4646L104.394 46.6224L123.19 44.2052L133.782 60.0581L152.654 54.2165L127 36.5507L118.618 38.1622L127 13.5872L46.99 30.3062L51.054 77.6433L11.43 80.4634L17.78 107.053H10.16L6.3754 83.6863L0 93.5969V98.0889L5.842 114.909L26.162 114.707Z" fill="#212531"/>
<path d="M68.8355 -20.3344V-10.6655L55.4497 -21.12L103.405 -37.8592L87.0219 -45.413L43.6133 -21.9257L53.1129 -5.52895L65.3049 -3.41388L77.1159 18.0187L93.1179 15.3195L73.6869 -4.32034L84.7105 -7.34185L101.5 13.5872L119.407 9.88079L84.7105 -17.3129L68.8355 -20.3344Z" fill="#212531"/>
<path d="M26.1626 -55.3034L65.2786 -46.0374L33.9604 -33.4679L37.2624 -24.9875L82.9316 -48.1726L52.0706 -60.5407L74.067 -74.4195L104.115 -58.9695L97.7906 -52.2819L73.686 -68.3765L63.2466 -61.3464L103.455 -43.1771L111.532 -55.0415L124.181 -49.7237L115.215 -40.5785L127.407 -35.2405L132.284 -46.118L145.543 -39.5915L127.001 -29.1169L109.475 -35.5628L84.0746 -23.8796L126.01 7.64485L161.291 18.0187L169.419 2.70971L130.836 2.81042L102.871 -21.8653L115.571 -27.9083L127.001 -22.7717L163.145 -39.934L88.0116 -78.6698H68.7584L58.6746 -71.821L55.779 -78.6698H42.2916L49.0226 -67.7923L26.1626 -55.3034Z" fill="#212531"/>
<path d="M173.484 -60.1984L205.539 -39.0276L155.4 -17.3734L159.768 -13.6872H180.038L192.788 -22.2683L211.838 4.32105L223.522 -1.92341L200.916 -25.2898L212.118 -31.5947L230.634 -6.15353L242.141 -12.2973L196.903 -56.915L216.182 -59.1107L223.395 -49.4619L214.099 -48.1123L224.411 -37.3759L228.348 -40.5988L250.446 -8.36932L212.372 11.6936L198.275 -0.694664L193.322 13.587L215.42 20.456L254.002 -0.714806V-16.9706L227.332 -70.4313L173.484 -60.1984Z" fill="#212531"/>
<path d="M155.399 63.7443L159.259 85.7007L174.753 83.082L201.931 63.5429L189.892 62.1329L203.963 35.3421L132.081 13.5872L127.001 32.7234L135.129 30.7091L155.399 51.2554L168.149 37.5579L156.465 30.7091L155.399 40.3779L138.431 20.4561L192.025 38.7665L176.531 62.5357L185.421 67.773L165.482 75.629L163.171 62.012L184.405 40.9822L173.229 39.5722L157.989 57.6207L130.456 63.5429L120.651 49.8454L105.919 54.0755L133.097 74.2189L155.399 63.7443Z" fill="#212531"/>
<path d="M17.018 55.8884L28.702 58.5071L16.256 31.4544L6.3754 31.9177L12.192 18.0187L6.2484 13.5872L38.1 2.10542L48.5394 10.9685L17.526 18.0187L36.068 60.7228L33.782 67.1687L16.51 61.8509L13.716 75.629L43.18 73.4132L43.434 60.1185L34.417 24.2632L68.834 20.0331L12.7 -39.9944L14.224 -45.5338L31.75 -37.98L48.514 -43.2173L14.986 -53.2891L39.878 -70.8139L33.909 -78.6698H26.6446L1.524 -56.512L0 -50.2474V-35.6233L30.48 -6.7577L20.828 -1.11754L22.352 -8.57061L13.97 -16.4064L4.064 -17.897L13.208 -4.32034L9.6266 3.09244L0 7.64486V40.1161L11.938 39.9348L17.018 55.8884Z" fill="#212531"/>
<path d="M244.375 21.9666L213.895 25.2903L183.034 18.0185L192.432 -7.54351L119.407 -13.6873L133.123 -1.19832L180.748 -2.20549L167.413 21.3623L211.228 33.1462L198.274 59.7356L211.228 61.8507L177.7 85.7206L189.892 121.173L186.844 122.764H202.312L187.606 88.1379L227.23 57.6205L210.466 54.9012L220.753 33.1462L233.326 32.2398L221.515 50.671L243.613 54.2969L210.466 83.3034L243.613 94.1809L254.001 77.5021V67.9541L243.994 69.0016L240.565 84.2099L229.135 79.3755L254.001 52.907V46.3603L234.85 47.0452L244.375 21.9666Z" fill="#212531"/>
</g>
</svg>
