<svg width="22" height="23" viewBox="0 0 22 23" fill="none" xmlns="http://www.w3.org/2000/svg">
<path d="M2.67154 11.574C8.43187 9.03985 15.8862 5.95023 16.9152 5.5226C19.6143 4.40335 20.4425 4.61785 20.0295 7.09652C19.733 8.87806 18.8773 14.7764 18.1953 18.4476C17.7906 20.6247 16.8826 20.8827 15.4549 19.9409C14.7683 19.4876 11.3029 17.1959 10.5507 16.6578C9.86416 16.1674 8.91725 15.5775 10.1048 14.4156C10.5274 14.0018 13.2975 11.3567 15.4558 9.29789C15.7386 9.02748 15.3834 8.58335 15.0571 8.80014C12.148 10.7293 8.1147 13.4069 7.60137 13.7556C6.82587 14.2823 6.08108 14.5238 4.74412 14.1397C3.73395 13.8496 2.74716 13.5036 2.36308 13.3716C0.884038 12.8637 1.23512 12.206 2.67154 11.574Z" fill="#30CA4C"/>
</svg>
