<svg width="22" height="23" viewBox="0 0 22 23" fill="none" xmlns="http://www.w3.org/2000/svg">
<path d="M2.67203 11.574C8.43236 9.03985 15.8867 5.95023 16.9157 5.5226C19.6148 4.40335 20.443 4.61785 20.03 7.09652C19.7335 8.87806 18.8778 14.7764 18.1958 18.4476C17.7911 20.6247 16.8831 20.8827 15.4554 19.9408C14.7688 19.4876 11.3034 17.1959 10.5512 16.6578C9.86465 16.1674 8.91773 15.5775 10.1053 14.4156C10.5279 14.0018 13.298 11.3567 15.4563 9.29789C15.7391 9.02748 15.3839 8.58335 15.0576 8.80014C12.1485 10.7293 8.11519 13.4069 7.60186 13.7556C6.82636 14.2823 6.08157 14.5238 4.74461 14.1397C3.73444 13.8496 2.74765 13.5036 2.36357 13.3716C0.884526 12.8637 1.23561 12.206 2.67203 11.574Z" fill="#30CA4C"/>
</svg>
