<svg width="22" height="22" viewBox="0 0 22 22" fill="none" xmlns="http://www.w3.org/2000/svg">
<path d="M11.0002 1.83325C8.50543 1.83325 6.23873 2.83699 4.5835 4.45972V4.12492C4.58517 4.00235 4.56225 3.8807 4.51609 3.76715C4.46994 3.6536 4.40147 3.55045 4.31476 3.46382C4.22804 3.37719 4.12483 3.30883 4.01124 3.26278C3.89764 3.21673 3.77596 3.19392 3.6534 3.19572C3.41044 3.19928 3.17884 3.29915 3.00947 3.47338C2.84011 3.64761 2.74684 3.88196 2.75016 4.12492V6.87492C2.75019 7.11803 2.84677 7.35117 3.01868 7.52307C3.19058 7.69498 3.42372 7.79156 3.66683 7.79158H6.41683C6.5383 7.7933 6.6589 7.77086 6.77162 7.72557C6.88434 7.68027 6.98693 7.61302 7.07344 7.52773C7.15995 7.44244 7.22864 7.34081 7.27552 7.22874C7.32241 7.11667 7.34655 6.9964 7.34655 6.87492C7.34655 6.75344 7.32241 6.63317 7.27552 6.5211C7.22864 6.40903 7.15995 6.3074 7.07344 6.22211C6.98693 6.13681 6.88434 6.06957 6.77162 6.02427C6.6589 5.97898 6.5383 5.95653 6.41683 5.95825H5.67562C7.01091 4.54722 8.89786 3.66659 11.0002 3.66659C15.061 3.66659 18.3335 6.93904 18.3335 10.9999C18.3335 15.0608 15.061 18.3333 11.0002 18.3333C10.8787 18.3315 10.7581 18.354 10.6454 18.3993C10.5327 18.4446 10.4301 18.5118 10.3436 18.5971C10.257 18.6824 10.1884 18.784 10.1415 18.8961C10.0946 19.0082 10.0704 19.1284 10.0704 19.2499C10.0704 19.3714 10.0946 19.4917 10.1415 19.6037C10.1884 19.7158 10.257 19.8174 10.3436 19.9027C10.4301 19.988 10.5327 20.0553 10.6454 20.1006C10.7581 20.1459 10.8787 20.1683 11.0002 20.1666C16.0519 20.1666 20.1668 16.0516 20.1668 10.9999C20.1668 5.94821 16.0519 1.83325 11.0002 1.83325ZM10.9867 5.02905C10.7438 5.03261 10.5122 5.13248 10.3428 5.30671C10.1734 5.48095 10.0802 5.71529 10.0835 5.95825V6.07552C8.79223 6.35153 7.79183 7.45439 7.79183 8.82283C7.79183 10.394 9.0852 11.6874 10.6564 11.6874H11.1147C11.8214 11.6874 12.3752 12.2412 12.3752 12.9478C12.3752 13.6545 11.8214 14.2083 11.1147 14.2083H10.5418C10.1063 14.2083 9.75668 13.9158 9.6547 13.5243C9.62551 13.4066 9.57324 13.2959 9.50094 13.1985C9.42864 13.1011 9.33773 13.0191 9.23349 12.9571C9.12924 12.8951 9.01373 12.8544 8.89365 12.8373C8.77357 12.8203 8.6513 12.8273 8.53393 12.8578C8.41656 12.8884 8.30642 12.9419 8.20989 13.0154C8.11336 13.0888 8.03236 13.1806 7.97157 13.2856C7.91079 13.3905 7.87144 13.5065 7.8558 13.6268C7.84016 13.7471 7.84854 13.8692 7.88045 13.9862C8.15018 15.0218 9.02356 15.7794 10.0835 15.9637V16.0416C10.0818 16.1631 10.1042 16.2837 10.1495 16.3964C10.1948 16.5091 10.2621 16.6117 10.3473 16.6982C10.4326 16.7847 10.5343 16.8534 10.6463 16.9003C10.7584 16.9472 10.8787 16.9713 11.0002 16.9713C11.1216 16.9713 11.2419 16.9472 11.354 16.9003C11.4661 16.8534 11.5677 16.7847 11.653 16.6982C11.7383 16.6117 11.8055 16.5091 11.8508 16.3964C11.8961 16.2837 11.9185 16.1631 11.9168 16.0416V15.8778C13.2213 15.5145 14.2085 14.3618 14.2085 12.9478C14.2085 11.2501 12.8125 9.85408 11.1147 9.85408H10.6564C10.0762 9.85408 9.62516 9.40304 9.62516 8.82283C9.62516 8.24263 10.0762 7.79158 10.6564 7.79158H11.2293C11.6616 7.79158 12.01 8.08126 12.1147 8.46834C12.1452 8.58557 12.1986 8.69559 12.2719 8.79204C12.3452 8.88849 12.4369 8.96946 12.5416 9.03027C12.6464 9.09108 12.7622 9.13053 12.8823 9.14633C13.0024 9.16214 13.1244 9.15398 13.2413 9.12234C13.3583 9.0907 13.4678 9.0362 13.5635 8.96198C13.6592 8.88777 13.7393 8.79532 13.7991 8.68998C13.8589 8.58464 13.8973 8.46848 13.9119 8.34824C13.9265 8.22799 13.9172 8.10604 13.8844 7.98942C13.6278 7.03981 12.8639 6.32338 11.9168 6.07463V5.95825C11.9185 5.83569 11.8956 5.71403 11.8494 5.60048C11.8033 5.48693 11.7348 5.38379 11.6481 5.29715C11.5614 5.21052 11.4582 5.14216 11.3446 5.09611C11.231 5.05006 11.1093 5.02726 10.9867 5.02905ZM2.75016 10.1012C2.24141 10.1012 1.8335 10.5137 1.8335 11.0178C1.8335 11.5266 2.246 11.9345 2.75016 11.9345C3.25891 11.9299 3.66683 11.5221 3.66683 11.0133C3.66683 10.5092 3.25433 10.1012 2.75016 10.1012ZM3.38664 13.254C3.26761 13.2531 3.14633 13.2757 3.02946 13.3238C2.56196 13.5209 2.34192 14.0568 2.53442 14.5243C2.68109 14.8772 3.02556 15.0882 3.38306 15.0882C3.50222 15.0882 3.62118 15.0651 3.73576 15.0193C4.20326 14.8222 4.4234 14.2863 4.22632 13.8188C4.08194 13.4682 3.74371 13.2566 3.38664 13.254ZM5.17342 15.9243C4.9391 15.9243 4.70535 16.0141 4.52889 16.1929C4.16681 16.555 4.17139 17.1325 4.52889 17.49C4.70764 17.6687 4.94057 17.7603 5.17432 17.7603C5.40807 17.7603 5.64726 17.6687 5.82601 17.49C6.18351 17.1325 6.17814 16.5504 5.82064 16.1929C5.64189 16.0141 5.40774 15.9243 5.17342 15.9243ZM7.84465 17.712C7.48564 17.7139 7.14755 17.928 7.00317 18.2786C6.81067 18.7461 7.03519 19.2821 7.50269 19.4746C7.61727 19.5204 7.73722 19.5435 7.85181 19.5435C8.21389 19.5435 8.55288 19.3325 8.69954 18.9796C8.89204 18.5121 8.67201 17.9753 8.20451 17.7782V17.7836C8.08649 17.7343 7.96431 17.7114 7.84465 17.712Z" fill="#212531"/>
</svg>
