<svg width="22" height="23" viewBox="0 0 22 23" fill="none" xmlns="http://www.w3.org/2000/svg">
<path d="M20.496 5.47313C20.3608 5.33333 20.1527 5.29346 19.9753 5.37504L19.9001 5.40942C19.8364 5.43875 19.7727 5.46808 19.7086 5.49696C19.8951 5.1995 20.0431 4.88142 20.1454 4.55233C20.2022 4.37083 20.1403 4.17238 19.99 4.05504C19.8396 3.93771 19.6325 3.92533 19.4698 4.02479C18.9468 4.34242 18.4445 4.57113 17.9252 4.73063C17.1414 3.97025 16.074 3.5 14.8956 3.5C12.4907 3.5 10.5414 5.44929 10.5414 7.85417C10.5414 7.85646 10.5414 7.94721 10.5414 8.08333L10.0836 8.04667C5.62719 7.51958 4.35852 4.52208 4.30581 4.39283C4.22056 4.17742 4.03264 4.02021 3.80577 3.973C3.57935 3.92488 3.34423 3.99592 3.18014 4.15954C3.08939 4.25075 2.29144 5.095 2.29144 6.70833C2.29144 7.85783 2.80385 8.79008 3.46706 9.51517C3.15814 9.32679 2.97802 9.17417 2.97344 9.17004C2.76214 8.98579 2.45964 8.94729 2.20848 9.07471C1.95823 9.20258 1.81064 9.46979 1.83585 9.74983C1.84456 9.84654 2.03981 11.6808 4.15869 13.0659L3.77231 13.136C3.5381 13.1786 3.34239 13.3395 3.25531 13.5613C3.16869 13.7836 3.2026 14.0343 3.3456 14.225C3.39373 14.2896 4.28885 15.4533 6.23264 16.1225C5.19452 16.4685 3.76819 16.7917 2.06227 16.7917C1.79277 16.7917 1.54756 16.9493 1.43619 17.195C1.32435 17.4407 1.36698 17.729 1.54481 17.9315C1.6186 18.0163 3.40748 20 8.0206 20C15.6807 20 19.2498 12.889 19.2498 8.08333V7.85417C19.2498 7.78633 19.2424 7.71988 19.2397 7.65296C20.1985 6.72621 20.5592 6.03092 20.5766 5.99654C20.6633 5.82237 20.6312 5.61246 20.496 5.47313Z" fill="#30CA4C"/>
</svg>
