<svg width="22" height="23" viewBox="0 0 22 23" fill="none" xmlns="http://www.w3.org/2000/svg">
<path d="M20.4965 5.47313C20.3613 5.33333 20.1532 5.29346 19.9758 5.37504L19.9006 5.40942C19.8369 5.43875 19.7732 5.46808 19.709 5.49696C19.8956 5.1995 20.0436 4.88142 20.1458 4.55233C20.2027 4.37083 20.1408 4.17238 19.9905 4.05504C19.8401 3.93771 19.633 3.92533 19.4703 4.02479C18.9473 4.34242 18.445 4.57113 17.9257 4.73063C17.1419 3.97025 16.0745 3.5 14.8961 3.5C12.4912 3.5 10.5419 5.44929 10.5419 7.85417C10.5419 7.85646 10.5419 7.94721 10.5419 8.08333L10.084 8.04667C5.62767 7.51958 4.35901 4.52208 4.3063 4.39283C4.22105 4.17742 4.03313 4.02021 3.80626 3.973C3.57984 3.92488 3.34472 3.99592 3.18063 4.15954C3.08988 4.25075 2.29192 5.095 2.29192 6.70833C2.29192 7.85783 2.80434 8.79008 3.46755 9.51517C3.15863 9.32679 2.97851 9.17417 2.97392 9.17004C2.76263 8.98579 2.46013 8.94729 2.20897 9.07471C1.95872 9.20258 1.81113 9.46979 1.83634 9.74983C1.84505 9.84654 2.0403 11.6808 4.15917 13.0659L3.7728 13.136C3.53859 13.1786 3.34288 13.3395 3.2558 13.5613C3.16917 13.7836 3.20309 14.0343 3.34609 14.225C3.39422 14.2896 4.28934 15.4533 6.23313 16.1225C5.19501 16.4685 3.76867 16.7917 2.06276 16.7917C1.79326 16.7917 1.54805 16.9493 1.43667 17.195C1.32484 17.4407 1.36747 17.729 1.5453 17.9315C1.61909 18.0163 3.40797 20 8.02109 20C15.6812 20 19.2503 12.889 19.2503 8.08333V7.85417C19.2503 7.78633 19.2429 7.71987 19.2402 7.65296C20.199 6.72621 20.5597 6.03092 20.5771 5.99654C20.6638 5.82237 20.6317 5.61246 20.4965 5.47313Z" fill="white"/>
</svg>
