<svg width="22" height="22" viewBox="0 0 22 22" fill="none" xmlns="http://www.w3.org/2000/svg">
<path d="M20.4965 4.72313C20.3613 4.58333 20.1532 4.54346 19.9758 4.62504L19.9006 4.65942C19.8369 4.68875 19.7732 4.71808 19.709 4.74696C19.8956 4.4495 20.0436 4.13142 20.1458 3.80233C20.2027 3.62083 20.1408 3.42238 19.9905 3.30504C19.8401 3.18771 19.633 3.17533 19.4703 3.27479C18.9473 3.59242 18.445 3.82113 17.9257 3.98063C17.1419 3.22025 16.0745 2.75 14.8961 2.75C12.4912 2.75 10.5419 4.69929 10.5419 7.10417C10.5419 7.10646 10.5419 7.19721 10.5419 7.33333L10.084 7.29667C5.62767 6.76958 4.35901 3.77208 4.3063 3.64283C4.22105 3.42742 4.03313 3.27021 3.80626 3.223C3.57984 3.17488 3.34472 3.24592 3.18063 3.40954C3.08988 3.50075 2.29192 4.345 2.29192 5.95833C2.29192 7.10783 2.80434 8.04008 3.46755 8.76517C3.15863 8.57679 2.97851 8.42417 2.97392 8.42004C2.76263 8.23579 2.46013 8.19729 2.20897 8.32471C1.95872 8.45258 1.81113 8.71979 1.83634 8.99983C1.84505 9.09654 2.0403 10.9308 4.15917 12.3159L3.7728 12.386C3.53859 12.4286 3.34288 12.5895 3.2558 12.8113C3.16917 13.0336 3.20309 13.2843 3.34609 13.475C3.39422 13.5396 4.28934 14.7033 6.23313 15.3725C5.19501 15.7185 3.76867 16.0417 2.06276 16.0417C1.79326 16.0417 1.54805 16.1993 1.43667 16.445C1.32484 16.6907 1.36747 16.979 1.5453 17.1815C1.61909 17.2663 3.40797 19.25 8.02109 19.25C15.6812 19.25 19.2503 12.139 19.2503 7.33333V7.10417C19.2503 7.03633 19.2429 6.96987 19.2402 6.90296C20.199 5.97621 20.5597 5.28092 20.5771 5.24654C20.6638 5.07237 20.6317 4.86246 20.4965 4.72313Z" fill="white"/>
</svg>
