<svg width="22" height="23" viewBox="0 0 22 23" fill="none" xmlns="http://www.w3.org/2000/svg">
<path d="M11.0003 2.58334C9.78475 2.58334 8.61896 3.06623 7.75942 3.92577C6.89988 4.78531 6.41699 5.9511 6.41699 7.16668C6.41699 8.38225 6.89988 9.54804 7.75942 10.4076C8.61896 11.2671 9.78475 11.75 11.0003 11.75C12.2159 11.75 13.3817 11.2671 14.2412 10.4076C15.1008 9.54804 15.5837 8.38225 15.5837 7.16668C15.5837 5.9511 15.1008 4.78531 14.2412 3.92577C13.3817 3.06623 12.2159 2.58334 11.0003 2.58334ZM16.51 13.5833H5.4907C4.48512 13.5833 3.66699 14.4015 3.66699 15.4071V16.1042C3.66699 17.6222 4.53095 18.9348 6.09937 19.7997C7.40424 20.5202 9.14499 20.9167 11.0003 20.9167C14.5322 20.9167 18.3337 19.4106 18.3337 16.1042V15.4071C18.3337 14.4015 17.5155 13.5833 16.51 13.5833Z" fill="#30CA4C"/>
</svg>
