<svg width="22" height="22" viewBox="0 0 22 22" fill="none" xmlns="http://www.w3.org/2000/svg">
<path d="M7.33333 2.29163C5.56417 2.29163 4.125 3.73079 4.125 5.49996C4.125 7.26913 5.56417 8.70829 7.33333 8.70829C9.1025 8.70829 10.5417 7.26913 10.5417 5.49996C10.5417 3.73079 9.1025 2.29163 7.33333 2.29163ZM14.6667 2.29163C12.8975 2.29163 11.4583 3.73079 11.4583 5.49996C11.4583 7.26913 12.8975 8.70829 14.6667 8.70829C16.4358 8.70829 17.875 7.26913 17.875 5.49996C17.875 3.73079 16.4358 2.29163 14.6667 2.29163ZM4.35417 9.62496C3.46958 9.62496 2.75 10.3445 2.75 11.2291V15.5833C2.75 18.1105 4.80608 20.1666 7.33333 20.1666C8.49842 20.1666 9.56038 19.7265 10.3698 19.0074C9.61904 18.0669 9.16667 16.8776 9.16667 15.5833V11.2291C9.16667 10.6205 9.38425 10.0613 9.74495 9.62496H4.35417ZM11.6875 9.62496C10.8029 9.62496 10.0833 10.3445 10.0833 11.2291V15.5833C10.0833 18.1105 12.1394 20.1666 14.6667 20.1666C17.1939 20.1666 19.25 18.1105 19.25 15.5833V11.2291C19.25 10.3445 18.5304 9.62496 17.6458 9.62496H11.6875Z" fill="#212531"/>
</svg>
