<svg width="38" height="38" viewBox="0 0 38 38" fill="none" xmlns="http://www.w3.org/2000/svg">
<path d="M13.3141 7.31594C12.9678 7.26214 12.9531 7.25579 13.1162 7.23073C13.4285 7.18258 14.1661 7.24819 14.6743 7.3692C15.8609 7.6517 16.9406 8.37537 18.0931 9.66054L18.3993 10.002L18.8373 9.93147C20.6825 9.63447 22.5597 9.87049 24.1298 10.5969C24.5618 10.7968 25.2428 11.1947 25.3279 11.2969C25.355 11.3295 25.4048 11.5392 25.4385 11.763C25.5551 12.5373 25.4968 13.1308 25.2603 13.574C25.1316 13.8152 25.1245 13.8917 25.211 14.0981C25.28 14.2629 25.4725 14.3848 25.6632 14.3845C26.0534 14.384 26.4733 13.7522 26.6679 12.8733L26.7452 12.5241L26.8983 12.6978C27.7382 13.6509 28.3979 14.9507 28.5112 15.8759L28.5407 16.117L28.3996 15.8978C28.1566 15.5204 27.9124 15.2635 27.5999 15.0564C27.0363 14.6829 26.4405 14.5558 24.8625 14.4725C23.4373 14.3973 22.6307 14.2754 21.8308 14.0141C20.4701 13.5698 19.7841 12.978 18.1676 10.8539C17.4496 9.91045 17.0059 9.38842 16.5644 8.96805C15.5614 8.01288 14.5758 7.51193 13.3141 7.31594Z" fill="#FF007A"/>
<path d="M25.6486 9.42287C25.6844 8.79071 25.77 8.37366 25.9421 7.99288C26.0102 7.84213 26.0741 7.71875 26.0839 7.71875C26.0938 7.71875 26.0642 7.83002 26.0181 7.96599C25.893 8.3356 25.8725 8.84106 25.9586 9.42922C26.068 10.1754 26.1302 10.2831 26.9177 11.0892C27.2871 11.4673 27.7167 11.9442 27.8725 12.1489L28.1557 12.5212L27.8725 12.2551C27.5262 11.9298 26.7297 11.2953 26.5537 11.2046C26.4358 11.1438 26.4183 11.1448 26.3455 11.2174C26.2784 11.2842 26.2643 11.3846 26.255 11.8594C26.2406 12.5994 26.1398 13.0744 25.8968 13.5494C25.7654 13.8062 25.7446 13.7514 25.8636 13.4615C25.9524 13.245 25.9614 13.1498 25.9607 12.4334C25.9594 10.9941 25.7888 10.6481 24.7882 10.0553C24.5347 9.90511 24.1171 9.68851 23.8601 9.57398C23.6031 9.45945 23.399 9.35964 23.4064 9.35222C23.4348 9.32395 24.4106 9.60919 24.8033 9.76048C25.3875 9.98557 25.4839 10.0147 25.5549 9.98759C25.6024 9.96942 25.6254 9.83066 25.6486 9.42287Z" fill="#FF007A"/>
<path d="M13.9806 11.8859C13.2775 10.9163 12.8424 9.42977 12.9366 8.31851L12.9657 7.97461L13.1257 8.00388C13.4264 8.0588 13.9446 8.25201 14.1873 8.39962C14.8532 8.80467 15.1415 9.33798 15.4348 10.7075C15.5207 11.1085 15.6334 11.5625 15.6853 11.7162C15.7688 11.9635 16.0843 12.5413 16.3408 12.9166C16.5256 13.1868 16.4029 13.3149 15.9944 13.2779C15.3707 13.2215 14.5257 12.6375 13.9806 11.8859Z" fill="#FF007A"/>
<path d="M24.7949 19.1014C21.5089 17.7763 20.3516 16.626 20.3516 14.6853C20.3516 14.3997 20.3614 14.166 20.3733 14.166C20.3853 14.166 20.5125 14.2603 20.6559 14.3755C21.3222 14.9108 22.0684 15.1394 24.1341 15.4412C25.3496 15.6189 26.0337 15.7623 26.6647 15.9719C28.6703 16.6381 29.9112 17.9901 30.2071 19.8315C30.2931 20.3666 30.2426 21.37 30.1032 21.8988C29.9932 22.3165 29.6574 23.0694 29.5683 23.0983C29.5435 23.1063 29.5193 23.0115 29.513 22.8825C29.4792 22.1911 29.1303 21.5179 28.5444 21.0136C27.8783 20.4403 26.9832 19.9838 24.7949 19.1014Z" fill="#FF007A"/>
<path d="M22.4888 19.6526C22.4476 19.4073 22.3762 19.0939 22.3301 18.9563L22.2463 18.7061L22.402 18.8812C22.6175 19.1234 22.7878 19.4335 22.9322 19.8464C23.0423 20.1615 23.0547 20.2552 23.0539 20.7674C23.0531 21.2702 23.0393 21.3756 22.9376 21.6592C22.7772 22.1065 22.5781 22.4237 22.244 22.7642C21.6438 23.376 20.8721 23.7148 19.7584 23.8553C19.5648 23.8797 19.0006 23.9208 18.5046 23.9467C17.2545 24.0117 16.4318 24.1463 15.6926 24.4063C15.5863 24.4437 15.4913 24.4664 15.4817 24.4568C15.4518 24.427 15.9552 24.1264 16.3709 23.9258C16.9571 23.643 17.5406 23.4887 18.8481 23.2706C19.494 23.1629 20.161 23.0322 20.3303 22.9802C21.9298 22.489 22.7519 21.2215 22.4888 19.6526Z" fill="#FF007A"/>
<path d="M23.9945 22.3311C23.5579 21.3911 23.4577 20.4836 23.6968 19.6371C23.7224 19.5467 23.7636 19.4727 23.7884 19.4727C23.8131 19.4727 23.9161 19.5285 24.0173 19.5966C24.2185 19.7323 24.6219 19.9607 25.697 20.5478C27.0384 21.2803 27.8032 21.8475 28.3233 22.4955C28.7788 23.0631 29.0607 23.7094 29.1964 24.4976C29.2732 24.9441 29.2282 26.0184 29.1138 26.468C28.7531 27.8856 27.9149 28.999 26.7193 29.6488C26.5441 29.7439 26.3869 29.8221 26.3699 29.8225C26.3529 29.8228 26.4166 29.6603 26.5117 29.4613C26.9139 28.6192 26.9597 27.8001 26.6556 26.8884C26.4694 26.3302 26.0898 25.649 25.3234 24.4978C24.4322 23.1594 24.2137 22.8031 23.9945 22.3311Z" fill="#FF007A"/>
<path d="M11.6502 27.4027C12.8696 26.3714 14.3868 25.6389 15.7689 25.414C16.3645 25.3171 17.3567 25.3555 17.9083 25.4969C18.7924 25.7235 19.5833 26.2311 19.9946 26.8358C20.3966 27.4268 20.569 27.9418 20.7486 29.0878C20.8194 29.5398 20.8964 29.9937 20.9197 30.0965C21.0545 30.6904 21.317 31.1651 21.6421 31.4035C22.1585 31.782 23.0478 31.8056 23.9226 31.4638C24.0711 31.4058 24.2 31.3657 24.2091 31.3748C24.2408 31.4063 23.8003 31.7017 23.4895 31.8571C23.0714 32.0663 22.7389 32.1473 22.297 32.1473C21.4958 32.1473 20.8306 31.739 20.2756 30.9066C20.1664 30.7428 19.9208 30.2521 19.73 29.8163C19.144 28.4775 18.8546 28.0697 18.1741 27.6234C17.5819 27.235 16.8183 27.1655 16.2438 27.4476C15.4891 27.8182 15.2785 28.7841 15.8191 29.3962C16.0338 29.6395 16.4345 29.8493 16.7621 29.8901C17.3749 29.9665 17.9015 29.4995 17.9015 28.8798C17.9015 28.4775 17.7471 28.2479 17.3584 28.0722C16.8275 27.8322 16.2568 28.1127 16.2595 28.6122C16.2607 28.8252 16.3533 28.959 16.5665 29.0556C16.7033 29.1176 16.7065 29.1225 16.5949 29.0993C16.1078 28.9981 15.9937 28.41 16.3853 28.0194C16.8556 27.5507 17.828 27.7575 18.1619 28.3974C18.3022 28.6662 18.3185 29.2014 18.1962 29.5247C17.9224 30.2481 17.1243 30.6285 16.3146 30.4215C15.7634 30.2805 15.539 30.1279 14.8743 29.4422C13.7195 28.2508 13.2711 28.0199 11.6062 27.7596L11.2871 27.7097L11.6502 27.4027Z" fill="#FF007A"/>
<path fill-rule="evenodd" clip-rule="evenodd" d="M2.943 0.712684C6.79978 5.40098 12.7457 12.7004 13.041 13.109C13.2847 13.4465 13.193 13.7498 12.7754 13.9876C12.5432 14.1198 12.0658 14.2537 11.8268 14.2537C11.5565 14.2537 11.2519 14.1234 11.0302 13.9126C10.8734 13.7637 10.2407 12.8175 8.78016 10.5477C7.66263 8.81101 6.72739 7.37028 6.7019 7.34617C6.64291 7.29036 6.64392 7.29226 8.66622 10.9163C9.93605 13.192 10.3647 13.9965 10.3647 14.1041C10.3647 14.323 10.3051 14.438 10.0356 14.7391C9.58623 15.2412 9.38538 15.8053 9.24037 16.9729C9.07776 18.2817 8.62069 19.2062 7.35395 20.7885C6.61244 21.7147 6.49109 21.8845 6.304 22.2578C6.06829 22.7279 6.0035 22.9912 5.97723 23.5849C5.94949 24.2125 6.00355 24.618 6.19504 25.2181C6.36263 25.7435 6.53757 26.0904 6.98486 26.7843C7.37084 27.383 7.59315 27.8281 7.59315 28.0021C7.59315 28.1406 7.61953 28.1408 8.21769 28.0055C9.64906 27.6818 10.8114 27.1123 11.4651 26.4146C11.8697 25.9827 11.9646 25.7442 11.9677 25.1523C11.9697 24.7652 11.9562 24.6841 11.8517 24.4614C11.6816 24.0989 11.372 23.7976 10.6895 23.3303C9.79537 22.7181 9.41348 22.2252 9.30795 21.5474C9.2214 20.9913 9.32183 20.5989 9.81648 19.5605C10.3285 18.4857 10.4554 18.0277 10.5412 16.9443C10.5966 16.2443 10.6734 15.9683 10.8742 15.7468C11.0836 15.5157 11.2721 15.4375 11.7903 15.3665C12.6352 15.2509 13.1732 15.032 13.6155 14.6239C13.9991 14.2698 14.1596 13.9287 14.1843 13.4151L14.203 13.0258L13.9886 12.7755C13.2122 11.8688 2.42308 0 2.3753 0C2.36509 0 2.62056 0.320731 2.943 0.712684ZM8.02894 24.2951C8.20447 23.9838 8.11122 23.5835 7.8176 23.3879C7.54015 23.2032 7.10917 23.2902 7.10917 23.531C7.10917 23.6044 7.14978 23.6579 7.24119 23.7051C7.39509 23.7844 7.40629 23.8736 7.28518 24.0559C7.16252 24.2406 7.17242 24.4029 7.3131 24.5132C7.53986 24.691 7.86081 24.5932 8.02894 24.2951Z" fill="#FF007A"/>
<path fill-rule="evenodd" clip-rule="evenodd" d="M14.733 15.5713C14.3364 15.6933 13.9508 16.1143 13.8314 16.5559C13.7586 16.8252 13.7999 17.2976 13.909 17.4435C14.0852 17.6792 14.2556 17.7413 14.717 17.738C15.6202 17.7317 16.4055 17.3437 16.4968 16.8586C16.5716 16.461 16.2267 15.91 15.7517 15.6681C15.5066 15.5433 14.9852 15.4938 14.733 15.5713ZM15.7889 16.3983C15.9282 16.2001 15.8673 15.9858 15.6304 15.8409C15.1793 15.565 14.497 15.7933 14.497 16.2202C14.497 16.4327 14.8527 16.6645 15.1789 16.6645C15.3959 16.6645 15.693 16.5349 15.7889 16.3983Z" fill="#FF007A"/>
<circle cx="25.7857" cy="25.7857" r="7.78571" fill="#FF007A" stroke="white" stroke-width="2"/>
<path d="M26.9182 24.8892C27.3512 25.05 27.7068 25.3082 27.9851 25.6638C28.2634 26.0194 28.4026 26.4601 28.4026 26.9858C28.4026 27.4559 28.2743 27.8826 28.0176 28.2661C27.764 28.6465 27.4223 28.9418 26.9924 29.1521C26.5626 29.3624 26.0925 29.4675 25.5823 29.4675C25.2699 29.4675 24.9607 29.4397 24.6545 29.384C24.3515 29.3284 24.1149 29.2727 23.9448 29.217C23.7747 29.1614 23.5737 29.0872 23.3418 28.9944L23.3975 27.2966C23.9974 27.5842 24.6685 27.728 25.4106 27.728C25.7817 27.728 26.0724 27.6399 26.2827 27.4636C26.493 27.2843 26.5981 27.0724 26.5981 26.8281C26.5981 26.5065 26.4312 26.2545 26.0972 26.072C25.7663 25.8865 25.2622 25.7597 24.585 25.6917V25.2603L25.7214 23.8083H23.6108V22.1895H28.1938V23.2888L26.9182 24.8892Z" fill="white"/>
</svg>
