<svg width="20" height="20" viewBox="0 0 20 20" fill="none" xmlns="http://www.w3.org/2000/svg">
<g clip-path="url(#clip0_2578_3472)">
<path d="M18.1152 5H3.55143C2.42188 5 1.95638 4.47266 1.77409 4.1569L17.5 2.5V1.88477C17.5 0.843099 16.6569 0 15.6152 0L1.88477 2.55208C0.742188 2.76042 0 3.39844 0 4.43685V18.1152C0 19.1569 0.843099 20 1.88477 20H18.1152C19.1569 20 20 19.1569 20 18.1152V6.88477C20 5.8431 19.1569 5 18.1152 5ZM16.6667 14.1667C15.7454 14.1667 15 13.4212 15 12.5C15 11.5788 15.7454 10.8333 16.6667 10.8333C17.5879 10.8333 18.3333 11.5788 18.3333 12.5C18.3333 13.4212 17.5879 14.1667 16.6667 14.1667Z" fill="#30CA4C"/>
</g>
<defs>
<clipPath id="clip0_2578_3472">
<rect width="20" height="20" fill="white"/>
</clipPath>
</defs>
</svg>
