<svg width="1680" height="359" viewBox="0 0 1680 359" fill="none" xmlns="http://www.w3.org/2000/svg">
<mask id="mask0_5_2" style="mask-type:alpha" maskUnits="userSpaceOnUse" x="0" y="0" width="1680" height="359">
<path d="M0 20C0 8.95431 8.95431 0 20 0H1660C1671.05 0 1680 8.95431 1680 20V339C1680 350.046 1671.05 359 1660 359H20C8.95433 359 0 350.046 0 339V20Z" fill="#30CA4B"/>
</mask>
<g mask="url(#mask0_5_2)">
<rect x="-120" width="1920" height="359" fill="#30CA4B"/>
<path d="M262.197 337.134V328.566L260.661 331.563L262.197 337.134Z" fill="#32D750"/>
<path d="M262.198 226.562V192.099L255.667 226.677L262.198 226.562Z" fill="#32D750"/>
<path d="M262.198 82.1032V54.2104L257.818 76.8781L262.198 82.1032Z" fill="#32D750"/>
<path d="M262.196 192.099V164.629L236.071 180.189L262.196 192.099Z" fill="#32D750"/>
<path d="M186.511 313.506L173.294 319.653L195.117 384.198H238.454L231.078 365.757L213.789 356.958L222.625 379.972L206.105 379.203L190.699 332.716L236.072 353.078L248.52 384.198H261.429L249.135 341.552L186.511 313.506Z" fill="#32D750"/>
<path d="M121.197 359.225L107.366 370.943L91.5753 331.563L79.3193 355.575L100.066 376.13L87.3491 384.198H108.903L123.656 373.441L121.197 359.225Z" fill="#32D750"/>
<path d="M140.408 323.879L116.587 331.947L105.062 287.764L75.3246 306.206L22.8431 252.418L35.1375 210.925L3.13379 225.025L12.0856 259.948L77.7835 336.942L96.225 310.816L112.361 352.31L129.65 350.773L131.955 376.898L122.158 384.198H145.133L147.669 382.316L140.408 323.879Z" fill="#32D750"/>
<path d="M135.029 27.9312L187.626 10.7191L184.015 0H160.617L126.884 22.2451L135.029 27.9312Z" fill="#32D750"/>
<path d="M-82.4276 368.83L-87.8064 321.189L-29.4083 311.2L-30.9451 244.734L-5.31904 336.673L15.3508 334.521L-9.39154 276.085L55.1153 358.073L-26.3347 343.089L-17.8823 324.494L-45.1604 325.569L-31.8671 362.414L82.0092 373.44L-26.3347 223.603L51.2733 196.709L35.9054 238.971L64.3361 234.361L80.3571 264.597L108.903 253.455L70.099 219.761L57.4205 222.835L70.099 175.963L-50.9234 207.851L-44.7762 298.138L-104.711 303.516L-95.1061 354.231H-106.632L-112.357 309.664L-122 328.566V337.134L-113.163 369.214L-82.4276 368.83Z" fill="#32D750"/>
<path d="M-17.8843 111.264V129.705L-38.1315 109.765L34.4051 77.8385L9.62429 63.4311L-56.0352 108.229L-41.6661 139.502L-23.2246 143.536L-5.35944 184.415L18.845 179.267L-10.5461 141.807L6.12808 136.045L31.5236 175.963L58.6095 168.893L6.12808 117.027L-17.8843 111.264Z" fill="#32D750"/>
<path d="M-82.4268 44.567L-23.2603 62.2401L-70.6319 86.214L-65.6373 102.389L3.44151 58.1676L-43.2386 34.5778L-9.967 8.10658L35.4836 37.5746L25.9171 50.3299L-10.5433 19.6325L-26.3338 33.041L34.4847 67.6957L46.7022 45.0664L65.8353 55.2093L52.2731 72.6519L70.7146 82.8331L78.0912 62.0864L98.1463 74.5344L70.0999 94.5127L43.5902 82.2184L5.17039 104.502L68.6015 164.629L121.967 184.415L134.261 155.216L75.9012 155.408L33.6011 108.344L52.811 96.8179L70.0999 106.615L124.771 73.8813L11.1255 0H-17.9967L-33.2494 13.0627L-37.6293 0H-58.0302L-47.8489 20.7467L-82.4268 44.567Z" fill="#32D750"/>
<path d="M140.407 35.2309L188.893 75.6101L113.052 116.911L119.66 123.942H150.319L169.606 107.575L198.421 158.29L216.094 146.379L181.901 101.812L198.844 89.787L226.852 138.311L244.256 126.593L175.83 41.4933L204.991 37.3056L215.902 55.7086L201.84 58.2828L217.439 78.7605L223.394 72.6134L256.819 134.085L199.228 172.351L177.905 148.723L170.413 175.963L203.838 189.064L262.198 148.685V117.68L221.857 15.7136L140.407 35.2309Z" fill="#32D750"/>
<path d="M113.05 271.628L118.89 313.506L142.326 308.511L183.435 271.244L165.224 268.554L186.509 217.456L77.7809 175.963L70.0969 212.461L82.3913 208.619L113.05 247.808L132.337 221.682L114.664 208.619L113.05 227.061L87.3859 189.064L168.452 223.987L145.016 269.323L158.463 279.312L128.303 294.296L124.807 268.324L156.926 228.214L140.021 225.524L116.969 259.948L75.322 271.244L60.492 245.118L38.2085 253.186L79.3177 291.606L113.05 271.628Z" fill="#32D750"/>
<path d="M226.853 5.76297L251.826 65.3137L255.784 43.376L238.456 0H195.119L198.423 9.83547L226.853 5.76297Z" fill="#32D750"/>
<path d="M262.198 24.1276V2.68939L261.43 0H248.521L259.124 26.5097L262.198 24.1276Z" fill="#32D750"/>
<path d="M247.639 191.945L201.535 198.285L154.855 184.415L169.07 135.66L58.6133 123.942L79.36 147.762L151.397 145.841L131.227 190.793L197.501 213.268L177.907 263.982L197.501 268.016L146.787 313.544L165.228 381.163L160.618 384.198H184.016L161.77 318.154L221.705 259.948L196.348 254.762L211.908 213.268L230.926 211.539L213.061 246.693L246.486 253.609L196.348 308.934L246.486 329.68L262.2 297.869V279.658L247.062 281.655L241.876 310.662L224.587 301.442L262.2 250.958V238.472L233.231 239.778L247.639 191.945Z" fill="#32D750"/>
<path d="M75.3237 111.264L91.46 118.756L173.294 74.957L107.635 27.9312L145.132 0H122.157L93.7652 21.1309L85.8507 16.7895L108.903 0H87.3491L72.5959 9.37443L60.4937 0H25.2627L143.749 73.6508L75.3237 111.264Z" fill="#32D750"/>
<path d="M262.2 117.68V148.685L271.844 142.038L262.2 117.68Z" fill="#32D750"/>
<path d="M284.868 0H268.309L262.2 2.68939V24.1276L284.868 6.53137V0Z" fill="#32D750"/>
<path d="M262.2 238.472V250.958L271.844 238.049L262.2 238.472Z" fill="#32D750"/>
<path d="M262.2 279.658V297.869L271.844 278.39L262.2 279.658Z" fill="#32D750"/>
<path d="M646.398 337.134V328.566L644.861 331.563L646.398 337.134Z" fill="#32D750"/>
<path d="M646.398 226.562V192.099L639.866 226.677L646.398 226.562Z" fill="#32D750"/>
<path d="M646.398 82.1032V54.2104L642.018 76.8781L646.398 82.1032Z" fill="#32D750"/>
<path d="M646.396 192.099V164.629L620.271 180.189L646.396 192.099Z" fill="#32D750"/>
<path d="M305.23 341.552L326.169 384.198H346.57L327.13 326.184L305.23 341.552Z" fill="#32D750"/>
<path d="M570.711 313.506L557.495 319.653L579.317 384.198H622.655L615.278 365.757L597.989 356.958L606.826 379.972L590.305 379.203L574.899 332.716L620.273 353.078L632.721 384.198H645.63L633.335 341.552L570.711 313.506Z" fill="#32D750"/>
<path d="M505.397 359.225L491.566 370.943L475.775 331.563L463.52 355.575L484.266 376.13L471.549 384.198H493.103L507.856 373.441L505.397 359.225Z" fill="#32D750"/>
<path d="M524.608 323.879L500.788 331.947L489.262 287.764L459.525 306.206L407.043 252.418L419.338 210.925L387.334 225.025L396.286 259.948L461.984 336.942L480.425 310.816L496.562 352.31L513.85 350.773L516.156 376.898L506.359 384.198H529.334L531.869 382.316L524.608 323.879Z" fill="#32D750"/>
<path d="M519.229 27.9312L571.826 10.7191L568.215 0H544.817L511.084 22.2451L519.229 27.9312Z" fill="#32D750"/>
<path d="M301.773 368.83L296.394 321.189L354.792 311.2L353.255 244.734L378.881 336.673L399.551 334.521L374.809 276.085L439.316 358.073L357.866 343.089L366.318 324.494L339.04 325.569L352.333 362.414L466.209 373.44L357.866 223.603L435.474 196.709L420.106 238.971L448.536 234.361L464.557 264.597L493.103 253.455L454.299 219.761L441.621 222.835L454.299 175.963L333.277 207.851L339.424 298.138L279.489 303.516L289.094 354.231H277.568L271.844 309.664L262.2 328.566V337.134L271.037 369.214L301.773 368.83Z" fill="#32D750"/>
<path d="M366.316 111.264V129.705L346.069 109.765L418.605 77.8385L393.824 63.4311L328.165 108.229L342.534 139.502L360.976 143.536L378.841 184.415L403.045 179.267L373.654 141.807L390.328 136.045L415.724 175.963L442.81 168.893L390.328 117.027L366.316 111.264Z" fill="#32D750"/>
<path d="M301.773 44.567L360.94 62.2401L313.568 86.214L318.563 102.389L387.642 58.1676L340.962 34.5778L374.233 8.10658L419.684 37.5746L410.117 50.3299L373.657 19.6325L357.866 33.041L418.685 67.6957L430.902 45.0664L450.035 55.2093L436.473 72.6519L454.915 82.8331L462.291 62.0864L482.347 74.5344L454.3 94.5127L427.79 82.2184L389.371 104.502L452.802 164.629L506.167 184.415L518.461 155.216L460.101 155.408L417.801 108.344L437.011 96.8179L454.3 106.615L508.971 73.8813L395.326 0H366.203L350.951 13.0627L346.571 0H326.17L336.351 20.7467L301.773 44.567Z" fill="#32D750"/>
<path d="M524.607 35.2309L573.093 75.6101L497.252 116.911L503.861 123.942H534.52L553.806 107.575L582.621 158.29L600.294 146.379L566.101 101.812L583.044 89.787L611.052 138.311L628.456 126.593L560.03 41.4933L589.191 37.3056L600.102 55.7086L586.041 58.2828L601.639 78.7605L607.594 72.6134L641.019 134.085L583.428 172.351L562.105 148.723L554.613 175.963L588.038 189.064L646.398 148.685V117.68L606.057 15.7136L524.607 35.2309Z" fill="#32D750"/>
<path d="M497.25 271.628L503.09 313.506L526.526 308.511L567.636 271.244L549.425 268.554L570.709 217.456L461.981 175.963L454.297 212.461L466.591 208.619L497.25 247.808L516.537 221.682L498.864 208.619L497.25 227.061L471.586 189.064L552.652 223.987L529.216 269.323L542.663 279.312L512.503 294.296L509.007 268.324L541.126 228.214L524.221 225.524L501.169 259.948L459.522 271.244L444.692 245.118L422.409 253.186L463.518 291.606L497.25 271.628Z" fill="#32D750"/>
<path d="M287.941 256.644L305.615 261.639L286.789 210.041L271.844 210.925L280.642 184.415L271.651 175.963L319.83 154.063L335.62 170.968L288.71 184.415L316.756 265.865L313.299 278.159L287.173 268.017L282.947 294.296L327.514 290.07L327.898 264.712L314.259 196.325L366.318 188.257L281.41 73.766L283.715 63.2006L310.225 77.608L335.582 67.6189L284.868 48.409L322.519 14.9837L313.491 0H302.503L264.505 42.2618L262.2 54.2104V82.1031L308.304 137.159L293.704 147.916L296.01 133.701L283.331 118.756L268.347 115.913L282.178 141.808L276.761 155.946L262.2 164.629V226.562L280.258 226.216L287.941 256.644Z" fill="#32D750"/>
<path d="M611.054 5.76297L636.026 65.3137L639.984 43.376L622.656 0H579.319L582.623 9.83547L611.054 5.76297Z" fill="#32D750"/>
<path d="M646.398 24.1276V2.68939L645.63 0H632.721L643.325 26.5097L646.398 24.1276Z" fill="#32D750"/>
<path d="M631.839 191.945L585.735 198.285L539.055 184.415L553.27 135.66L442.813 123.942L463.56 147.762L535.597 145.841L515.427 190.793L581.701 213.268L562.107 263.982L581.701 268.016L530.987 313.544L549.428 381.163L544.818 384.198H568.216L545.971 318.154L605.906 259.948L580.548 254.762L596.108 213.268L615.126 211.539L597.261 246.693L630.686 253.609L580.548 308.934L630.686 329.68L646.4 297.869V279.658L631.263 281.655L626.076 310.662L608.787 301.442L646.4 250.958V238.472L617.431 239.778L631.839 191.945Z" fill="#32D750"/>
<path d="M459.524 111.264L475.66 118.756L557.494 74.957L491.835 27.9312L529.333 0H506.358L477.965 21.1309L470.051 16.7895L493.103 0H471.549L456.796 9.37443L444.694 0H409.463L527.95 73.6508L459.524 111.264Z" fill="#32D750"/>
<path d="M646.4 117.68V148.685L656.043 142.038L646.4 117.68Z" fill="#32D750"/>
<path d="M669.068 0H652.509L646.4 2.68939V24.1276L669.068 6.53137V0Z" fill="#32D750"/>
<path d="M646.4 238.472V250.958L656.043 238.049L646.4 238.472Z" fill="#32D750"/>
<path d="M646.4 279.658V297.869L656.043 278.39L646.4 279.658Z" fill="#32D750"/>
<path d="M1030.6 337.134V328.566L1029.06 331.563L1030.6 337.134Z" fill="#32D750"/>
<path d="M1030.6 226.562V192.099L1024.07 226.677L1030.6 226.562Z" fill="#32D750"/>
<path d="M1030.6 82.1032V54.2104L1026.22 76.8781L1030.6 82.1032Z" fill="#32D750"/>
<path d="M1030.6 192.099V164.629L1004.47 180.189L1030.6 192.099Z" fill="#32D750"/>
<path d="M689.43 341.552L710.369 384.198H730.77L711.329 326.184L689.43 341.552Z" fill="#32D750"/>
<path d="M954.911 313.506L941.694 319.653L963.517 384.198H1006.85L999.478 365.757L982.189 356.958L991.025 379.972L974.505 379.203L959.099 332.716L1004.47 353.078L1016.92 384.198H1029.83L1017.54 341.552L954.911 313.506Z" fill="#32D750"/>
<path d="M889.597 359.225L875.766 370.943L859.975 331.563L847.719 355.575L868.466 376.13L855.749 384.198H877.302L892.056 373.441L889.597 359.225Z" fill="#32D750"/>
<path d="M908.808 323.879L884.987 331.947L873.461 287.764L843.725 306.206L791.243 252.418L803.537 210.925L771.534 225.025L780.486 259.948L846.183 336.942L864.625 310.816L880.761 352.31L898.05 350.773L900.355 376.898L890.558 384.198H913.533L916.069 382.316L908.808 323.879Z" fill="#32D750"/>
<path d="M903.429 27.9312L956.026 10.7191L952.414 0H929.017L895.284 22.2451L903.429 27.9312Z" fill="#32D750"/>
<path d="M685.972 368.83L680.594 321.189L738.992 311.2L737.455 244.734L763.081 336.673L783.751 334.521L759.008 276.085L823.515 358.073L742.065 343.089L750.518 324.494L723.24 325.569L736.533 362.414L850.409 373.44L742.065 223.603L819.673 196.709L804.305 238.971L832.736 234.361L848.757 264.597L877.303 253.455L838.499 219.761L825.82 222.835L838.499 175.963L717.477 207.851L723.624 298.138L663.689 303.516L673.294 354.231H661.768L656.043 309.664L646.4 328.566V337.134L655.236 369.214L685.972 368.83Z" fill="#32D750"/>
<path d="M750.516 111.264V129.705L730.268 109.765L802.805 77.8385L778.024 63.4311L712.365 108.229L726.734 139.502L745.175 143.536L763.04 184.415L787.245 179.267L757.854 141.807L774.528 136.045L799.923 175.963L827.009 168.893L774.528 117.027L750.516 111.264Z" fill="#32D750"/>
<path d="M685.973 44.567L745.14 62.2401L697.768 86.214L702.763 102.389L771.841 58.1676L725.161 34.5778L758.433 8.10658L803.884 37.5746L794.317 50.3299L757.857 19.6325L742.066 33.041L802.885 67.6957L815.102 45.0664L834.235 55.2093L820.673 72.6519L839.114 82.8331L846.491 62.0864L866.546 74.5344L838.5 94.5127L811.99 82.2184L773.57 104.502L837.001 164.629L890.367 184.415L902.661 155.216L844.301 155.408L802.001 108.344L821.211 96.8179L838.5 106.615L893.171 73.8813L779.525 0H750.403L735.15 13.0627L730.771 0H710.37L720.551 20.7467L685.973 44.567Z" fill="#32D750"/>
<path d="M908.807 35.2309L957.293 75.6101L881.452 116.911L888.06 123.942H918.719L938.006 107.575L966.821 158.29L984.494 146.379L950.3 101.812L967.243 89.787L995.251 138.311L1012.66 126.593L944.23 41.4933L973.39 37.3056L984.302 55.7086L970.24 58.2828L985.839 78.7605L991.794 72.6134L1025.22 134.085L967.628 172.351L946.305 148.723L938.813 175.963L972.238 189.064L1030.6 148.685V117.68L990.257 15.7136L908.807 35.2309Z" fill="#32D750"/>
<path d="M881.45 271.628L887.29 313.506L910.726 308.511L951.835 271.244L933.624 268.554L954.909 217.456L846.181 175.963L838.497 212.461L850.791 208.619L881.45 247.808L900.737 221.682L883.064 208.619L881.45 227.061L855.786 189.064L936.852 223.987L913.415 269.323L926.862 279.312L896.703 294.296L893.207 268.324L925.326 228.214L908.421 225.524L885.369 259.948L843.722 271.244L828.892 245.118L806.608 253.186L847.718 291.606L881.45 271.628Z" fill="#32D750"/>
<path d="M672.141 256.644L689.814 261.639L670.989 210.041L656.043 210.925L664.841 184.415L655.851 175.963L704.03 154.063L719.82 170.968L672.91 184.415L700.956 265.865L697.498 278.159L671.373 268.017L667.147 294.296L711.714 290.07L712.098 264.712L698.459 196.325L750.518 188.257L665.61 73.766L667.915 63.2006L694.425 77.608L719.782 67.6189L669.068 48.409L706.719 14.9837L697.69 0H686.702L648.705 42.2618L646.4 54.2104V82.1031L692.504 137.159L677.904 147.916L680.209 133.701L667.531 118.756L652.547 115.913L666.378 141.808L660.961 155.946L646.4 164.629V226.562L664.457 226.216L672.141 256.644Z" fill="#32D750"/>
<path d="M995.253 5.76297L1020.23 65.3137L1024.18 43.376L1006.86 0H963.519L966.823 9.83547L995.253 5.76297Z" fill="#32D750"/>
<path d="M1030.6 24.1276V2.68939L1029.83 0H1016.92L1027.52 26.5097L1030.6 24.1276Z" fill="#32D750"/>
<path d="M1016.04 191.945L969.935 198.285L923.255 184.415L937.47 135.66L827.013 123.942L847.76 147.762L919.797 145.841L899.627 190.793L965.901 213.268L946.307 263.982L965.901 268.016L915.187 313.544L933.628 381.163L929.018 384.198H952.415L930.17 318.154L990.105 259.948L964.748 254.762L980.308 213.268L999.326 211.539L981.461 246.693L1014.89 253.609L964.748 308.934L1014.89 329.68L1030.6 297.869V279.658L1015.46 281.655L1010.28 310.662L992.987 301.442L1030.6 250.958V238.472L1001.63 239.778L1016.04 191.945Z" fill="#32D750"/>
<path d="M843.724 111.264L859.86 118.756L941.694 74.957L876.035 27.9312L913.532 0H890.557L862.165 21.1309L854.251 16.7895L877.303 0H855.749L840.996 9.37443L828.894 0H793.663L912.149 73.6508L843.724 111.264Z" fill="#32D750"/>
<path d="M1030.6 117.68V148.685L1040.24 142.038L1030.6 117.68Z" fill="#32D750"/>
<path d="M1053.27 0H1036.71L1030.6 2.68939V24.1276L1053.27 6.53137V0Z" fill="#32D750"/>
<path d="M1030.6 238.472V250.958L1040.24 238.049L1030.6 238.472Z" fill="#32D750"/>
<path d="M1030.6 279.658V297.869L1040.24 278.39L1030.6 279.658Z" fill="#32D750"/>
<path d="M1414.8 337.134V328.566L1413.26 331.563L1414.8 337.134Z" fill="#32D750"/>
<path d="M1414.8 226.562V192.099L1408.27 226.677L1414.8 226.562Z" fill="#32D750"/>
<path d="M1414.8 82.1032V54.2104L1410.42 76.8781L1414.8 82.1032Z" fill="#32D750"/>
<path d="M1414.8 192.099V164.629L1388.67 180.189L1414.8 192.099Z" fill="#32D750"/>
<path d="M1073.63 341.552L1094.57 384.198H1114.97L1095.53 326.184L1073.63 341.552Z" fill="#32D750"/>
<path d="M1339.11 313.506L1325.89 319.653L1347.72 384.198H1391.05L1383.68 365.757L1366.39 356.958L1375.23 379.972L1358.71 379.203L1343.3 332.716L1388.67 353.078L1401.12 384.198H1414.03L1401.74 341.552L1339.11 313.506Z" fill="#32D750"/>
<path d="M1273.8 359.225L1259.97 370.943L1244.18 331.563L1231.92 355.575L1252.67 376.13L1239.95 384.198H1261.5L1276.26 373.441L1273.8 359.225Z" fill="#32D750"/>
<path d="M1293.01 323.879L1269.19 331.947L1257.66 287.764L1227.92 306.206L1175.44 252.418L1187.74 210.925L1155.73 225.025L1164.69 259.948L1230.38 336.942L1248.82 310.816L1264.96 352.31L1282.25 350.773L1284.56 376.898L1274.76 384.198H1297.73L1300.27 382.316L1293.01 323.879Z" fill="#32D750"/>
<path d="M1287.63 27.9312L1340.23 10.7191L1336.61 0H1313.22L1279.48 22.2451L1287.63 27.9312Z" fill="#32D750"/>
<path d="M1070.17 368.83L1064.79 321.189L1123.19 311.2L1121.66 244.734L1147.28 336.673L1167.95 334.521L1143.21 276.085L1207.72 358.073L1126.27 343.089L1134.72 324.494L1107.44 325.569L1120.73 362.414L1234.61 373.44L1126.27 223.603L1203.87 196.709L1188.51 238.971L1216.94 234.361L1232.96 264.597L1261.5 253.455L1222.7 219.761L1210.02 222.835L1222.7 175.963L1101.68 207.851L1107.82 298.138L1047.89 303.516L1057.49 354.231H1045.97L1040.24 309.664L1030.6 328.566V337.134L1039.44 369.214L1070.17 368.83Z" fill="#32D750"/>
<path d="M1134.72 111.264V129.705L1114.47 109.765L1187.01 77.8385L1162.22 63.4311L1096.56 108.229L1110.93 139.502L1129.38 143.536L1147.24 184.415L1171.45 179.267L1142.05 141.807L1158.73 136.045L1184.12 175.963L1211.21 168.893L1158.73 117.027L1134.72 111.264Z" fill="#32D750"/>
<path d="M1070.17 44.567L1129.34 62.2401L1081.97 86.214L1086.96 102.389L1156.04 58.1676L1109.36 34.5778L1142.63 8.10658L1188.08 37.5746L1178.52 50.3299L1142.06 19.6325L1126.27 33.041L1187.08 67.6957L1199.3 45.0664L1218.44 55.2093L1204.87 72.6519L1223.31 82.8331L1230.69 62.0864L1250.75 74.5344L1222.7 94.5127L1196.19 82.2184L1157.77 104.502L1221.2 164.629L1274.57 184.415L1286.86 155.216L1228.5 155.408L1186.2 108.344L1205.41 96.8179L1222.7 106.615L1277.37 73.8813L1163.73 0H1134.6L1119.35 13.0627L1114.97 0H1094.57L1104.75 20.7467L1070.17 44.567Z" fill="#32D750"/>
<path d="M1293.01 35.2309L1341.49 75.6101L1265.65 116.911L1272.26 123.942H1302.92L1322.21 107.575L1351.02 158.29L1368.69 146.379L1334.5 101.812L1351.44 89.787L1379.45 138.311L1396.86 126.593L1328.43 41.4933L1357.59 37.3056L1368.5 55.7086L1354.44 58.2828L1370.04 78.7605L1375.99 72.6134L1409.42 134.085L1351.83 172.351L1330.5 148.723L1323.01 175.963L1356.44 189.064L1414.8 148.685V117.68L1374.46 15.7136L1293.01 35.2309Z" fill="#32D750"/>
<path d="M1265.65 271.628L1271.49 313.506L1294.93 308.511L1336.04 271.244L1317.82 268.554L1339.11 217.456L1230.38 175.963L1222.7 212.461L1234.99 208.619L1265.65 247.808L1284.94 221.682L1267.26 208.619L1265.65 227.061L1239.99 189.064L1321.05 223.987L1297.62 269.323L1311.06 279.312L1280.9 294.296L1277.41 268.324L1309.53 228.214L1292.62 225.524L1269.57 259.948L1227.92 271.244L1213.09 245.118L1190.81 253.186L1231.92 291.606L1265.65 271.628Z" fill="#32D750"/>
<path d="M1056.34 256.644L1074.01 261.639L1055.19 210.041L1040.24 210.925L1049.04 184.415L1040.05 175.963L1088.23 154.063L1104.02 170.968L1057.11 184.415L1085.16 265.865L1081.7 278.159L1055.57 268.017L1051.35 294.296L1095.91 290.07L1096.3 264.712L1082.66 196.325L1134.72 188.257L1049.81 73.766L1052.12 63.2006L1078.62 77.608L1103.98 67.6189L1053.27 48.409L1090.92 14.9837L1081.89 0H1070.9L1032.91 42.2618L1030.6 54.2104V82.1031L1076.7 137.159L1062.1 147.916L1064.41 133.701L1051.73 118.756L1036.75 115.913L1050.58 141.808L1045.16 155.946L1030.6 164.629V226.562L1048.66 226.216L1056.34 256.644Z" fill="#32D750"/>
<path d="M1379.45 5.76297L1404.43 65.3137L1408.38 43.376L1391.06 0H1347.72L1351.02 9.83547L1379.45 5.76297Z" fill="#32D750"/>
<path d="M1414.8 24.1276V2.68939L1414.03 0H1401.12L1411.72 26.5097L1414.8 24.1276Z" fill="#32D750"/>
<path d="M1400.24 191.945L1354.14 198.285L1307.46 184.415L1321.67 135.66L1211.21 123.942L1231.96 147.762L1304 145.841L1283.83 190.793L1350.1 213.268L1330.51 263.982L1350.1 268.016L1299.39 313.544L1317.83 381.163L1313.22 384.198H1336.62L1314.37 318.154L1374.31 259.948L1348.95 254.762L1364.51 213.268L1383.53 211.539L1365.66 246.693L1399.09 253.609L1348.95 308.934L1399.09 329.68L1414.8 297.869V279.658L1399.66 281.655L1394.48 310.662L1377.19 301.442L1414.8 250.958V238.472L1385.83 239.778L1400.24 191.945Z" fill="#32D750"/>
<path d="M1227.92 111.264L1244.06 118.756L1325.89 74.957L1260.24 27.9312L1297.73 0H1274.76L1246.37 21.1309L1238.45 16.7895L1261.5 0H1239.95L1225.2 9.37443L1213.09 0H1177.86L1296.35 73.6508L1227.92 111.264Z" fill="#32D750"/>
<path d="M1414.8 117.68V148.685L1424.44 142.038L1414.8 117.68Z" fill="#32D750"/>
<path d="M1437.47 0H1420.91L1414.8 2.68939V24.1276L1437.47 6.53137V0Z" fill="#32D750"/>
<path d="M1414.8 238.472V250.958L1424.44 238.049L1414.8 238.472Z" fill="#32D750"/>
<path d="M1414.8 279.658V297.869L1424.44 278.39L1414.8 279.658Z" fill="#32D750"/>
<path d="M1457.83 341.552L1478.77 384.198H1499.17L1479.73 326.184L1457.83 341.552Z" fill="#32D750"/>
<path d="M1658 359.225L1644.17 370.943L1628.38 331.563L1616.12 355.575L1636.87 376.13L1624.15 384.198H1645.7L1660.46 373.441L1658 359.225Z" fill="#32D750"/>
<path d="M1677.21 323.879L1653.39 331.947L1641.86 287.764L1612.12 306.206L1559.64 252.418L1571.94 210.925L1539.93 225.025L1548.89 259.948L1614.58 336.942L1633.02 310.816L1649.16 352.31L1666.45 350.773L1668.76 376.898L1658.96 384.198H1681.93L1684.47 382.316L1677.21 323.879Z" fill="#32D750"/>
<path d="M1671.83 27.9312L1724.43 10.7191L1720.81 0H1697.42L1663.68 22.2451L1671.83 27.9312Z" fill="#32D750"/>
<path d="M1454.37 368.83L1448.99 321.189L1507.39 311.2L1505.85 244.734L1531.48 336.673L1552.15 334.521L1527.41 276.085L1591.92 358.073L1510.47 343.089L1518.92 324.494L1491.64 325.569L1504.93 362.414L1618.81 373.44L1510.47 223.603L1588.07 196.709L1572.71 238.971L1601.14 234.361L1617.16 264.597L1645.7 253.455L1606.9 219.761L1594.22 222.835L1606.9 175.963L1485.88 207.851L1492.02 298.138L1432.09 303.516L1441.69 354.231H1430.17L1424.44 309.664L1414.8 328.566V337.134L1423.64 369.214L1454.37 368.83Z" fill="#32D750"/>
<path d="M1518.92 111.264V129.705L1498.67 109.765L1571.21 77.8385L1546.42 63.4311L1480.76 108.229L1495.13 139.502L1513.58 143.536L1531.44 184.415L1555.65 179.267L1526.25 141.807L1542.93 136.045L1568.32 175.963L1595.41 168.893L1542.93 117.027L1518.92 111.264Z" fill="#32D750"/>
<path d="M1454.37 44.567L1513.54 62.2401L1466.17 86.214L1471.16 102.389L1540.24 58.1676L1493.56 34.5778L1526.83 8.10658L1572.28 37.5746L1562.72 50.3299L1526.26 19.6325L1510.47 33.041L1571.28 67.6957L1583.5 45.0664L1602.64 55.2093L1589.07 72.6519L1607.51 82.8331L1614.89 62.0864L1634.95 74.5344L1606.9 94.5127L1580.39 82.2184L1541.97 104.502L1605.4 164.629L1658.77 184.415L1671.06 155.216L1612.7 155.408L1570.4 108.344L1589.61 96.8179L1606.9 106.615L1661.57 73.8813L1547.93 0H1518.8L1503.55 13.0627L1499.17 0H1478.77L1488.95 20.7467L1454.37 44.567Z" fill="#32D750"/>
<path d="M1677.21 35.2309L1725.69 75.6101L1649.85 116.911L1656.46 123.942H1687.12L1706.41 107.575L1735.22 158.29L1752.89 146.379L1718.7 101.812L1735.64 89.787L1763.65 138.311L1781.06 126.593L1712.63 41.4933L1741.79 37.3056L1752.7 55.7086L1738.64 58.2828L1754.24 78.7605L1760.19 72.6134L1793.62 134.085L1736.03 172.351L1714.7 148.723L1707.21 175.963L1740.64 189.064L1799 148.685V117.68L1758.66 15.7136L1677.21 35.2309Z" fill="#32D750"/>
<path d="M1649.85 271.628L1655.69 313.506L1679.13 308.511L1720.24 271.244L1702.02 268.554L1723.31 217.456L1614.58 175.963L1606.9 212.461L1619.19 208.619L1649.85 247.808L1669.14 221.682L1651.46 208.619L1649.85 227.061L1624.19 189.064L1705.25 223.987L1681.82 269.323L1695.26 279.312L1665.1 294.296L1661.61 268.324L1693.73 228.214L1676.82 225.524L1653.77 259.948L1612.12 271.244L1597.29 245.118L1575.01 253.186L1616.12 291.606L1649.85 271.628Z" fill="#32D750"/>
<path d="M1440.54 256.644L1458.21 261.639L1439.39 210.041L1424.44 210.925L1433.24 184.415L1424.25 175.963L1472.43 154.063L1488.22 170.968L1441.31 184.415L1469.36 265.865L1465.9 278.159L1439.77 268.017L1435.55 294.296L1480.11 290.07L1480.5 264.712L1466.86 196.325L1518.92 188.257L1434.01 73.766L1436.32 63.2006L1462.82 77.608L1488.18 67.6189L1437.47 48.409L1475.12 14.9837L1466.09 0H1455.1L1417.11 42.2618L1414.8 54.2104V82.1031L1460.9 137.159L1446.3 147.916L1448.61 133.701L1435.93 118.756L1420.95 115.913L1434.78 141.808L1429.36 155.946L1414.8 164.629V226.562L1432.86 226.216L1440.54 256.644Z" fill="#32D750"/>
<path d="M1784.44 191.945L1738.34 198.285L1691.66 184.415L1705.87 135.66L1595.41 123.942L1616.16 147.762L1688.2 145.841L1668.03 190.793L1734.3 213.268L1714.71 263.982L1734.3 268.016L1683.59 313.544L1702.03 381.163L1697.42 384.198H1720.82L1698.57 318.154L1758.51 259.948L1733.15 254.762L1748.71 213.268L1767.73 211.539L1749.86 246.693L1783.29 253.609L1733.15 308.934L1783.29 329.68L1799 297.869V279.658L1783.86 281.655L1778.68 310.662L1761.39 301.442L1799 250.958V238.472L1770.03 239.778L1784.44 191.945Z" fill="#32D750"/>
<path d="M1612.12 111.264L1628.26 118.756L1710.09 74.957L1644.44 27.9312L1681.93 0H1658.96L1630.57 21.1309L1622.65 16.7895L1645.7 0H1624.15L1609.4 9.37443L1597.29 0H1562.06L1680.55 73.6508L1612.12 111.264Z" fill="#32D750"/>
</g>
</svg>
