<svg width="26" height="26" viewBox="0 0 26 26" fill="none" xmlns="http://www.w3.org/2000/svg">
<path d="M8.12508 3.79175C4.8439 3.79175 2.16675 6.4689 2.16675 9.75008C2.16675 11.9688 3.83922 14.0579 5.87801 16.2004C7.9168 18.3428 10.4263 20.5127 12.4256 22.512C12.578 22.6644 12.7846 22.7499 13.0001 22.7499C13.2155 22.7499 13.4222 22.6644 13.5745 22.512C15.5739 20.5127 18.0834 18.3428 20.1222 16.2004C22.1609 14.0579 23.8334 11.9688 23.8334 9.75008C23.8334 6.4689 21.1563 3.79175 17.8751 3.79175C15.992 3.79175 14.3525 4.80276 13.0001 6.52018C11.6476 4.80276 10.0082 3.79175 8.12508 3.79175ZM8.12508 5.41675C9.71139 5.41675 11.0318 6.26088 12.3135 8.288C12.3868 8.40379 12.4881 8.49917 12.6082 8.56526C12.7282 8.63135 12.863 8.666 13.0001 8.666C13.1371 8.666 13.2719 8.63135 13.392 8.56526C13.512 8.49917 13.6134 8.40379 13.6867 8.288C14.9683 6.26088 16.2888 5.41675 17.8751 5.41675C20.2782 5.41675 22.2084 7.34701 22.2084 9.75008C22.2084 11.0522 20.9017 13.0256 18.9457 15.0811C17.162 16.9554 14.9448 18.9137 13.0001 20.8098C11.0553 18.9137 8.83814 16.9554 7.05444 15.0811C5.09844 13.0256 3.79175 11.0522 3.79175 9.75008C3.79175 7.34701 5.72201 5.41675 8.12508 5.41675Z" fill="#F8444F"/>
<path d="M8.12508 5.41675C9.71139 5.41675 11.0318 6.26088 12.3135 8.288C12.3868 8.40379 12.4881 8.49917 12.6082 8.56526C12.7282 8.63135 12.863 8.666 13.0001 8.666C13.1371 8.666 13.2719 8.63135 13.392 8.56526C13.512 8.49917 13.6134 8.40379 13.6867 8.288C14.9683 6.26088 16.2888 5.41675 17.8751 5.41675C20.2782 5.41675 22.2084 7.34701 22.2084 9.75008C22.2084 11.0522 20.9017 13.0256 18.9457 15.0811C17.162 16.9554 14.9448 18.9137 13.0001 20.8098C11.0553 18.9137 8.83814 16.9554 7.05444 15.0811C5.09844 13.0256 3.79175 11.0522 3.79175 9.75008C3.79175 7.34701 5.72201 5.41675 8.12508 5.41675Z" fill="#F8444F"/>
</svg>
