<svg width="58" height="58" viewBox="0 0 58 58" fill="none" xmlns="http://www.w3.org/2000/svg">
<rect width="58" height="58" rx="16" fill="white"/>
<g clip-path="url(#clip0_2588_813)">
<path d="M39.5498 22.5H20.6169C19.1484 22.5 18.5433 21.8145 18.3063 21.404L38.75 19.25V18.4502C38.75 17.096 37.654 16 36.2998 16L18.4502 19.3177C16.9648 19.5885 16 20.418 16 21.7679V39.5498C16 40.904 17.096 42 18.4502 42H39.5498C40.904 42 42 40.904 42 39.5498V24.9502C42 23.596 40.904 22.5 39.5498 22.5ZM37.6667 34.4167C36.4691 34.4167 35.5 33.4476 35.5 32.25C35.5 31.0524 36.4691 30.0833 37.6667 30.0833C38.8643 30.0833 39.8333 31.0524 39.8333 32.25C39.8333 33.4476 38.8643 34.4167 37.6667 34.4167Z" fill="#30CA4C"/>
</g>
<defs>
<clipPath id="clip0_2588_813">
<rect width="26" height="26" fill="white" transform="translate(16 16)"/>
</clipPath>
</defs>
</svg>
