<svg width="321" height="321" viewBox="0 0 321 321" fill="none" xmlns="http://www.w3.org/2000/svg">
<g clip-path="url(#clip0_2540_4098)">
<path d="M321 0H0V321H321V0Z" fill="white"/>
<path d="M280.62 140.531C275.74 108.569 271.82 86.4797 254.187 74.3838C224.449 53.9731 191.233 87.1113 149.105 64.8749C128.365 53.9298 127.587 41.2282 110.014 39.5497C78.9348 36.5646 53.4798 73.657 51.2735 76.8411C37.8711 96.1703 33.3978 119.73 38.8315 142.2C42.3616 156.797 44.741 171.895 44.0921 186.89C42.95 212.985 43.6075 237.35 68.9328 252.915C91.5499 266.811 120.007 279.071 147.158 281.217C165.614 282.679 186.301 280.317 204.09 275.515C294.723 251.012 287.334 184.476 280.62 140.531Z" fill="#F4F7FA"/>
<path d="M107.98 220.123C105.48 223.117 101.327 227.071 96.767 231.691L158.094 250.397C154.011 230.22 147.193 208.641 167.058 177.744C176.377 163.243 199.002 138.705 194.218 119.298C188.767 97.1825 170.294 103.533 168.434 86.7738C165.518 60.5746 146.786 39.7918 121.867 48.7642C97.2689 57.6155 91.1171 102.824 113.466 156.728C125.103 197.229 121.028 204.48 107.98 220.123Z" fill="#D8DEE8"/>
<mask id="mask0_2540_4098" style="mask-type:luminance" maskUnits="userSpaceOnUse" x="96" y="46" width="99" height="205">
<path d="M107.98 220.123C105.48 223.117 101.327 227.071 96.767 231.691L158.094 250.397C154.011 230.22 147.193 208.641 167.058 177.744C176.377 163.243 199.002 138.705 194.218 119.298C188.767 97.1825 170.294 103.533 168.434 86.7738C165.518 60.5746 146.786 39.7918 121.867 48.7642C97.2689 57.6155 91.1171 102.824 113.466 156.728C125.103 197.229 121.028 204.48 107.98 220.123Z" fill="white"/>
</mask>
<g mask="url(#mask0_2540_4098)">
<path d="M129.551 237.808C131.264 229.64 132.475 221.853 133.747 213.599L134.171 210.847C134.543 206.841 135.01 202.896 135.469 199.08C136.498 190.471 137.476 182.338 137.346 173.522C137.398 173.011 137.468 172.527 137.545 172.007C137.822 170.164 138.099 168.252 137.312 166.271L137.295 166.193C139.959 120.094 133.15 72.6704 117.074 25.2386L117.429 25.1174C133.522 72.5752 140.331 120.033 137.675 166.167C138.48 168.235 138.186 170.268 137.917 172.059C137.84 172.57 137.77 173.054 137.727 173.53C137.857 182.347 136.879 190.497 135.85 199.115C135.391 202.922 134.915 206.867 134.552 210.882L134.128 213.642C132.847 221.896 131.645 229.692 129.923 237.869L129.551 237.808Z" fill="#FCFDFE"/>
<path d="M135.313 197.454C138.212 175.901 153.457 152.116 165.743 135.953C179.05 118.45 191.83 105.878 191.96 105.757L192.219 106.025C192.089 106.146 179.319 118.709 166.037 136.187C153.777 152.315 138.566 176.039 135.685 197.506L135.313 197.454Z" fill="#FCFDFE"/>
<path d="M135.209 101.837C137.009 78.7963 144.225 55.0285 146.604 47.2241C147.054 45.7272 147.357 44.7409 147.383 44.5505L147.755 44.5938C147.729 44.8101 147.496 45.5975 146.968 47.3366C144.597 55.1323 137.381 78.8742 135.59 101.872L135.209 101.837Z" fill="#FCFDFE"/>
<path d="M137.814 139.527C133.141 118.718 95.6164 95.1577 95.2444 94.9155L95.4434 94.604C95.8241 94.8376 133.47 118.493 138.186 139.449L137.814 139.527Z" fill="#FCFDFE"/>
</g>
<path d="M117.169 153.604C113.925 184.813 130.148 176.282 143.654 180.971C156.97 205.968 155.992 227.624 129.949 243.397L103.793 236.329C93.9723 234.728 82.733 230.367 84.9134 217.293C87.3793 202.507 91.991 193.474 76.0448 184.224C60.1073 174.975 54.44 160.811 62.9971 146.44C71.9955 131.316 57.7106 107.868 71.2168 98.6014C94.7337 82.4562 120.544 121.106 117.169 153.604Z" fill="#BFC8D6"/>
<mask id="mask1_2540_4098" style="mask-type:luminance" maskUnits="userSpaceOnUse" x="59" y="94" width="94" height="150">
<path d="M117.169 153.604C113.925 184.813 130.148 176.282 143.654 180.971C156.97 205.968 155.992 227.624 129.949 243.397L103.793 236.329C93.9723 234.728 82.733 230.367 84.9134 217.293C87.3793 202.507 91.991 193.474 76.0448 184.224C60.1073 174.975 54.44 160.811 62.9971 146.44C71.9955 131.316 57.7106 107.868 71.2168 98.6014C94.7337 82.4562 120.544 121.106 117.169 153.604Z" fill="white"/>
</mask>
<g mask="url(#mask1_2540_4098)">
<path d="M117.308 210.147C107.608 196.701 99.5445 182.079 93.3495 166.678C87.1025 151.147 82.8283 135.036 80.6652 118.787C79.4193 109.469 78.8742 100.064 79.0299 90.823L79.4366 90.8317C79.2808 100.046 79.8259 109.434 81.0632 118.735C83.2263 134.95 87.4832 151.026 93.7215 166.531C99.9079 181.897 107.955 196.493 117.636 209.913L117.308 210.147Z" fill="#FCFDFE"/>
<path d="M86.6785 223.947L86.5401 223.567C91.7747 221.62 97.8313 220.331 104.546 219.742C107.747 219.457 110.896 219.396 113.916 219.543L113.899 219.95C110.896 219.794 107.764 219.863 104.58 220.149C97.9092 220.737 91.8786 222.009 86.6785 223.947Z" fill="#FCFDFE"/>
<path d="M97.5026 176.178C85.3028 161.287 55.9023 159.116 55.6082 159.098L55.6341 158.692C55.9283 158.709 85.5018 160.898 97.814 175.918L97.5026 176.178Z" fill="#FCFDFE"/>
<path d="M84.576 139.509C82.9234 117.827 101.656 95.1578 101.846 94.9329L102.157 95.1924C101.967 95.4174 83.3387 117.965 84.9827 139.484L84.576 139.509Z" fill="#FCFDFE"/>
</g>
<path d="M279.625 240.413L52.7096 238.544V244.073C52.7096 245.569 53.696 246.85 55.0371 247.075L119.202 257.959C119.964 258.089 120.734 258.124 121.504 258.063L277.159 245.656C278.552 245.543 279.625 244.263 279.625 242.723V240.413Z" fill="url(#paint0_linear_2540_4098)"/>
<path d="M197.281 231.457L55.0544 241.563C52.5106 241.745 50.4427 239.824 50.4427 237.272V135.002C50.4427 132.449 52.5106 130.381 55.0544 130.381H197.281C199.375 130.381 201.07 132.25 201.07 134.56V227.01C201.07 229.312 199.375 231.31 197.281 231.457Z" fill="url(#paint1_linear_2540_4098)"/>
<path d="M199.548 231.457L57.3213 241.563C54.7775 241.745 52.7096 239.824 52.7096 237.272V135.002C52.7096 132.449 54.7775 130.381 57.3213 130.381H199.548C201.641 130.381 203.337 132.25 203.337 134.56V227.01C203.337 229.312 201.641 231.31 199.548 231.457Z" fill="url(#paint2_linear_2540_4098)"/>
<path d="M198.241 139.743V221.3C198.241 223.195 196.839 224.83 195.109 224.942L168.607 226.699L72.705 233.058L62.6424 233.724C60.5745 233.863 58.8873 232.28 58.8873 230.194V140.66C58.8873 138.575 60.5745 136.879 62.6424 136.871L112.843 136.663L129.862 136.594L143.42 136.542L155.343 136.49L195.118 136.326C196.848 136.308 198.241 137.84 198.241 139.743Z" fill="white"/>
<path d="M133.453 133.176C133.453 134.128 132.717 134.898 131.818 134.898C130.909 134.898 130.182 134.128 130.182 133.176C130.182 132.224 130.918 131.454 131.818 131.454C132.726 131.454 133.453 132.224 133.453 133.176Z" fill="white"/>
<path d="M205.215 230.999L52.7096 241.641L119.202 252.915C119.964 253.045 120.734 253.08 121.504 253.019L279.625 240.413L207.638 231.068C206.833 230.964 206.02 230.938 205.215 230.999Z" fill="url(#paint3_linear_2540_4098)"/>
<path opacity="0.3" d="M74.9547 241.909L201.927 232.92L241.226 237.973L115.352 247.585L74.9547 241.909Z" fill="url(#paint4_linear_2540_4098)"/>
<path d="M131.904 210.9C147.004 210.9 159.245 198.659 159.245 183.559C159.245 168.458 147.004 156.217 131.904 156.217C116.804 156.217 104.563 168.458 104.563 183.559C104.563 198.659 116.804 210.9 131.904 210.9Z" fill="#30CA4C"/>
<path d="M118.458 189.797C118.164 189.797 117.887 189.624 117.775 189.338C117.005 187.426 116.607 185.393 116.607 183.316C116.607 174.439 123.831 167.214 132.709 167.214C137.796 167.214 142.642 169.663 145.67 173.755C145.912 174.084 145.843 174.543 145.514 174.785C145.185 175.027 144.727 174.958 144.485 174.629C141.733 170.909 137.329 168.685 132.709 168.685C124.645 168.685 118.078 175.244 118.078 183.316C118.078 185.211 118.432 187.054 119.133 188.793C119.289 189.174 119.107 189.598 118.727 189.754C118.649 189.78 118.554 189.797 118.458 189.797Z" fill="white"/>
<path d="M142.763 175.062C142.365 175.062 142.036 174.759 142.027 174.353C142.019 173.946 142.339 173.617 142.746 173.609L144.588 173.574L144.9 171.705C144.969 171.307 145.35 171.039 145.748 171.099C146.146 171.169 146.423 171.549 146.354 171.947L145.938 174.422C145.878 174.768 145.583 175.01 145.229 175.019L142.78 175.053C142.771 175.062 142.771 175.062 142.763 175.062Z" fill="white"/>
<path d="M132.717 199.409C127.742 199.409 123.122 197.16 120.042 193.24C119.791 192.92 119.843 192.453 120.163 192.202C120.483 191.951 120.95 192.003 121.201 192.323C123.996 195.888 128.192 197.93 132.717 197.93C140.781 197.93 147.348 191.371 147.348 183.299C147.348 181.646 147.072 180.019 146.535 178.471C146.397 178.09 146.604 177.666 146.985 177.536C147.366 177.406 147.79 177.605 147.919 177.986C148.516 179.691 148.819 181.482 148.819 183.299C148.819 192.185 141.595 199.409 132.717 199.409Z" fill="white"/>
<path d="M119.756 195.429C119.704 195.429 119.661 195.421 119.609 195.412C119.211 195.334 118.952 194.945 119.029 194.547L119.514 192.133C119.583 191.787 119.886 191.536 120.232 191.536H120.241L122.75 191.57C123.157 191.579 123.485 191.908 123.477 192.323C123.468 192.73 123.139 193.058 122.733 193.05L120.838 193.032L120.474 194.841C120.414 195.187 120.102 195.429 119.756 195.429Z" fill="white"/>
<path d="M131.212 191.095C130.978 191.095 130.745 191.034 130.537 190.904L125.614 187.885C125 187.513 124.809 186.708 125.19 186.102C125.562 185.497 126.367 185.298 126.972 185.678L130.952 188.118L139.899 177.666C140.366 177.121 141.179 177.061 141.725 177.528C142.27 177.995 142.33 178.808 141.863 179.354L132.19 190.645C131.947 190.939 131.584 191.095 131.212 191.095Z" fill="white"/>
<path d="M94.5694 199.288C95.7634 198.509 94.6732 196.251 94.6127 191.406C94.5348 185.462 96.1095 184.354 94.8463 182.027C93.2975 179.18 89.3953 177.995 86.8083 177.943C86.2372 177.934 86.1074 177.623 81.3314 178.86C72.7224 181.092 70.5679 178.696 66.7177 181.084C62.9972 183.385 64.6238 185.912 61.0072 188.62C55.1496 193.007 48.9805 188.265 44.7928 191.934C40.83 195.403 40.7435 204.237 44.9052 209.057C49.6294 214.525 58.1519 212.881 63.8538 211.799C65.0564 211.574 71.1217 210.294 77.4379 205.63C80.9334 203.052 83.3301 200.292 84.8615 198.267C85.2163 197.86 85.7787 197.376 86.5141 197.298C87.3966 197.203 88.1148 197.748 88.4522 197.982C90.2606 199.228 93.3927 200.05 94.5694 199.288Z" fill="#262633"/>
<path d="M89.7586 196.035C91.2988 194.633 96.793 197.333 100.427 200.923C104.701 205.137 104.372 208.555 108.11 213.789C109.962 216.394 113.146 219.898 118.778 222.961C118.38 223.956 117.982 224.959 117.584 225.955C114.859 226.119 109.512 226.024 104.519 222.762C101.05 220.495 99.2675 217.501 95.8412 211.592C92.4062 205.665 87.8378 197.791 89.7586 196.035Z" fill="#30CA4C"/>
<path d="M124.446 276.181L120.154 273.603H118.216C118.216 273.603 117.558 276.06 117.628 276.181C118.493 277.591 122.508 278.664 125.008 278.759C125.423 278.777 126.003 278.777 126.15 278.474C126.418 277.963 125.285 276.89 124.446 276.181Z" fill="#30CA4C"/>
<path d="M120.085 270.791C119.808 272.383 120.154 273.213 120.535 273.681C120.803 274.009 121.037 274.105 122.603 275.454C123.122 275.904 123.39 276.147 123.329 276.268C123.26 276.415 122.802 276.337 121.815 276.095C119.661 275.575 118.579 275.307 118.311 274.788C118.069 274.321 118.285 274.105 118.268 272.824C118.259 271.985 118.086 271.301 117.956 270.877C118.657 270.86 119.375 270.825 120.085 270.791Z" fill="#D8DEE8"/>
<path d="M123.182 258.15C123.182 258.15 125.121 260.46 124.8 262.995C124.489 265.53 121.097 261.827 120.621 260.572C120.145 259.318 119.592 257.535 119.592 257.535C119.592 257.535 121.98 256.056 123.182 258.15Z" fill="#30CA4C"/>
<path d="M122.447 254.533C122.447 254.533 121.919 257.224 122.923 258.643C123.425 259.352 124.1 259.949 123.901 260.529C123.771 260.918 123.26 261.195 122.836 261.152C122.023 261.065 121.564 259.82 121.244 258.928C120.768 257.622 120.509 254.827 120.509 254.827L122.447 254.533Z" fill="#D8DEE8"/>
<path d="M120.898 256.809C121.495 256.592 122.092 256.376 122.689 256.16C123.615 254.04 124.748 250.553 124.376 246.313C123.399 235.412 113.319 229.64 112.203 229.026C109.46 230.402 106.674 232.349 106.57 234.797C106.44 237.877 110.637 239.495 114.573 243.995C116.935 246.694 119.462 250.717 120.898 256.809Z" fill="#262633"/>
<path d="M120.258 272.037C122.222 264.345 121.72 258.072 121.158 254.464C120.301 249.004 118.553 237.886 111.138 233.742C109.52 232.833 107.202 232.028 104.381 229.511C102.028 227.408 100.522 225.202 99.6222 223.644C89.6981 220.737 80.5526 221.914 76.512 227.235C76.0448 227.849 74.8767 229.182 74.6517 231.155C74.1412 235.593 78.502 240.932 83.3905 242.048C89.6115 243.467 93.2109 237.081 98.7224 239.201C100.263 239.798 101.569 241.269 104.182 244.211C107.504 247.957 109.373 251.41 110.083 252.794C112.185 256.912 113.786 259.949 114.02 263.895C114.072 264.812 114.106 266.664 115.179 268.671C116.001 270.202 117.126 271.232 117.956 271.864C118.718 271.924 119.488 271.985 120.258 272.037Z" fill="#323245"/>
<path d="M115.118 237.185C113.994 237.125 112.263 237.09 110.178 237.298C100.28 238.275 97.5457 243.173 89.3693 244.367C87.4311 244.652 78.8135 245.907 75.0843 240.923C72.4021 237.35 72.8088 231.18 75.7419 228.758C76.9792 227.728 78.2078 227.763 86.1593 227.832C89.153 227.858 92.1466 227.867 95.1317 227.91C107.799 228.074 110.221 227.192 112.523 229.286C113.596 230.263 115.162 232.366 115.118 237.185Z" fill="#262633"/>
<path d="M88.3829 196.545C88.3829 196.545 73.6048 192.236 72.0734 203.052C70.6025 213.417 78.13 218.176 74.7037 228.68C74.3056 229.9 102.832 224.319 102.832 224.319C99.0252 219.569 98.1427 215.65 98.0475 212.924C97.9437 209.939 98.8089 208.581 98.0475 205.051C98.0475 205.051 97.1996 201.114 94.1367 197.722C93.6954 197.246 93.1676 196.744 88.3829 196.545Z" fill="#30CA4C"/>
<path d="M85.1731 190.065C85.3115 190.697 85.995 194.088 84.6107 194.962C84.3078 195.152 83.7281 195.256 82.5774 195.473C81.816 195.611 81.1844 195.698 80.7344 195.758C80.795 196.329 80.994 197.255 81.6516 198.094C83.4945 200.456 87.1804 199.842 87.7082 199.747C89.5684 199.409 91.3941 198.838 91.8353 198.484C92.5102 197.947 93.038 197.549 93.3495 197.143C92.6313 196.796 91.1778 195.879 90.2087 195.576C89.4819 195.351 88.7984 195.196 88.1754 195.075C88.0716 194.417 87.9678 193.759 87.8726 193.111C86.9641 192.107 86.0643 191.086 85.1731 190.065Z" fill="white"/>
<path d="M85.1038 191.752C85.1038 191.752 85.3547 194.235 87.7687 194.677C89.9318 195.066 91.5671 189.84 90.4509 188.481C90.0789 188.032 89.1704 187.599 88.3744 187.625C87.8206 187.642 85.9431 188.36 85.6749 190.238C85.3028 189.84 84.8356 189.727 84.602 189.892C84.3078 190.099 84.4635 190.714 84.4981 190.852C84.6452 191.337 84.9567 191.631 85.1038 191.752Z" fill="white"/>
<path d="M105.843 225.548L83.2263 226.646C82.9148 226.664 82.6293 226.828 82.4649 227.096L81.8419 228.1C81.5305 228.602 81.9025 229.242 82.4909 229.225L106.449 228.316L105.843 225.548Z" fill="#9CA5B3"/>
<path d="M129.369 212.95L105.999 213.4C105.307 213.417 104.675 213.789 104.329 214.395L96.2394 228.628L120.916 227.642C121.591 227.616 122.214 227.244 122.56 226.664L130.053 214.135C130.381 213.616 129.992 212.933 129.369 212.95Z" fill="#BFC8D6"/>
<path opacity="0.3" d="M104.338 214.395C104.675 213.798 105.316 213.417 106.008 213.4L106.518 213.391C106.596 214.144 106.83 214.836 107.288 215.39C108.733 217.129 111.121 216.056 112.904 217.899C114.868 219.924 113.051 222.329 114.807 224.206C116.65 226.188 119.635 224.579 123.061 225.842L122.568 226.664C122.222 227.243 121.599 227.615 120.924 227.641L96.248 228.628L104.338 214.395Z" fill="#BFC8D6"/>
<path d="M85.0691 224.786C85.3633 224.008 85.6574 223.229 85.9516 222.45C82.6984 221.559 78.1992 220.244 73.5788 218.591C72.8521 218.332 71.9955 218.012 71.7186 217.25C70.9312 215.113 75.9496 212.907 77.8963 208.243C79.696 203.934 78.7097 197.956 76.6158 197.246C72.255 195.775 56.8107 215.009 62.3309 223.116C65.4457 227.711 75.067 228.438 85.0691 224.786Z" fill="#30CA4C"/>
<path d="M85.9516 222.459C87.9936 221.377 90.4422 222.485 90.5979 222.563C91.0478 222.77 91.6967 223.151 92.363 223.826C92.4408 223.93 93.3234 225.158 93.0032 225.548C92.7437 225.859 91.74 225.6 90.5373 224.856C90.0355 224.786 89.2828 224.717 88.3829 224.804C86.7303 224.959 85.9689 225.479 85.3719 225.029C84.9307 224.7 84.7836 223.999 84.9393 223.48C85.1037 222.917 85.6055 222.641 85.9516 222.459Z" fill="white"/>
<path d="M194.166 160.327C199.98 157.489 211.315 167.768 216.835 177.623C219.033 181.551 221.611 186.154 220.979 191.631C219.855 201.339 209.082 209.861 194.252 212.708C193.837 211.22 193.422 209.723 192.998 208.235C194.616 206.547 197.047 204.108 200.145 201.313C204.903 197.021 205.881 196.736 206.115 195.377C206.859 190.939 195.455 187.227 191.397 179.423C187.91 172.717 189.701 162.507 194.166 160.327Z" fill="#28B842"/>
<path d="M201.806 238.388C201.806 238.388 200.854 240.741 201.33 241.667C201.832 242.636 203.268 242.351 207.326 242.498C211.479 242.654 212.422 242.991 212.587 242.567C212.915 241.736 209.688 239.089 205.916 238.388C204.246 238.077 202.801 238.206 201.806 238.388Z" fill="#30CA4C"/>
<path d="M202.662 234.866L204.921 238.388C204.921 238.388 203.882 239.418 202.109 239.028L199.626 235.697L202.662 234.866Z" fill="#D8DEE8"/>
<path d="M198.137 162.429C197.886 172.596 198.025 183.584 198.76 195.291C199.703 210.233 201.46 223.956 203.614 236.285C202.654 236.588 201.702 236.891 200.742 237.194C190.904 227.607 187.962 219.18 187.158 213.115C186.587 208.832 187.452 208.46 186.682 203.095C185.219 192.877 181.395 189.381 178.722 179.821C177.718 176.23 176.593 170.805 176.662 163.736C183.826 163.303 190.982 162.871 198.137 162.429Z" fill="#30CA4C"/>
<path d="M205.18 144.225C204.999 144.268 204.229 144.528 203.917 147.764C203.182 155.577 207.248 158.735 206.245 162.975C205.284 167.041 200.378 169.014 195.334 171.039C191.96 172.397 181.534 176.593 175.468 171.869C172.916 169.879 172.639 167.482 170.813 158.674C166.184 136.282 164.393 134.361 166.34 129.516C169.68 121.193 178.626 117.749 180.115 117.169C195.983 111.052 214.732 122.292 222.139 135.209C223.117 136.914 228.94 147.063 224.847 151.882C222.372 154.798 216.679 155.265 212.924 153.275C207.914 150.619 206.85 143.836 205.18 144.225Z" fill="#262633"/>
<path d="M222.528 150.143C222.58 150.143 222.632 150.135 222.675 150.109C222.857 150.031 222.935 149.815 222.848 149.633C222.71 149.339 219.439 142.304 211.869 139.527C211.687 139.458 211.479 139.553 211.41 139.743C211.341 139.925 211.436 140.133 211.626 140.202C218.911 142.867 222.173 149.858 222.208 149.927C222.26 150.065 222.39 150.143 222.528 150.143Z" fill="#4D4D56"/>
<path d="M192.808 142.114C192.851 141.794 193.18 139.561 195.04 138.843C195.966 138.489 197.592 138.385 198.233 139.406C198.631 140.046 198.596 141.058 198.077 141.56C197.419 142.192 196.554 141.439 195.369 141.958C193.941 142.581 193.707 144.303 193.214 144.19C192.816 144.095 192.695 142.97 192.808 142.114Z" fill="url(#paint5_linear_2540_4098)"/>
<path d="M192.686 140.011C192.262 140.401 187.46 145.557 182.234 144.251C177.683 143.117 174.889 138.688 174.404 134.967C173.245 126.116 184.77 118.692 183.351 116.901C182.511 115.845 178.064 117.801 174.941 119.765C172.379 121.374 161.659 128.114 161.945 139.406C161.971 140.556 162.161 147.816 166.963 151.441C173.461 156.338 183.498 156.208 194.218 144.372C193.629 142.685 193.283 141.707 192.686 140.011Z" fill="#3A3A48"/>
<path d="M216.134 129.17L210.96 145.687C210.787 146.232 210.294 146.604 209.731 146.622L202.974 147.608C202.1 147.643 201.434 146.838 201.616 145.99L206.175 129.084C206.305 128.487 206.824 128.045 207.439 128.028L214.81 127.431C215.736 127.405 216.402 128.288 216.134 129.17Z" fill="#9CA5B2"/>
<path d="M215.883 129.715L210.865 145.739C210.7 146.267 210.225 146.63 209.671 146.648L203.727 147.599C202.879 147.625 202.23 146.855 202.412 146.025L206.867 129.611C206.997 129.032 207.499 128.608 208.096 128.59L214.603 128.028C215.494 128.002 216.151 128.859 215.883 129.715Z" fill="#BFC8D6"/>
<path d="M196.485 115.577C196.191 116.616 196.814 117.697 197.86 117.948C199.132 118.251 200.681 118.675 201.347 119.064C202.576 119.765 197.61 118.952 193.041 118.848C190.186 118.779 188.057 118.459 186.863 118.234C186.543 118.173 186.517 117.723 186.829 117.619C187.971 117.247 189.822 116.702 191.397 116.503C193.335 116.261 195.421 111.978 195.421 111.978L197.082 113.492L196.485 115.577Z" fill="#CAD0DB"/>
<path d="M213.011 140.937L212.699 140.418C212.422 139.345 211.393 138.644 210.294 138.783L208.633 138.99C208.113 139.051 207.759 139.544 207.871 140.063C208.027 140.807 208.425 141.69 209.446 141.621C211.176 141.508 212.284 144.026 212.284 144.026L212.95 143.092C213.391 142.451 213.417 141.603 213.011 140.937Z" fill="url(#paint6_linear_2540_4098)"/>
<path d="M200.197 113.38C201.633 113.163 203.242 111.961 203.208 110.966C203.164 109.599 200.032 108.846 198.449 108.465C196.865 108.084 196.191 108.223 195.732 108.569C195.265 108.924 194.962 109.555 194.867 110.1C194.815 110.395 194.806 110.81 194.858 111.623C194.901 112.35 194.893 112.315 194.91 112.532C194.953 113.042 195.092 113.951 195.594 115.197C195.801 114.972 196.078 114.695 196.424 114.427C196.554 114.323 197.09 113.925 197.687 113.682C198.734 113.258 199.323 113.509 200.197 113.38Z" fill="#262633"/>
<path d="M194.832 113.795C194.832 113.795 194.927 115.794 196.805 116.668C198.492 117.455 200.733 113.933 200.11 112.584C199.902 112.134 199.271 111.649 198.613 111.493C198.233 111.407 198.042 111.485 197.411 111.32C196.831 111.173 196.718 111.044 196.502 111.087C196.225 111.139 195.87 111.459 195.602 112.705C195.464 112.22 195.161 111.891 194.824 111.874C194.772 111.874 194.616 111.883 194.495 111.969C194.045 112.272 194.14 113.008 194.832 113.795Z" fill="#D8DEE8"/>
<path d="M272.435 166.859V252.232C272.435 253.512 271.396 253.875 270.22 254.014L228.464 259.846L227.806 259.923C226.465 260.088 225.357 259.093 225.357 257.726V166.072C225.357 164.705 226.465 163.606 227.806 163.632L228.697 163.649L270.583 166.427C271.76 166.444 272.435 165.587 272.435 166.859Z" fill="url(#paint7_linear_2540_4098)"/>
<path d="M273.681 166.842V252.128C273.681 253.4 272.72 254.559 271.543 254.706L229.147 259.811C227.806 259.975 226.707 258.989 226.707 257.613V166.046C226.707 164.679 227.806 163.58 229.147 163.606L271.543 164.471C272.729 164.497 273.681 165.562 273.681 166.842Z" fill="url(#paint8_linear_2540_4098)"/>
<path d="M272.357 171.558V250.648C272.357 251.842 271.457 252.924 270.358 253.054L230.497 257.743C229.251 257.89 228.23 256.964 228.23 255.693V171.142C228.23 169.87 229.251 168.841 230.497 168.858L270.358 169.369C271.466 169.377 272.357 170.364 272.357 171.558Z" fill="#EEEFEF"/>
<path d="M267.581 209.749C267.581 218.401 260.832 225.877 252.361 226.456C243.735 227.045 236.623 220.279 236.623 211.332C236.623 202.386 243.735 194.893 252.361 194.599C260.823 194.313 267.581 201.096 267.581 209.749Z" fill="white"/>
<path d="M138.091 243.64L150.723 241.122L152.644 240.741C152.644 240.741 152.834 241.157 153.197 241.944C153.371 242.342 153.613 242.818 153.89 243.372C154.158 243.943 154.513 244.566 154.893 245.275C155.681 246.677 156.684 248.373 157.999 250.224C159.306 252.067 160.898 254.083 162.827 256.125C164.757 258.167 167.007 260.235 169.585 262.199C170.891 263.16 172.241 264.137 173.703 265.028C173.885 265.141 174.067 265.262 174.249 265.375C174.43 265.487 174.621 265.591 174.811 265.703C175.183 265.92 175.564 266.136 175.936 266.361C176.706 266.768 177.476 267.209 178.28 267.59C181.473 269.19 184.951 270.514 188.603 271.5C190.428 271.985 192.306 272.374 194.209 272.694L195.646 272.893C195.879 272.928 196.13 272.963 196.355 272.989L197.056 273.058L197.757 273.136C197.99 273.162 198.215 273.188 198.484 273.205L200.041 273.309L200.24 273.326L200.335 273.43L200.361 273.525H200.387L200.725 273.447L201.46 273.421C201.944 273.438 202.438 273.438 202.922 273.43L204.384 273.413C204.869 273.395 205.362 273.369 205.847 273.352C207.793 273.257 209.732 273.084 211.635 272.79L212.353 272.686L213.063 272.556C213.539 272.469 214.014 272.392 214.482 272.296C215.416 272.089 216.359 271.898 217.276 271.647C218.202 271.431 219.102 271.146 220.01 270.886C220.46 270.748 220.902 270.592 221.352 270.445C221.577 270.376 221.793 270.298 222.018 270.228C222.234 270.151 222.45 270.064 222.667 269.986C224.423 269.363 226.102 268.628 227.728 267.866C228.533 267.468 229.338 267.088 230.108 266.655C230.895 266.248 231.639 265.807 232.383 265.375C235.342 263.618 237.99 261.68 240.3 259.733C242.619 257.778 244.592 255.805 246.236 253.954C247.888 252.102 249.195 250.38 250.242 248.927C250.752 248.191 251.219 247.542 251.583 246.962C251.955 246.383 252.284 245.898 252.526 245.474C252.656 245.258 252.768 245.068 252.872 244.903C253.08 244.557 253.495 244.401 253.876 244.523C253.927 244.54 253.979 244.557 254.031 244.583L254.092 244.618C254.499 244.834 254.663 245.336 254.464 245.76C254.386 245.933 254.282 246.132 254.178 246.365C253.979 246.807 253.685 247.352 253.348 247.992C253.019 248.641 252.604 249.359 252.145 250.164C251.211 251.764 250.017 253.677 248.477 255.779C246.936 257.873 245.068 260.14 242.809 262.441C240.551 264.734 237.938 267.07 234.936 269.259C234.174 269.796 233.422 270.358 232.617 270.869C231.829 271.405 230.999 271.907 230.16 272.417C228.472 273.413 226.716 274.382 224.864 275.247C224.631 275.359 224.406 275.472 224.172 275.576C223.939 275.679 223.705 275.783 223.463 275.887C222.987 276.095 222.52 276.311 222.035 276.51C221.066 276.891 220.097 277.297 219.102 277.635C218.116 278.007 217.095 278.318 216.074 278.647C215.563 278.803 215.044 278.941 214.525 279.088L213.746 279.305L212.959 279.495C210.856 280.032 208.702 280.43 206.53 280.741C205.985 280.81 205.44 280.888 204.895 280.957L203.251 281.122C202.697 281.182 202.152 281.208 201.598 281.243L200.768 281.295L200.352 281.321L199.885 281.329L198.328 281.373C198.077 281.39 197.783 281.381 197.497 281.381L196.641 281.373L195.784 281.364C195.499 281.364 195.23 281.338 194.945 281.329C194.391 281.303 193.837 281.277 193.284 281.251C191.069 281.096 188.862 280.845 186.69 280.481C182.347 279.746 178.116 278.578 174.171 277.055C173.176 276.692 172.215 276.259 171.255 275.861C170.779 275.645 170.312 275.429 169.844 275.212C169.611 275.1 169.377 274.996 169.144 274.883C168.91 274.771 168.685 274.65 168.46 274.537C166.617 273.637 164.887 272.634 163.208 271.621C159.886 269.554 156.918 267.304 154.331 265.046C151.744 262.788 149.546 260.495 147.712 258.366C145.878 256.238 144.424 254.256 143.265 252.586C142.694 251.747 142.183 250.994 141.776 250.328C141.361 249.662 140.998 249.091 140.73 248.615C140.176 247.646 138.091 243.64 138.091 243.64Z" fill="#30CA4C"/>
<path d="M150.697 241.685C150.688 241.494 150.697 241.304 150.723 241.122L152.644 240.741C152.644 240.741 152.834 241.157 153.197 241.944C153.371 242.342 153.613 242.818 153.89 243.372C154.158 243.943 154.513 244.566 154.893 245.275C155.681 246.677 156.684 248.373 158 250.224C159.306 252.067 160.898 254.083 162.827 256.125C164.757 258.167 167.007 260.235 169.585 262.199C170.891 263.16 172.241 264.137 173.703 265.028C173.885 265.141 174.067 265.262 174.249 265.375C174.43 265.487 174.621 265.591 174.811 265.703C175.183 265.92 175.564 266.136 175.936 266.361C176.706 266.768 177.476 267.209 178.28 267.59C181.473 269.19 184.951 270.514 188.603 271.5C190.428 271.985 192.306 272.374 194.209 272.694L195.646 272.893C195.879 272.928 196.13 272.963 196.355 272.989L197.056 273.058L197.757 273.136C197.99 273.162 198.215 273.188 198.484 273.205L200.041 273.309L200.24 273.326L200.335 273.43L200.361 273.525H200.387L200.725 273.447L201.46 273.421C201.944 273.438 202.438 273.438 202.922 273.43L204.384 273.413C204.869 273.395 205.362 273.369 205.847 273.352C207.793 273.257 209.732 273.084 211.635 272.79L212.353 272.686L213.063 272.556C213.539 272.469 214.014 272.392 214.482 272.296C215.416 272.089 216.359 271.898 217.276 271.647C218.202 271.431 219.102 271.146 220.01 270.886C220.46 270.748 220.902 270.592 221.352 270.445C221.577 270.376 221.793 270.298 222.018 270.228C222.234 270.151 222.45 270.064 222.667 269.986C224.423 269.363 226.102 268.628 227.728 267.866C228.533 267.468 229.338 267.088 230.108 266.655C230.895 266.248 231.639 265.807 232.383 265.375C235.342 263.618 237.99 261.68 240.3 259.733C242.619 257.778 244.592 255.805 246.236 253.954C247.888 252.102 249.195 250.38 250.242 248.927C250.752 248.191 251.219 247.542 251.583 246.962C251.955 246.383 252.284 245.898 252.526 245.474C252.656 245.258 252.768 245.068 252.872 244.903C253.08 244.557 253.495 244.401 253.876 244.523C250.501 249.991 234.624 273.404 208.538 275.264C178.99 277.358 151.303 257.873 150.697 241.685Z" fill="#1D8F31"/>
<path d="M132.83 243.657L142.339 216.472L162.611 246.037L132.83 243.657Z" fill="url(#paint9_linear_2540_4098)"/>
<path d="M132.83 243.657L142.339 216.472L162.611 246.037L132.83 243.657Z" fill="#1D8F31"/>
<path d="M131.004 243.657L142.14 216.472L160.777 245.889L131.004 243.657Z" fill="#30CA4C"/>
<path d="M254.534 202.781L260.592 210.732C261.262 211.606 261.087 212.858 260.213 213.528L252.262 219.586C251.388 220.256 250.136 220.081 249.466 219.207L243.408 211.285C242.738 210.412 242.913 209.159 243.787 208.489L251.738 202.431C252.612 201.732 253.864 201.907 254.534 202.781Z" fill="#F8444F"/>
<path d="M254.067 204.295L259.048 210.79C259.601 211.518 259.456 212.538 258.757 213.062L252.262 218.042C251.534 218.596 250.514 218.45 249.99 217.751L245.01 211.256C244.456 210.528 244.602 209.509 245.301 208.984L251.796 204.004C252.495 203.421 253.514 203.567 254.067 204.295Z" fill="white"/>
<path fill-rule="evenodd" clip-rule="evenodd" d="M253.991 204.353C253.469 203.665 252.511 203.532 251.857 204.077L251.855 204.079L245.358 209.061C244.703 209.553 244.564 210.511 245.086 211.198C245.086 211.198 245.086 211.198 245.086 211.198L250.066 217.694C250.558 218.349 251.517 218.488 252.204 217.966C252.204 217.966 252.204 217.966 252.204 217.966L258.698 212.986L258.699 212.985C259.355 212.494 259.494 211.535 258.972 210.848L253.992 204.353L253.991 204.353ZM254.143 204.237C253.56 203.469 252.479 203.311 251.736 203.929L245.243 208.908C245.243 208.908 245.243 208.908 245.243 208.908C244.501 209.465 244.349 210.545 244.933 211.314L244.934 211.314L249.913 217.808C249.914 217.809 249.914 217.809 249.914 217.809C250.471 218.551 251.55 218.703 252.32 218.118L258.814 213.138C258.814 213.138 258.814 213.138 258.815 213.138C259.557 212.581 259.709 211.502 259.124 210.732L259.124 210.732L254.144 204.237C254.144 204.237 254.144 204.237 254.143 204.237Z" fill="white"/>
<path d="M252.525 213.965C252.379 215.13 250.573 214.897 250.748 213.732C250.894 212.538 252.67 212.771 252.525 213.965ZM253.282 207.383L252.583 212.334L251.068 212.13C251.301 210.47 251.476 208.839 251.709 207.179L253.282 207.383Z" fill="#212531"/>
</g>
<defs>
<linearGradient id="paint0_linear_2540_4098" x1="148.583" y1="249.033" x2="132.651" y2="255.725" gradientUnits="userSpaceOnUse">
<stop stop-color="#40447E"/>
<stop offset="0.9964" stop-color="#3C3B6B"/>
</linearGradient>
<linearGradient id="paint1_linear_2540_4098" x1="122.752" y1="182.259" x2="106.476" y2="189.095" gradientUnits="userSpaceOnUse">
<stop stop-color="#40447E"/>
<stop offset="0.9964" stop-color="#3C3B6B"/>
</linearGradient>
<linearGradient id="paint2_linear_2540_4098" x1="52.7053" y1="185.979" x2="203.337" y2="185.979" gradientUnits="userSpaceOnUse">
<stop stop-color="#40447E"/>
<stop offset="0.9964" stop-color="#3C3B6B"/>
</linearGradient>
<linearGradient id="paint3_linear_2540_4098" x1="52.7053" y1="242.008" x2="279.626" y2="242.008" gradientUnits="userSpaceOnUse">
<stop stop-color="#40447E"/>
<stop offset="0.9964" stop-color="#3C3B6B"/>
</linearGradient>
<linearGradient id="paint4_linear_2540_4098" x1="74.9588" y1="240.251" x2="241.222" y2="240.251" gradientUnits="userSpaceOnUse">
<stop stop-color="#40447E"/>
<stop offset="0.9964" stop-color="#3C3B6B"/>
</linearGradient>
<linearGradient id="paint5_linear_2540_4098" x1="191.761" y1="135.206" x2="196.545" y2="143.284" gradientUnits="userSpaceOnUse">
<stop stop-color="#311944"/>
<stop offset="1" stop-color="#A03976"/>
</linearGradient>
<linearGradient id="paint6_linear_2540_4098" x1="213.298" y1="141.395" x2="207.845" y2="141.395" gradientUnits="userSpaceOnUse">
<stop stop-color="#311944"/>
<stop offset="1" stop-color="#A03976"/>
</linearGradient>
<linearGradient id="paint7_linear_2540_4098" x1="281.583" y1="240.454" x2="241.128" y2="205.944" gradientUnits="userSpaceOnUse">
<stop stop-color="#444B8C"/>
<stop offset="0.9964" stop-color="#26264F"/>
</linearGradient>
<linearGradient id="paint8_linear_2540_4098" x1="248.482" y1="255.19" x2="254.308" y2="98.5824" gradientUnits="userSpaceOnUse">
<stop stop-color="#444B8C"/>
<stop offset="0.9964" stop-color="#26264F"/>
</linearGradient>
<linearGradient id="paint9_linear_2540_4098" x1="144.843" y1="286.131" x2="152.684" y2="173.626" gradientUnits="userSpaceOnUse">
<stop offset="0.00359712" stop-color="#E38DDD"/>
<stop offset="1" stop-color="#9571F6"/>
</linearGradient>
<clipPath id="clip0_2540_4098">
<rect width="321" height="321" fill="white"/>
</clipPath>
</defs>
</svg>
